<svg width="266" height="301" viewBox="0 0 266 301" fill="none" xmlns="http://www.w3.org/2000/svg">
<path d="M102.324 225.318C96.9265 226.293 91.6769 227.959 86.7052 230.275C82.0705 232.417 78.3116 236.085 76.0569 240.666C73.8023 245.247 73.1885 250.463 74.3183 255.442C75.2659 259.616 77.346 263.449 80.3299 266.518C83.3138 269.587 87.0861 271.774 91.2322 272.839C93.3435 275.624 96.0656 277.889 99.1892 279.457C102.313 281.026 105.755 281.857 109.25 281.887C112.171 281.888 115.064 281.308 117.76 280.182C120.455 279.056 122.901 277.406 124.954 275.328C127.169 278.126 130.008 280.369 133.244 281.877C133.816 285.075 135.084 288.108 136.959 290.761C139.404 294.177 142.74 296.857 146.603 298.509C150.466 300.161 154.709 300.721 158.868 300.129C163.028 299.537 166.945 297.815 170.194 295.15C173.442 292.486 175.898 288.982 177.293 285.018C179.191 279.602 180.611 274.029 181.539 268.365C184.006 264.785 185.633 260.694 186.299 256.397C187.201 257.257 188.119 258.092 189.054 258.902C193.268 262.556 198.659 264.569 204.237 264.57C207.186 264.567 210.106 263.99 212.835 262.872C216.394 264.998 220.121 266.828 223.98 268.343C226.55 269.36 229.289 269.88 232.052 269.877C236.628 269.838 241.089 268.44 244.869 265.86C248.649 263.281 251.577 259.636 253.281 255.389C263.46 248.091 267.562 235.832 264.25 222.484C262.467 215.299 258.848 208.845 256.29 204.61C251.233 196.349 244.914 188.932 237.561 182.628C241.711 157.281 235.825 131.446 232.673 120.269C226.777 99.4235 218.266 79.4085 207.342 60.7014C201.154 50.0871 192.535 37.0581 179.851 28.2694C178.896 27.208 177.919 26.1997 176.911 25.2125C167.66 16.1904 155.459 10.0022 141.501 7.16823C124.768 0.0943863 106.228 -1.51762 88.5243 2.56191C70.8206 6.64144 54.856 16.2044 42.9054 29.8881C28.3479 46.6587 21.5282 67.7971 23.4918 88.617C17.601 93.0574 12.011 97.8833 6.75839 103.063C3.57028 106.237 1.3915 110.283 0.495841 114.692C-0.399818 119.1 0.0276108 123.676 1.72441 127.842C3.42121 132.009 6.31167 135.581 10.0326 138.11C13.7535 140.638 18.1388 142.011 22.6374 142.055C23.0142 142.055 23.391 142.055 23.7731 142.028H24.1181C23.0329 145.266 22.6711 148.702 23.058 152.095C23.445 155.488 24.5713 158.754 26.3577 161.665C29.0961 166.218 33.374 169.642 38.4174 171.315C43.4608 172.988 48.9366 172.801 53.854 170.788C57.4045 169.344 60.8064 167.773 64.0331 166.144C72.827 182.196 84.6332 196.403 98.8055 207.985C100.691 209.528 102.625 211.028 104.606 212.486C103.831 217.029 103.094 221.2 102.361 225.175L102.324 225.318Z" fill="white"/>
<path d="M145.169 284.965C146.374 286.634 147.961 287.991 149.798 288.922C151.634 289.854 153.666 290.333 155.725 290.32C158.393 290.344 161 289.526 163.176 287.983C165.353 286.439 166.987 284.249 167.846 281.723C169.82 276.058 171.218 270.208 172.018 264.262C176.327 259.486 176.645 253.706 176.836 250.177C176.836 249.715 176.884 249.248 176.921 248.792C177.399 242.667 177.77 236.304 178.068 229.267C183.141 238.321 188.804 245.427 195.581 251.329C197.977 253.405 201.041 254.547 204.211 254.545C207.501 254.556 210.663 253.273 213.015 250.973C217.512 254.29 222.427 257 227.631 259.035C229.03 259.588 230.521 259.87 232.025 259.868C238.065 259.868 243.441 255.474 244.529 249.652C244.575 249.411 244.619 249.17 244.662 248.93C245.526 248.497 246.358 248.002 247.151 247.449C254.167 242.583 256.847 234.367 254.501 224.92C253.047 219.082 249.916 213.51 247.687 209.837C242.427 201.182 235.48 193.534 226.538 186.597C232.376 161.654 226.177 134.322 222.987 123.013C217.323 102.983 209.145 83.7505 198.649 65.775C192.477 55.1926 184.643 43.4479 173.148 35.8852C172.087 34.6645 171.025 33.5235 169.884 32.4249C161.807 24.565 150.969 19.1836 138.476 16.8219C123.623 10.31 107.08 8.70287 91.2505 12.2341C75.4212 15.7653 61.1298 24.2509 50.4521 36.4584C36.42 52.6186 30.598 73.3589 34.2122 93.2023C26.9313 98.2748 20.0942 103.956 13.7744 110.185C11.9759 111.973 10.7519 114.257 10.2594 116.744C9.76675 119.232 10.0279 121.81 11.0094 124.148C11.9395 126.466 13.5407 128.454 15.6076 129.856C17.6745 131.258 20.1131 132.011 22.6108 132.019C22.8231 132.019 23.0407 132.019 23.2582 132.019C29.4075 131.704 35.5293 130.984 41.5838 129.864C39.0152 134.485 36.5721 139.084 34.2547 143.663C33.2713 145.665 32.8124 147.884 32.921 150.111C33.0296 152.339 33.7022 154.503 34.8756 156.4C36.3695 158.933 38.7275 160.841 41.5162 161.774C44.3048 162.707 47.3366 162.602 50.054 161.479C56.359 158.875 62.4675 155.819 68.3318 152.335C76.7374 170.92 89.333 187.307 105.132 200.21C108.433 202.917 111.909 205.486 115.507 207.9C114.334 215.023 113.262 221.195 112.19 227.006C111.988 228.105 111.835 229.187 111.686 230.233C111.534 231.601 111.284 232.956 110.938 234.287C105.227 234.818 98.1474 235.996 90.9456 239.382C88.3849 240.568 86.3086 242.597 85.0636 245.13C83.8185 247.662 83.4801 250.546 84.1047 253.298C84.7468 256.178 86.3433 258.757 88.6351 260.616C90.9268 262.475 93.7795 263.506 96.7304 263.54C96.9427 263.54 97.1567 263.54 97.3725 263.54C97.5105 263.894 97.6662 264.248 97.8396 264.602C98.8746 266.762 100.491 268.591 102.507 269.883C104.524 271.176 106.86 271.881 109.255 271.92C111.131 271.913 112.979 271.473 114.657 270.635C116.335 269.798 117.797 268.585 118.93 267.091L128.594 254.651C128.768 254.428 128.934 254.198 129.093 253.961C131.563 251.772 133.416 248.974 134.469 245.846C136.592 239.573 137.484 232.993 138.365 226.629C138.657 224.506 138.938 222.506 139.251 220.59C142.082 221.733 144.912 222.76 147.743 223.673C149.42 224.204 151.044 224.708 152.631 225.159C152.514 228.105 152.386 230.923 152.254 233.651C152.163 235.402 152.227 237.334 152.291 239.377C152.349 241.213 152.445 244.297 152.291 246.207L146.809 247.37L139.909 248.829L139.729 248.866C136.71 249.526 134.047 251.29 132.263 253.813C130.479 256.336 129.702 259.434 130.086 262.5C130.423 265.648 131.908 268.562 134.258 270.683C136.608 272.805 139.657 273.986 142.823 274.001C143.067 274.001 143.313 274.001 143.561 274.001C142.949 275.826 142.776 277.77 143.056 279.675C143.335 281.58 144.059 283.392 145.169 284.965V284.965Z" fill="black"/>
<path d="M239.142 215.044C233.002 204.891 224.511 197.063 214.99 190.588C222.032 170.182 218.487 143.923 213.36 125.735C207.919 106.522 200.073 88.0738 190.009 70.8273C184.139 60.7438 176.741 49.7845 166.498 43.5221C165.378 42.1527 164.182 40.8469 162.916 39.6107C155.608 32.4991 145.933 28.2534 135.51 26.4702C109.277 14.3912 77.439 20.6748 58.0254 43.0179C43.9987 59.1782 40.0289 79.5204 45.6067 97.6815C36.6542 103.306 28.3418 109.891 20.817 117.318C19.1931 118.91 20.35 122.094 22.7488 121.983C33.8145 121.42 44.7631 119.448 55.3294 116.113C56.4174 117.498 57.569 118.852 58.8003 120.163C53.2596 129.298 48.0568 138.63 43.192 148.158C42.2367 150.042 43.8819 153.146 46.2807 152.175C55.8867 148.275 64.6541 143.079 73.2145 137.427C80.59 158.971 93.8418 178.024 111.474 192.435C116.206 196.304 121.213 199.823 126.456 202.965C125.071 211.583 123.627 220.197 122.046 228.784C121.515 231.586 121.313 234.967 120.374 237.626C118.973 241.606 118.155 242.62 113.772 244.068C107.35 244.551 101.236 245.581 95.1967 248.415C92.283 249.784 94.4112 254.056 97.3195 253.414C101.035 252.586 106.596 252.162 111.787 251.047L107.164 257.034C105.041 259.778 108.873 263.678 111.033 260.903L120.698 248.463C120.926 248.153 121.095 247.804 121.196 247.433C122.946 246.286 124.274 244.6 124.98 242.63C127.549 234.956 128.165 225.807 129.555 217.862C130.263 213.867 130.93 209.869 131.556 205.868C137.71 209.187 144.153 211.941 150.805 214.094C154.568 215.304 158.681 216.477 162.932 217.395C162.755 222.974 162.532 228.554 162.263 234.133C162.035 238.671 163.187 247.454 161.202 251.509C160.257 253.462 158.203 254.768 155.73 255.696L141.974 258.615C138.535 259.411 140 264.618 143.428 263.885C146.978 263.063 152.195 262.654 156.76 261.492C156.077 266.77 154.842 271.962 153.076 276.983C151.914 280.311 157.195 281.76 158.346 278.438C160.506 272.231 161.895 265.782 162.481 259.236C163.075 258.877 163.63 258.458 164.136 257.984C166.87 255.357 166.62 251.615 166.896 248.033C167.66 238.183 168.101 228.29 168.388 218.398C173.495 219.237 178.696 219.355 183.837 218.748C188.39 228.089 194.058 236.761 202.141 243.771C203.393 244.833 205.58 244.88 206.434 243.241C207.997 240.302 209.072 237.13 209.619 233.847C215.234 240.974 222.542 246.282 231.325 249.768C232.62 250.299 234.435 249.2 234.69 247.858C235.158 245.408 235.401 242.921 235.417 240.428C237.184 241.022 239.206 240.799 241.44 239.244C249.656 233.528 242.932 221.28 239.142 215.044ZM211.301 174.64C209.061 174.55 206.88 174.348 204.72 174.057C205.898 175.266 207.007 176.54 208.042 177.872C209.337 179.544 208.754 182.734 206.111 182.537C187.923 181.195 169.056 178.016 153.596 167.677C137.463 156.909 126.7 138.876 115.268 123.628C113.145 120.81 117.922 118.082 119.992 120.868C130.871 135.399 141.029 152.711 156.356 162.975C169.093 171.504 184.24 174.89 199.307 176.466C196.213 173.684 192.69 171.42 188.873 169.763C186.044 168.511 188.13 163.623 190.996 164.764C195.24 166.495 199.666 167.741 204.19 168.479C200.775 165.393 196.975 162.761 192.885 160.651C190.423 159.366 191.643 155.567 194.265 155.556L203.287 155.524C200.036 152.954 196.393 150.922 192.498 149.506C189.218 148.301 190.646 143.015 193.952 144.236C200.917 146.703 207.167 150.848 212.15 156.304C213.742 158.024 212.681 160.964 210.218 160.969H203.701C207.22 163.601 210.426 166.628 213.254 169.991C214.666 171.663 213.849 174.741 211.301 174.64V174.64Z" fill="#FFC533"/>
</svg>
