<svg width="263" height="400" viewBox="0 0 263 400" fill="none" xmlns="http://www.w3.org/2000/svg">
<path d="M254.384 163.677C237.091 172.793 219.244 182.452 201.198 192.469C201.657 195.726 201.888 199.011 201.89 202.301C201.903 209.424 200.815 216.507 198.666 223.298C218.169 242.653 229.199 268.32 229.199 294.975C229.199 352.891 178.298 400 115.725 400C53.1394 400 2.22613 352.891 2.22613 294.975C2.22613 265.331 15.4175 237.638 38.7252 217.789C35.8891 205.324 36.5256 192.32 40.5655 180.191C29.3748 170.186 17.826 160.009 5.46234 149.264C-1.19533 143.482 -1.85007 133.725 3.9549 127.042C8.30284 122.028 14.7995 120.249 20.6417 121.892C22.0979 120.29 23.8602 118.995 25.8246 118.085C27.789 117.175 29.9157 116.668 32.0794 116.593C34.1848 116.5 36.2874 116.832 38.2612 117.571C40.2351 118.309 42.0395 119.439 43.5665 120.891C45.1552 122.388 46.4285 124.187 47.3112 126.183C48.1939 128.179 48.6682 130.332 48.7063 132.514C48.768 136.504 48.8256 140.514 48.8793 144.544C51.0781 146.484 53.2355 148.398 55.3515 150.288C56.3027 146.916 57.7972 143.001 60.0944 138.516C55.0497 125.918 54.1437 112.041 57.5075 98.8941C60.8714 85.7468 68.3306 74.0105 78.8061 65.3832C78.5341 62.6029 78.8626 59.7966 79.7694 57.1544C80.6762 54.5121 82.1401 52.0954 84.062 50.0681C85.9839 48.0407 88.319 46.4499 90.9091 45.4035C93.4993 44.357 96.284 43.8792 99.0749 44.0024C108.907 29.3288 122.617 17.3366 138.477 9.72772C156.609 1.01912 177.557 -1.98235 197.492 1.29087C200.441 1.77341 203.114 3.30834 205.017 5.61122C206.921 7.91411 207.924 10.8288 207.843 13.8152C208.614 16.3119 208.574 18.9887 207.729 21.4612C206.883 23.9337 205.276 26.0745 203.137 27.576C196.455 32.2709 190.65 39.7546 186.327 49.2285C183.375 55.7368 181.249 62.6782 179.336 70.5832C180.435 71.792 181.381 73.132 182.152 74.5726C183.369 76.8285 184.126 79.3038 184.378 81.8546C184.63 84.4055 184.373 86.9811 183.622 89.4317C182.936 91.654 181.861 93.7369 180.447 95.5836C182.386 101.781 183.377 108.235 183.387 114.728C183.39 122.713 181.894 130.628 178.977 138.061C182.608 142.668 186.166 149.486 187.067 159.034C187.858 160.083 188.636 161.146 189.377 162.233C197.073 157.984 204.731 153.784 212.277 149.696C213.051 146.491 213.991 143.328 215.093 140.221C217.885 132.242 225.876 127.795 234.078 129.673C237.091 130.366 239.833 131.935 241.958 134.181C249.283 131.921 257.212 135.108 260.967 142.247C265.117 150.14 262.227 159.552 254.384 163.677Z" fill="white"/>
<path d="M216.06 294.42C216.06 345.592 170.793 387.097 114.939 387.097C59.0838 387.097 13.7916 345.592 13.7916 294.42C13.7916 264.948 28.7892 238.715 52.1576 221.749C49.4219 214.408 48.2184 206.585 48.6211 198.761C49.0239 190.937 51.0244 183.279 54.4995 176.258C55.6015 173.966 56.8584 171.752 58.2613 169.631C63.767 161.236 71.3655 154.085 80.384 148.754C71.7991 139.286 67.0552 126.955 67.0805 114.175C67.0805 85.699 90.175 62.6045 118.651 62.6045C147.151 62.6045 170.245 85.699 170.245 114.175C170.274 126.961 165.52 139.296 156.917 148.755C176.075 160.041 188.756 179.547 188.756 201.745C188.76 210.183 186.906 218.519 183.325 226.16C203.454 243.1 216.06 267.415 216.06 294.42Z" fill="#F4ECE6"/>
<path d="M195.258 16.9143C185.965 23.4416 179.04 33.1576 174.306 43.5462C169.648 53.8105 166.932 64.8233 164.565 75.8585L104.226 57.5225C112.821 41.4786 126.598 28.1998 143.04 20.3025C159.112 12.6438 177.137 10.0711 194.709 12.9281C194.66 13.2413 194.635 13.5579 194.635 13.8749C194.637 14.9196 194.849 15.9532 195.258 16.9143V16.9143Z" fill="#E02C37"/>
<path d="M171.018 85.2755C170.568 86.734 169.662 88.0098 168.433 88.9156C167.205 89.8214 165.718 90.3094 164.191 90.308C163.491 90.3048 162.795 90.2041 162.123 90.0089L95.331 69.7057C93.6969 69.2086 92.296 68.1405 91.3841 66.6963C90.4722 65.252 90.1101 63.528 90.3639 61.839C90.6177 60.1499 91.4705 58.6084 92.7666 57.4959C94.0626 56.3835 95.7155 55.7742 97.4235 55.7793C98.1233 55.7825 98.8193 55.8831 99.4914 56.0781L104.225 57.5231L164.565 75.8576L166.259 76.3807C168.069 76.9311 169.586 78.1766 170.478 79.8441C171.37 81.5117 171.564 83.465 171.018 85.2755V85.2755Z" fill="#F0B11D"/>
<path d="M125.335 50.0968C127.066 50.0968 128.47 48.6929 128.47 46.9612C128.47 45.2294 127.066 43.8256 125.335 43.8256C123.603 43.8256 122.199 45.2294 122.199 46.9612C122.199 48.6929 123.603 50.0968 125.335 50.0968Z" fill="white"/>
<path d="M143.471 36.1461C145.203 36.1461 146.606 34.7422 146.606 33.0105C146.606 31.2787 145.203 29.8749 143.471 29.8749C141.739 29.8749 140.335 31.2787 140.335 33.0105C140.335 34.7422 141.739 36.1461 143.471 36.1461Z" fill="white"/>
<path d="M170.243 33.7971C171.975 33.7971 173.379 32.3932 173.379 30.6615C173.379 28.9297 171.975 27.5259 170.243 27.5259C168.512 27.5259 167.108 28.9297 167.108 30.6615C167.108 32.3932 168.512 33.7971 170.243 33.7971Z" fill="white"/>
<path d="M163.678 53.2324C165.41 53.2324 166.814 51.8285 166.814 50.0968C166.814 48.365 165.41 46.9612 163.678 46.9612C161.946 46.9612 160.542 48.365 160.542 50.0968C160.542 51.8285 161.946 53.2324 163.678 53.2324Z" fill="white"/>
<path d="M141.082 60.9555C142.814 60.9555 144.218 59.5517 144.218 57.8199C144.218 56.0882 142.814 54.6843 141.082 54.6843C139.351 54.6843 137.947 56.0882 137.947 57.8199C137.947 59.5517 139.351 60.9555 141.082 60.9555Z" fill="white"/>
<path d="M58.2613 169.631C56.8584 171.752 55.6015 173.966 54.4994 176.258C40.6978 163.826 26.788 151.536 12.7701 139.387C9.13283 136.223 14.4392 130.941 18.0517 134.08C21.4648 137.045 24.8613 140.01 28.2411 142.974C28.1914 139.337 28.1414 135.724 28.0915 132.112C28.0667 130.019 29.8355 128.45 31.8284 128.375C33.8715 128.275 35.5406 130.144 35.5655 132.112C35.6651 137.942 35.7482 143.78 35.8146 149.626C43.3384 156.253 50.8206 162.921 58.2613 169.631Z" fill="#0C1F26"/>
<path d="M247.849 152.192C221.467 166.093 195.308 180.418 169.373 195.167C165.163 197.558 161.401 191.106 165.587 188.714C184.397 178.027 203.331 167.555 222.389 157.299C222.413 157.2 222.413 157.125 222.438 157.025C223.257 152.521 224.431 148.089 225.951 143.771C226.649 141.778 228.467 140.682 230.535 141.156C232.428 141.579 233.798 143.896 233.151 145.74C232.354 148.032 231.656 150.323 231.083 152.665C235.418 150.323 239.753 148.032 244.088 145.74C248.348 143.497 252.11 149.95 247.849 152.192Z" fill="#0C1F26"/>
<path d="M174.107 161.584C174.121 162.031 173.997 162.472 173.751 162.846C173.506 163.221 173.152 163.511 172.737 163.677C164.302 166.992 155.644 169.705 146.827 171.799L153.704 208.545C153.834 209.24 153.808 209.954 153.63 210.637C153.452 211.32 153.125 211.956 152.673 212.498C152.221 213.041 151.654 213.477 151.015 213.775C150.375 214.074 149.677 214.227 148.971 214.225H125.003C124.337 214.225 123.677 214.086 123.067 213.817C122.457 213.548 121.91 213.155 121.46 212.663C121.01 212.171 120.668 211.59 120.454 210.959C120.241 210.327 120.161 209.658 120.22 208.994L123.234 175.71C103.454 177.429 81.829 174.938 66.1586 161.211C65.93 161.001 65.746 160.747 65.6176 160.465C65.4892 160.182 65.4191 159.877 65.4114 159.566C65.4114 157.2 66.0589 150.747 72.138 140.234C72.4119 139.768 72.8476 139.419 73.3621 139.254C73.8766 139.088 74.434 139.118 74.9281 139.337C83.4234 143.099 121.416 157.798 162.074 140.757C162.408 140.615 162.772 140.559 163.133 140.594C163.494 140.629 163.841 140.753 164.142 140.956C166.782 142.825 173.609 148.829 174.107 161.584Z" fill="#E02C37"/>
<path d="M123.821 178.377C131.429 177.265 138.964 175.708 146.39 173.716C148.711 173.094 147.726 169.488 145.396 170.113C137.97 172.105 130.435 173.661 122.828 174.773C121.828 174.919 121.278 176.184 121.523 177.072C121.817 178.144 122.818 178.523 123.821 178.377V178.377Z" fill="#0C1F26"/>
<path d="M131.336 140.121C134.442 140.147 137.499 139.347 140.194 137.804C142.889 136.26 145.126 134.028 146.676 131.337C146.799 131.125 146.88 130.891 146.914 130.647C146.947 130.404 146.932 130.157 146.87 129.92C146.808 129.682 146.699 129.459 146.551 129.264C146.403 129.068 146.217 128.904 146.005 128.78C145.793 128.656 145.559 128.576 145.316 128.542C145.073 128.509 144.826 128.524 144.588 128.586C144.351 128.648 144.128 128.757 143.933 128.905C143.737 129.053 143.573 129.239 143.449 129.451C142.232 131.582 140.467 133.349 138.337 134.568C136.207 135.787 133.79 136.414 131.336 136.384C130.84 136.384 130.365 136.581 130.015 136.932C129.664 137.282 129.468 137.757 129.468 138.253C129.468 138.748 129.664 139.224 130.015 139.574C130.365 139.924 130.84 140.121 131.336 140.121V140.121Z" fill="#0C1F26"/>
<path d="M91.7458 109.863C94.5515 109.863 96.826 107.589 96.826 104.783C96.826 101.977 94.5515 99.703 91.7458 99.703C88.9401 99.703 86.6656 101.977 86.6656 104.783C86.6656 107.589 88.9401 109.863 91.7458 109.863Z" fill="#0C1F26"/>
<path d="M126.256 111.089C129.062 111.089 131.336 108.815 131.336 106.009C131.336 103.204 129.062 100.929 126.256 100.929C123.45 100.929 121.176 103.204 121.176 106.009C121.176 108.815 123.45 111.089 126.256 111.089Z" fill="#0C1F26"/>
<path d="M108.685 116.859C107.873 115.784 106.753 114.982 105.474 114.558C104.195 114.134 102.817 114.109 101.524 114.487C92.5222 117.029 71.8533 123.231 74.0527 125.98C76.8555 129.483 105.41 133.688 109.089 128.958C112.023 125.185 111.948 121.3 108.685 116.859Z" fill="#F0B11D"/>
</svg>
