<svg width="297" height="330" viewBox="0 0 297 330" fill="none" xmlns="http://www.w3.org/2000/svg">
<path d="M296.547 227.442C296.547 260.528 274.405 289.804 233.932 309.285C206.167 322.648 172.053 330 138.448 330C92.4599 330 47.4269 316.239 20.8473 285.294C-1.47566 259.294 -5.97404 227.6 7.84784 193.631C18.0526 168.575 36.7113 145.986 52.2867 130.072C50.4979 123.615 49.2526 116.396 49.2634 109.527L19.0803 100.179C17.5339 99.7003 16.0994 98.9155 14.8619 97.8717C13.6244 96.8279 12.6091 95.5463 11.876 94.1028C11.143 92.6593 10.7072 91.0833 10.5945 89.4683C10.4818 87.8533 10.6945 86.2321 11.22 84.7008C15.3799 72.5839 24.9212 62.414 36.7356 57.4922C37.2192 57.2869 37.7149 57.0933 38.211 56.8999C38.5375 56.7668 38.9367 56.6096 39.2869 56.4645C39.3718 56.2467 39.4565 56.0171 39.5412 55.8115L39.7468 55.2794C45.9137 39.6194 60.8967 21.4078 82.9052 21.4078H83.2197C84.1254 21.4078 85.0216 21.4563 85.9164 21.5047C86.7386 21.541 87.8512 21.6014 88.2259 21.541C89.5077 21.3354 92.9664 16.8732 94.4538 14.9626L95.5057 13.6082C104.176 2.55545 114.951 -2.08807 125.06 0.874477C131.144 2.65214 135.23 6.67956 138.435 10.3793C149.132 22.788 157.03 37.3555 161.592 53.0905C164.026 53.2924 166.401 53.9487 168.594 55.0256C181.799 61.5072 190.735 80.5529 194.23 95.4381C228.863 110.397 282.107 144.123 295.155 212.906C296.073 217.697 296.539 222.564 296.547 227.442Z" fill="white"/>
<path d="M29.2572 276.871C-34.5541 202.558 91.9721 109.786 91.9721 109.786L21.8893 88.0838C23.4495 83.6337 25.9217 79.5584 29.1475 76.1187C32.3734 72.6791 36.2819 69.9508 40.6228 68.1086C43.0682 67.0881 45.7484 66.2859 47.5342 64.3273C48.8518 62.8832 49.5165 60.9796 50.2325 59.1603C55.6155 45.4808 67.6563 32.8416 82.3565 32.9552C84.6869 32.9736 87.034 33.3101 89.3361 32.9469C95.8981 31.9112 100.158 25.7493 104.257 20.5214C108.357 15.2934 114.524 10.0709 120.9 11.9365C124.005 12.8451 126.393 15.2918 128.508 17.7409C141.29 32.6024 149.537 50.8212 152.269 70.2322L158.399 95.7906C158.399 95.7906 264.116 117.703 282.51 214.618C300.904 311.533 96.8749 355.617 29.2572 276.871Z" fill="#E02C37"/>
<path d="M180.746 115.965C176.085 120.133 155.186 119.869 140.233 119.113L177.076 166.635C177.991 167.808 178.444 169.277 178.349 170.762C178.254 172.246 177.618 173.645 176.561 174.692L165.285 186.029C164.583 186.734 163.72 187.257 162.77 187.554C161.821 187.851 160.813 187.913 159.835 187.733C158.856 187.554 157.936 187.139 157.154 186.525C156.372 185.91 155.751 185.114 155.345 184.206L126.054 118.14C125.048 118.043 124.481 117.999 124.481 117.999C124.481 117.999 124.206 118.25 123.694 118.675L133.206 172.459C133.406 173.586 133.362 174.744 133.078 175.853C132.794 176.963 132.276 177.999 131.559 178.892C130.842 179.785 129.942 180.514 128.92 181.031C127.898 181.547 126.777 181.839 125.632 181.887L115.896 182.304C114.74 182.35 113.588 182.146 112.518 181.707C111.448 181.268 110.485 180.603 109.695 179.758C108.905 178.914 108.305 177.909 107.938 176.812C107.571 175.715 107.444 174.552 107.566 173.402L112.536 127.962C100.829 137.36 83.9046 149.905 77.6276 149.269C67.6896 148.257 55.4097 111.44 62.8591 97.508C70.2695 83.5553 118.85 100.563 118.85 100.563C118.85 100.563 148.307 58.3517 162.478 65.3344C176.64 72.2875 188.214 109.332 180.746 115.965Z" fill="#F0B11D"/>
<path d="M113.939 129.686L119.505 124.035L122.29 121.211C123.108 120.382 124.025 119.023 125.094 118.551C126.078 118.117 127.475 118.721 128.549 118.949L132.307 119.744L139.826 121.335C141.287 121.645 141.784 119.381 140.324 119.071L131.732 117.254L127.436 116.345C126.452 116.137 125.45 115.811 124.467 116.164C123.359 116.561 122.556 117.645 121.756 118.457L118.574 121.685L112.212 128.141C111.165 129.204 112.893 130.748 113.94 129.686L113.939 129.686Z" fill="#0C1F26"/>
<path d="M93.8173 103.647L116.16 108.818C117.616 109.155 118.111 106.89 116.658 106.553L94.3154 101.383C92.8588 101.046 92.3643 103.31 93.8173 103.647V103.647Z" fill="#0C1F26"/>
<path d="M98.3318 129.077C103.728 124.012 109.428 119.282 115.401 114.912C116.599 114.036 115.337 112.091 114.129 112.975C107.996 117.466 102.143 122.327 96.6033 127.532C95.5164 128.552 97.249 130.093 98.3313 129.077H98.3318Z" fill="#0C1F26"/>
<path d="M126.273 104.692C132.058 99.4151 137.717 94.0053 143.251 88.463C144.305 87.4074 142.576 85.8639 141.523 86.9183C135.991 92.4594 130.331 97.8692 124.545 103.148C123.445 104.151 125.179 105.691 126.273 104.692V104.692Z" fill="#0C1F26"/>
<path d="M128.333 109.885C136.687 110.739 144.984 112.08 153.181 113.903C154.64 114.228 155.135 111.964 153.679 111.639C145.482 109.816 137.185 108.474 128.831 107.621C127.361 107.47 126.851 109.733 128.333 109.885Z" fill="#0C1F26"/>
<path d="M126.293 120.711C130.965 119.202 133.135 112.968 131.138 106.786C129.142 100.605 123.736 96.8167 119.063 98.3257C114.391 99.8347 112.221 106.069 114.218 112.251C116.214 118.433 121.62 122.22 126.293 120.711Z" fill="#0C1F26"/>
<path d="M52.3039 219.784C56.8694 219.784 60.5704 216.083 60.5704 211.518C60.5704 206.952 56.8694 203.251 52.3039 203.251C47.7384 203.251 44.0374 206.952 44.0374 211.518C44.0374 216.083 47.7384 219.784 52.3039 219.784Z" fill="white"/>
<path d="M71.9636 281.795C76.5291 281.795 80.2301 278.094 80.2301 273.529C80.2301 268.963 76.5291 265.262 71.9636 265.262C67.3981 265.262 63.697 268.963 63.697 273.529C63.697 278.094 67.3981 281.795 71.9636 281.795Z" fill="white"/>
<path d="M117.531 222.384C122.096 222.384 125.797 218.683 125.797 214.117C125.797 209.552 122.096 205.851 117.531 205.851C112.965 205.851 109.264 209.552 109.264 214.117C109.264 218.683 112.965 222.384 117.531 222.384Z" fill="white"/>
<path d="M195.061 145.943C199.626 145.943 203.327 142.242 203.327 137.676C203.327 133.111 199.626 129.41 195.061 129.41C190.495 129.41 186.794 133.111 186.794 137.676C186.794 142.242 190.495 145.943 195.061 145.943Z" fill="white"/>
<path d="M80.23 181.023C84.7955 181.023 88.4966 177.321 88.4966 172.756C88.4966 168.191 84.7955 164.489 80.23 164.489C75.6646 164.489 71.9635 168.191 71.9635 172.756C71.9635 177.321 75.6646 181.023 80.23 181.023Z" fill="white"/>
<path d="M191.352 222.384C195.918 222.384 199.619 218.683 199.619 214.117C199.619 209.552 195.918 205.851 191.352 205.851C186.787 205.851 183.086 209.552 183.086 214.117C183.086 218.683 186.787 222.384 191.352 222.384Z" fill="white"/>
<path d="M222.38 184.154C226.946 184.154 230.647 180.453 230.647 175.887C230.647 171.322 226.946 167.62 222.38 167.62C217.815 167.62 214.114 171.322 214.114 175.887C214.114 180.453 217.815 184.154 222.38 184.154Z" fill="white"/>
<path d="M154.554 294.769C159.12 294.769 162.821 291.068 162.821 286.502C162.821 281.937 159.12 278.236 154.554 278.236C149.989 278.236 146.287 281.937 146.287 286.502C146.287 291.068 149.989 294.769 154.554 294.769Z" fill="white"/>
<path d="M217.917 275.635C222.482 275.635 226.183 271.934 226.183 267.368C226.183 262.803 222.482 259.102 217.917 259.102C213.351 259.102 209.65 262.803 209.65 267.368C209.65 271.934 213.351 275.635 217.917 275.635Z" fill="white"/>
<path d="M260.597 222.384C265.162 222.384 268.863 218.683 268.863 214.117C268.863 209.552 265.162 205.851 260.597 205.851C256.031 205.851 252.33 209.552 252.33 214.117C252.33 218.683 256.031 222.384 260.597 222.384Z" fill="white"/>
</svg>
