<svg width="182" height="200" viewBox="0 0 182 200" fill="none" xmlns="http://www.w3.org/2000/svg">
<path d="M140.339 6.32842e-05C134.423 -0.0112311 128.601 1.48943 123.428 4.35966C106.502 13.8054 102.404 34.7714 101.43 43.3453C101.302 44.4788 101.197 45.6184 101.117 46.764C92.8015 48.8093 86.3638 55.5921 84.4056 64.9071C82.8653 72.1731 83.8389 81.1248 86.9923 89.1755C84.8113 88.1252 82.4694 87.4485 80.0642 87.1738C79.8341 86.0427 79.581 84.9225 79.3049 83.8132C77.216 75.4573 70.415 55.2034 52.399 48.0391C48.37 46.4393 44.073 45.6218 39.738 45.6305C28.4757 45.6305 17.4823 51.0073 10.3107 60.0135C1.61698 70.9125 -1.67814 85.4009 0.803195 101.869C2.00325 109.819 4.11335 117.605 7.09191 125.073L7.27356 125.527C9.79849 136.899 14.6449 145.894 21.5258 152.124C21.3245 155.18 21.8394 158.24 23.0296 161.061C24.2198 163.882 26.0523 166.387 28.3813 168.375C32.217 172.463 37.5112 174.871 43.113 175.078C43.4763 175.078 43.8396 175.099 44.2029 175.099C49.8958 175.099 54.8149 173.283 58.7676 171.83C59.6068 171.521 60.4025 171.23 61.0927 170.998L61.456 170.871C59.3816 176.451 58.6477 184.131 62.4042 190.725C65.5322 196.218 71.0653 199.586 77.5901 199.967C77.9534 199.989 78.3167 200 78.68 200C82.4511 200 91.8133 198.696 97.2447 186.612C99.0348 182.486 100.173 178.107 100.62 173.632C100.68 172.997 100.725 172.363 100.754 171.728L102.636 170.725C106.225 168.822 109.935 166.853 113.655 164.386C114.381 163.91 115.159 163.376 115.987 162.791C116.636 162.837 117.287 162.86 117.938 162.86C126.236 162.86 134.098 159.049 139.5 152.404C144.412 146.362 147.249 138.504 147.914 129.284C148.357 129.228 148.796 129.163 149.229 129.088C154.757 128.152 159.692 125.072 162.962 120.517C165.011 118.242 166.5 115.52 167.311 112.567C168.122 109.615 168.233 106.514 167.634 103.511C173.643 96.4343 177.276 86.8831 178.286 75.2793L178.406 74.807C180.393 67.0083 181.477 59.0066 181.635 50.9601C181.933 34.3064 176.782 20.3884 166.74 10.7065C159.639 3.88354 150.187 0.0505263 140.339 6.32842e-05V6.32842e-05ZM100.74 120.819C101.575 121.2 102.414 121.546 103.257 121.843C102.235 122.324 101.262 122.902 100.351 123.569C100.533 122.654 100.66 121.734 100.754 120.819H100.74Z" fill="white"/>
<path d="M140.339 6.68118C135.566 6.66575 130.868 7.87002 126.69 10.1797C121.015 13.3514 116.441 18.5829 113.092 25.7326C109.891 32.5626 108.598 39.4835 108.071 44.0829C107.742 46.9859 107.587 49.9059 107.606 52.8275C107.228 52.8008 106.85 52.7875 106.472 52.7875C98.8832 52.7766 92.6272 58.2261 90.9342 66.2732C89.5537 72.8126 90.6545 81.0704 93.8842 88.3581C94.9335 90.7376 96.2694 92.98 97.8623 95.0356C96.7806 96.4437 96.0093 98.0649 95.5992 99.7925C95.189 101.52 95.1493 103.315 95.4827 105.059C96.2747 109.055 98.9631 112.478 102.858 114.414C107.108 116.528 111.882 117.251 116.093 117.891C116.939 118.018 117.767 118.145 118.57 118.279C119.904 118.505 121.291 118.715 122.799 118.93C123.766 119.141 124.765 119.351 125.804 119.569C126.447 125.255 126.418 132.452 123.373 137.298C123.32 137.034 123.261 136.78 123.195 136.535C121.742 130.908 116.576 126.821 110.945 126.821C106.287 126.821 102.226 129.625 100.355 134.138C99.5438 136.108 99.1797 138.233 99.2884 140.36C99.397 142.488 99.9758 144.565 100.983 146.442C98.3891 148.092 95.4936 149.61 92.471 151.194C91.4247 151.743 90.3638 152.284 89.303 152.866L89.2412 152.768C91.5876 150.514 93.012 147.468 93.2375 144.223C93.3397 142.45 93.0655 140.677 92.4331 139.018C91.8007 137.359 90.8243 135.853 89.5682 134.599C90.8782 132.352 91.9091 129.953 92.6381 127.456C94.8869 119.805 94.9014 111.471 92.678 105.175C90.1822 98.1018 84.3803 93.7059 77.543 93.7059C76.4836 93.7069 75.4271 93.8153 74.3895 94.0292C74.027 91.1311 73.492 88.2572 72.7874 85.4227C71.6648 80.9287 69.4777 74.2367 65.4124 67.8826C61.1582 61.2306 55.9376 56.6421 49.8959 54.2407C46.6517 52.9535 43.1919 52.2964 39.7017 52.3043C30.463 52.3043 21.4169 56.7402 15.4987 64.166C7.99294 73.59 5.18464 86.2801 7.3717 100.859C8.50123 108.305 10.4833 115.596 13.2789 122.588L13.6604 123.54C16.1599 135.238 21.3151 144.027 28.7373 149.36C28.6598 149.621 28.5896 149.884 28.5266 150.148C27.9242 152.57 28.0238 155.114 28.8139 157.481C29.6039 159.849 31.0517 161.943 32.9879 163.518C34.3 164.989 35.8965 166.179 37.681 167.016C39.4655 167.853 41.4011 168.32 43.371 168.389C43.6399 168.389 43.9087 168.389 44.1776 168.389C48.6825 168.389 52.8059 166.878 56.4389 165.545C57.3254 165.221 58.1646 164.913 58.9457 164.651C61.972 163.637 65.0055 162.587 67.9628 161.527C69.4414 161.116 70.7892 160.724 72.0717 160.328C72.8346 160.092 73.6302 159.863 74.4368 159.627L75.494 159.318C75.8159 159.745 76.1154 160.189 76.3913 160.647C76.4834 160.8 76.573 160.955 76.6602 161.112C73.3578 163.934 70.6274 167.362 68.6167 171.212C66.3352 175.626 65.3288 182.358 68.2243 187.441C70.2407 190.979 73.7065 193.068 77.9935 193.315C78.2296 193.315 78.4658 193.337 78.6983 193.337C88.5292 193.337 93.0668 182.384 93.9568 172.992C94.1233 171.262 94.1513 169.521 94.0404 167.786C95.7951 166.784 97.6153 165.817 99.4899 164.822C102.938 163.005 106.502 161.105 109.946 158.816C111.188 157.992 112.649 157 114.138 155.823C115.385 156.061 116.651 156.183 117.92 156.186C124.198 156.186 130.167 153.28 134.298 148.194C139.351 141.978 141.745 133.211 141.317 122.628C142.349 122.747 143.387 122.807 144.426 122.81C145.644 122.814 146.859 122.713 148.059 122.508C150.003 122.184 151.861 121.47 153.521 120.408C155.181 119.347 156.609 117.96 157.72 116.332C159.433 114.517 160.594 112.252 161.068 109.802C161.542 107.351 161.308 104.817 160.393 102.494C160.297 102.252 160.192 102 160.081 101.738C166.744 95.4824 170.707 86.0948 171.656 74.1713C171.743 73.8419 171.828 73.5113 171.91 73.1795C173.767 65.8818 174.779 58.3946 174.925 50.8657C175.187 36.1157 170.744 23.9016 162.072 15.542C156.231 9.91215 148.451 6.74019 140.339 6.68118V6.68118Z" fill="black"/>
<path d="M134.287 118.319C133.212 109.334 130.034 100.729 125.012 93.2009C124.336 92.1836 122.705 93.1536 123.38 94.1709C128.146 101.277 131.208 109.387 132.328 117.869C133.389 126.178 133.139 136.328 127.442 143.031C124.329 146.693 118.465 148.579 113.833 147.056C116.1 144.488 117.579 141.483 116.739 138.225C115.453 133.295 108.747 131.362 106.538 136.706C104.754 140.997 107.203 145.16 110.767 147.452C109.621 148.476 108.42 149.436 107.17 150.33C100.929 154.875 93.0667 158.003 86.3166 162.319C84.5305 156.579 80.842 151.619 75.8591 148.257C70.8763 144.895 64.8966 143.331 58.9057 143.823C57.6959 143.921 57.7322 145.821 58.9529 145.719C68.0899 144.971 77.3722 149.269 82.1605 157.232C83.3041 159.148 84.169 161.216 84.729 163.376C80.5801 166.231 76.9616 169.646 74.5566 174.275C72.4277 178.391 71.9663 186.264 78.3821 186.627C84.5582 186.99 86.887 176.818 87.312 172.349C87.569 169.677 87.4084 166.98 86.8361 164.357C93.0885 160.273 100.038 157.381 106.265 153.251C108.499 151.822 110.601 150.198 112.547 148.397C112.768 148.491 112.986 148.586 113.212 148.666C119.101 150.769 125.237 148.757 129.128 143.972C134.792 137.004 135.293 126.864 134.287 118.319ZM81.561 182.987C78.1496 186.718 74.4985 183.125 74.8945 179.172C75.1197 176.909 76.3222 174.772 77.5829 172.92C79.5847 169.97 82.2658 167.554 85.1613 165.497C85.4046 166.924 85.5261 168.37 85.5246 169.817C85.5391 174.042 84.5401 179.713 81.561 182.972V182.987ZM108.863 143.104C107.715 141.185 107.224 137.963 109.034 136.201C111.239 134.058 114.033 136.146 114.817 138.403C115.791 141.2 114.178 143.947 112.006 146.235C110.709 145.469 109.628 144.387 108.863 143.089V143.104Z" fill="#078F86"/>
<path d="M84.4129 138.878C83.7751 138.324 83.062 137.863 82.2948 137.509C81.8061 136.944 81.2497 136.441 80.6382 136.012C73.6447 131.086 64.0027 133.037 56.5333 135.671C52.029 137.217 47.7524 139.36 43.8178 142.043C40.4536 144.386 36.065 147.46 35.0695 151.674C34.7386 152.961 34.8106 154.318 35.2757 155.563C35.7409 156.808 36.5769 157.88 37.6708 158.635C38.3858 159.557 39.2959 160.31 40.336 160.839C41.3761 161.369 42.5204 161.662 43.687 161.697C48.112 161.883 52.7695 159.688 56.8639 158.315C59.9132 157.295 62.9503 156.242 65.9754 155.154C67.3705 154.769 68.7607 154.365 70.1461 153.941C74.4621 152.615 79.6682 151.445 83.4465 148.898C87.0395 146.508 87.8279 141.894 84.4129 138.878Z" fill="#6FD5B9"/>
<path d="M86.3929 107.399C83.9515 100.496 77.0997 98.1962 71.1634 102.752C70.18 103.51 69.2513 104.337 68.3842 105.226C68.4497 99.1006 67.7566 92.9907 66.3206 87.0356C63.7775 76.9105 57.7468 64.5438 47.429 60.4494C37.9397 56.6747 26.9499 60.5257 20.7302 68.3294C13.6131 77.2629 12.338 88.8848 13.9873 99.8747C15.0402 106.813 16.8883 113.606 19.495 120.121C19.6887 120.606 19.8861 121.09 20.0871 121.575C22.2124 132.005 27.1787 142.283 37.3039 146.526C43.5599 149.145 50.1647 148.164 56.5588 146.628C62.8438 145.116 69.3142 143.478 74.909 140.125C80.4017 136.891 84.4513 131.681 86.2294 125.56C87.8679 120.056 88.3366 112.903 86.3929 107.399Z" fill="#18AAA1"/>
<path d="M61.7467 93.2954C60.7525 92.5017 59.6744 91.8195 58.5315 91.2609L60.0537 88.9103C60.7186 87.8822 59.1746 86.8577 58.3608 87.686C57.5272 88.5474 56.7597 89.4704 56.0647 90.4471C53.5144 91.4159 50.9555 92.3496 48.3882 93.2481C46.8129 91.5109 45.1338 89.8706 43.3601 88.3363C43.3209 88.3046 43.2797 88.2755 43.2366 88.2491C43.9051 86.7959 44.5881 85.3137 45.2965 83.8605C45.3513 83.7462 45.3857 83.6233 45.3982 83.4972C46.1575 83.0176 46.9132 82.5344 47.6543 82.044C48.7697 81.2847 47.6543 79.5009 46.539 80.2565C46.0812 80.569 45.6126 80.8596 45.1512 81.1575L44.995 80.0386C44.9801 79.7597 44.8587 79.4972 44.6559 79.3052C44.4531 79.1132 44.1843 79.0064 43.9051 79.0068C43.3892 79.0068 42.7934 79.5154 42.8733 80.0967L43.2729 82.9777C43.282 83.0292 43.2941 83.0801 43.3093 83.1302C42.4713 84.8523 41.6635 86.5864 40.8861 88.3327C39.5455 88.0711 38.1577 87.8168 36.8389 88.042L34.7463 81.3392C34.7702 81.2611 34.786 81.1807 34.7935 81.0994C34.8516 79.422 35.0706 77.7541 35.4475 76.1186C35.749 74.7961 33.7036 74.3021 33.4021 75.6172C33.2277 76.3765 33.0933 77.1394 32.9807 77.906C32.6849 77.5428 32.367 77.1982 32.0288 76.8742C31.0443 75.9405 29.602 77.4737 30.5756 78.411C31.4488 79.2273 32.1546 80.2058 32.6537 81.2919C32.6136 81.4702 32.6223 81.656 32.6791 81.8296L34.7027 88.3C34.2379 88.9161 33.8213 89.5671 33.4566 90.2473C33.0836 90.8334 32.7203 91.428 32.3667 92.0311C31.5287 91.6702 30.6883 91.3178 29.8454 90.9739V90.9484C28.9714 89.997 28.2196 88.9401 27.6075 87.8023C26.9608 86.6106 25.1697 87.7296 25.82 88.9176C26.1422 89.5038 26.4988 90.0703 26.8881 90.6142V90.6142C25.5294 90.5851 25.5766 92.6923 26.9281 92.7213L28.7046 92.7613C29.5257 93.0955 30.3395 93.4407 31.1533 93.7894L30.8336 98.4179C30.8133 98.6256 30.8632 98.834 30.9753 99.0101C29.206 99.555 27.4367 100.1 25.6602 100.623H25.5912C24.7265 100.605 24.0035 99.9728 23.2806 99.5695C22.5592 99.1277 21.7287 98.8962 20.8828 98.9011C19.5277 98.9447 19.5677 101.052 20.9228 101.008C21.7983 100.979 22.5031 101.579 23.2261 101.993C23.4828 102.137 23.7486 102.264 24.0217 102.374C23.6937 103.074 23.4592 103.815 23.3242 104.576C23.0917 105.909 25.1407 106.414 25.3695 105.077C25.5166 104.224 25.8143 103.403 26.2487 102.654C28.127 102.102 29.998 101.524 31.8653 100.946C32.9328 101.839 33.8804 102.866 34.6845 104.002C34.056 105.818 33.4493 107.657 32.868 109.499C32.8488 109.564 32.8354 109.631 32.8281 109.698C32.0607 110.177 31.3534 110.745 30.7209 111.391C29.7727 112.361 31.3059 113.804 32.2577 112.844C32.4612 112.634 32.6755 112.445 32.8935 112.26C32.9449 112.977 33.0567 113.69 33.2277 114.389C33.5474 115.707 35.5674 115.115 35.2477 113.789C34.9706 112.626 34.8956 111.424 35.026 110.236C35.0387 110.102 35.0188 109.968 34.9679 109.844C35.4184 108.39 35.8907 106.963 36.3739 105.535C37.6426 105.828 38.865 106.293 40.0069 106.919C40.1632 107.007 40.3399 107.052 40.5191 107.05C41.6764 110.88 43.0991 114.625 44.777 118.258C44.7053 119.547 44.7259 120.84 44.8388 122.127C44.9587 123.471 47.0658 123.438 46.9459 122.087C46.8829 121.377 46.8478 120.668 46.8405 119.958L48.875 121.774C49.8814 122.679 51.3309 121.146 50.3282 120.238L46.5935 116.892C46.536 116.844 46.4739 116.803 46.4082 116.768C44.9472 113.562 43.6973 110.263 42.6662 106.894C44.0443 105.172 45.3425 103.39 46.5608 101.55C48.5299 102.693 50.4675 103.883 52.3736 105.121C52.7207 106.154 52.9641 107.219 53.1002 108.3C53.2637 109.637 55.3708 109.604 55.2073 108.26C55.0827 107.223 54.8774 106.198 54.5933 105.193C55.8109 105.202 57.0241 105.048 58.2009 104.736C59.5124 104.372 58.9275 102.363 57.6015 102.716C56.2285 103.095 54.796 103.211 53.3799 103.057C53.275 103.044 53.1688 103.044 53.0639 103.057C51.3273 101.943 49.5713 100.865 47.796 99.8238C48.3046 98.3706 48.8605 96.9174 49.4708 95.5078C49.5313 95.3703 49.5634 95.2221 49.5653 95.0719C51.825 94.2678 54.0763 93.4431 56.319 92.5978C56.353 92.6255 56.3895 92.6498 56.428 92.6705C57.8025 93.2069 59.0913 93.9413 60.2536 94.8503C61.3435 95.6677 62.7967 94.1418 61.7467 93.2954ZM46.2229 93.9965C44.3774 94.6396 42.5318 95.2826 40.679 95.9002L40.0795 95.595C40.7674 93.8996 41.4807 92.2042 42.2194 90.5088C42.3068 90.4718 42.3887 90.4229 42.4628 90.3635C43.7585 91.5212 45.0059 92.7322 46.2048 93.9965H46.2229ZM40.0468 90.2618C39.5624 91.3832 39.0853 92.5094 38.6154 93.6405L37.4892 90.0402C38.3397 89.9765 39.1949 90.0513 40.0214 90.2618H40.0468ZM34.8371 92.0129C35.0624 91.6496 35.2949 91.2863 35.531 90.923L36.4465 93.8548C35.7454 93.5279 35.0369 93.2082 34.3321 92.8921C34.4993 92.5833 34.6627 92.289 34.8371 92.0129ZM32.9443 98.367L33.1768 94.9665C33.2018 94.9327 33.2248 94.8975 33.2459 94.8612L33.3149 94.7304C34.6543 95.331 35.9864 95.9499 37.3112 96.5868L37.3584 96.7394L37.2531 97.0155C35.818 97.4806 34.3866 97.9529 32.948 98.4033C32.9407 98.3815 32.9443 98.3706 32.9443 98.3561V98.367ZM34.2123 100.216C34.9025 99.9982 35.5855 99.7693 36.2758 99.5477C36.0179 100.238 35.7708 100.932 35.5201 101.626C35.1107 101.13 34.6753 100.656 34.2159 100.205L34.2123 100.216ZM37.0751 103.508C37.4916 102.323 37.9191 101.144 38.3575 99.9692L38.6481 100.903C39.0114 102.068 39.3747 103.234 39.738 104.401C38.8784 104.023 37.9874 103.72 37.0751 103.497V103.508ZM41.9251 104.423C41.3729 102.607 40.8352 100.819 40.2721 99.0319L40.0505 98.3234L40.4828 98.1817C41.919 98.9229 43.342 99.6894 44.7516 100.481C43.8651 101.822 42.9096 103.13 41.9251 104.412V104.423ZM43.2439 97.2553C44.5191 96.823 45.787 96.3798 47.0585 95.9365C46.6807 96.869 46.3174 97.8087 45.9686 98.7557C45.0701 98.2399 44.1618 97.7361 43.2439 97.2444V97.2553Z" fill="#6FD5B9"/>
<path d="M33.9507 133.12C34.0488 134.561 34.4329 135.968 35.0805 137.258C35.6219 138.348 37.2276 137.342 36.69 136.256C36.2036 135.264 35.9172 134.186 35.8471 133.084C35.7635 131.867 33.8671 131.903 33.9507 133.12Z" fill="#078F86"/>
<path d="M38.401 135.743C38.6038 137.293 38.9691 138.818 39.4909 140.292C39.9051 141.433 41.7252 140.902 41.3074 139.75C40.8355 138.44 40.5018 137.083 40.312 135.703C40.1303 134.519 38.2339 134.519 38.401 135.743Z" fill="#078F86"/>
<path d="M47.5489 136.314C47.5064 137.475 47.5709 138.637 47.7415 139.787C47.7544 140.035 47.8614 140.27 48.0409 140.443C48.2204 140.615 48.4588 140.713 48.7079 140.717C48.9587 140.71 49.1969 140.605 49.3709 140.424C49.545 140.243 49.6409 140.001 49.6379 139.75C49.4673 138.601 49.4029 137.438 49.4454 136.277C49.489 135.053 47.578 135.097 47.5489 136.314Z" fill="#078F86"/>
<path d="M58.0483 135.805C57.7974 135.812 57.5592 135.917 57.3852 136.098C57.2112 136.278 57.1153 136.52 57.1182 136.771L57.3071 138.704C57.3183 138.954 57.4248 139.189 57.6047 139.362C57.7845 139.535 58.0239 139.633 58.2735 139.634C58.5244 139.628 58.7626 139.522 58.9366 139.342C59.1106 139.161 59.2065 138.919 59.2036 138.668L59.0147 136.735C59.0035 136.486 58.897 136.25 58.7171 136.077C58.5373 135.904 58.2979 135.807 58.0483 135.805V135.805Z" fill="#078F86"/>
<path d="M71.6502 131.584C71.6848 132.609 71.508 133.63 71.1307 134.584C70.9454 135.064 71.3741 135.62 71.8246 135.732C72.0684 135.786 72.3235 135.744 72.5371 135.615C72.7508 135.486 72.9067 135.279 72.9726 135.039C73.3981 133.926 73.5933 132.738 73.5466 131.547C73.503 130.327 71.6066 130.363 71.6502 131.584Z" fill="#078F86"/>
<path d="M80.0714 124.459L79.8825 128.056C79.8171 129.277 81.699 129.233 81.7789 128.02L81.9679 124.423C82.0333 123.202 80.1368 123.257 80.0714 124.459Z" fill="#078F86"/>
<path d="M77.9062 110.763C77.668 110.839 77.4684 111.005 77.3492 111.225C77.2301 111.445 77.2005 111.702 77.2668 111.944L77.7972 114.639C77.8704 114.88 78.0354 115.082 78.2564 115.201C78.4774 115.321 78.7366 115.349 78.978 115.279C79.2163 115.202 79.4158 115.037 79.535 114.817C79.6541 114.597 79.6837 114.339 79.6174 114.098L79.087 111.402C79.0138 111.162 78.8489 110.96 78.6279 110.84C78.4068 110.72 78.1476 110.693 77.9062 110.763V110.763Z" fill="#078F86"/>
<path d="M70.5929 120.034C70.1463 119.167 69.8164 118.245 69.612 117.291C69.3468 116.1 67.5303 116.645 67.7955 117.833C68.0493 118.95 68.45 120.029 68.9872 121.041C69.5466 122.12 71.1561 121.113 70.5929 120.034Z" fill="#078F86"/>
<path d="M32.9226 123.522C32.35 122.248 31.9046 120.92 31.5929 119.558C31.3131 118.37 29.4966 118.912 29.7764 120.1C30.1399 121.622 30.6534 123.104 31.3095 124.525C31.8181 125.629 33.4094 124.619 32.9226 123.522Z" fill="#078F86"/>
<path d="M39.4728 124.041C39.3942 123.805 39.2283 123.607 39.009 123.488C38.7897 123.369 38.5333 123.338 38.2921 123.402C37.8489 123.533 37.4456 124.11 37.6527 124.583L38.3393 126.138C38.4179 126.374 38.5838 126.572 38.8031 126.691C39.0225 126.81 39.2788 126.841 39.52 126.777C39.9633 126.646 40.3665 126.069 40.1594 125.596L39.4728 124.041Z" fill="#078F86"/>
<path d="M57.1945 123.983C56.9436 123.99 56.7055 124.095 56.5314 124.276C56.3574 124.457 56.2615 124.699 56.2645 124.95L56.566 127.286C56.578 127.535 56.6848 127.77 56.8645 127.943C57.0441 128.116 57.2831 128.213 57.5324 128.216C57.7852 128.213 58.0265 128.11 58.2035 127.929C58.3806 127.749 58.4789 127.506 58.477 127.253L58.1754 124.917C58.1642 124.665 58.0558 124.427 57.8729 124.253C57.6901 124.079 57.447 123.982 57.1945 123.983V123.983Z" fill="#078F86"/>
<path d="M63.4469 120.55C63.2086 120.626 63.009 120.792 62.8899 121.012C62.7707 121.232 62.7412 121.489 62.8075 121.731L63.218 124.023C63.2912 124.264 63.4561 124.466 63.6771 124.585C63.8981 124.705 64.1574 124.733 64.3987 124.663C64.637 124.586 64.8366 124.421 64.9557 124.201C65.0749 123.981 65.1044 123.723 65.0381 123.482L64.6276 121.189C64.5544 120.949 64.3895 120.747 64.1685 120.627C63.9475 120.508 63.6882 120.48 63.4469 120.55Z" fill="#078F86"/>
<path d="M18.5577 88.2528L19.6476 91.8858C20.0109 93.0556 21.8274 92.5179 21.4641 91.3444L20.3742 87.7115C20.029 86.5453 18.2125 87.0829 18.5577 88.2528Z" fill="#078F86"/>
<path d="M24.5049 81.1139C24.2666 81.1902 24.067 81.3557 23.9479 81.5757C23.8287 81.7958 23.7992 82.0533 23.8655 82.2946L24.2724 84.3727C24.3455 84.6131 24.5105 84.8151 24.7315 84.9347C24.9525 85.0544 25.2117 85.0822 25.4531 85.0121C25.6914 84.9357 25.891 84.7703 26.0101 84.5502C26.1293 84.3302 26.1588 84.0726 26.0925 83.8314L25.6856 81.7533C25.6124 81.5128 25.4475 81.3109 25.2265 81.1912C25.0055 81.0715 24.7462 81.0438 24.5049 81.1139V81.1139Z" fill="#078F86"/>
<path d="M40.8243 75.2066C40.7965 76.0869 40.9193 76.9654 41.1876 77.8042C41.5509 78.9668 43.3674 78.4327 43.0041 77.2629C42.7909 76.5868 42.6975 75.8786 42.728 75.1703C42.7679 73.946 40.8715 73.9932 40.8243 75.2066Z" fill="#078F86"/>
<path d="M52.2536 72.5327C52.0095 72.4744 51.7522 72.5145 51.5374 72.6444C51.3225 72.7742 51.1674 72.9834 51.1056 73.2266L50.7423 75.3629C50.6887 75.6067 50.7309 75.8618 50.86 76.0754C50.9891 76.2891 51.1954 76.445 51.4362 76.5109C51.6803 76.5692 51.9376 76.5291 52.1524 76.3993C52.3673 76.2694 52.5224 76.0603 52.5842 75.817L52.9475 73.6808C53.0011 73.4369 52.959 73.1818 52.8298 72.9682C52.7007 72.7545 52.4944 72.5987 52.2536 72.5327Z" fill="#078F86"/>
<path d="M57.1728 81.1539C57.1333 82.2487 57.2088 83.3446 57.398 84.4236C57.4703 84.6646 57.6352 84.8672 57.8564 84.987C58.0777 85.1068 58.3374 85.1341 58.5787 85.063C58.8165 84.9859 59.0155 84.8203 59.1345 84.6005C59.2536 84.3807 59.2835 84.1236 59.2181 83.8823C59.0743 82.9694 59.0256 82.0441 59.0728 81.1212C59.1201 79.8933 57.2236 79.9405 57.1728 81.1539Z" fill="#078F86"/>
<path d="M52.5588 82.4508C52.32 82.5264 52.1198 82.6917 52.0005 82.912C51.8812 83.1323 51.8521 83.3902 51.9194 83.6315L52.101 84.2383C52.1334 84.3612 52.1901 84.4763 52.2678 84.5769C52.3456 84.6774 52.4427 84.7613 52.5535 84.8236C52.6643 84.8858 52.7865 84.9252 52.9128 84.9393C53.0391 84.9533 53.167 84.9419 53.2888 84.9056C53.4106 84.8693 53.5239 84.8089 53.6218 84.728C53.7198 84.647 53.8006 84.5472 53.8592 84.4345C53.9179 84.3217 53.9532 84.1983 53.9633 84.0716C53.9733 83.9449 53.9577 83.8175 53.9175 83.6969L53.7359 83.0902C53.6619 82.8512 53.4974 82.6505 53.2774 82.531C53.0575 82.4115 52.7996 82.3828 52.5588 82.4508V82.4508Z" fill="#078F86"/>
<path d="M65.3506 103.78C64.9472 103.296 64.7456 102.676 64.7874 102.047C64.7826 101.796 64.6781 101.556 64.4969 101.382C64.3156 101.208 64.0725 101.112 63.8211 101.117C63.5696 101.122 63.3303 101.226 63.1559 101.408C62.9815 101.589 62.8862 101.832 62.891 102.083C62.8427 103.057 63.1442 104.016 63.7411 104.786C63.8794 104.994 64.0919 105.141 64.3351 105.197C64.5783 105.253 64.8337 105.214 65.049 105.088C65.2611 104.953 65.4117 104.741 65.4681 104.496C65.5245 104.251 65.4823 103.994 65.3506 103.78V103.78Z" fill="#078F86"/>
<path d="M57.1073 112.539C56.869 112.616 56.6694 112.781 56.5503 113.001C56.4311 113.221 56.4016 113.479 56.4679 113.72L56.882 116.009C56.9552 116.249 57.1201 116.451 57.3412 116.571C57.5622 116.691 57.8214 116.718 58.0628 116.648C58.3011 116.572 58.5006 116.406 58.6198 116.186C58.7389 115.966 58.7685 115.709 58.7022 115.467L58.288 113.179C58.2149 112.938 58.0499 112.736 57.8289 112.617C57.6079 112.497 57.3486 112.469 57.1073 112.539V112.539Z" fill="#078F86"/>
<path d="M22.3941 111.511C22.2547 112.205 22.2595 112.92 22.4082 113.612C22.557 114.304 22.8465 114.958 23.2587 115.533C23.9853 116.514 25.5911 115.533 24.8682 114.53C24.5902 114.17 24.3904 113.756 24.2815 113.314C24.1727 112.873 24.1572 112.413 24.236 111.965C24.454 110.763 22.6121 110.309 22.3941 111.511Z" fill="#078F86"/>
<path d="M23.4622 70.9815C23.0154 70.8725 22.3723 71.1632 22.3142 71.6754C22.1867 72.7102 22.252 73.7597 22.5068 74.7707C22.8119 75.9551 24.6284 75.4138 24.3233 74.2294C24.1399 73.5443 24.0821 72.8316 24.1525 72.1259C24.2034 71.8832 24.1605 71.6303 24.0324 71.418C23.9043 71.2056 23.7006 71.0497 23.4622 70.9815V70.9815Z" fill="#078F86"/>
<path d="M28.8753 67.3412C28.9036 67.9562 28.8224 68.5712 28.6355 69.1577C28.6039 69.2794 28.5967 69.4061 28.6145 69.5305C28.6323 69.655 28.6746 69.7746 28.739 69.8826C28.8034 69.9905 28.8887 70.0845 28.9898 70.1592C29.0909 70.2339 29.2058 70.2877 29.3279 70.3176C29.45 70.3475 29.5768 70.3527 29.701 70.3332C29.8252 70.3136 29.9442 70.2695 30.0511 70.2035C30.1581 70.1375 30.2509 70.0508 30.3241 69.9487C30.3973 69.8465 30.4494 69.7307 30.4775 69.6082C30.7072 68.8631 30.8067 68.0839 30.7717 67.3049C30.7209 66.0842 28.8245 66.1205 28.8753 67.3412Z" fill="#078F86"/>
<path d="M37.1368 66.4184L37.0895 69.085C37.0677 70.3094 38.9642 70.2658 38.986 69.0487L39.0332 66.3821C39.055 65.1578 37.1586 65.1977 37.1368 66.4184Z" fill="#078F86"/>
<path d="M47.251 63.6537C47.1164 63.4416 46.9037 63.2911 46.6589 63.2346C46.4142 63.1782 46.157 63.2204 45.9431 63.3522C45.7347 63.4899 45.5871 63.7024 45.531 63.9459C45.4749 64.1893 45.5145 64.445 45.6416 64.6601C46.0147 65.4935 46.1517 66.4134 46.0376 67.3194C46.0443 67.5703 46.1493 67.8085 46.3302 67.9825C46.511 68.1565 46.753 68.2524 47.004 68.2495C47.2536 68.2392 47.4897 68.1329 47.6629 67.9529C47.8362 67.7729 47.9333 67.5329 47.934 67.2831C48.0453 66.0335 47.8089 64.7774 47.251 63.6537V63.6537Z" fill="#078F86"/>
<path d="M27.6474 127.947C27.1992 127.079 26.8716 126.153 26.6738 125.197C26.4158 124.001 24.5993 124.55 24.8573 125.738C25.1031 126.857 25.5003 127.938 26.038 128.95C26.6011 130.029 28.2105 129.022 27.6474 127.947Z" fill="#078F86"/>
<path d="M70.6366 106.142C70.1752 106.142 69.6302 106.599 69.7065 107.108L69.9935 108.993C70.0064 109.242 70.1135 109.477 70.2929 109.649C70.4724 109.822 70.7109 109.92 70.9599 109.924C71.4213 109.924 71.9663 109.466 71.89 108.957L71.603 107.072C71.5901 106.823 71.483 106.588 71.3036 106.416C71.1241 106.243 70.8856 106.145 70.6366 106.142V106.142Z" fill="#078F86"/>
<path d="M103.555 98.6249C104.115 97.9919 104.762 97.4414 105.477 96.9901C105.89 96.3658 106.378 95.7947 106.93 95.2898C113.219 89.477 123.035 90.1637 130.784 91.7985C135.453 92.742 139.974 94.3072 144.227 96.4524C147.86 98.3343 152.619 100.812 154.159 104.859C154.656 106.092 154.762 107.447 154.464 108.742C154.165 110.036 153.477 111.208 152.492 112.1C151.903 113.108 151.099 113.973 150.137 114.634C149.174 115.295 148.078 115.734 146.926 115.922C142.566 116.681 137.665 115.115 133.418 114.29C130.27 113.678 127.121 113.03 123.973 112.347C122.538 112.147 121.106 111.933 119.678 111.689C115.224 110.937 109.913 110.458 105.833 108.419C101.946 106.498 100.562 102.044 103.555 98.6249Z" fill="#6FD5B9"/>
<path d="M97.4735 67.6719C98.9884 60.4931 105.466 57.3324 111.966 61.0743C113.039 61.6975 114.067 62.3956 115.043 63.1633C114.178 57.0993 114.066 50.9516 114.712 44.8603C115.893 34.4917 120.271 21.442 129.949 16.0325C138.864 11.0516 150.265 13.4313 157.447 20.3557C165.668 28.2829 168.455 39.636 168.259 50.7457C168.123 57.7624 167.179 64.7401 165.447 71.541C165.318 72.0496 165.186 72.5582 165.051 73.0669C164.324 83.6861 160.728 94.527 151.245 100.056C145.389 103.471 138.708 103.362 132.169 102.676C125.738 102 119.112 101.223 113.124 98.625C107.255 96.1378 102.559 91.502 99.9948 85.6661C97.666 80.3873 96.2601 73.3684 97.4735 67.6719Z" fill="#18AAA1"/>
<path d="M121.713 51.7847C122.745 50.7298 123.926 49.8315 125.219 49.1181C125.254 49.0923 125.287 49.0631 125.317 49.0309C127.654 49.571 129.994 50.0942 132.336 50.6004C132.357 50.7482 132.408 50.8903 132.485 51.0182C133.277 52.3442 134.014 53.6993 134.708 55.0762C133.081 56.3357 131.481 57.6339 129.909 58.9708C129.803 58.9685 129.696 58.9794 129.593 59.0035C128.208 59.3421 126.772 59.4149 125.36 59.2179C124.016 59.0398 123.686 61.1215 125.03 61.2996C126.235 61.461 127.457 61.461 128.663 61.2996C128.512 62.3327 128.441 63.3762 128.452 64.4203C128.452 65.7754 130.559 65.532 130.548 64.1842C130.543 63.094 130.647 62.006 130.857 60.9363C132.596 59.4564 134.367 58.0214 136.169 56.6312C137.622 58.2999 139.142 59.896 140.728 61.4194C140.146 64.8956 139.338 68.33 138.308 71.7008C138.248 71.7448 138.192 71.7947 138.141 71.8498L134.872 75.6572C133.985 76.6889 135.62 78.0186 136.503 76.9941L138.279 74.9197C138.364 75.6245 138.422 76.3317 138.454 77.0413C138.512 78.3964 140.604 78.1567 140.55 76.8052C140.494 75.515 140.346 74.2305 140.107 72.9615C141.294 69.1416 142.215 65.2437 142.861 61.2959C143.038 61.2745 143.207 61.2069 143.351 61.0997C144.406 60.3282 145.563 59.7059 146.788 59.2506C147.456 60.6057 148.11 61.968 148.746 63.3413C148.714 63.4714 148.714 63.6072 148.746 63.7373C149.03 64.8989 149.113 66.1008 148.989 67.2904C148.844 68.6346 150.926 68.9688 151.071 67.621C151.15 66.9056 151.168 66.185 151.126 65.4666C151.365 65.6192 151.605 65.7827 151.852 65.9643C152.92 66.8035 154.254 65.1723 153.189 64.3331C152.478 63.7753 151.702 63.3045 150.879 62.9308C150.863 62.8648 150.841 62.8003 150.813 62.7382C150.007 60.9835 149.164 59.2469 148.303 57.5249C148.951 56.2942 149.756 55.1524 150.697 54.128C152.626 54.455 154.555 54.782 156.488 55.0871C157.017 55.7736 157.419 56.5486 157.676 57.3759C158.083 58.6729 160.045 57.8991 159.638 56.6094C159.404 55.8718 159.074 55.1683 158.657 54.5168C158.909 54.3713 159.152 54.2099 159.383 54.0336C160.048 53.5286 160.669 52.8419 161.541 52.7584C162.893 52.624 162.657 50.5314 161.305 50.6621C160.466 50.7684 159.674 51.1069 159.016 51.6394C158.352 52.1335 157.716 52.8528 156.866 52.9873L156.8 53.0054C154.984 52.7184 153.146 52.4096 151.318 52.1008C151.406 51.9112 151.428 51.6976 151.38 51.4941L150.461 46.9492C151.22 46.4987 151.983 46.0482 152.753 45.6087L154.512 45.3362C155.849 45.1291 155.62 43.0329 154.275 43.2399C154.59 42.6515 154.869 42.0449 155.111 41.4234C155.598 40.1592 153.68 39.2872 153.193 40.5515C152.732 41.7599 152.122 42.9059 151.376 43.9629V43.992C150.584 44.4449 149.797 44.9051 149.015 45.3725C148.596 44.8203 148.162 44.2778 147.714 43.7449C147.264 43.1177 146.766 42.5262 146.225 41.9757L147.384 35.2946C147.418 35.1147 147.403 34.9289 147.34 34.7569C147.692 33.6149 148.264 32.5525 149.022 31.6289C149.876 30.5717 148.245 29.2384 147.391 30.292C147.099 30.6577 146.829 31.0411 146.584 31.44C146.374 30.6952 146.141 29.9541 145.858 29.2239C145.385 27.9523 143.42 28.7152 143.896 29.9904C144.484 31.5629 144.919 33.1883 145.197 34.8441C145.215 34.9241 145.242 35.0021 145.277 35.0766L144.078 41.9793C142.741 41.9284 141.396 42.3608 140.103 42.7967C139.098 41.1691 138.07 39.5549 137.019 37.9539C137.022 37.9019 137.022 37.8497 137.019 37.7977L137.037 34.8913C137.037 34.3173 136.387 33.9032 135.871 33.9613C135.596 34.001 135.348 34.1437 135.175 34.3603C135.002 34.577 134.918 34.8513 134.941 35.1275V36.2573C134.443 36.0212 133.938 35.7923 133.447 35.5307C132.23 34.9168 131.369 36.8422 132.576 37.449C133.375 37.8522 134.189 38.2337 135.002 38.6079C135.032 38.7294 135.082 38.8449 135.151 38.9494C136.045 40.2972 136.913 41.6632 137.771 43.0329C137.732 43.0644 137.696 43.0984 137.662 43.1346C136.098 44.8867 134.642 46.732 133.302 48.6604C130.638 48.0936 127.974 47.5027 125.31 46.8875C124.493 46.0111 123.611 45.1974 122.672 44.4534C121.757 43.7268 120.358 44.9547 121.153 45.8884L122.97 48.021C121.915 48.7252 120.941 49.5427 120.064 50.4587C119.148 51.4287 120.776 52.7511 121.713 51.7847ZM138.821 45.0201C138.901 45.0693 138.988 45.1072 139.079 45.1327C140.033 46.707 140.962 48.2947 141.865 49.8956L141.313 50.2589C139.395 49.8956 137.48 49.4923 135.569 49.0963C136.586 47.694 137.669 46.3353 138.817 45.0201H138.821ZM143.711 44.0574L143.068 47.7739C142.457 46.7131 141.837 45.6583 141.208 44.6096C142.006 44.2901 142.852 44.1035 143.711 44.0574V44.0574ZM147.191 46.4551C146.53 46.862 145.872 47.2689 145.218 47.6867L145.742 44.6604C146.021 44.991 146.301 45.3217 146.573 45.6595C146.784 45.9138 146.988 46.1827 147.191 46.4479V46.4551ZM149.302 51.7448C147.816 51.4868 146.334 51.2071 144.851 50.931L144.71 50.6694L144.739 50.5096C145.95 49.703 147.186 48.9159 148.448 48.1481L148.535 48.268C148.561 48.301 148.589 48.3326 148.619 48.3625L149.295 51.7012C149.295 51.7012 149.302 51.7303 149.302 51.7448ZM147.162 55.2761C146.824 54.6221 146.486 53.9645 146.141 53.3142C146.868 53.4414 147.562 53.5831 148.274 53.7066C147.873 54.2085 147.5 54.7312 147.155 55.2724L147.162 55.2761ZM143.34 58.5893C143.544 57.3868 143.747 56.1807 143.958 54.9781L144.125 54.0154C144.716 55.1223 145.293 56.2364 145.858 57.3578C144.984 57.6944 144.142 58.1065 143.34 58.5893V58.5893ZM137.851 55.3596C139.146 54.3908 140.457 53.445 141.782 52.5222L142.228 52.6058L142.101 53.3324C141.782 55.1816 141.48 57.0381 141.168 58.8945C140.027 57.7392 138.908 56.573 137.851 55.3451V55.3596ZM136.397 53.812C135.937 52.9158 135.453 52.0306 134.944 51.1562C136.263 51.4287 137.582 51.7012 138.901 51.9628C138.07 52.561 137.238 53.1725 136.405 53.7974L136.397 53.812Z" fill="#6FD5B9"/>
<path d="M152.833 86.3018C152.924 87.7432 152.726 89.1882 152.252 90.5524C151.859 91.7041 150.134 90.9157 150.526 89.7677C150.881 88.7163 151.024 87.605 150.948 86.498C150.871 85.2955 152.753 85.0812 152.833 86.3018Z" fill="#078F86"/>
<path d="M148.76 89.4698C148.757 91.0356 148.589 92.5967 148.259 94.1273C147.998 95.3153 146.123 95.0246 146.385 93.8294C146.693 92.4674 146.857 91.0768 146.875 89.6805C146.882 88.4852 148.768 88.2636 148.76 89.4698Z" fill="#078F86"/>
<path d="M139.765 91.2427C139.959 92.3887 140.046 93.5501 140.027 94.7122C140.047 94.9606 139.972 95.2074 139.817 95.4024C139.661 95.5974 139.438 95.726 139.191 95.7621C138.941 95.7887 138.691 95.716 138.495 95.5596C138.298 95.4033 138.171 95.1758 138.141 94.9265C138.161 93.7644 138.073 92.603 137.88 91.457C137.676 90.2472 139.565 90.0438 139.765 91.2427Z" fill="#078F86"/>
<path d="M129.291 92.1146C129.541 92.088 129.791 92.1607 129.988 92.3171C130.184 92.4735 130.311 92.7009 130.341 92.9502L130.407 94.8903C130.429 95.139 130.354 95.3867 130.199 95.5822C130.043 95.7776 129.818 95.9057 129.571 95.9402C129.321 95.9668 129.071 95.8941 128.875 95.7377C128.678 95.5813 128.551 95.3539 128.521 95.1046L128.456 93.1646C128.434 92.9158 128.508 92.6681 128.664 92.4727C128.819 92.2773 129.044 92.1491 129.291 92.1146V92.1146Z" fill="#078F86"/>
<path d="M115.253 89.7059C115.352 90.7265 115.66 91.7159 116.158 92.6123C116.405 93.0628 116.053 93.6695 115.62 93.8403C115.386 93.925 115.128 93.9165 114.899 93.8164C114.671 93.7164 114.489 93.5325 114.392 93.3026C113.826 92.2548 113.477 91.103 113.368 89.9167C113.252 88.7032 115.152 88.4889 115.253 89.7059Z" fill="#078F86"/>
<path d="M105.971 83.7442L106.629 87.2827C106.854 88.4853 104.965 88.6887 104.743 87.4935L104.086 83.9549C103.86 82.7524 105.749 82.5671 105.971 83.7442Z" fill="#078F86"/>
<path d="M106.327 69.8843C106.574 69.9288 106.794 70.0672 106.941 70.2704C107.088 70.4736 107.15 70.7259 107.115 70.9742L106.941 73.7171C106.9 73.9657 106.762 74.188 106.558 74.3356C106.354 74.4832 106.1 74.5443 105.851 74.5055C105.604 74.461 105.384 74.3226 105.237 74.1194C105.09 73.9162 105.028 73.664 105.063 73.4156L105.237 70.6727C105.278 70.4242 105.416 70.2019 105.62 70.0542C105.824 69.9066 106.078 69.8455 106.327 69.8843V69.8843Z" fill="#078F86"/>
<path d="M114.788 78.1203C115.118 77.2022 115.324 76.2444 115.402 75.272C115.508 74.055 117.382 74.3565 117.277 75.5699C117.171 76.7104 116.914 77.8319 116.514 78.905C116.1 80.0494 114.374 79.2647 114.788 78.1203Z" fill="#078F86"/>
<path d="M152.593 76.649C152.993 75.3112 153.259 73.9374 153.389 72.5473C153.509 71.3303 155.383 71.6318 155.264 72.8452C155.102 74.4021 154.787 75.9391 154.323 77.4337C153.967 78.5962 152.241 77.8043 152.593 76.649Z" fill="#078F86"/>
<path d="M146.17 78.0223C146.217 77.7767 146.356 77.5584 146.559 77.4118C146.761 77.2653 147.012 77.2017 147.26 77.2339C147.718 77.3066 148.194 77.8224 148.048 78.3238L147.569 79.955C147.522 80.2006 147.383 80.4189 147.18 80.5654C146.978 80.712 146.727 80.7756 146.479 80.7434C146.021 80.6707 145.545 80.1548 145.691 79.6535L146.17 78.0223Z" fill="#078F86"/>
<path d="M128.594 80.271C128.843 80.2444 129.094 80.3171 129.29 80.4735C129.487 80.6299 129.614 80.8573 129.644 81.1066C129.644 81.8913 129.644 82.6761 129.644 83.4608C129.665 83.7094 129.59 83.9566 129.435 84.1518C129.279 84.347 129.055 84.4754 128.808 84.5107C128.558 84.5374 128.308 84.4646 128.112 84.3083C127.915 84.1519 127.788 83.9244 127.758 83.6751C127.758 82.8904 127.758 82.1057 127.758 81.321C127.737 81.0724 127.812 80.8251 127.967 80.6299C128.123 80.4347 128.347 80.3063 128.594 80.271V80.271Z" fill="#078F86"/>
<path d="M121.942 77.6952C122.189 77.7398 122.409 77.8781 122.556 78.0814C122.703 78.2846 122.765 78.5368 122.73 78.7851L122.625 81.1103C122.584 81.3588 122.446 81.5811 122.242 81.7287C122.038 81.8764 121.784 81.9374 121.535 81.8986C121.288 81.8541 121.068 81.7157 120.921 81.5125C120.774 81.3093 120.712 81.0571 120.746 80.8087L120.852 78.4836C120.893 78.2351 121.03 78.0128 121.235 77.8651C121.439 77.7175 121.693 77.6564 121.942 77.6952V77.6952Z" fill="#078F86"/>
<path d="M162.224 39.8068L161.629 43.5524C161.436 44.7586 159.565 44.4643 159.754 43.2545L160.35 39.5089C160.542 38.3028 162.417 38.6079 162.224 39.8068Z" fill="#078F86"/>
<path d="M155.394 33.4999C155.641 33.5444 155.861 33.6828 156.008 33.886C156.155 34.0892 156.218 34.3415 156.183 34.5898L156.052 36.7042C156.011 36.9528 155.873 37.1751 155.669 37.3227C155.465 37.4703 155.211 37.5314 154.962 37.4926C154.715 37.4481 154.495 37.3097 154.348 37.1065C154.201 36.9033 154.139 36.651 154.174 36.4027L154.304 34.2883C154.346 34.0397 154.483 33.8175 154.687 33.6698C154.891 33.5222 155.145 33.4611 155.394 33.4999V33.4999Z" fill="#078F86"/>
<path d="M138.443 29.7834C138.592 30.6501 138.592 31.536 138.443 32.4028C138.232 33.6053 136.361 33.311 136.568 32.1049C136.691 31.4066 136.691 30.6923 136.568 29.9941C136.35 28.7988 138.239 28.5845 138.443 29.7834Z" fill="#078F86"/>
<path d="M126.777 28.628C127.012 28.5386 127.272 28.5448 127.501 28.6454C127.731 28.746 127.912 28.9329 128.005 29.1657L128.634 31.2402C128.718 31.4748 128.71 31.7329 128.61 31.9614C128.51 32.1899 128.326 32.3713 128.096 32.4681C127.862 32.5576 127.602 32.5513 127.372 32.4508C127.142 32.3502 126.961 32.1633 126.868 31.9304L126.243 29.856C126.158 29.6219 126.166 29.3641 126.266 29.1356C126.365 28.9072 126.548 28.7256 126.777 28.628Z" fill="#078F86"/>
<path d="M123.013 37.8159C123.195 38.8957 123.264 39.9915 123.217 41.0856C123.177 41.3345 123.039 41.5574 122.835 41.7052C122.631 41.853 122.376 41.9137 122.127 41.8739C121.881 41.8286 121.661 41.69 121.514 41.487C121.368 41.284 121.305 41.0322 121.339 40.784C121.362 39.8598 121.289 38.9357 121.121 38.0266C120.917 36.8241 122.803 36.6206 123.013 37.8159Z" fill="#078F86"/>
<path d="M127.755 38.4988C128.002 38.5425 128.222 38.6807 128.369 38.8841C128.517 39.0875 128.579 39.3402 128.543 39.5887L128.445 40.2136C128.405 40.4622 128.269 40.6849 128.065 40.8327C127.861 40.9806 127.607 41.0414 127.359 41.0019C127.11 40.9624 126.887 40.8258 126.739 40.6221C126.592 40.4184 126.531 40.1643 126.57 39.9157L126.668 39.2908C126.709 39.0428 126.846 38.8208 127.049 38.6726C127.253 38.5245 127.506 38.4621 127.755 38.4988V38.4988Z" fill="#078F86"/>
<path d="M117.866 61.3177C118.203 60.7843 118.321 60.1415 118.196 59.523C118.182 59.3992 118.193 59.2739 118.228 59.1542C118.262 59.0345 118.32 58.9228 118.398 58.8255C118.476 58.7282 118.572 58.6471 118.681 58.587C118.79 58.5268 118.91 58.4887 119.034 58.4749C119.284 58.4469 119.534 58.5195 119.731 58.6765C119.828 58.7543 119.909 58.8504 119.97 58.9595C120.03 59.0686 120.068 59.1885 120.082 59.3123C120.257 60.2706 120.085 61.2602 119.595 62.1024C119.485 62.3268 119.294 62.5008 119.06 62.5886C118.827 62.6765 118.568 62.6715 118.338 62.5747C118.11 62.4694 117.932 62.2784 117.844 62.0431C117.755 61.8079 117.763 61.5472 117.866 61.3177Z" fill="#078F86"/>
<path d="M127.181 68.9252C127.427 68.9697 127.647 69.1081 127.794 69.3113C127.941 69.5145 128.004 69.7668 127.969 70.0151L127.856 72.3402C127.815 72.5888 127.678 72.8111 127.474 72.9587C127.269 73.1064 127.015 73.1674 126.766 73.1286C126.52 73.0841 126.3 72.9457 126.153 72.7425C126.006 72.5393 125.943 72.287 125.978 72.0387L126.091 69.7136C126.132 69.465 126.269 69.2428 126.473 69.0951C126.677 68.9475 126.932 68.8864 127.181 68.9252V68.9252Z" fill="#078F86"/>
<path d="M161.461 63.3668C161.69 64.0363 161.778 64.7456 161.72 65.4505C161.663 66.1555 161.461 66.8411 161.127 67.4648C160.55 68.5293 158.813 67.7554 159.402 66.6801C159.631 66.2868 159.775 65.8501 159.826 65.3978C159.877 64.9455 159.832 64.4876 159.696 64.0534C159.322 62.8945 161.087 62.2006 161.461 63.3668Z" fill="#078F86"/>
<path d="M155.115 23.3238C155.543 23.1567 156.205 23.3638 156.343 23.8615C156.603 24.8714 156.675 25.9209 156.553 26.9568C156.408 28.1702 154.533 27.8723 154.679 26.6589C154.771 25.9559 154.735 25.242 154.573 24.5517C154.491 24.3166 154.501 24.0588 154.601 23.8307C154.702 23.6026 154.885 23.4214 155.115 23.3238V23.3238Z" fill="#078F86"/>
<path d="M149.262 20.4247C149.315 21.0368 149.476 21.6345 149.738 22.1903C149.783 22.3065 149.805 22.4305 149.802 22.5552C149.8 22.6798 149.773 22.8028 149.723 22.917C149.673 23.0312 149.6 23.1344 149.511 23.2207C149.421 23.307 149.314 23.3748 149.198 23.4201C149.082 23.4654 148.958 23.4874 148.833 23.4849C148.709 23.4823 148.586 23.4552 148.472 23.4051C148.357 23.355 148.254 23.2829 148.168 23.1929C148.082 23.1029 148.014 22.9968 147.968 22.8806C147.642 22.172 147.441 21.4125 147.373 20.6354C147.267 19.4184 149.153 19.2077 149.262 20.4247Z" fill="#078F86"/>
<path d="M140.946 20.5882L141.338 23.2257C141.52 24.4355 139.634 24.6426 139.453 23.4364L139.064 20.8061C138.886 19.5891 140.772 19.382 140.946 20.5882Z" fill="#078F86"/>
<path d="M130.559 19.1677C130.664 18.9394 130.855 18.7619 131.091 18.6735C131.326 18.5851 131.587 18.5929 131.816 18.6954C132.041 18.8042 132.216 18.9954 132.304 19.2294C132.392 19.4634 132.386 19.7223 132.289 19.9524C132.028 20.8276 132.013 21.7576 132.245 22.6408C132.272 22.8905 132.199 23.1407 132.042 23.3371C131.886 23.5336 131.659 23.6607 131.409 23.6907C131.16 23.7136 130.912 23.6395 130.717 23.4838C130.521 23.3281 130.393 23.1029 130.359 22.8552C130.085 21.6311 130.154 20.3549 130.559 19.1677V19.1677Z" fill="#078F86"/>
<path d="M158.402 80.3474C158.734 79.4288 158.938 78.4693 159.009 77.4955C159.107 76.2784 160.978 76.5836 160.884 77.7934C160.786 78.9353 160.533 80.0585 160.132 81.1321C159.71 82.2765 157.985 81.4772 158.402 80.3474Z" fill="#078F86"/>
<path d="M112.932 64.3513C113.39 64.3004 113.989 64.6746 113.982 65.1869L113.946 67.0942C113.966 67.3426 113.891 67.5894 113.735 67.7844C113.58 67.9794 113.357 68.108 113.11 68.1441C112.652 68.195 112.053 67.8208 112.06 67.3086L112.096 65.4012C112.076 65.1528 112.151 64.9061 112.307 64.711C112.462 64.516 112.685 64.3874 112.932 64.3513V64.3513Z" fill="#078F86"/>
</svg>
