<svg width="311" height="300" viewBox="0 0 311 300" fill="none" xmlns="http://www.w3.org/2000/svg">
<path d="M306.982 68.2629L306.926 68.0642C306.603 66.8596 306.305 65.773 305.976 64.7423C305.902 64.4878 305.809 64.2084 305.709 63.9227V63.8606L305.666 63.724C305.43 62.9789 305.157 62.1283 304.821 61.1907C304.387 59.9489 303.921 58.7071 303.449 57.5646C302.878 56.1489 302.207 54.6588 301.481 53.0071C301.326 52.6656 301.164 52.3303 301.009 51.995L300.891 51.7529C300.344 50.598 299.773 49.4307 299.183 48.2944L299.078 48.0833C298.923 47.7791 298.761 47.4624 298.6 47.1706C296.971 44.0921 295.189 41.0976 293.26 38.1984L293.005 37.8259C292.086 36.4599 291.099 35.0752 290.075 33.7154L290.031 33.6596L289.864 33.4422C286.473 28.9561 282.669 24.7985 278.501 21.024C272.449 15.528 265.597 10.9848 258.178 7.55027C247.281 2.53952 235.205 0 222.197 0C211.84 0 200.949 1.55849 188.897 4.76859C160.193 12.412 133.524 29.6857 104.975 59.1231C103.23 60.9237 101.423 62.8486 99.2937 65.1459L98.6728 65.8351L98.5113 66.0152C96.7541 67.9338 94.9784 69.9207 93.2584 71.8766L93.2025 71.9387C79.7723 87.2814 66.8325 104.667 53.6443 125.107L53.6071 125.169C51.9555 127.727 50.2293 130.441 48.4846 133.241L47.8637 134.278L47.6712 134.582C45.8705 137.482 44.2872 140.059 42.8343 142.455C34.0056 157.146 26.0785 172.359 19.0969 188.012C18.2524 189.874 17.4266 191.737 16.6629 193.488C12.2545 203.59 8.6718 212.935 5.70385 222.05C5.47411 222.758 5.25058 223.447 5.03947 224.124L4.59242 225.54V225.633C2.20192 233.264 0.531664 240.205 0.146699 249.227C-0.051992 253.872 -0.0457829 258.653 0.146699 263.837C0.311115 268.932 1.52537 273.938 3.71345 278.541C5.90154 283.145 9.01636 287.248 12.8629 290.592C16.7827 293.973 21.3402 296.535 26.2663 298.125C31.1923 299.716 36.3872 300.303 41.544 299.853C46.7009 299.403 51.7153 297.924 56.2912 295.504C60.867 293.083 64.9116 289.771 68.1861 285.762L70.0798 283.458C73.1844 279.671 76.4442 275.753 79.5177 271.226L79.6543 271.027L79.6915 270.972C80.2628 270.121 80.7781 269.326 81.2686 268.544L81.3307 268.451C82.6648 266.327 83.8855 264.134 84.9879 261.881C87.4157 256.871 89.7565 251.816 92.0228 246.93C92.9128 245.009 93.8048 243.089 94.6989 241.168L95.0653 240.392L95.1212 240.274C95.2329 240.056 95.3385 239.839 95.444 239.622C101.206 227.396 107.533 215.406 114.258 203.944C115.257 202.237 116.282 200.542 117.3 198.847L117.766 198.07L118.461 196.909L119.032 195.947L119.691 194.854C120.467 193.569 121.237 192.277 122.025 190.998L122.733 189.856L122.777 189.787L124.751 186.627C125.558 185.385 126.372 184.143 127.191 182.902C129.277 179.797 131.432 176.63 133.593 173.588C134.99 171.607 136.43 169.639 137.939 167.553L138.088 167.348C139.33 165.622 140.715 163.796 142.503 161.424L142.658 161.219L143.838 159.667C145.08 158.04 146.377 156.37 147.687 154.7C148.551 153.601 149.438 152.502 150.326 151.397L150.78 150.832C151.612 149.795 152.444 148.758 153.263 147.727C155.53 144.976 157.436 142.698 159.255 140.587C162.937 136.302 166.352 132.515 169.699 129C171.599 127.007 173.499 125.07 175.349 123.251C175.763 122.857 176.156 122.444 176.529 122.009C177.063 121.58 177.696 121.071 178.391 120.488C182.117 117.191 185.917 114.154 189.568 111.466C191.604 109.982 193.641 108.579 195.616 107.306C196.33 106.846 197.056 106.387 197.776 105.946L197.95 105.871L198.627 105.586C200.403 104.791 202.036 104.003 203.594 103.233C205.599 102.209 207.655 101.289 209.754 100.476C210.461 100.227 211.107 99.9666 211.71 99.7182C212.33 99.6189 212.951 99.5195 213.51 99.4202C213.473 99.8051 213.442 100.184 213.405 100.556C213.405 100.817 213.355 101.14 213.324 101.469C213.051 102.134 212.784 102.798 212.523 103.462C212.07 104.605 211.635 105.685 211.244 106.567C210.331 108.572 209.251 110.652 208.139 112.857C204.637 119.612 200.279 128.026 198.757 138.662C198.627 139.581 198.521 140.524 198.441 141.524C198.385 142.226 198.36 142.822 198.341 143.219V143.312C198.341 143.61 198.341 143.884 198.304 144.157C198.304 144.877 198.304 145.628 198.304 146.448C198.304 146.554 198.304 146.653 198.304 146.758C199.006 171.998 218.744 192.551 242.296 192.551C248.648 192.528 254.914 191.079 260.631 188.31C279.426 179.369 288.839 165.268 294.943 153.986C297.896 148.506 300.434 142.813 302.536 136.954L302.617 136.724C303.083 135.433 303.48 134.241 303.859 133.167L304.045 132.583V132.496C304.387 131.447 304.716 130.41 305.032 129.392C305.144 129.031 305.25 128.659 305.355 128.293L305.467 127.908L305.61 127.429C305.79 126.809 305.97 126.188 306.144 125.567C306.498 124.269 306.839 122.971 307.156 121.711C307.473 120.45 307.777 119.022 308.093 117.6C308.143 117.377 308.18 117.16 308.224 116.948C308.478 115.707 308.696 114.521 308.888 113.366L308.944 113.031C311.435 98.1354 310.766 82.883 306.982 68.2629Z" fill="white"/>
<path d="M296.961 70.9266L296.923 70.79C296.631 69.691 296.352 68.7099 296.066 67.791C296.011 67.6047 295.942 67.3936 295.874 67.1701L295.824 67.0211L295.775 66.8658C295.557 66.189 295.315 65.4253 295.036 64.6368C294.651 63.544 294.241 62.4636 293.831 61.4453C293.316 60.1724 292.726 58.8188 292.037 57.3038C291.9 57.012 291.77 56.7264 291.633 56.4345L291.509 56.1675C291.012 55.112 290.491 54.0565 289.963 53.0319L289.845 52.8084L289.441 52.0261C287.974 49.2564 286.368 46.5624 284.629 43.9542L284.449 43.6935C283.605 42.4516 282.711 41.2098 281.785 39.968L281.723 39.8873L281.593 39.7196C278.598 35.752 275.236 32.0745 271.553 28.7357C266.282 23.9447 260.313 19.9835 253.851 16.9881C244.326 12.6107 233.677 10.3878 222.184 10.3878C212.74 10.3878 202.719 11.8345 191.555 14.8087C164.744 21.9492 139.597 38.3288 112.414 66.3443C110.731 68.0828 108.98 69.9331 106.912 72.1746L106.329 72.7955L106.155 72.9818C104.429 74.8445 102.702 76.7942 101.032 78.7004L100.989 78.7439C87.8938 93.714 75.252 110.715 62.3433 130.708L62.2936 130.782C60.6731 133.266 58.978 135.961 57.2643 138.711L56.6433 139.686L56.4509 140.059C54.6688 142.927 53.1104 145.467 51.6823 147.826C43.0647 162.154 35.3263 176.992 28.5099 192.259C27.6779 194.121 26.8707 195.91 26.1256 197.623C21.8537 207.415 18.3891 216.449 15.5204 225.254C15.2969 225.943 15.0796 226.607 14.8995 227.266L14.4649 228.638V228.706C12.2545 235.76 10.8139 241.745 10.4786 249.656C10.2924 254.002 10.2986 258.51 10.4786 263.403C11.0996 278.342 23.0024 289.611 38.2085 289.611C42.4078 289.612 46.5544 288.677 50.3462 286.872C54.1379 285.067 57.4792 282.44 60.1267 279.18L62.0391 276.845C65.0132 273.244 68.0929 269.519 70.8932 265.39L71.005 265.222L71.0361 265.172C71.5514 264.409 72.0109 263.701 72.4393 263.011L72.4766 262.956C73.6088 261.149 74.6451 259.283 75.5811 257.367C77.9716 252.444 80.2876 247.433 82.5353 242.59C83.4294 240.657 84.3256 238.726 85.2239 236.797L85.6274 235.94L85.764 235.66C85.8427 235.511 85.9172 235.362 85.9876 235.213C91.88 222.702 98.3623 210.42 105.236 198.704C106.248 196.978 107.316 195.208 108.34 193.494L108.8 192.737L109.464 191.625L110.085 190.62L110.743 189.527C111.532 188.217 112.32 186.906 113.121 185.603L113.823 184.472L113.953 184.261L115.996 181.039L116.058 180.946C116.886 179.667 117.729 178.39 118.585 177.115C120.721 173.911 122.932 170.694 125.142 167.553C126.589 165.504 128.123 163.405 129.6 161.375L129.762 161.157C131.059 159.382 132.457 157.513 134.276 155.103L134.419 154.917L135.66 153.297C136.902 151.633 138.256 149.931 139.597 148.224C140.491 147.094 141.398 145.964 142.304 144.834L142.745 144.281C143.602 143.213 144.459 142.145 145.322 141.089C147.644 138.264 149.6 135.936 151.463 133.769C155.263 129.354 158.789 125.436 162.254 121.798C164.228 119.724 166.209 117.706 168.14 115.806C168.569 115.384 168.991 114.931 169.382 114.434L169.848 114.061C170.369 113.645 170.965 113.173 171.555 112.652C175.541 109.144 179.565 105.909 183.502 103.034C185.7 101.432 187.898 99.9293 190.034 98.5385C190.984 97.9176 191.946 97.2967 192.902 96.744L193.113 96.6385L193.206 96.595L193.287 96.5578C193.579 96.4212 193.871 96.297 194.107 96.2039L194.442 96.0611C196.069 95.3346 197.621 94.5771 199.13 93.8506C201.481 92.6499 203.896 91.5783 206.363 90.6405C207.208 90.3425 208.021 90.0196 208.81 89.647L209.002 89.5663C209.288 89.5663 209.58 89.498 209.878 89.4546C210.921 89.3055 211.89 89.1255 212.821 88.9578C213.752 88.7902 214.684 88.6225 215.466 88.5232C215.938 88.4611 216.553 88.4239 217.198 88.3804C217.726 88.3493 218.291 88.3121 218.893 88.2562C219.514 88.3431 220.135 88.4239 220.725 88.4859L221.265 88.9703L221.321 89.0448C221.532 89.349 222.041 90.1065 222.52 90.8454L222.712 91.3794C223.085 92.4039 223.445 93.3787 223.693 94.248C223.737 94.4343 223.774 94.6392 223.817 94.8689V94.8999C223.867 95.2973 223.91 95.6699 223.929 95.9617V96.03C223.979 96.6509 223.997 97.3339 224.022 98.0728C224.022 98.346 224.022 98.6192 224.022 98.8924C223.917 99.6748 223.842 100.507 223.761 101.438C223.687 102.276 223.6 103.245 223.494 104.096C223.327 104.456 223.178 104.81 223.029 105.17C222.737 105.871 222.457 106.573 222.178 107.275C221.675 108.517 221.203 109.727 220.707 110.814C219.682 113.062 218.546 115.253 217.341 117.576C214.038 123.952 210.294 131.18 209.021 140.077C208.922 140.791 208.835 141.537 208.773 142.3C208.735 142.716 208.717 143.157 208.698 143.598V143.809C208.698 144.008 208.698 144.213 208.698 144.43C208.698 144.96 208.698 145.558 208.698 146.224C208.698 146.305 208.698 146.38 208.698 146.454C208.949 155.449 212.338 164.073 218.279 170.831C224.711 178.121 233.249 182.138 242.32 182.138C247.13 182.114 251.872 181.011 256.198 178.909C272.186 171.297 280.159 159.524 285.846 149.012C288.531 143.996 290.836 138.787 292.745 133.427L292.819 133.21C293.247 132.006 293.626 130.925 293.962 129.907L294.104 129.454L294.16 129.286C294.477 128.299 294.781 127.33 295.079 126.361C295.172 126.045 295.265 125.741 295.359 125.405L295.483 124.964L295.626 124.468C295.787 123.903 295.955 123.344 296.11 122.779C296.445 121.537 296.768 120.339 297.06 119.153C297.352 117.967 297.637 116.731 297.904 115.427C297.935 115.266 297.966 115.111 297.997 114.962V114.906C298.227 113.769 298.432 112.67 298.618 111.596L298.656 111.36C300.93 97.9125 300.352 84.1368 296.961 70.9266V70.9266Z" fill="black"/>
<path d="M287.032 116.638C291.205 99.9481 290.491 80.8613 284.213 65.3571C277.383 48.4746 265.878 33.9142 249.517 26.395C232.063 18.3728 212.79 19.8754 194.256 24.8117C165.421 32.4923 140.969 51.8213 119.895 73.5594C96.9218 97.2409 77.717 124.853 60.5923 153.179C51.2256 168.809 42.9037 185.042 35.6814 201.771C31.8566 210.545 28.3919 219.374 25.4364 228.47C22.9155 236.219 21.1955 241.919 20.8478 250.109C20.6616 254.455 20.6926 258.684 20.8478 262.993C21.4687 279.081 42.0023 284.967 52.0983 272.623C57.2456 266.327 62.7096 260.205 66.2923 252.816C69.5707 246.055 72.6877 239.2 75.8667 232.388C82.0758 219.084 88.9058 206.095 96.3568 193.42C97.9649 190.682 99.6103 187.962 101.25 185.243C102.274 183.541 103.292 181.84 104.354 180.151L105.254 178.692C105.981 177.562 107.39 175.351 107.39 175.358C108.255 174.033 109.127 172.713 110.004 171.396C112.198 168.105 114.434 164.846 116.71 161.617C125.138 149.658 134.114 138.134 143.639 127.045C147.259 122.835 150.96 118.7 154.784 114.682C156.796 112.571 158.837 110.501 160.907 108.473C161.295 108.086 161.654 107.671 161.981 107.231C162.912 106.412 163.955 105.66 164.769 104.94C168.854 101.345 173.076 97.9239 177.448 94.7324C179.745 93.056 182.084 91.4457 184.464 89.9017C185.52 89.2229 186.581 88.5585 187.649 87.9086C187.941 87.7348 188.307 87.5423 188.686 87.3622L187.798 87.7099C188.208 87.5485 188.612 87.3746 189.04 87.207C189.468 87.0393 189.934 86.8096 190.282 86.6668C194.504 84.8041 198.59 82.4881 202.973 80.942C204.029 80.5694 205.525 79.8306 206.972 79.3028C207.464 79.3896 207.968 79.3791 208.456 79.2717C210.387 78.9923 212.306 78.5515 214.249 78.3093C215.882 78.1044 217.546 78.1044 219.167 77.8871C220.309 78.0672 221.52 78.2162 222.675 78.3466C222.383 78.1727 222.054 77.974 221.725 77.7257C222.221 78.0313 222.755 78.2694 223.314 78.4335C223.793 78.4788 224.254 78.6409 224.655 78.9054C224.761 78.9489 224.885 78.9861 224.978 79.0296C225.214 79.1414 225.941 79.5511 226.63 79.9423L226.897 80.1596C227.576 80.7102 228.228 81.2897 228.853 81.8982L229.145 82.2024C229.393 82.5439 229.66 82.8668 229.902 83.2145C230.144 83.5622 231.219 85.1456 231.964 86.3501C232.585 88.07 233.205 89.7403 233.746 91.5037C233.901 92.0439 234.019 92.6834 234.143 93.3167C234.267 93.9501 234.304 94.6269 234.354 95.285C234.453 96.5269 234.46 97.7687 234.509 99.0105C234.509 99.2092 234.509 99.3892 234.509 99.5569C234.509 99.7245 234.453 99.8673 234.429 100.047C234.174 101.618 234.062 105.077 233.51 107.66C233.156 108.126 232.883 108.649 232.702 109.206C231.877 111.205 231.132 113.223 230.219 115.191C226.164 124.101 220.781 131.701 219.359 141.63C216.751 159.872 233.485 178.313 251.783 169.602C263.58 164.014 270.491 155.731 276.762 144.144C281.388 135.508 284.679 126.039 287.032 116.638Z" fill="#C02942"/>
<path d="M99.958 187.354L69.4341 189.247C59.7044 189.868 50.0182 190.539 40.3072 191.476C38.7176 194.891 37.1674 198.325 35.6566 201.777C31.8317 210.551 28.3671 219.38 25.4115 228.476C25.039 229.613 24.6975 230.699 24.3622 231.761C26.7962 231.922 29.2425 232.028 31.7262 232.022C42.4307 232.022 53.0855 231.86 63.8024 231.333C68.0743 231.121 72.3524 230.948 76.6304 230.768C82.6326 218.031 89.1977 205.583 96.3257 193.426C97.5241 191.383 98.7411 189.371 99.958 187.354Z" fill="#FFF1E9"/>
<path d="M119.877 73.5594C116.089 77.467 112.403 81.478 108.818 85.5926C130.116 84.4998 151.407 82.9786 172.71 81.8051C183.439 81.209 194.171 80.6315 204.904 80.0727C205.525 79.7933 206.239 79.5015 206.91 79.2593C207.402 79.3461 207.906 79.3356 208.394 79.2283C210.325 78.9489 212.244 78.508 214.187 78.2659C215.82 78.061 217.484 78.061 219.105 77.8437C220.247 78.0237 221.458 78.1727 222.613 78.3031C222.321 78.1293 221.992 77.9306 221.663 77.6822C222.159 77.9879 222.693 78.2259 223.252 78.39C223.731 78.4354 224.192 78.5974 224.593 78.8619C224.699 78.9054 224.823 78.9427 224.916 78.9861L225.053 79.0544C245.911 78.032 266.768 77.1544 287.622 76.4218C286.787 72.6468 285.645 68.9463 284.207 65.3571C279.712 54.2553 273.18 44.1717 264.599 36.4165C260.459 36.5986 256.307 36.7828 252.143 36.9691C219.794 38.4841 187.215 40.3531 154.76 43.5073C142.18 52.1007 130.588 62.5134 119.877 73.5594Z" fill="#FFF1E9"/>
<path d="M156.132 113.223C131.453 115.384 106.778 117.621 82.1069 119.935C74.5318 130.77 67.3851 141.915 60.5737 153.179C59.3691 155.17 58.1853 157.173 57.0221 159.189L58.742 159.077C79.6232 157.786 100.498 156.538 121.379 155.066C128.416 145.43 135.818 136.087 143.583 127.038C147.203 122.829 150.904 118.693 154.729 114.676C155.176 114.186 155.666 113.707 156.132 113.223Z" fill="#FFF1E9"/>
<path d="M277.495 142.598C281.656 134.34 284.85 125.629 287.014 116.638C288.126 112.151 288.884 107.584 289.28 102.978L283.133 103.394C266.635 104.512 250.125 105.555 233.628 106.753C233.578 107.045 233.528 107.337 233.466 107.61C233.112 108.076 232.84 108.599 232.659 109.156C231.833 111.155 231.088 113.173 230.175 115.142C226.121 124.052 220.738 131.652 219.316 141.58C219.035 143.579 218.979 145.604 219.148 147.615C237.734 146.109 256.32 144.515 274.906 142.834L277.495 142.598Z" fill="#FFF1E9"/>
<path d="M52.1045 272.623C56.128 267.699 60.3378 262.875 63.6969 257.473C49.4159 258.597 35.104 259.609 20.8106 260.956C20.8106 261.633 20.8106 262.31 20.8541 262.993C21.4874 279.081 41.9961 284.967 52.1045 272.623Z" fill="#FFF1E9"/>
</svg>
