<svg width="140" height="126" viewBox="0 0 140 126" fill="none" xmlns="http://www.w3.org/2000/svg">
<path d="M135.074 30.9429C134.921 29.8704 134.639 28.8204 134.234 27.8159C135.015 25.1799 134.941 22.3645 134.024 19.7729C133.024 16.9152 131.089 14.4787 128.532 12.8583C125.974 11.2379 122.945 10.5286 119.934 10.8453C119.29 10.3029 118.588 9.83343 117.84 9.44557L117.647 9.34758C117.16 7.6511 116.329 6.07302 115.206 4.71162C113.981 3.24301 112.45 2.06023 110.719 1.2463C108.989 0.432371 107.101 0.00700899 105.189 6.89566e-05V6.89566e-05C102.97 -0.00732768 100.79 0.580454 98.8762 1.70216C97.0586 0.706695 95.022 0.178559 92.9497 0.165238C92.6081 0.165238 92.2638 0.182036 91.9251 0.210031C89.3421 0.427117 86.8907 1.44252 84.9108 3.11544C82.9309 4.78835 81.5206 7.03588 80.8754 9.54635C80.4949 11.0285 80.3999 12.5695 80.5955 14.0871C78.9123 17.7625 77.9297 21.7196 77.698 25.7554C77.5042 28.8243 77.6724 31.9054 78.1991 34.935C48.2793 54.4767 22.3754 79.5634 1.88487 108.842C0.797387 110.376 0.153642 112.181 0.0242578 114.058C-0.105127 115.934 0.284848 117.81 1.1514 119.48C2.00107 121.085 3.24831 122.445 4.7738 123.43C6.29929 124.415 8.05202 124.992 9.86431 125.106C11.6766 125.22 13.4879 124.867 15.1248 124.081C16.7617 123.295 18.1696 122.102 19.2138 120.616C37.3545 94.679 60.7835 71.7959 87.3507 54.0303C92.345 59.3774 98.809 62.4792 105.827 62.7088C107.354 63.3987 109.015 63.7406 110.69 63.7098C112.366 63.679 114.013 63.2762 115.513 62.5306C117.014 61.7849 118.33 60.7151 119.366 59.3985C120.402 58.0819 121.132 56.5514 121.505 54.9178C121.546 54.7535 121.582 54.5884 121.614 54.4223C122.823 53.9352 123.99 53.4089 125.11 52.8657C125.967 53.0539 126.842 53.1477 127.719 53.1457C133.349 53.1457 138.243 49.2264 139.623 43.6078C140.22 41.284 140.106 38.8343 139.295 36.5762C138.484 34.3181 137.013 32.3555 135.074 30.9429V30.9429Z" fill="white"/>
<path d="M131.247 34.0532C130.998 33.9226 130.743 33.8049 130.483 33.7005C130.646 32.086 130.355 30.4581 129.643 29.0001C129.492 28.688 129.323 28.3852 129.136 28.0931L129.181 27.9979C130.214 25.7919 130.368 23.4319 129.62 21.3575C129.038 19.6276 127.925 18.1254 126.44 17.0644C124.955 16.0035 123.173 15.4377 121.348 15.4477C120.474 15.446 119.604 15.5772 118.77 15.8369C118.607 15.8873 118.447 15.9433 118.288 16.0048C117.65 14.9744 116.744 14.1365 115.668 13.5805C114.983 13.2177 114.24 12.9752 113.473 12.8638C113.462 10.9745 112.8 9.14664 111.6 7.68754C110.816 6.74863 109.836 5.99268 108.729 5.47278C107.622 4.95288 106.415 4.68163 105.192 4.67808C103.601 4.66987 102.047 5.15284 100.741 6.06103L100.699 6.09183L100.671 6.11142C100.016 6.56667 99.4263 7.10918 98.9183 7.72393C98.7425 7.501 98.5556 7.28704 98.3584 7.08285C96.92 5.66632 94.988 4.8634 92.9694 4.84325C92.765 4.84325 92.5634 4.84325 92.3647 4.87125C90.7394 5.00819 89.197 5.64784 87.9519 6.70136C86.7067 7.75489 85.8205 9.17 85.4163 10.7502C85.0878 12.0773 85.1197 13.468 85.5087 14.7787C82.1493 20.9851 81.385 29.1933 83.4623 37.1242C52.9091 56.5732 26.4919 81.8574 5.72306 111.529C5.12879 112.363 4.7755 113.344 4.70192 114.365C4.62834 115.387 4.83732 116.408 5.30594 117.319C5.81741 118.268 6.57676 119.06 7.50309 119.612C8.42942 120.164 9.48804 120.454 10.5662 120.451C11.5133 120.451 12.4461 120.221 13.2855 119.783C14.1248 119.344 14.8457 118.709 15.3869 117.932C34.6587 90.3707 59.8009 66.197 88.311 47.7959C89.8305 49.9985 91.6781 51.9556 93.7896 53.5993C97.4695 56.4693 102.001 58.0315 106.667 58.0393H106.992C107.113 58.1121 107.237 58.1811 107.362 58.2464C108.321 58.757 109.391 59.0252 110.477 59.0275C111.454 58.9995 112.413 58.7635 113.291 58.3353C114.169 57.907 114.946 57.2964 115.569 56.5442C116.192 55.7919 116.648 54.9154 116.905 53.9731C117.162 53.0308 117.216 52.0444 117.062 51.0797C119.692 50.2172 122.242 49.1288 124.685 47.8267C125.637 48.2483 126.667 48.4667 127.708 48.4678C131.177 48.4678 134.206 46.0098 135.071 42.4909C135.488 40.8592 135.337 39.1341 134.641 37.6002C133.946 36.0662 132.749 34.8151 131.247 34.0532V34.0532Z" fill="black"/>
<path d="M124.864 39.8034C120.418 42.3873 115.242 45.058 110.027 45.4751C105.455 45.8391 100.562 43.8542 96.6899 41.5278C96.2222 41.2436 95.7733 40.9294 95.3461 40.5872C103.624 43.4063 113.795 39.7474 119.52 33.6977C120.519 32.6422 118.87 31.1053 117.871 32.1579C112.692 37.6281 104.932 40.2205 97.5045 38.664C96.8159 38.5184 95.8388 38.384 95.2118 38.0453C102.476 33.7788 109.933 29.8558 117.585 26.2762C118.898 25.6631 117.686 23.7566 116.39 24.3669C108.635 27.9895 101.077 31.9732 93.714 36.318C93.3893 35.285 93.7504 34.0784 94.6631 32.9586C96.088 31.1893 97.9665 29.7896 99.8001 28.4794C103.272 26.0216 106.921 23.8246 110.718 21.9062C112.012 21.2455 110.805 19.339 109.523 19.9969C106.984 21.2959 94.0976 28.317 91.1749 34.0812C90.6495 31.8563 90.7307 29.5312 91.41 27.3484C92.975 22.1917 99.7133 18.8043 103.812 15.7641C104.971 14.9046 103.781 12.9898 102.616 13.8548C98.0505 17.2422 91.3625 20.624 89.3972 26.335C89.3104 26.5869 89.2348 26.8445 89.1621 27.1048C89.33 23.0512 90.475 19.2047 92.7594 16.254C93.6412 15.1146 92.0007 13.5693 91.1105 14.7143C86.2142 21.0411 85.895 30.9514 89.0221 39.1595C57.7059 58.5123 30.666 84.049 9.55558 114.208C8.71573 115.393 10.7314 116.428 11.5516 115.253C32.3868 85.5306 59.0458 60.3537 89.9095 41.2507C93.5349 48.9129 100.338 54.5147 109.285 53.1654C110.704 52.9498 110.617 50.6962 109.178 50.9258C101.62 52.0651 95.7045 47.4936 92.3143 41.0631C92.4151 41.1639 92.5102 41.2703 92.6138 41.3655C96.3624 44.8173 102.773 47.4712 107.84 47.7679C114.237 48.1403 120.701 44.8508 126.073 41.7266C127.333 40.9847 126.129 39.0755 124.864 39.8034Z" fill="#18AAA1"/>
<path d="M95.9116 12.0575C95.7967 11.4088 95.4826 10.8119 95.013 10.3498C94.713 10.0711 94.3604 9.85493 93.9758 9.71408C93.5913 9.57324 93.1825 9.51052 92.7734 9.52959C92.1043 9.57763 91.4677 9.83697 90.9555 10.2702C90.4433 10.7034 90.0819 11.2881 89.9235 11.94C89.7563 12.7206 89.8989 13.5356 90.321 14.2131C90.7185 14.7898 91.34 15.3749 92.0511 15.5401C92.3686 15.6535 92.7056 15.7021 93.0421 15.6829C93.7685 15.6173 94.4499 15.3029 94.971 14.7926C94.4372 15.2648 94.3962 15.3105 94.8478 14.9298C95.1854 14.6977 95.455 14.3798 95.6289 14.0088C95.9288 13.4051 96.0278 12.7215 95.9116 12.0575V12.0575Z" fill="#C02942"/>
<path d="M125.228 22.9448C124.909 21.9268 124.199 21.0768 123.255 20.5809C122.31 20.085 121.208 19.9837 120.189 20.2992C119.172 20.6252 118.322 21.3353 117.82 22.2785C117.378 23.2247 117.179 24.3417 117.54 25.3579C117.859 26.3759 118.569 27.2259 119.513 27.7218C120.458 28.2177 121.561 28.319 122.58 28.0035C123.597 27.6775 124.447 26.9674 124.948 26.0242C125.393 25.0724 125.592 23.9554 125.228 22.9448Z" fill="#C02942"/>
<path d="M113.506 17.7209C111.177 16.5003 109.279 20.1201 111.611 21.3407C113.943 22.5613 115.838 18.9443 113.506 17.7209Z" fill="#C02942"/>
<path d="M107.991 10.6494C106.93 9.3616 104.867 8.87729 103.423 9.88511L103.353 9.9327C102.569 10.4601 102.007 11.2573 101.774 12.1723C101.656 12.6928 101.663 13.2337 101.793 13.7511C101.924 14.2686 102.174 14.7481 102.524 15.151C102.842 15.5367 103.239 15.8505 103.688 16.0715C104.137 16.2924 104.627 16.4156 105.127 16.4328C105.627 16.45 106.125 16.3608 106.588 16.1712C107.051 15.9816 107.468 15.6959 107.812 15.3329L107.871 15.2713C108.443 14.644 108.77 13.8315 108.792 12.9828C108.814 12.134 108.53 11.3057 107.991 10.6494V10.6494Z" fill="#C02942"/>
<path d="M122.854 29.0168C122.341 28.8982 121.809 28.8819 121.289 28.9688C120.769 29.0557 120.272 29.2442 119.825 29.5235C119.293 29.8683 118.858 30.3421 118.559 30.9006C118.26 31.4591 118.107 32.0842 118.114 32.7177C118.13 33.2552 118.253 33.7841 118.477 34.2732C118.7 34.7622 119.02 35.2014 119.416 35.5648C121.197 37.3313 124.304 36.6846 125.429 34.5402C126.555 32.3958 125.318 29.4759 122.854 29.0168Z" fill="#C02942"/>
<path d="M129.077 38.2019C125.718 36.4354 122.955 41.6761 126.334 43.4454C129.713 45.2147 132.456 39.9656 129.077 38.2019Z" fill="#C02942"/>
<path d="M93.5936 11.2065C93.316 11.0612 93.0015 11.0015 92.6899 11.0349C92.3783 11.0684 92.0836 11.1934 91.8431 11.3943C91.6026 11.5952 91.4271 11.863 91.3387 12.1636C91.2503 12.4643 91.2531 12.7844 91.3467 13.0835C91.4402 13.3826 91.6204 13.6472 91.8643 13.8439C92.1083 14.0406 92.4051 14.1605 92.7172 14.1886C93.0293 14.2166 93.3428 14.1514 93.6178 14.0013C93.8929 13.8512 94.1174 13.6229 94.2627 13.3453C94.4524 12.972 94.4886 12.5393 94.3636 12.1397C94.2386 11.7401 93.9622 11.4052 93.5936 11.2065Z" fill="#D95B43"/>
<path d="M104.876 11.0889L104.834 11.1113C104.628 11.2365 104.459 11.4156 104.348 11.6291C104.236 11.8427 104.184 12.0828 104.198 12.3235V12.3711C104.219 12.6837 104.338 12.9817 104.54 13.2218C104.741 13.4618 105.014 13.6316 105.318 13.7064C105.547 13.7555 105.785 13.7475 106.011 13.6831C106.237 13.6187 106.443 13.4998 106.612 13.337C106.781 13.1741 106.908 12.9722 106.981 12.7491C107.053 12.526 107.07 12.2884 107.03 12.0572C106.989 11.826 106.892 11.6083 106.748 11.4232C106.604 11.2382 106.416 11.0914 106.202 10.9958C105.987 10.9002 105.753 10.8587 105.519 10.8749C105.284 10.8911 105.058 10.9646 104.859 11.0889H104.876Z" fill="#D95B43"/>
<path d="M113.369 18.7959C112.627 18.4067 112.02 19.5601 112.765 19.9493C113.509 20.3384 114.111 19.185 113.369 18.7959Z" fill="#D95B43"/>
<path d="M111.407 50.4834C109.078 49.2628 107.18 52.8825 109.512 54.1031C111.843 55.3237 113.739 51.704 111.407 50.4834Z" fill="#C02942"/>
<path d="M111.267 51.5556C110.525 51.1665 109.918 52.3199 110.662 52.709C111.407 53.0982 112.012 51.9448 111.267 51.5556Z" fill="#D95B43"/>
<path d="M122.949 21.9649C120.76 20.8199 118.977 24.2185 121.169 25.3663C123.361 26.5141 125.144 23.1043 122.949 21.9649Z" fill="#D95B43"/>
<path d="M123.014 30.3438C121.127 29.3555 119.587 32.2866 121.479 33.2776C123.372 34.2686 124.903 31.3348 123.014 30.3438Z" fill="#D95B43"/>
<path d="M129.004 39.1454C127.045 38.1263 125.469 41.1498 127.42 42.1716C129.371 43.1934 130.956 40.1616 129.004 39.1454Z" fill="#D95B43"/>
</svg>
