<svg width="297" height="481" viewBox="0 0 297 481" fill="none" xmlns="http://www.w3.org/2000/svg">
<path d="M288.232 398.497C277.104 403.414 269.772 416.655 271.555 428.645C271.898 430.967 271.667 433.338 270.883 435.55C270.099 437.762 268.786 439.749 267.057 441.337C265.329 442.925 263.238 444.066 260.968 444.661C258.697 445.255 256.315 445.284 254.031 444.747C244.815 442.576 234.191 440.678 225.277 443.079C218.29 444.934 212.625 450.152 212.036 455.213C211.753 457.686 210.832 460.043 209.364 462.054C207.896 464.064 205.931 465.659 203.662 466.682C201.393 467.705 198.897 468.121 196.418 467.89C193.939 467.659 191.563 466.788 189.522 465.363C186.774 469.743 183.044 473.424 178.628 476.114C174.211 478.804 169.229 480.429 164.076 480.861C163.113 480.947 162.165 480.976 161.215 480.99C154.331 480.972 147.621 478.831 141.999 474.858C136.377 470.886 132.118 465.275 129.802 458.793C127.193 461.97 125.018 465.48 123.333 469.23C122.114 471.9 120.107 474.134 117.581 475.629C115.056 477.125 112.133 477.812 109.205 477.598C106.278 477.383 103.486 476.278 101.206 474.43C98.9252 472.582 97.2651 470.08 96.4485 467.26C95.0252 462.358 88.5558 458.16 81.4107 457.499C72.1522 456.607 62.0167 460.273 53.3043 463.954C51.1422 464.867 48.7895 465.237 46.4515 465.032C44.1135 464.826 41.8613 464.052 39.8917 462.775C37.922 461.499 36.2947 459.76 35.1519 457.71C34.0091 455.66 33.3855 453.361 33.3355 451.015C33.0766 438.896 23.6447 427.049 11.8424 424.059C8.68594 423.259 5.89455 421.412 3.92519 418.819C1.95584 416.225 0.925214 413.041 1.00205 409.785C1.07889 406.53 2.25864 403.397 4.34815 400.9C6.43766 398.403 9.31312 396.689 12.5037 396.039C27.0096 393.078 40.6529 384.682 49.926 373.022C51.2348 371.377 52.8884 370.039 54.7703 369.103C56.6523 368.166 58.7167 367.654 60.8181 367.602C62.9195 367.55 65.0067 367.959 66.9327 368.801C68.8587 369.643 70.5766 370.898 71.9654 372.476C76.1841 377.209 81.927 380.317 88.1975 381.26V161.715C88.1646 155.387 90.4189 149.261 94.5453 144.463C98.6717 139.666 104.392 136.521 110.654 135.607L114.262 135.061C109.887 131.269 106.301 126.652 103.71 121.475C97.5712 109.355 96.2344 94.6767 99.9579 80.1709C102.416 70.553 106.672 62.2864 110.783 54.2931C112.509 50.9433 114.133 47.766 115.585 44.6023C120.242 34.3663 121.523 26.1862 119.366 20.306C118.227 17.1947 118.198 13.7855 119.284 10.6551C120.369 7.5248 122.503 4.86555 125.323 3.12728C128.144 1.38901 131.478 0.678447 134.763 1.11581C138.047 1.55318 141.079 3.11162 143.346 5.52746C154.244 17.1295 165.501 29.1195 174.314 43.5971C184.88 60.9348 189.812 79.0209 188.589 95.8988C187.809 106.182 184.796 116.171 179.76 125.17L180.853 125.012C184.61 124.442 188.446 124.691 192.099 125.74C195.751 126.79 199.134 128.616 202.016 131.094C204.897 133.571 207.21 136.642 208.795 140.096C210.381 143.55 211.202 147.305 211.202 151.105V366.596C214.915 364.398 218.046 361.341 220.331 357.682C221.436 355.894 222.92 354.369 224.679 353.217C226.437 352.064 228.427 351.311 230.507 351.011C232.588 350.711 234.71 350.871 236.722 351.479C238.734 352.087 240.589 353.13 242.155 354.532C253.239 364.481 268.09 370.476 282.898 370.98C286.151 371.09 289.271 372.301 291.747 374.414C294.222 376.527 295.908 379.418 296.527 382.614C297.147 385.809 296.663 389.12 295.157 392.006C293.65 394.891 291.208 397.179 288.232 398.497V398.497Z" fill="white"/>
<path d="M114.642 113.915C109.818 104.386 109.337 93.0187 111.99 82.6727C115.004 70.9236 121.739 60.535 126.772 49.4996C131.806 38.4642 135.15 25.6881 130.983 14.2974C141.523 25.5245 152.141 36.8555 160.154 50.0059C168.168 63.1564 173.479 78.4337 172.36 93.7918C171.521 104.966 167.365 115.636 160.425 124.435C153.681 132.945 145.767 136.29 136.198 131.706C127.064 127.331 119.467 123.447 114.642 113.915Z" fill="#F0B11D"/>
<path d="M141.417 122.31C138.138 121.296 136.119 117.809 134.633 114.928C131.378 108.568 130.591 101.228 132.424 94.3217C134.257 87.4157 138.581 81.4322 144.562 77.5234C144.751 77.4014 145.874 76.7941 145.883 76.7158L145.038 76.7519C144.165 76.5518 143.967 76.6831 144.445 77.1457C144.494 77.711 145.599 78.8292 145.921 79.331C146.955 80.9365 147.902 82.5966 148.757 84.3043C152.091 90.9858 153.911 98.8728 152.244 106.275C150.653 113.342 146.168 120.103 139.27 122.898C135.932 124.251 137.391 129.737 140.778 128.365C148.866 125.088 154.585 118.25 157.133 109.956C159.974 100.71 158.125 90.8028 154.037 82.2337C153.021 80.1146 151.866 78.0655 150.578 76.0999C149.489 74.4309 148.201 71.7829 146.068 71.276C142.537 70.4367 137.966 75.2124 135.746 77.4736C129.46 83.8744 125.75 92.6545 125.777 101.645C125.804 110.89 129.996 124.71 139.908 127.777C143.401 128.858 144.895 123.387 141.415 122.31H141.417Z" fill="white"/>
<path d="M138.815 110.044C137.204 122.886 136.806 135.852 137.626 148.769C137.771 151.061 139.476 153.022 141.879 153.022C144.068 153.022 146.277 151.074 146.132 148.769C145.312 135.852 145.711 122.886 147.322 110.044C147.608 107.761 145.163 105.791 143.069 105.791C140.533 105.791 139.104 107.753 138.815 110.044V110.044Z" fill="#0C1F26"/>
<path d="M194.936 436.344H100.683V160.647C100.683 157.769 101.715 154.986 103.592 152.805C105.469 150.623 108.066 149.186 110.912 148.756L181.114 138.153C182.825 137.894 184.572 138.008 186.236 138.487C187.9 138.966 189.44 139.798 190.752 140.927C192.065 142.056 193.118 143.455 193.84 145.028C194.562 146.601 194.936 148.312 194.936 150.043V436.344Z" fill="#E02C37"/>
<path d="M144.348 406.122C158.548 407.202 173.545 393.305 179.109 380.181C188.19 384.17 198.406 384.747 207.878 381.807C217.351 378.867 225.444 372.607 230.671 364.177C244.303 376.401 262.249 383.656 280.53 384.279C263.54 391.791 252.723 411.302 255.442 429.686C243.698 426.917 231.319 424.99 219.66 428.122C208.004 431.22 197.248 440.512 195.872 452.514C190.319 444.342 182.911 437.317 173.963 433.168C165.011 429.052 154.222 420.769 144.968 424.204L144.348 406.122Z" fill="#336D3B"/>
<path d="M264.283 387.531C248.401 396.845 230.52 403.429 212.777 408.176C191.931 413.753 170.701 413.921 149.258 413.275C146.034 413.177 145.445 418.193 148.697 418.291C170.57 418.95 192.296 418.842 213.57 413.162C231.745 408.309 250.059 401.688 266.331 392.145C269.1 390.521 267.09 385.886 264.284 387.531H264.283Z" fill="#0C1F26"/>
<path d="M151.41 407.836C137.59 411.275 120.482 400.08 112.802 388.07C104.515 393.52 94.5402 395.797 84.7097 394.481C74.8791 393.166 65.8536 388.347 59.2915 380.91C47.8945 395.24 31.4136 405.392 13.4937 409.062C31.5008 413.628 45.4258 431.057 45.8188 449.637C56.9344 444.944 68.8178 440.975 80.8361 442.114C92.8449 443.221 105.003 450.585 108.366 462.187C112.475 453.202 118.604 445.04 126.733 439.452C134.872 433.897 144.123 423.928 153.822 425.767L151.41 407.836Z" fill="#336D3B"/>
<path d="M30.0544 409.553C47.2724 416.083 65.9996 419.584 84.286 421.299C105.772 423.313 126.731 419.93 147.764 415.709C150.927 415.075 152.346 419.921 149.156 420.561C127.701 424.867 106.262 428.392 84.3382 426.347C65.6072 424.6 46.4446 421.134 28.807 414.445C25.8053 413.306 27.0126 408.4 30.0542 409.553H30.0544Z" fill="#0C1F26"/>
<path d="M137.763 435.442C148.266 435.442 156.781 426.927 156.781 416.424C156.781 405.92 148.266 397.405 137.763 397.405C127.259 397.405 118.745 405.92 118.745 416.424C118.745 426.927 127.259 435.442 137.763 435.442Z" fill="#F0B11D"/>
<path d="M175.665 432.252C186.169 432.252 194.683 423.737 194.683 413.234C194.683 402.73 186.169 394.215 175.665 394.215C165.162 394.215 156.647 402.73 156.647 413.234C156.647 423.737 165.162 432.252 175.665 432.252Z" fill="#F0B11D"/>
<path d="M159.381 465.535C169.885 465.535 178.399 457.02 178.399 446.517C178.399 436.013 169.885 427.499 159.381 427.499C148.878 427.499 140.363 436.013 140.363 446.517C140.363 457.02 148.878 465.535 159.381 465.535Z" fill="#F0B11D"/>
</svg>
