<svg width="349" height="401" viewBox="0 0 349 401" fill="none" xmlns="http://www.w3.org/2000/svg">
<path d="M348.826 312.708C348.824 319.999 347.195 327.198 344.059 333.78C340.922 340.362 336.356 346.161 330.694 350.755C321.759 358.047 310.545 361.967 299.012 361.829C287.479 361.692 276.362 357.506 267.603 350.002L202.658 294.437L166.562 371.91C163.334 378.785 158.57 384.827 152.638 389.57C146.706 394.313 139.765 397.631 132.348 399.268C128.951 400.005 125.484 400.374 122.007 400.369C117.78 400.365 113.57 399.827 109.478 398.767C102.429 396.923 95.8776 393.538 90.2964 388.855C84.7152 384.171 80.2437 378.307 77.2048 371.685C74.1659 365.063 72.6354 357.849 72.7239 350.564C72.8124 343.278 74.5177 336.104 77.7167 329.557L119.374 244.112L112.503 215.416L45.2861 207.486C38.5592 206.693 32.0565 204.573 26.1542 201.25C20.2518 197.927 15.0669 193.467 10.8995 188.127C6.73211 182.787 3.66488 176.674 1.87527 170.141C0.0856576 163.608 -0.390801 156.786 0.473455 150.067C1.33771 143.349 3.52552 136.869 6.91033 131.002C10.2951 125.135 14.8097 119.997 20.193 115.886C25.5762 111.775 31.7212 108.772 38.2724 107.051C44.8236 105.33 51.6511 104.926 58.3598 105.86L82.4978 109.219C78.1927 98.516 76.2757 87.0022 76.8807 75.4816C77.4856 63.961 80.5979 52.7113 86.0003 42.5179C91.4026 32.3245 98.9648 23.4332 108.159 16.4647C117.353 9.49616 127.957 4.61845 139.231 2.17211C150.505 -0.274239 162.178 -0.230261 173.433 2.30097C184.688 4.83221 195.256 9.78968 204.397 16.8273C213.538 23.8649 221.033 32.8129 226.358 43.0467C231.684 53.2805 234.711 64.5534 235.229 76.0782L255.842 63.0045C262.81 58.5964 270.738 55.9331 278.954 55.2406C287.17 54.548 295.432 55.8466 303.04 59.0261C310.648 62.2057 317.377 67.1725 322.656 73.5057C327.936 79.8389 331.612 87.3516 333.37 95.4072C335.626 105.84 334.569 116.718 330.347 126.521C326.125 136.325 318.947 144.566 309.816 150.095L251.937 185.16L257.568 214.134L330.902 274.619C336.533 279.236 341.064 285.051 344.165 291.64C347.265 298.228 348.858 305.426 348.826 312.708V312.708Z" fill="white"/>
<path d="M317.342 98.3647C318.987 105.958 318.218 113.875 315.145 121.01C312.071 128.145 306.845 134.142 300.198 138.164L234.001 178.273L242.442 221.7L319.641 285.372C336.839 299.527 336.761 325.866 319.49 339.946C313.084 345.179 305.041 347.991 296.77 347.891C288.498 347.791 280.526 344.784 274.248 339.398L195.376 271.921L151.532 366.025C148.051 373.528 142.042 379.569 134.556 383.088C127.07 386.608 118.585 387.382 110.586 385.276C89.0328 379.62 78.0452 355.682 87.8309 335.672L131.697 245.731L121.379 202.71L44.5111 193.644C39.6107 193.07 34.8729 191.529 30.5722 189.111C26.2714 186.693 22.4932 183.445 19.4562 179.557C16.4192 175.669 14.1838 171.216 12.8796 166.458C11.5753 161.699 11.228 156.729 11.8578 151.836C12.4876 146.942 14.0821 142.222 16.5488 137.949C19.0154 133.676 22.3054 129.935 26.228 126.942C30.1506 123.949 34.6281 121.765 39.4009 120.514C44.1738 119.264 49.1473 118.973 54.0334 119.658L109.016 127.308C99.2878 118.239 92.5707 106.408 89.7682 93.4066C82.1231 58.1745 104.517 23.3671 139.782 15.716C175.015 8.07015 209.822 30.4653 217.466 65.698C220.304 78.6913 219.095 92.2422 214.001 104.528L260.9 74.7697C278.522 63.5608 301.936 69.0496 312.76 86.9254C314.913 90.4569 316.462 94.3232 317.342 98.3647Z" fill="#CC894C"/>
<path d="M129.979 81.7474C134.913 81.7474 138.912 77.748 138.912 72.8145C138.912 67.881 134.913 63.8816 129.979 63.8816C125.046 63.8816 121.046 67.881 121.046 72.8145C121.046 77.748 125.046 81.7474 129.979 81.7474Z" fill="#0C1F26"/>
<path d="M170.563 74.4078C175.497 74.4078 179.496 70.4084 179.496 65.4749C179.496 60.5414 175.497 56.542 170.563 56.542C165.63 56.542 161.63 60.5414 161.63 65.4749C161.63 70.4084 165.63 74.4078 170.563 74.4078Z" fill="#0C1F26"/>
<path d="M124.149 104.315C146.6 118.153 176.083 111.718 190.718 89.7746C192.494 87.1108 188.317 84.4267 186.543 87.0868C173.417 106.77 146.981 112.554 126.837 100.138C124.115 98.4601 121.423 102.633 124.149 104.313V104.315Z" fill="white"/>
<path d="M169.878 173.489C176.123 172.134 174.027 162.424 167.772 163.783C161.527 165.138 163.623 174.847 169.878 173.489Z" fill="white"/>
<path d="M175.494 203.62C181.739 202.264 179.643 192.555 173.388 193.912C167.143 195.268 169.239 204.977 175.494 203.62Z" fill="white"/>
<path d="M177.81 232.978L178.346 233.322C179.464 233.999 180.798 234.222 182.074 233.945C183.351 233.668 184.473 232.912 185.209 231.833L185.755 230.685C186.029 229.848 186.074 228.952 185.886 228.092L185.432 226.839C185.033 226.078 184.443 225.433 183.72 224.969L183.184 224.624C182.066 223.947 180.732 223.724 179.456 224.001C178.179 224.278 177.057 225.034 176.321 226.113L175.775 227.26C175.501 228.097 175.456 228.992 175.645 229.853L176.098 231.106C176.497 231.867 177.087 232.512 177.811 232.976L177.81 232.978Z" fill="white"/>
<path d="M73.1824 130.703L61.9904 136.975C60.9252 137.572 60.1637 139.193 60.9432 140.328L64.8951 146.076L66.7392 148.758C67.2366 149.482 68.331 150.552 68.4354 151.444L68.7746 149.574C68.331 150.305 66.7809 150.937 66.073 151.402L63.4689 153.114L57.889 156.782C56.8549 157.462 56.047 158.925 56.8421 160.135C57.9861 161.877 59.0938 163.641 60.1465 165.439C61.0708 167.018 61.9181 169.599 63.1501 170.919C63.6316 172.299 63.9181 171.955 64.0096 169.887L63.2007 170.242C62.2065 170.354 60.8847 171.257 59.962 171.662L54.2923 174.148C52.7788 174.813 52.6272 176.894 53.6154 178.027L60.1418 185.51C62.243 187.919 65.9049 184.564 63.8009 182.151L57.2745 174.669L56.5978 178.548L63.8849 175.352C65.7716 174.525 68.3193 173.801 68.4153 171.345C68.4978 169.231 66.6393 166.839 65.6521 165.072C64.2727 162.602 62.7931 160.194 61.2404 157.83L60.1932 161.182L67.6332 156.291C69.3607 155.155 72.2273 153.987 73.0871 151.974C74.0727 149.663 71.8131 147.434 70.6115 145.685L65.3426 138.021L64.2954 141.374L75.4881 135.101C78.2681 133.543 75.9816 129.133 73.1826 130.702L73.1824 130.703Z" fill="white"/>
<path d="M152.483 345.326L148.162 333.243C147.608 331.694 146.194 330.822 144.583 331.57L138.31 334.485L135.358 335.857L133.882 336.543L133.144 336.886C132.697 337.095 132.652 337.115 133.009 336.947L134.701 337.748C134.068 337.2 133.788 335.965 133.456 335.209L131.944 331.77L129.088 325.275C128.523 323.989 126.895 323.719 125.736 324.228C123.692 325.126 121.629 325.979 119.538 326.759C118.438 327.17 117.331 327.556 116.217 327.926C115.516 328.158 114.342 328.784 113.605 328.678L115.297 329.479C115.445 330.015 115.405 329.843 115.175 328.961L114.778 327.378L114.182 325.003L112.791 319.463C112.422 317.995 110.64 316.914 109.211 317.789L100.746 322.978C98.0391 324.638 100.317 329.054 103.052 327.378L111.517 322.189L107.938 320.516L109.925 328.431C110.447 330.511 110.768 333.25 113.33 333.638C115.43 333.956 118.093 332.516 120.037 331.818C122.743 330.847 125.41 329.783 128.04 328.627L124.687 327.58L128.215 335.603C129.074 337.558 129.833 340.974 132.101 341.788C134.214 342.544 136.954 340.585 138.769 339.742L146.887 335.97L143.308 334.297L147.629 346.379C148.084 347.652 149.145 348.575 150.582 348.279C151.765 348.035 152.933 346.589 152.482 345.326L152.483 345.326Z" fill="white"/>
<path d="M300.428 276.433L287.844 278.938C286.599 279.186 285.566 280.617 285.944 281.891L287.793 288.134L288.82 291.602L289.231 292.989C289.485 293.847 289.246 294.897 290.171 293.678C291.071 292.494 290.384 293.067 289.628 293.274L287.839 293.764L284.618 294.646L277.82 296.507C276.579 296.847 275.55 298.108 275.92 299.46C276.543 301.733 277.108 304.02 277.594 306.326C277.824 307.418 278.038 308.514 278.235 309.613C278.322 310.101 278.407 310.59 278.489 311.079C278.55 311.446 278.609 311.813 278.665 312.181C278.732 312.687 278.743 312.671 278.7 312.133L279.908 310.703C279.288 311.133 278.059 311.014 277.327 311.087L274.687 311.348L269.031 311.909C267.297 312.082 266.797 314.172 267.358 315.489L271.251 324.622C272.504 327.559 276.899 325.246 275.651 322.316L271.758 313.183L270.084 316.762L278.002 315.976C280.114 315.767 282.934 315.834 283.547 313.25C284.036 311.194 283.077 308.393 282.672 306.366C282.135 303.689 281.494 301.038 280.773 298.406L278.873 301.359L287.103 299.106C289.164 298.541 292.912 298.242 294.17 296.262C295.451 294.244 293.857 291.171 293.262 289.161L290.797 280.837L288.897 283.79L301.481 281.285C304.617 280.66 303.564 275.807 300.428 276.431V276.433Z" fill="white"/>
<path d="M278.809 140.423L282.288 128.073C282.766 126.375 281.664 125.12 280.064 124.824L273.663 123.638L270.919 123.13C269.99 122.958 268.274 122.973 267.508 122.371L268.591 123.933C268.374 123.044 269.067 121.397 269.251 120.51L269.83 117.707L271.182 111.168C271.429 109.971 271.015 108.332 269.59 108.036C265.653 107.229 261.761 106.218 257.93 105.007C257.504 104.872 257.079 104.735 256.655 104.594C257.207 106.548 257.635 106.793 257.937 105.33C258.464 104.706 258.7 103.376 258.99 102.635L261.442 96.3458C262.038 94.8208 260.741 93.1998 259.219 93.096L249.313 92.4198C246.119 92.2017 245.851 97.1616 249.038 97.3779L258.944 98.0543L256.721 94.8044L253.565 102.891C252.846 104.734 251.886 106.872 253.629 108.458C255.168 109.859 257.856 110.203 259.808 110.754C262.53 111.525 265.279 112.182 268.049 112.756L266.457 109.625C265.813 112.739 265.17 115.853 264.526 118.967C264.105 121.002 262.85 123.941 264.147 125.872C265.418 127.764 268.653 127.719 270.642 128.087L279.787 129.78L277.563 126.53L274.084 138.88C273.218 141.955 277.938 143.501 278.806 140.42L278.809 140.423Z" fill="white"/>
<path d="M202.414 139.041C204.632 149.265 195.259 158.209 185.15 155.491L167.775 150.826L154.587 162.021C152.855 163.517 150.772 164.552 148.533 165.028C141.383 166.58 133.644 162.297 131.917 154.338C129.706 144.147 139.112 135.195 149.189 137.92L166.564 142.585L179.751 131.391C181.497 129.894 183.59 128.858 185.838 128.376C192.955 126.831 200.694 131.114 202.414 139.041Z" fill="#E02C37"/>
</svg>
