<svg width="244" height="350" viewBox="0 0 244 350" fill="none" xmlns="http://www.w3.org/2000/svg">
<path d="M240.338 269.627C242.164 273.414 242.897 277.635 242.452 281.815C242.007 285.995 240.404 289.968 237.822 293.285C235.24 296.602 231.782 299.132 227.839 300.589C223.896 302.046 219.624 302.372 215.505 301.531L158.568 289.894L149.086 336.283C148.293 340.146 146.194 343.618 143.143 346.116C140.091 348.614 136.273 349.985 132.329 350C131.165 349.999 130.004 349.881 128.863 349.648L78.858 339.429C74.4075 338.513 70.5017 335.87 67.9965 332.079C65.4913 328.288 64.591 323.659 65.4928 319.205L74.9858 272.806L18.0376 261.169C13.9189 260.328 10.1174 258.352 7.06205 255.465C4.0067 252.578 1.81922 248.895 0.746526 244.83C-0.326166 240.766 -0.241354 236.482 0.991389 232.464C2.22413 228.445 4.55572 224.851 7.72296 222.087L53.1197 182.45L49.0975 181.618C45.2914 180.841 41.7783 179.016 38.9547 176.348C36.1311 173.68 34.1093 170.276 33.1177 166.52C32.126 162.764 32.2039 158.806 33.3425 155.092C34.4811 151.378 36.6352 148.056 39.5616 145.502L82.8903 107.667C79.7693 106.678 76.9678 104.876 74.7732 102.447C72.5785 100.017 71.0699 97.0471 70.4022 93.8419C69.7345 90.6367 69.9316 87.3115 70.9734 84.2077C72.0152 81.1038 73.8642 78.3331 76.3305 76.1798L158.365 4.55428C160.505 2.68586 163.047 1.33655 165.793 0.611434C168.539 -0.113683 171.416 -0.195034 174.199 0.373718C176.982 0.94247 179.596 2.14597 181.838 3.89049C184.079 5.63501 185.888 7.87345 187.123 10.4315L234.471 108.499C235.893 111.448 236.504 114.721 236.244 117.984C235.983 121.247 234.859 124.382 232.988 127.067C231.117 129.753 228.565 131.892 225.594 133.267C222.623 134.641 219.341 135.201 216.082 134.888L241.095 186.696C242.782 190.194 243.458 194.094 243.047 197.956C242.635 201.818 241.154 205.489 238.768 208.554C236.383 211.619 233.189 213.957 229.546 215.304C225.904 216.651 221.957 216.954 218.152 216.178L214.13 215.357L240.338 269.627Z" fill="white"/>
<path d="M228.892 274.264L193.316 200.586L218.45 205.722C226.702 207.409 233.312 198.913 229.65 191.329L195.323 120.238L214.457 124.149C220.772 125.439 225.831 118.937 223.029 113.133L175.676 15.0655C175.155 13.9862 174.392 13.0418 173.446 12.3058C172.5 11.5698 171.397 11.062 170.223 10.822C169.049 10.582 167.835 10.6163 166.676 10.9222C165.517 11.2281 164.445 11.7973 163.542 12.5855L81.5095 84.2103C76.6543 88.4496 78.757 96.4153 85.0722 97.7059L104.205 101.616L44.7382 153.537C38.3943 159.077 41.1414 169.485 49.3929 171.171L74.5265 176.308L12.8954 230.12C5.48575 236.591 8.69427 248.748 18.3326 250.718L85.7289 264.492L74.1105 321.34C73.7668 323.022 74.1053 324.771 75.0514 326.203C75.9975 327.636 77.4738 328.633 79.1554 328.977L129.157 339.196C129.99 339.366 130.848 339.371 131.683 339.209C132.517 339.048 133.312 338.724 134.021 338.255C134.73 337.787 135.34 337.183 135.816 336.479C136.292 335.775 136.624 334.984 136.794 334.151L148.412 277.303L215.809 291.077C225.447 293.046 233.169 283.123 228.892 274.264Z" fill="#CC894C"/>
<path d="M118.969 325.042L90.4963 319.223C89.0208 318.919 87.7259 318.043 86.8956 316.786C86.0653 315.529 85.7674 313.994 86.067 312.518L97.5822 256.174C97.6656 255.763 97.5825 255.336 97.3512 254.985C97.1198 254.635 96.7591 254.391 96.3481 254.306L33.6142 241.485C32.5847 241.276 31.6336 240.785 30.8666 240.067C30.0995 239.349 29.5466 238.432 29.2692 237.419C28.9919 236.406 29.001 235.335 29.2956 234.327C29.5902 233.319 30.1587 232.412 30.9379 231.707L97.585 171.365C97.8018 171.169 97.9599 170.916 98.0418 170.635C98.1237 170.354 98.1261 170.056 98.0487 169.773C97.9714 169.491 97.8174 169.236 97.6037 169.036C97.3901 168.836 97.1251 168.699 96.8384 168.64L66.2838 162.396C65.2555 162.186 64.3055 161.695 63.5391 160.978C62.7726 160.261 62.2197 159.346 61.9417 158.334C61.6636 157.322 61.6713 156.253 61.9638 155.245C62.2564 154.237 62.8223 153.33 63.599 152.624L125.993 95.8683C126.21 95.6718 126.368 95.4189 126.449 95.138C126.531 94.857 126.533 94.5589 126.456 94.2768C126.378 93.9947 126.224 93.7396 126.01 93.5399C125.796 93.3402 125.531 93.2037 125.244 93.1455L106.039 89.2204C104.999 89.0078 104.04 88.5083 103.269 87.7786C102.499 87.0489 101.948 86.118 101.68 85.0914C101.411 84.0649 101.435 82.9835 101.749 81.9699C102.063 80.9562 102.654 80.0508 103.457 79.356L157.455 32.6337C158.095 32.0779 158.852 31.673 159.669 31.4488C160.486 31.2247 161.344 31.187 162.177 31.3385C163.016 31.4759 163.811 31.8051 164.5 32.3004C165.19 32.7957 165.756 33.4438 166.154 34.1939L203.597 102.335C203.821 102.743 203.899 103.214 203.82 103.673C203.856 103.895 203.857 104.122 203.822 104.344C203.735 104.881 203.439 105.361 202.999 105.679C202.558 105.998 202.009 106.128 201.473 106.042L176.887 102.089C176.615 102.045 176.335 102.074 176.077 102.171C175.818 102.269 175.59 102.432 175.414 102.646C175.239 102.859 175.122 103.114 175.075 103.386C175.029 103.659 175.055 103.938 175.15 104.198L202.615 179.069C202.963 180.019 203.052 181.044 202.872 182.04C202.691 183.035 202.248 183.964 201.589 184.731C200.929 185.498 200.077 186.076 199.119 186.403C198.162 186.73 197.135 186.796 196.144 186.594L176.951 182.671C176.678 182.616 176.396 182.633 176.133 182.72C175.869 182.808 175.633 182.964 175.449 183.172C175.264 183.379 175.138 183.632 175.082 183.904C175.026 184.176 175.042 184.458 175.13 184.722L202.422 266.845C202.737 267.791 202.797 268.803 202.596 269.779C202.396 270.756 201.942 271.662 201.281 272.408C200.619 273.154 199.773 273.712 198.827 274.028C197.882 274.343 196.87 274.404 195.893 274.204L139.146 262.607C138.734 262.523 138.307 262.606 137.957 262.838C137.606 263.069 137.362 263.43 137.278 263.841L125.675 320.612C125.372 322.088 124.495 323.383 123.238 324.213C121.981 325.044 120.446 325.342 118.969 325.042ZM161.492 35.3801L161.455 35.3725C161.223 35.3292 160.983 35.3392 160.755 35.4019C160.526 35.4646 160.315 35.5783 160.137 35.7344L106.141 82.4566C105.917 82.6501 105.752 82.9023 105.664 83.1848C105.576 83.4672 105.57 83.7686 105.644 84.0548C105.719 84.3409 105.873 84.6003 106.088 84.8037C106.302 85.007 106.57 85.1461 106.86 85.2052L126.065 89.1303C127.093 89.3401 128.043 89.8305 128.81 90.5472C129.576 91.2639 130.129 92.1789 130.408 93.1907C130.686 94.2025 130.679 95.2717 130.386 96.2796C130.094 97.2875 129.529 98.1948 128.752 98.9009L66.3577 155.658C66.1414 155.854 65.9837 156.107 65.9021 156.388C65.8206 156.668 65.8184 156.966 65.8957 157.248C65.9731 157.53 66.127 157.785 66.3404 157.985C66.5537 158.185 66.8183 158.322 67.1047 158.38L97.6599 164.625C98.6893 164.834 99.6404 165.325 100.407 166.043C101.175 166.761 101.727 167.678 102.005 168.691C102.282 169.704 102.273 170.775 101.978 171.783C101.684 172.791 101.115 173.698 100.336 174.403L33.6891 234.745C33.4722 234.941 33.3141 235.194 33.2322 235.475C33.1504 235.756 33.148 236.054 33.2253 236.337C33.3026 236.619 33.4567 236.874 33.6703 237.074C33.884 237.274 34.1489 237.411 34.4356 237.47L97.1696 250.291C98.6451 250.594 99.9399 251.47 100.77 252.727C101.601 253.984 101.899 255.519 101.599 256.995L90.083 313.339C89.9996 313.75 90.0826 314.178 90.3139 314.528C90.5453 314.878 90.906 315.122 91.3171 315.207L119.79 321.026C120.201 321.109 120.629 321.026 120.979 320.795C121.329 320.564 121.573 320.203 121.658 319.792L133.26 263.021C133.564 261.546 134.44 260.251 135.697 259.42C136.954 258.59 138.489 258.292 139.965 258.592L196.712 270.189C196.984 270.245 197.266 270.228 197.529 270.14C197.793 270.052 198.029 269.897 198.213 269.689C198.398 269.481 198.524 269.229 198.58 268.956C198.636 268.684 198.619 268.402 198.532 268.139L171.24 186.016C170.926 185.07 170.865 184.058 171.066 183.081C171.266 182.104 171.72 181.198 172.381 180.452C173.043 179.706 173.889 179.147 174.835 178.832C175.781 178.517 176.793 178.456 177.77 178.656L196.963 182.579C197.239 182.635 197.526 182.617 197.793 182.526C198.06 182.435 198.298 182.274 198.481 182.06C198.665 181.846 198.789 181.587 198.839 181.31C198.889 181.032 198.864 180.746 198.767 180.482L171.302 105.61C170.96 104.68 170.868 103.676 171.035 102.698C171.201 101.721 171.621 100.804 172.251 100.039C172.882 99.2743 173.701 98.6875 174.629 98.3374C175.556 97.9874 176.559 97.8861 177.538 98.0437L198.403 101.398L162.561 36.1686C162.452 35.9664 162.3 35.7907 162.115 35.6544C161.931 35.5181 161.718 35.4244 161.492 35.3801V35.3801Z" fill="white"/>
<path d="M74.7705 231.659C78.9586 231.659 82.3537 228.264 82.3537 224.076C82.3537 219.888 78.9586 216.493 74.7705 216.493C70.5824 216.493 67.1873 219.888 67.1873 224.076C67.1873 228.264 70.5824 231.659 74.7705 231.659Z" fill="white"/>
<path d="M104.637 239.375C108.825 239.375 112.22 235.98 112.22 231.792C112.22 227.604 108.825 224.209 104.637 224.209C100.449 224.209 97.0536 227.604 97.0536 231.792C97.0536 235.98 100.449 239.375 104.637 239.375Z" fill="white"/>
<path d="M107.389 159.636C111.577 159.636 114.972 156.241 114.972 152.053C114.972 147.865 111.577 144.47 107.389 144.47C103.2 144.47 99.8053 147.865 99.8053 152.053C99.8053 156.241 103.2 159.636 107.389 159.636Z" fill="white"/>
<path d="M139.997 166.3C144.185 166.3 147.58 162.905 147.58 158.717C147.58 154.529 144.185 151.134 139.997 151.134C135.809 151.134 132.414 154.529 132.414 158.717C132.414 162.905 135.809 166.3 139.997 166.3Z" fill="white"/>
<path d="M140.892 86.1818C145.08 86.1818 148.475 82.7867 148.475 78.5986C148.475 74.4105 145.08 71.0154 140.892 71.0154C136.703 71.0154 133.308 74.4105 133.308 78.5986C133.308 82.7867 136.703 86.1818 140.892 86.1818Z" fill="white"/>
<path d="M165.347 91.1796C169.535 91.1796 172.93 87.7845 172.93 83.5964C172.93 79.4083 169.535 76.0132 165.347 76.0132C161.159 76.0132 157.764 79.4083 157.764 83.5964C157.764 87.7845 161.159 91.1796 165.347 91.1796Z" fill="white"/>
<path d="M171.882 172.817C176.071 172.817 179.466 169.422 179.466 165.234C179.466 161.046 176.071 157.651 171.882 157.651C167.694 157.651 164.299 161.046 164.299 165.234C164.299 169.422 167.694 172.817 171.882 172.817Z" fill="white"/>
<path d="M134.82 245.544C139.008 245.544 142.403 242.149 142.403 237.961C142.403 233.773 139.008 230.377 134.82 230.377C130.631 230.377 127.236 233.773 127.236 237.961C127.236 242.149 130.631 245.544 134.82 245.544Z" fill="white"/>
<path d="M165.776 251.871C169.964 251.871 173.359 248.475 173.359 244.287C173.359 240.099 169.964 236.704 165.776 236.704C161.588 236.704 158.193 240.099 158.193 244.287C158.193 248.475 161.588 251.871 165.776 251.871Z" fill="white"/>
</svg>
