<svg width="337" height="300" viewBox="0 0 337 300" fill="none" xmlns="http://www.w3.org/2000/svg">
<path d="M4.71749 150.113C6.58995 163.524 8.42873 174.61 10.5033 185.016V185.117C14.5445 205.425 19.522 222.755 25.6715 238.105C26.3451 239.809 26.9849 241.352 27.6046 242.82C33.7473 257.153 43.1837 268.994 54.9438 277.171C56.7579 278.694 58.6704 280.096 60.669 281.367C61.8612 282.122 62.9523 282.714 63.673 283.132C73.5 288.52 85.4891 291.275 99.317 291.275C104.018 291.259 108.716 290.987 113.387 290.46C132.92 288.345 156.568 280.781 174.828 266.212C178.998 272.274 184.75 277.946 192.199 283.374C206.694 293.936 224.193 299.997 240.209 299.997C248.754 300.079 257.203 298.201 264.908 294.508L265.865 294.023C268.357 293.35 270.856 292.521 273.341 291.598C274.459 291.181 275.618 290.729 276.77 290.251H276.83L276.938 290.211C282.789 287.791 288.338 284.699 293.473 280.997C300.755 275.639 307.008 269.007 311.929 261.423V261.376L311.969 261.316C312.643 260.326 313.235 259.342 313.808 258.386L313.875 258.271C319.883 248.168 323.473 237.587 325.938 229.47V229.403L326.08 228.952C328.383 221.294 330.034 215.326 331.468 209.574C334.344 197.814 336.001 187.407 336.54 177.762V177.722C336.681 175.189 336.742 172.872 336.735 170.629C336.729 167.642 336.547 164.657 336.19 161.691C336.757 156.051 335.368 150.386 332.256 145.648C329.133 137.383 324.034 130.009 317.405 124.168C316.394 123.286 315.303 122.404 314.158 121.548L313.788 121.272C312.589 120.396 311.376 119.575 310.164 118.834C309.302 118.302 308.48 117.83 307.652 117.379C306.715 116.874 305.84 116.429 304.957 116.032C303.745 115.459 302.506 114.914 301.159 114.368L300.916 114.274C299.744 113.802 298.512 113.344 297.245 112.927C294.242 111.902 291.181 111.057 288.078 110.394C286.731 110.111 285.384 109.855 284.037 109.633H283.943C282.656 109.424 281.356 109.242 280.063 109.101H279.949C278.602 108.953 277.221 108.832 275.853 108.751H275.759C274.197 108.656 272.627 108.609 271.078 108.609C262.138 108.515 253.27 110.205 244.992 113.58C243.698 114.119 242.607 114.611 241.543 115.143C232.477 119.662 224.118 126.499 215.948 136.023L215.847 136.137C215.214 136.878 214.601 137.626 213.988 138.38C210.58 126.418 205.771 115.217 200.847 104.891C191.162 84.5974 180.217 63.1315 165.877 43.9085C164.2 41.6588 162.509 39.4429 160.751 37.3144L160.697 37.2471C158.353 34.3643 156.151 31.7981 153.962 29.4003C150.812 25.9477 147.437 22.7076 143.859 19.7012C140.111 13.9871 134.262 9.98159 127.579 8.55403C117.143 2.98921 105.507 0.0530629 93.6795 0H92.3324C90.763 0 89.1802 0.121234 87.4828 0.269414H87.3616L86.1694 0.383921C85.4959 0.458011 84.8223 0.538835 84.1488 0.639867C83.6504 0.707221 83.1115 0.794786 82.5794 0.875612C80.5588 1.20565 78.6729 1.54916 76.8745 2.02064C75.5274 2.35068 74.2611 2.69418 73.0016 3.0781C58.8614 7.51351 45.7301 14.6833 34.3535 24.1803C21.5966 34.8223 12.0794 47.5793 6.83243 61.0906C-3.99819 88.9754 0.433738 120.08 3.99006 145.075C4.23703 146.772 4.47951 148.452 4.71749 150.113Z" fill="white"/>
<path d="M15.8579 148.557C17.7034 161.745 19.5018 172.63 21.5359 182.814V182.895C25.456 202.542 30.2314 219.266 36.1317 233.956C36.7648 235.553 37.3642 237.007 37.9502 238.375C43.3386 250.936 51.5693 261.228 61.787 268.193C63.3347 269.523 64.9757 270.741 66.6972 271.836C67.6065 272.416 68.4551 272.887 69.095 273.244C77.3527 277.784 87.2403 279.98 99.317 279.98C103.613 279.963 107.906 279.714 112.175 279.232C127.408 277.567 142.162 272.912 155.592 265.532C164.298 260.788 172.06 254.487 178.492 246.942C178.634 247.616 178.795 248.289 178.977 248.963C179.159 249.636 179.408 250.404 179.583 250.903C182.446 259.255 188.75 266.893 198.854 274.248C211.274 283.327 226.745 288.749 240.23 288.749C247.064 288.823 253.824 287.33 259.991 284.385C260.591 284.095 261.157 283.785 261.669 283.496C264.248 282.822 266.862 281.994 269.455 281.037H269.495C270.472 280.673 271.475 280.276 272.486 279.858H272.546H272.6C277.645 277.778 282.43 275.117 286.859 271.931C293.06 267.384 298.375 261.738 302.539 255.274L302.58 255.213C303.152 254.338 303.698 253.469 304.203 252.627L304.25 252.553C309.639 243.521 312.932 233.754 315.209 226.251L315.256 226.103L315.364 225.746C317.6 218.303 319.21 212.511 320.563 206.967C323.258 195.894 324.834 186.161 325.325 177.217V177.176C325.453 174.866 325.514 172.758 325.507 170.737C325.493 167.728 325.268 164.723 324.834 161.745C325.179 159.876 325.125 157.955 324.674 156.108C324.224 154.261 323.387 152.53 322.22 151.029C319.787 143.97 315.571 137.659 309.982 132.709C309.18 132.035 308.339 131.328 307.409 130.634L307.093 130.399C306.17 129.725 305.234 129.092 304.277 128.506C303.604 128.082 302.93 127.704 302.256 127.347C301.583 126.99 300.815 126.586 300.115 126.256C299.104 125.778 298.054 125.32 296.908 124.849L296.754 124.788C295.743 124.384 294.679 123.986 293.574 123.609C290.993 122.729 288.361 122.002 285.694 121.434C284.549 121.184 283.384 120.969 282.232 120.76H282.218C281.094 120.578 279.955 120.423 278.851 120.295H278.77C277.605 120.167 276.426 120.06 275.247 119.992H275.173C273.826 119.911 272.479 119.871 271.132 119.871C263.676 119.781 256.277 121.18 249.37 123.986C248.339 124.411 247.457 124.815 246.628 125.226C238.936 129.065 231.723 135.006 224.57 143.411L224.509 143.479C219.121 149.803 214.406 156.748 210.25 162.877L208.485 165.47L207.623 166.743C206.694 146.287 199.197 127.421 190.785 109.788C181.355 90.006 170.706 69.153 156.946 50.6843C155.363 48.5559 153.733 46.4612 152.096 44.4473L152.056 44.4002C149.853 41.706 147.785 39.2812 145.745 37.045C142.525 33.5161 139.042 30.2377 135.325 27.2382C134.264 25.2007 132.734 23.4451 130.859 22.1169C128.985 20.7886 126.822 19.9259 124.548 19.6002L124.238 19.5598L123.928 19.5261C114.202 14.1377 104.025 11.4435 93.6862 11.4435H92.5681C91.2614 11.4435 89.921 11.5446 88.4864 11.6726H88.345L87.3818 11.7669C86.816 11.8275 86.2435 11.9016 85.671 11.9756L84.3239 12.1777C82.5861 12.4606 81.01 12.7704 79.508 13.1409C78.363 13.4238 77.2853 13.7134 76.2279 14.0367C54.2298 20.7115 27.4766 39.1532 17.3195 65.3138C7.5531 90.4572 11.5809 118.706 15.1305 143.634C15.373 145.241 15.6154 146.882 15.8579 148.557Z" fill="black"/>
<path d="M68.6707 259.241C69.9329 260.376 71.2843 261.408 72.712 262.326C83.7379 269.311 98.428 269.412 110.949 268.051C136.2 265.31 167.749 251.738 177.839 226.46C178.351 225.18 178.742 223.873 179.132 222.56C186.838 211.312 192.381 198.77 194.853 186.747C200.133 161.085 191.573 137.43 180.621 114.483C169.056 90.2349 155.7 64.4516 137.433 44.4809C133.985 40.6879 130.188 37.2285 126.09 34.1487C125.915 33.684 125.747 33.2125 125.572 32.7478C125.241 31.8829 124.581 31.1845 123.737 30.8056C122.892 30.4268 121.931 30.3986 121.066 30.7271C108.807 23.1767 94.6291 20.0582 79.5013 24.6652C58.2981 31.0976 35.9902 48.1989 27.8134 69.2472C18.478 93.2794 23.5431 122.276 26.9984 147.008C31.0397 175.971 36.7311 206.954 48.3094 233.949C53.0175 244.928 59.9954 253.503 68.6707 259.241Z" fill="#17775E"/>
<path d="M44.1199 151.056C55.3883 154.087 59.9954 167.585 63.1543 177.58C63.246 177.855 63.3752 178.116 63.5382 178.355C58.1499 182.962 55.4557 190.129 54.2837 197.699C49.1552 189.744 41.514 183.731 32.5753 180.618C33.0962 183.222 33.644 185.825 34.2188 188.424C39.1477 190.779 43.4517 194.262 46.7813 198.593C50.1109 202.923 52.3721 207.977 53.3812 213.346C49.0772 216.545 46.4975 220.93 45.1033 225.901C46.1271 228.595 47.1845 231.289 48.3161 233.929C48.7606 234.96 49.2389 235.95 49.7238 236.933C49.7642 231.383 51.1046 226.076 54.9034 221.684C67.3236 207.317 83.5964 219.394 86.7352 234.199C75.6351 238.092 70.0514 248.074 68.5157 259.12L68.6774 259.241C69.9396 260.376 71.2911 261.408 72.7187 262.326C73.3047 262.696 73.9109 263.04 74.517 263.377C75.0626 253.186 79.2723 243.379 89.0522 240.335C89.7233 240.678 90.4903 240.787 91.2303 240.643C91.9704 240.498 92.6407 240.11 93.1339 239.54C106.423 238.233 111.138 251.792 113.158 264.697C113.118 265.714 113.158 266.717 113.158 267.761C115.361 267.472 117.59 267.088 119.853 266.67C119.746 265.963 119.651 265.263 119.53 264.549C119.894 253.833 124.245 243.669 134.557 238.024C145.455 232.084 158.865 236.529 163.681 246.067C165.337 244.582 166.911 243.008 168.396 241.352C165.633 236.835 161.593 233.239 156.787 231.017C151.981 228.796 146.624 228.049 141.393 228.871C139.029 216.666 145.031 204.3 155.625 198.023C155.926 197.903 156.205 197.737 156.454 197.531C157.309 197.059 158.185 196.622 159.101 196.231C174.39 189.684 182.177 199.194 186.002 211.089C187.381 208.436 188.631 205.757 189.754 203.054C184.723 192.277 176 184.74 161.357 188.465C159.695 188.893 158.067 189.447 156.488 190.122C156.171 188.842 155.814 187.535 155.457 186.209C154.265 173.505 161.351 159.94 174.619 156.721C182.251 154.862 189.922 157.057 195.917 161.57C195.603 158.723 195.154 155.899 194.57 153.097C188.703 150.04 182.018 148.92 175.475 149.898C173.161 150.254 170.9 150.89 168.739 151.79C165.978 140.441 166.651 128.007 175.475 119.245C177.094 117.629 178.947 116.267 180.971 115.203L180.634 114.483C179.795 112.722 178.944 110.955 178.082 109.182C167.756 114.786 162.59 124.539 161.297 135.187C157.053 127.576 151.436 120.942 144.081 118.948C143.946 115.648 142.734 112.327 142.774 109.007C142.842 102.776 146.586 96.2834 150.857 91.8447C155.639 86.8739 161.58 85.1092 167.318 88.1133C165.796 85.3113 164.224 82.5296 162.603 79.768C161.006 79.704 159.406 79.8535 157.848 80.2126C155.284 80.8263 152.856 81.9112 150.688 83.4119C149.484 79.5238 148.03 75.7172 146.337 72.0155C146.081 70.2677 145.989 68.4999 146.061 66.7349C146.236 63.5044 146.855 60.3133 147.9 57.2514C146.405 55.2442 144.873 53.2752 143.306 51.3444C143.001 51.8922 142.716 52.458 142.451 53.0417C141.32 55.5294 140.507 58.15 140.033 60.8414C133.971 52.193 125.781 46.0234 115.785 49.6403L115.664 49.6942C113.643 42.2852 117.429 33.9938 124.514 31.3333C124.029 30.9445 123.454 30.685 122.841 30.579C122.229 30.473 121.599 30.5239 121.012 30.7271C119.618 29.8717 118.197 29.0769 116.755 28.336C113.693 30.787 111.346 34.0159 109.959 37.6849C105.419 31.8587 98.7782 29.0029 89.8739 33.3742C89.7729 33.4213 89.6853 33.4887 89.5843 33.5426C89.3552 31.5823 89.5228 29.596 90.0771 27.7018C90.6314 25.8076 91.5609 24.0442 92.8105 22.5166C90.1262 22.5761 87.4517 22.8622 84.8156 23.372C84.5216 24.0313 84.2631 24.7058 84.041 25.3926C83.457 24.8777 82.8406 24.4007 82.1955 23.9647C81.2997 24.187 80.4038 24.4295 79.5013 24.6989C76.6207 25.5815 73.7919 26.6249 71.0281 27.8241C77.0024 27.1102 82.3032 30.5722 83.6975 37.7657C78.7468 42.392 75.5245 48.5704 74.5642 55.2779C69.9303 51.4164 64.0039 49.4569 57.9815 49.7952C56.6344 43.4369 57.2406 37.0989 61.5041 32.64C56.1266 35.7565 51.0804 39.4125 46.4436 43.5515C48.2635 45.8705 49.8538 48.3609 51.1921 50.9874C43.2039 53.5738 36.4617 60.0129 34.6701 69.3685C33.1655 67.7517 31.505 66.2875 29.7128 64.9972C29.0392 66.3981 28.3657 67.8126 27.8268 69.254C27.6046 69.8332 27.4227 70.4259 27.2206 71.0052C28.0732 71.6906 28.8042 72.5149 29.3827 73.4434C31.533 75.4251 33.4025 77.6912 34.9395 80.1789C26.0285 83.9036 24.7757 93.6094 24.971 103.356C24.2032 102.042 23.3882 100.776 22.526 99.5568C22.4452 104.272 22.6068 108.986 22.9436 113.701C23.9741 116.274 24.843 118.827 25.5907 121.157C25.5907 121.225 25.6445 121.279 25.6648 121.339C24.9833 121.411 24.308 121.533 23.6441 121.703C23.8821 123.98 24.1425 126.243 24.4254 128.492C27.4294 127.711 30.7568 128.593 34.4141 132.567C36.3337 134.655 37.3979 137.754 38.1186 140.872C38.2062 141.869 38.3409 142.893 38.5362 143.896C34.3629 144.286 30.4115 145.954 27.2206 148.672C27.5933 151.299 27.9795 153.939 28.3791 156.593C32.151 151.938 37.2969 149.217 44.1199 151.056ZM45.467 144.361C45.2649 143.297 45.0427 142.199 44.7935 141.067C43.3184 129.22 51.5626 119.817 61.8072 113.964C68.4349 110.179 74.9953 106.488 81.6162 112.947C84.7819 116.032 87.7724 121.13 88.3045 125.744C87.2041 125.817 86.1102 125.968 85.0311 126.196C68.765 129.738 63.7268 144.489 62.7502 159.327C58.7561 152.235 53.3071 146.207 45.4535 144.361H45.467ZM114.303 159.59C105.365 164.844 101.156 174.826 99.3035 185.414C94.1172 177.183 85.3679 171.788 74.1937 173.593C72.5714 173.853 70.9801 174.28 69.4452 174.866C68.2194 160.412 67.337 140.852 82.9162 133.921C99.2766 126.654 108.706 146.22 113.482 158.378C113.67 158.83 113.944 159.242 114.29 159.59H114.303ZM60.0897 209.877L59.9146 209.944C59.7664 199.895 60.386 188.061 69.6204 182.504C84.7886 173.377 97.4513 188.748 97.9632 203.189C97.9632 203.546 97.9632 203.862 97.9632 204.246C93.7198 209.304 90.7764 215.642 89.0589 222.23C83.3136 212.18 72.813 205.492 60.0897 209.877ZM135.062 230.575C125.565 234.138 119.321 241.48 116.007 250.31C112.249 239.877 105.729 231.781 93.9017 232.69C94.8649 219.893 100.637 205.405 113.563 201.087C131.795 194.978 132.496 218.249 135.062 230.575ZM148.856 186.7C149.073 189.034 149.543 191.338 150.257 193.57C144.381 197.691 139.821 203.422 137.123 210.072C133.85 199.551 128.037 191.011 114.324 194.069C110.827 194.849 107.511 196.287 104.55 198.305C104.759 185.138 106.847 169.451 120.224 164.224C136.732 157.765 144.748 172.818 148.856 186.7ZM96.7104 126.883C96.9933 117.332 101.378 108.299 110.087 103.497C115.172 100.695 120.864 98.8698 126.252 101.322C131.358 103.625 136.793 112.159 135.123 118.241C135.068 118.448 135.032 118.66 135.015 118.874C122.218 121.669 117.065 133.571 114.849 145.634C110.538 137.491 104.672 129.792 96.6834 126.883H96.7104ZM162.799 155.171C156.88 159.574 152.528 165.756 150.379 172.812C144.923 162.035 136.301 153.71 122.696 156.445C121.762 156.633 120.864 156.858 120.002 157.118C120.85 145.668 122.5 128.782 136.093 125.374C150.082 121.838 158.852 143.701 162.772 155.151L162.799 155.171ZM125.572 56.5105C132.031 59.1238 136.679 65.8728 139.986 73.0528C140.865 78.385 142.689 83.5173 145.374 88.2076C143.274 90.6156 141.444 93.2469 139.918 96.0544C138.859 97.947 137.981 99.9362 137.298 101.995C132.826 96.3373 125.787 92.7068 118.58 93.7508C116.207 94.1002 113.878 94.7078 111.636 95.5627C110.601 91.7743 109.376 88.0404 107.965 84.3751C106.955 70.2441 112.128 51.0682 125.572 56.5105ZM87.3952 43.2888C90.3252 40.2713 96.2187 36.0886 100.671 38.0082C104.948 39.8469 107.669 45.7674 109.117 50.4081C109.273 51.091 109.465 51.7654 109.69 52.4288C109.784 52.6956 109.908 52.9509 110.06 53.1899C105.312 57.4939 102.462 64.3775 101.304 71.773C96.5353 65.2935 90.177 61.4543 81.7711 64.8894C79.4811 57.2514 81.7577 49.0947 87.3952 43.2955V43.2888ZM98.6906 80.6504C99.5932 82.314 100.401 84.0181 101.163 85.7222C101.836 90.6929 103.183 95.2663 105.291 98.8024C99.0443 102.97 94.3692 109.105 92.009 116.234C90.2102 112.916 87.9086 109.896 85.186 107.282C80.4712 102.729 75.1973 102.103 69.5463 103.571C69.3577 102.79 69.1354 102.015 68.8727 101.234C68.0132 96.4172 68.4143 91.46 70.0371 86.8441C71.66 82.2282 74.4493 78.1107 78.134 74.8916C84.8223 69.1193 94.8043 73.4973 98.6906 80.6571V80.6504ZM40.9138 77.6329C37.2632 55.3318 67.95 47.128 75.9382 68.1561C68.9519 73.3319 64.198 80.9733 62.6424 89.5277C57.2541 82.7922 49.5756 78.0033 40.934 78.751C40.9812 78.3837 40.9744 78.0116 40.9138 77.6464V77.6329ZM32.0298 120.262C32.6023 111.27 28.1838 98.5465 33.3364 90.4639C39.4522 80.8794 50.9025 86.4226 56.5872 92.2556C59.2531 95.0021 61.2331 98.3391 62.3663 101.995C62.5756 103.307 62.8567 104.607 63.2082 105.888C52.8895 110.603 43.5743 118.618 39.789 128.681C37.7684 125.583 35.0742 123.091 31.4977 121.945C31.8164 121.444 32.0019 120.869 32.0365 120.275L32.0298 120.262Z" fill="#015E92"/>
<path d="M189.222 242.78C189.334 243.867 189.535 244.944 189.821 245.999C192.037 254.082 198.955 260.427 205.468 265.175C218.609 274.746 239.401 281.899 255.061 274.268C255.856 273.884 256.603 273.433 257.351 272.975C265.558 271.097 273.319 267.633 280.198 262.777C293.749 252.896 299.879 238.004 304.567 222.412C309.517 205.957 314.293 187.973 314.245 170.656C314.242 167.372 313.929 164.095 313.309 160.87L313.666 159.981C313.88 159.428 313.867 158.814 313.63 158.272C313.393 157.729 312.951 157.302 312.4 157.084C309.841 148.227 304.466 140.65 295.326 136.312C282.528 130.25 264.578 128.728 251.646 135.181C236.882 142.549 226.792 158.465 217.78 171.667C207.219 187.158 196.59 204.246 190.448 222.028C187.969 229.262 187.585 236.327 189.222 242.78Z" fill="#17775E"/>
<path d="M224.172 180.982C228.213 187.266 224.576 195.645 221.774 201.741C221.698 201.91 221.646 202.089 221.619 202.273C217.073 202.124 212.729 204.374 208.91 207.452C209.904 201.475 208.873 195.338 205.98 190.014C205.082 191.473 204.222 192.942 203.4 194.419C204.722 197.658 205.262 201.163 204.974 204.65C204.686 208.136 203.579 211.506 201.743 214.484C198.453 214.202 195.165 215.042 192.414 216.868C191.741 218.593 191.067 220.317 190.481 222.055C190.246 222.728 190.05 223.402 189.855 224.075C192.266 221.462 195.183 219.522 198.874 219.078C210.944 217.616 213.456 230.346 208.566 238.711C201.635 235.775 194.691 238.105 189.208 242.672C189.208 242.712 189.208 242.759 189.208 242.8C189.321 243.887 189.521 244.964 189.808 246.019C189.922 246.45 190.064 246.868 190.205 247.292C194.853 242.699 201.07 239.883 207.044 242.631C207.22 243.077 207.539 243.451 207.951 243.695C208.363 243.939 208.845 244.039 209.32 243.979C216.164 249.077 212.56 257.517 207.973 264.515C207.515 264.98 207.084 265.471 206.626 265.963C207.792 266.771 209.004 267.566 210.27 268.327C210.526 267.943 210.782 267.573 211.031 267.182C215.82 262.265 222.259 259.308 229.567 261.12C237.286 263 241.725 270.88 239.906 277.467C241.33 277.475 242.753 277.405 244.17 277.258C244.801 273.934 244.434 270.497 243.116 267.381C241.798 264.265 239.586 261.608 236.761 259.746C238.829 256.452 241.858 253.872 245.439 252.355C249.02 250.837 252.98 250.455 256.785 251.26C256.98 251.332 257.184 251.372 257.391 251.381C257.998 251.529 258.604 251.697 259.203 251.906C269.266 255.388 268.862 263.242 265.548 270.53C267.344 269.865 269.089 269.136 270.782 268.341C273.031 261.073 272.129 253.745 263.608 249.205C262.635 248.692 261.624 248.253 260.584 247.892C260.988 247.151 261.392 246.383 261.783 245.595C266.686 239.062 275.88 235.687 283.552 239.877C285.652 241.071 287.46 242.719 288.844 244.7C290.228 246.68 291.154 248.944 291.554 251.327C292.627 249.845 293.633 248.316 294.571 246.74C293.123 242.757 290.448 239.335 286.933 236.967C285.673 236.131 284.316 235.453 282.892 234.946C286.468 228.379 292.14 222.782 300.088 222.425C301.548 222.36 303.01 222.514 304.425 222.883L304.573 222.391C304.933 221.197 305.29 219.994 305.644 218.781C298.343 216.99 291.709 219.401 286.495 223.873C287.762 218.438 287.957 212.881 285.33 208.772C286.677 207.149 287.546 205.054 288.994 203.498C291.688 200.575 296.282 199.114 300.215 198.844C304.62 198.548 308.19 200.272 309.645 204.159C310.13 202.178 310.579 200.187 310.992 198.184C310.263 197.465 309.44 196.847 308.547 196.345C307.068 195.534 305.451 195.004 303.779 194.783C304.881 192.421 305.83 189.992 306.621 187.508C307.252 186.57 307.969 185.693 308.763 184.888C310.238 183.434 311.906 182.19 313.72 181.191C313.877 179.597 313.998 178.005 314.084 176.415C313.702 176.545 313.323 176.691 312.946 176.853C311.338 177.544 309.824 178.436 308.439 179.507C309.281 172.771 308.056 166.366 301.792 163.773H301.711C303.947 159.422 309.308 157.098 313.835 158.883C313.771 158.49 313.609 158.12 313.364 157.807C313.12 157.494 312.799 157.247 312.434 157.091C312.144 156.088 311.814 155.07 311.444 154.128C308.937 153.969 306.434 154.488 304.196 155.63C304.553 150.915 302.64 146.705 296.538 144.94L296.329 144.893C297.065 143.866 298 142.998 299.079 142.34C300.157 141.681 301.357 141.246 302.607 141.061C301.306 139.921 299.912 138.893 298.437 137.989C298.018 138.172 297.609 138.377 297.211 138.602C297.158 138.108 297.072 137.617 296.956 137.134C296.439 136.851 295.907 136.582 295.359 136.326C293.605 135.502 291.806 134.778 289.971 134.157C293.11 136.393 294.127 140.313 291.695 144.321C287.366 144.374 283.185 145.902 279.841 148.652C279.309 144.826 277.344 141.345 274.345 138.912C276.453 135.329 279.457 132.581 283.397 132.298C279.511 131.449 275.548 130.997 271.57 130.951C271.428 132.835 271.103 134.7 270.6 136.521C268.078 135.334 265.281 134.855 262.508 135.136C259.735 135.417 257.091 136.448 254.859 138.117C254.843 136.704 254.687 135.297 254.394 133.914C253.465 134.285 252.555 134.676 251.7 135.12C251.343 135.295 251.026 135.504 250.656 135.686C250.773 136.377 250.773 137.083 250.656 137.774C250.824 139.634 250.738 141.508 250.4 143.344C250.4 143.344 250.4 143.344 250.4 143.344C244.574 141.276 239.805 145.331 235.697 150.032C235.899 149.083 236.06 148.126 236.175 147.183C234.12 149.372 232.133 151.676 230.295 154.053C229.675 155.717 228.988 157.3 228.341 158.728C228.341 158.768 228.341 158.809 228.301 158.842C227.949 158.592 227.58 158.367 227.196 158.169C226.33 159.35 225.479 160.535 224.644 161.725C226.402 162.648 227.6 164.5 227.621 167.955C227.621 169.767 226.799 171.694 225.795 173.485C225.409 173.997 225.041 174.534 224.691 175.095C222.548 173.483 219.961 172.571 217.282 172.482C216.325 173.887 215.373 175.304 214.426 176.732C218.117 176.22 221.727 177.149 224.172 180.982ZM227.688 178.382C228.052 177.789 228.415 177.176 228.779 176.523C233.184 170.272 241.139 169.37 248.507 171.007C253.276 172.064 257.971 173.142 258.328 179.055C258.496 181.878 257.721 185.582 255.977 188.007C255.425 187.566 254.842 187.166 254.233 186.808C245.005 181.487 236.269 186.303 229.412 192.91C230.598 187.818 230.605 182.619 227.661 178.362L227.688 178.382ZM253.741 215.232C247.248 213.885 240.943 216.788 235.521 221.011C236.613 214.881 234.787 208.55 228.719 204.603C227.839 204.028 226.902 203.545 225.923 203.162C231.568 195.786 239.569 186.141 249.949 189.576C260.827 193.18 256.873 206.509 253.902 214.322C253.793 214.606 253.738 214.908 253.741 215.211V215.232ZM206.411 215.723L206.303 215.683C210.56 210.86 215.948 205.519 222.711 206.859C233.824 209.069 233.204 221.799 227.23 228.864L226.779 229.369C222.494 230.044 218.41 231.654 214.817 234.084C216.426 226.783 214.325 219.098 206.411 215.703V215.723ZM233.049 257.766C226.988 255.368 220.926 256.156 215.537 258.911C218.231 252.351 218.649 245.703 212.648 241.049C218.615 235.398 227.594 231.033 235.548 234.542C246.797 239.513 237.091 250.835 233.049 257.766ZM258.429 242.948C257.528 244.148 256.76 245.442 256.139 246.807C251.58 246.229 246.951 246.98 242.809 248.97C245.786 242.571 246.709 236.031 238.896 231.572C236.902 230.435 234.71 229.687 232.437 229.369C238.202 223.22 245.948 216.686 254.536 219.94C265.164 224.015 262.477 234.589 258.429 242.948ZM259.473 192.163C263.716 187.764 269.684 185.367 275.874 186.842C279.484 187.704 282.959 189.28 284.481 192.776C285.909 196.063 284.812 202.448 281.397 204.61C281.281 204.685 281.173 204.771 281.073 204.866C273.799 200.67 266.255 204.098 259.998 208.86C261.473 203.128 262.012 196.945 259.479 192.136L259.473 192.163ZM278.608 234.003C273.912 233.543 269.191 234.598 265.137 237.014C267.158 229.571 266.693 221.906 259.075 217.34C258.554 217.026 258.034 216.745 257.513 216.498C262.834 211.453 270.896 204.152 278.797 208.415C286.933 212.733 281.693 226.871 278.615 233.983L278.608 234.003ZM303.449 171.256C305.382 175.297 304.681 180.47 303.159 185.299C301.279 188.203 299.933 191.419 299.185 194.796C297.155 195.026 295.156 195.478 293.224 196.143C291.907 196.583 290.635 197.147 289.425 197.827C289.742 193.22 287.97 188.472 284.104 185.865C282.838 185.009 281.483 184.293 280.063 183.73C281.204 181.488 282.231 179.191 283.141 176.846C288.732 169.727 299.434 162.87 303.462 171.236L303.449 171.256ZM291.055 148.557C293.749 148.389 298.336 148.941 299.616 151.77C300.849 154.464 299.616 158.458 298.269 161.281C298.051 161.67 297.853 162.07 297.676 162.479C297.605 162.646 297.553 162.82 297.521 162.998C293.419 162.998 289.109 165.019 285.397 168.043C285.93 162.924 284.569 158.364 279.113 156.377C280.218 154.118 281.91 152.198 284.013 150.819C286.115 149.44 288.55 148.651 291.062 148.537L291.055 148.557ZM280.319 171.121C280.029 172.3 279.686 173.452 279.309 174.59C277.568 176.979 276.318 179.69 275.631 182.565C270.878 181.849 266.023 182.743 261.837 185.104C262.413 182.757 262.622 180.335 262.457 177.924C262.187 173.748 259.951 171.188 256.644 169.43C256.886 168.979 257.122 168.514 257.317 168.043C258.988 165.392 261.315 163.218 264.073 161.731C266.83 160.244 269.926 159.495 273.058 159.556C278.723 159.664 281.545 166.036 280.326 171.101L280.319 171.121ZM254.246 144.853C262.113 132.729 280.184 142.044 274.931 155.454C269.398 154.894 263.86 156.46 259.439 159.832C259.809 154.323 258.213 148.746 253.801 145.371C253.982 145.205 254.137 145.012 254.259 144.799L254.246 144.853ZM231.702 161.173C235.845 157.132 239.226 149.231 245.173 147.621C252.198 145.715 255.236 153.272 255.418 158.479C255.489 160.931 254.979 163.366 253.929 165.585C253.463 166.297 253.036 167.035 252.65 167.794C245.719 165.591 237.872 165.369 231.77 168.508C232.213 166.199 231.855 163.808 230.753 161.732C231.111 161.628 231.437 161.435 231.702 161.173Z" fill="#015E92"/>
</svg>
