<svg width="289" height="320" viewBox="0 0 289 320" fill="none" xmlns="http://www.w3.org/2000/svg">
<path d="M283.621 176.07C283.621 176.081 283.621 176.081 283.611 176.081C283.235 176.693 282.838 177.283 282.43 177.873C282.087 178.398 281.626 179.074 281.379 179.493C281.443 180.04 281.626 180.973 281.765 181.692C282.13 183.559 282.581 185.898 282.57 188.547C282.57 197.27 277.206 205.37 269.267 208.931C268.762 217.289 266.434 224.423 262.347 230.238C258.57 235.656 253.174 239.722 247.177 241.739C246.201 245.548 244.52 249.139 242.22 252.328C241.662 253.111 241.072 253.851 240.482 254.527C239.935 255.17 239.409 255.74 238.873 256.265C237.925 257.203 236.914 258.074 235.847 258.872C235.472 259.162 235.064 259.441 234.646 259.709L234.528 259.784C233.177 260.696 231.753 261.492 230.269 262.166C225.659 264.281 220.604 265.242 215.539 264.966C211.634 270.219 206.443 274.379 200.466 277.046C193.814 280.039 186.562 281.069 179.728 280.115C177.113 282.398 174.164 284.268 170.984 285.661L173.999 293.998C175.27 297.51 175.213 301.365 173.837 304.838C172.462 308.31 169.863 311.159 166.532 312.848L155.953 318.297C153.743 319.437 151.289 320.021 148.803 319.999C146.317 319.978 143.873 319.351 141.683 318.173C139.493 316.995 137.623 315.302 136.235 313.24C134.846 311.177 133.981 308.807 133.713 306.335L133.617 305.434C129.746 307.628 125.162 308.199 120.871 307.021L113.834 305.069C111.576 304.442 109.474 303.35 107.665 301.862C105.855 300.373 104.378 298.523 103.327 296.428C102.277 294.334 101.677 292.043 101.567 289.702C101.457 287.362 101.838 285.024 102.686 282.841C95.9382 283.613 89.5974 283.098 83.7397 281.306C75.8973 278.903 69.2458 274.043 64.8901 267.821C57.9486 267.939 51.104 265.375 46.1045 260.44C41.5985 255.998 39.0023 249.969 38.5626 243.778C34.3352 241.906 30.5921 239.091 27.6194 235.55C26.6455 234.404 25.7665 233.18 24.9909 231.891C24.977 231.86 24.959 231.832 24.9374 231.806C21.5793 226.195 20.2382 219.478 20.9463 212.999C15.3941 208.991 11.3765 203.207 9.55836 196.605C7.74021 190.003 8.23041 182.978 10.9479 176.693C6.84991 171.65 2.90159 165.684 0.992013 158.379C-1.10057 150.397 0.0366223 140.634 5.17556 133.414C2.19638 127.035 1.4345 119.843 3.01098 112.982C4.58746 106.12 8.41186 99.9818 13.8765 95.5427C13.0288 87.6894 14.1766 80.4694 17.3094 74.3326C20.6401 67.7814 26.3582 62.7584 33.284 60.2999C34.0566 54.7757 36.5347 49.4855 40.5359 45.4839C44.8488 41.1389 50.7063 38.5855 56.747 38.0598C59.8473 31.0327 65.6623 25.2287 73.0004 22.4607C76.7918 21.0357 80.849 20.4571 84.8876 20.7655C87.2773 20.9136 89.6404 21.3494 91.9256 22.0636C92.376 21.506 92.8481 20.9588 93.3417 20.4437C95.3921 18.2695 97.8251 16.4911 100.519 15.1975C101.853 14.5586 103.247 14.0554 104.682 13.6955C107.349 12.9886 110.117 12.7383 112.867 12.9552C116.193 7.75243 121.461 3.75027 127.233 2.10888C133.606 0.285076 140.676 1.17538 146.683 4.54416C147.554 4.00804 148.453 3.51743 149.375 3.07431C156.436 -0.326607 164.632 -0.938089 171.854 1.40077C177.582 3.24606 182.4 6.88302 185.564 11.4426C192.504 10.5108 199.562 11.7672 205.754 15.0366C212.481 18.5984 217.781 24.5742 220.774 31.5476C225.806 31.4458 230.806 32.3806 235.461 34.294C235.654 34.3692 235.847 34.4547 236.041 34.5301C239.053 35.8699 241.836 37.6728 244.291 39.8735C247.622 42.8524 250.254 46.5295 252.001 50.6426C253.748 54.7557 254.566 59.2036 254.397 63.6691C260.062 66.2546 265.147 70.3958 269.149 75.8137C274.298 82.798 276.884 90.8873 276.648 98.8369C281.926 103.783 285.273 110.713 285.627 118.03C285.87 123.604 284.447 129.125 281.54 133.887C290.294 145.923 291.689 163.218 283.621 176.07Z" fill="white"/>
<path d="M273.853 169.887C281.137 158.287 277.36 141.157 265.895 133.685C271.182 130.501 274.527 124.269 274.231 118.065C273.935 111.887 270.05 106.006 264.466 103.309C268.539 88.4172 255.995 71.3947 240.564 70.8821C241.068 70.1127 241.484 69.2893 241.805 68.4273V68.4C244.637 61.3589 242.237 52.4834 236.464 47.3848C234.836 45.9249 232.988 44.7321 230.987 43.8509H230.96C225.106 41.2881 218.146 41.1531 212.049 43.2035C211.753 35.2992 207.005 27.7188 200.018 24.023C193.3 20.4348 184.776 20.5698 178.166 24.2925C178.221 23.7453 178.221 23.1941 178.166 22.6469C177.708 17.1976 173.068 12.8005 167.861 11.1278C163.113 9.59026 157.826 10.1033 153.348 12.261C150.409 13.6501 147.867 15.7559 145.955 18.3846C144.7 16.342 142.946 14.6524 140.858 13.4753C137.459 11.533 133.277 10.8586 129.5 11.9378C125.912 12.9622 122.621 15.6605 120.76 19.0327V19.0594C119.032 20.7319 118.305 23.0252 119.276 26.0736C115.634 23.4567 110.939 22.4047 106.651 23.6186C105.895 23.7948 105.162 24.0574 104.466 24.401C99.6099 26.721 96.3456 31.9815 96.4537 37.3498C93.2689 33.5471 88.4136 31.28 83.4768 30.9833C80.9765 30.7822 78.4625 31.1319 76.1121 32.0078C69.125 34.652 64.1882 41.964 64.3501 49.4354C58.7656 46.9537 51.7249 48.2755 47.4359 52.5919C43.1196 56.9082 41.8247 63.9491 44.3064 69.5061C37.2386 67.5639 29.4962 72.2039 26.1781 78.7321C22.8328 85.2877 23.1835 93.1648 25.072 100.26C18.7055 102.958 13.8765 108.973 12.6085 115.772C11.3406 122.57 13.6877 129.934 18.6784 134.736C11.3408 137.893 8.66987 147.469 10.6931 155.186C12.7164 162.928 18.1928 169.187 23.5071 175.122C19.0835 180.058 17.4363 187.314 19.3256 193.654C20.636 197.968 23.3883 201.701 27.122 204.229C28.9012 205.445 30.8704 206.357 32.949 206.927C29.8737 212.754 30.0894 220.172 33.4614 225.809C33.9659 226.643 34.5342 227.437 35.1611 228.183C38.749 232.473 44.2523 235.144 49.8905 235.197C47.2738 240.809 48.5687 247.985 52.966 252.328C57.3632 256.671 64.566 257.858 70.1232 255.187C72.2005 262.633 78.8097 268.298 86.2015 270.564C93.5933 272.83 101.632 272.129 109.105 270.025C110.129 276.553 117.414 280.573 124.023 280.303C130.632 280.006 136.621 276.553 142.259 273.1C152.187 280.789 168.427 278.118 175.387 267.678C188.255 272.668 204.495 265.385 209.297 252.463C214.369 254.431 220.25 254.19 225.187 251.896C226.443 251.346 227.629 250.649 228.721 249.819C234.17 245.718 237.273 238.677 236.625 231.906C238.032 232.043 239.452 231.961 240.834 231.663C245.635 230.773 250.06 227.644 252.892 223.57C256.561 218.364 257.91 211.808 257.964 205.415C257.964 203.877 257.964 202.151 258.962 200.991C259.96 199.831 261.606 199.588 263.062 199.102C267.729 197.592 271.156 192.871 271.156 187.988C271.182 184.157 269.321 180.327 270.184 176.604C270.777 174.096 272.477 172.073 273.853 169.887ZM201.474 161.066C197.994 160.716 194.379 161.876 191.546 163.979C190.711 164.599 189.934 165.295 189.226 166.057C186.96 168.484 185.288 171.506 184.182 174.662C183.183 177.441 182.617 180.462 182.806 183.403C182.819 183.647 182.846 183.89 182.886 184.131C181.456 183.328 179.908 182.755 178.3 182.431C176.093 181.968 173.814 181.977 171.611 182.458C170.714 182.665 169.838 182.954 168.994 183.322C164.408 185.346 161.09 189.797 160.145 194.68C159.606 195.327 159.093 196.001 158.581 196.676C156.692 193.493 154.049 190.795 150.785 189.042C146.657 186.803 141.585 186.264 137.188 187.909C135.111 188.692 133.25 189.96 131.55 191.389C129.527 193.116 127.665 195.22 126.802 197.702C126.754 197.805 126.718 197.914 126.694 198.026C126.721 197.918 126.721 197.81 126.748 197.702C126.236 197.837 125.75 197.972 125.237 198.106C126.352 196.704 126.952 194.961 126.937 193.17C126.954 192.963 126.945 192.754 126.91 192.549C126.876 192.05 126.804 191.554 126.694 191.066C126.02 187.1 124.131 183.323 121.245 180.518C120.225 179.527 119.093 178.658 117.873 177.928C113.969 175.558 109.367 174.605 104.843 175.23C105.976 171.858 106.003 168.135 104.708 164.817C103.885 162.706 102.561 160.827 100.851 159.341C98.0455 156.859 94.2958 155.429 90.546 155.78C95.4828 153.352 98.8548 148.064 98.9896 142.562C99.1515 137.058 96.0222 131.609 91.2473 128.939C96.5618 129.424 102.362 127.752 105.707 123.597C109.052 119.416 109.133 112.564 105.059 109.084C105.965 109.263 106.891 109.317 107.811 109.246H107.838C108.191 109.244 108.542 109.217 108.891 109.165C111.912 108.76 115.958 107.061 118.117 101.288C118.122 101.231 118.141 101.175 118.171 101.126C118.656 99.7144 119.009 98.2602 119.223 96.7827C119.975 97.1753 120.76 97.5003 121.57 97.7539C124.483 98.7197 127.599 98.9057 130.607 98.2935C134.383 97.5111 138.646 95.299 142.612 90.1735C145.691 89.8296 148.681 88.924 151.433 87.5018C151.217 92.0879 154.994 96.1616 159.392 97.5374C163.681 98.8861 168.375 98.1039 172.691 96.7552L172.934 96.6748C173.743 105.442 181.728 112.78 190.415 113.455C191.186 113.531 191.962 113.54 192.735 113.482C188.688 118.149 188.175 125.648 191.71 130.774C193.545 133.471 196.351 135.36 199.453 136.25C198.29 138.895 197.614 141.728 197.456 144.613V144.64C197.133 150.467 198.886 156.375 202.744 160.745C202.314 160.823 201.889 160.931 201.474 161.066V161.066Z" fill="#336D3B"/>
<path d="M130.605 98.2912C127.597 98.9033 124.482 98.7174 121.568 97.7518C120.759 97.4982 119.973 97.1732 119.221 96.7805C119.007 98.258 118.655 99.7121 118.169 101.124C118.139 101.173 118.121 101.228 118.115 101.286C115.957 107.059 111.91 108.758 108.889 109.163C108.7 108.704 108.538 108.246 108.349 107.787C108.322 107.733 108.322 107.679 108.295 107.626C98.6367 82.5484 90.3516 56.9629 83.4768 30.9836C88.4137 31.2803 93.2694 33.5462 96.4537 37.3501C96.3457 31.9817 99.61 26.7211 104.466 24.4011C105.162 24.0574 105.895 23.7949 106.651 23.6187C113.318 48.913 121.314 73.8384 130.605 98.2912V98.2912Z" fill="#F0B11D"/>
<path d="M241.804 68.4V68.4269C239.943 69.9377 238.108 71.3943 236.517 72.7702C230.15 78.3814 223.784 84.0016 217.417 89.6307C208.434 97.562 199.433 105.502 190.413 113.451C181.727 112.777 173.741 105.439 172.932 96.6718L172.689 96.7521L196.726 75.5491C202.607 70.3968 208.479 65.2263 214.342 60.0375C217.336 57.3668 220.358 54.723 223.379 52.0523C224.728 50.8655 226.05 49.6785 227.398 48.4915C227.965 48.0059 228.531 47.4123 229.126 46.8997C229.584 45.7985 230.202 44.7712 230.96 43.8513H230.987C232.988 44.7325 234.836 45.9252 236.464 47.3852C242.236 52.484 244.637 61.3595 241.804 68.4Z" fill="#F0B11D"/>
<path d="M117.872 177.927C100.508 186.446 83.6139 195.892 67.2635 206.224C59.1705 211.35 51.2034 216.692 43.362 222.249C40.61 224.191 37.8856 226.187 35.1611 228.184C34.5342 227.437 33.9659 226.644 33.4614 225.81C30.0892 220.172 29.8737 212.753 32.9488 206.926C30.8703 206.356 28.9012 205.444 27.122 204.228C50.4718 187.338 75.1251 172.328 100.85 159.339C102.56 160.825 103.884 162.704 104.707 164.815C106.002 168.133 105.975 171.856 104.841 175.228C109.366 174.603 113.968 175.556 117.872 177.927Z" fill="#F0B11D"/>
<path d="M236.625 231.907C237.272 238.679 234.17 245.719 228.72 249.82C227.629 250.65 226.442 251.347 225.186 251.897C215.88 237.815 206.545 223.734 196.348 210.299C196.24 210.137 195.782 209.544 195.458 209.112C195.335 208.98 195.226 208.835 195.134 208.68C194.298 207.601 193.461 206.576 192.598 205.524C191.169 203.716 189.712 201.963 188.228 200.209C185.045 196.433 181.754 192.737 178.327 189.176C176.143 186.883 173.903 184.644 171.61 182.459C173.813 181.978 176.093 181.969 178.3 182.432C179.908 182.755 181.455 183.328 182.886 184.131C182.846 183.89 182.819 183.647 182.805 183.403C182.616 180.462 183.183 177.441 184.181 174.662C185.287 171.506 186.96 168.485 189.226 166.057C209.27 185.345 225.375 208.357 240.832 231.665C239.45 231.962 238.031 232.043 236.625 231.907V231.907Z" fill="#F0B11D"/>
<path d="M73.1519 74.428C77.771 74.428 81.5156 70.6835 81.5156 66.0644C81.5156 61.4452 77.771 57.7007 73.1519 57.7007C68.5328 57.7007 64.7882 61.4452 64.7882 66.0644C64.7882 70.6835 68.5328 74.428 73.1519 74.428Z" fill="white"/>
<path d="M83.4768 116.15C88.0959 116.15 91.8405 112.406 91.8405 107.787C91.8405 103.167 88.0959 99.4229 83.4768 99.4229C78.8576 99.4229 75.1131 103.167 75.1131 107.787C75.1131 112.406 78.8576 116.15 83.4768 116.15Z" fill="#E02C37"/>
<path d="M158.562 82.9312C163.181 82.9312 166.926 79.1867 166.926 74.5675C166.926 69.9484 163.181 66.2039 158.562 66.2039C153.943 66.2039 150.198 69.9484 150.198 74.5675C150.198 79.1867 153.943 82.9312 158.562 82.9312Z" fill="#E02C37"/>
<path d="M247.335 186.29C251.954 186.29 255.699 182.546 255.699 177.927C255.699 173.308 251.954 169.563 247.335 169.563C242.716 169.563 238.972 173.308 238.972 177.927C238.972 182.546 242.716 186.29 247.335 186.29Z" fill="#E02C37"/>
<path d="M225.186 155.406C229.805 155.406 233.55 151.661 233.55 147.042C233.55 142.423 229.805 138.678 225.186 138.678C220.567 138.678 216.823 142.423 216.823 147.042C216.823 151.661 220.567 155.406 225.186 155.406Z" fill="white"/>
<path d="M202.741 248.392C207.361 248.392 211.105 244.647 211.105 240.028C211.105 235.409 207.361 231.665 202.741 231.665C198.122 231.665 194.378 235.409 194.378 240.028C194.378 244.647 198.122 248.392 202.741 248.392Z" fill="#E02C37"/>
<path d="M198.209 60.5787C202.829 60.5787 206.573 56.8341 206.573 52.215C206.573 47.5959 202.829 43.8513 198.209 43.8513C193.59 43.8513 189.846 47.5959 189.846 52.215C189.846 56.8341 193.59 60.5787 198.209 60.5787Z" fill="#E02C37"/>
<path d="M148.603 52.215C153.223 52.215 156.967 48.4705 156.967 43.8514C156.967 39.2322 153.223 35.4877 148.603 35.4877C143.984 35.4877 140.24 39.2322 140.24 43.8514C140.24 48.4705 143.984 52.215 148.603 52.215Z" fill="white"/>
<path d="M49.4522 129.855C54.0713 129.855 57.8159 126.11 57.8159 121.491C57.8159 116.872 54.0713 113.127 49.4522 113.127C44.833 113.127 41.0885 116.872 41.0885 121.491C41.0885 126.11 44.833 129.855 49.4522 129.855Z" fill="#E02C37"/>
<path d="M219.113 113.534C223.732 113.534 227.477 109.789 227.477 105.17C227.477 100.551 223.732 96.8063 219.113 96.8063C214.494 96.8063 210.75 100.551 210.75 105.17C210.75 109.789 214.494 113.534 219.113 113.534Z" fill="#E02C37"/>
<path d="M247.335 109.513C251.954 109.513 255.699 105.769 255.699 101.149C255.699 96.5303 251.954 92.7858 247.335 92.7858C242.716 92.7858 238.972 96.5303 238.972 101.149C238.972 105.769 242.716 109.513 247.335 109.513Z" fill="white"/>
<path d="M56.4245 172.133C61.0437 172.133 64.7882 168.389 64.7882 163.769C64.7882 159.15 61.0437 155.406 56.4245 155.406C51.8054 155.406 48.0609 159.15 48.0609 163.769C48.0609 168.389 51.8054 172.133 56.4245 172.133Z" fill="white"/>
<path d="M72.497 236.548C77.1162 236.548 80.8607 232.804 80.8607 228.185C80.8607 223.565 77.1162 219.821 72.497 219.821C67.8779 219.821 64.1334 223.565 64.1334 228.185C64.1334 232.804 67.8779 236.548 72.497 236.548Z" fill="white"/>
<path d="M109.213 210.489C113.833 210.489 117.577 206.745 117.577 202.126C117.577 197.507 113.833 193.762 109.213 193.762C104.594 193.762 100.85 197.507 100.85 202.126C100.85 206.745 104.594 210.489 109.213 210.489Z" fill="#E02C37"/>
<path d="M177.513 261.889C173.231 263.787 158.392 258.787 147.905 254.805L163.23 297.168C163.612 298.215 163.597 299.366 163.188 300.403C162.778 301.44 162.002 302.29 161.008 302.793L150.359 308.279C149.696 308.621 148.96 308.795 148.215 308.788C147.47 308.781 146.737 308.593 146.081 308.24C145.425 307.887 144.864 307.379 144.448 306.761C144.032 306.143 143.772 305.432 143.692 304.691L138.02 250.846C137.326 250.544 136.932 250.383 136.932 250.383C136.932 250.383 136.678 250.498 136.215 250.684L130.613 291.217C130.496 292.067 130.198 292.882 129.74 293.608C129.282 294.333 128.674 294.953 127.957 295.424C127.24 295.895 126.431 296.208 125.583 296.341C124.736 296.474 123.87 296.424 123.043 296.194L116.005 294.25C115.171 294.016 114.396 293.606 113.735 293.046C113.073 292.487 112.539 291.791 112.17 291.007C111.801 290.223 111.606 289.369 111.596 288.502C111.587 287.636 111.764 286.777 112.116 285.985L126.122 254.734C115.612 258.739 100.657 263.785 96.3284 261.887C89.4761 258.878 89.1983 229.802 97.7175 221.584C106.213 213.343 136.932 236.654 136.932 236.654C136.932 236.654 167.652 213.343 176.147 221.584C184.643 229.803 184.366 258.878 177.513 261.889Z" fill="#E02C37"/>
<path d="M126.725 256.287L131.995 253.542L134.63 252.169C135.404 251.766 136.371 251.008 137.242 250.918C138.043 250.835 138.9 251.588 139.612 251.997L142.109 253.43L147.103 256.295C148.074 256.852 148.949 255.353 147.979 254.796L142.272 251.522L139.418 249.884C138.765 249.509 138.125 249.046 137.343 249.071C136.462 249.1 135.64 249.687 134.882 250.082L131.871 251.651L125.848 254.789C124.857 255.305 125.733 256.804 126.724 256.288L126.725 256.287Z" fill="#0C1F26"/>
<path d="M118.375 233.09L133.113 241.921C134.074 242.497 134.948 240.997 133.989 240.422L119.251 231.591C118.29 231.016 117.416 232.515 118.375 233.09V233.09Z" fill="#0C1F26"/>
<path d="M115.738 252.26C120.751 249.891 125.905 247.831 131.169 246.092C132.225 245.742 131.772 244.065 130.707 244.417C125.301 246.207 120.009 248.325 114.861 250.76C113.852 251.237 114.732 252.735 115.738 252.26H115.738Z" fill="#0C1F26"/>
<path d="M141.273 241.309C146.613 238.878 151.893 236.325 157.114 233.647C158.109 233.137 157.231 231.638 156.238 232.148C151.018 234.825 145.738 237.379 140.397 239.809C139.382 240.271 140.263 241.769 141.273 241.309Z" fill="#0C1F26"/>
<path d="M141.546 245.485C147.305 248.017 152.911 250.884 158.336 254.071C159.301 254.638 160.176 253.138 159.212 252.572C153.788 249.385 148.182 246.518 142.422 243.986C141.409 243.54 140.524 245.036 141.546 245.485Z" fill="#0C1F26"/>
<path d="M137.599 252.733C141.278 252.733 144.26 248.788 144.26 243.921C144.26 239.054 141.278 235.109 137.599 235.109C133.921 235.109 130.939 239.054 130.939 243.921C130.939 248.788 133.921 252.733 137.599 252.733Z" fill="#F0B11D"/>
</svg>
