<svg width="224" height="200" viewBox="0 0 224 200" fill="none" xmlns="http://www.w3.org/2000/svg">
<path d="M218.751 84.0315C216.308 80.8055 211.499 71.9017 209.722 66.8726C210.58 64.8228 210.997 62.6154 210.946 60.3939C210.895 58.1723 210.377 55.9864 209.426 53.9782C208.475 51.97 207.112 50.1844 205.425 48.7374C203.739 47.2904 201.767 46.2145 199.637 45.5795C192.608 43.499 187.405 36.698 187.257 29.4139C187.205 26.7397 186.477 24.1221 185.141 21.8049C183.805 19.4878 181.904 17.5466 179.616 16.162C177.327 14.7775 174.725 13.9947 172.053 13.8865C169.38 13.7784 166.724 14.3485 164.331 15.5436C163.342 16.018 162.255 16.2554 161.159 16.2372C157.333 16.2372 153.494 13.8211 152.42 10.7383C151.342 7.61362 149.319 4.90155 146.631 2.97762C143.943 1.0537 140.723 0.0131268 137.418 4.99704e-07V4.99704e-07C134.355 -0.000773158 131.359 0.89682 128.801 2.58166C120.55 8.01686 110.937 11.0245 101.06 11.2618C97.5694 10.4192 93.898 10.7591 90.6215 12.2282C88.0602 13.1955 85.7961 14.8155 84.0538 16.9274C82.3115 19.0394 81.1514 21.57 80.6886 24.2685C71.995 48.9844 63.6818 48.9844 60.8988 48.9844C60.702 48.9844 60.4961 48.9844 60.2903 48.9844C60.0845 48.9844 59.8026 48.9844 59.561 48.9844C57.0619 48.9686 54.5937 49.5377 52.3538 50.6464C50.114 51.755 48.1646 53.3724 46.6617 55.3692C45.1676 57.3773 44.155 59.7018 43.7019 62.1634C43.2489 64.6249 43.3675 67.1577 44.0487 69.5661C44.5543 71.3558 42.2813 75.6198 37.0778 80.0404C29.9681 86.0807 21.1762 90.8368 10.9524 94.1747C7.37393 95.3835 4.33406 97.8115 2.36413 101.034C0.394201 104.257 -0.380487 108.07 0.175466 111.806C0.73142 115.542 2.58265 118.964 5.40561 121.473C8.22856 123.983 11.8437 125.42 15.6191 125.535C16.0128 125.535 16.9614 126.43 17.0017 127.195C17.0509 128.636 14.8495 131.002 12.0352 131.781C11.6087 131.897 11.1896 132.033 10.7779 132.188C7.26708 133.491 4.32591 135.987 2.46853 139.239C0.611151 142.491 -0.0442659 146.292 0.616845 149.978C1.16068 152.993 2.54747 155.792 4.6166 158.051C6.68573 160.31 9.35254 161.937 12.3081 162.743C14.6885 168.3 17.3954 178.403 17.7668 182.376C17.3088 186.505 18.4969 190.648 21.0733 193.906C22.6777 195.911 24.7347 197.507 27.0754 198.563C29.416 199.619 31.9738 200.105 34.5386 199.981C37.1035 199.857 39.6024 199.127 41.8303 197.85C44.0582 196.573 45.9516 194.786 47.3552 192.636C48.778 191.105 53.2389 187.02 59.0599 182.68C64.3395 178.743 68.0979 176.564 70.3261 175.477C72.5878 176.231 74.9886 176.473 77.3554 176.187C79.7222 175.9 81.9959 175.092 84.0124 173.82C86.0289 172.549 87.738 170.845 89.0163 168.833C90.2946 166.821 91.1103 164.55 91.4045 162.184C92.7691 150.935 101.812 141.244 112.881 139.141C115.558 138.643 118.064 137.475 120.167 135.745C122.269 134.016 123.899 131.782 124.904 129.252C125.909 126.722 126.256 123.978 125.914 121.277C125.571 118.576 124.549 116.007 122.944 113.808C120.59 110.573 119.812 105.924 120.809 101.383C121.807 96.8413 124.434 93.0874 127.968 91.159C128.711 90.7514 129.42 90.2861 130.089 89.7675C131.513 93.714 132.534 97.7944 133.136 101.946C133.637 105.146 135.105 108.115 137.344 110.456C139.582 112.796 142.483 114.395 145.657 115.038C148.831 115.681 152.125 115.338 155.098 114.053C158.071 112.768 160.579 110.605 162.286 107.853C163.121 111.276 165.079 114.321 167.846 116.502C170.614 118.683 174.033 119.873 177.557 119.884C180.297 119.883 182.991 119.176 185.379 117.83C187.766 116.484 189.766 114.546 191.185 112.202C195.167 111.425 199.21 111.007 203.266 110.953C203.624 110.953 203.901 110.953 204.112 110.953C207.979 111.929 212.074 111.393 215.559 109.453C219.045 107.513 221.659 104.316 222.868 100.515C223.811 97.6592 223.925 94.5947 223.196 91.6771C222.468 88.7594 220.926 86.1083 218.751 84.0315Z" fill="white"/>
<path d="M213.257 89.141C212.362 88.0538 209.391 83.6556 206.309 77.5705C203.177 71.4184 202.053 67.6466 201.727 65.8792C202.557 64.8049 203.114 63.5447 203.348 62.2073C203.583 60.8699 203.489 59.4954 203.074 58.2025C202.659 56.9096 201.936 55.737 200.967 54.7858C199.998 53.8347 198.813 53.1335 197.512 52.7427C187.432 49.7673 179.991 40.0358 179.781 29.5615C179.755 27.3624 178.861 25.2627 177.293 23.7198C175.726 22.177 173.613 21.3159 171.414 21.3243C170.11 21.3298 168.825 21.636 167.66 22.2192C165.637 23.2108 163.411 23.7164 161.159 23.6957C154.129 23.6957 147.485 19.2751 145.36 13.1812C144.792 11.5223 143.723 10.081 142.3 9.05656C140.877 8.03212 139.171 7.47526 137.418 7.46303C135.816 7.46005 134.248 7.92671 132.908 8.80531C123.155 15.2293 111.745 18.6774 100.067 18.7293C99.1613 18.4259 98.2118 18.2748 97.2569 18.2818C95.9535 18.2814 94.6664 18.5719 93.4895 19.132C91.9079 19.6801 90.5301 20.6959 89.5387 22.0447C88.6761 23.2279 88.1378 24.6161 87.9772 26.0716C80.8184 46.792 72.2099 56.4564 60.9078 56.4564C60.5991 56.4564 60.2859 56.4564 59.9727 56.4564H59.5745C58.2323 56.4447 56.906 56.7474 55.7017 57.3402C54.4975 57.933 53.4487 58.7995 52.6394 59.8703C51.8223 60.9551 51.2705 62.2162 51.0281 63.5525C50.7857 64.8888 50.8594 66.2633 51.2434 67.566C53.3731 75.0515 45.4268 82.7786 41.9235 85.7808C34.0666 92.452 24.4335 97.6824 13.2881 101.324C11.3803 101.977 9.76141 103.277 8.71266 105C7.6639 106.722 7.25153 108.757 7.54717 110.751C7.84281 112.746 8.8278 114.574 10.331 115.918C11.8342 117.262 13.7607 118.036 15.7758 118.108C20.25 118.184 24.3351 122.331 24.5006 126.976C24.7109 132.873 19.2746 137.589 14.0532 139.029C13.8414 139.089 13.6311 139.158 13.4223 139.235C11.5395 139.907 9.95832 141.229 8.96338 142.963C7.96844 144.697 7.62504 146.729 7.99499 148.694C8.35689 150.709 9.41543 152.533 10.9857 153.848C12.5559 155.162 14.538 155.883 16.5856 155.884C16.7646 155.884 16.945 155.884 17.127 155.884C18.259 157.674 20.1292 161.427 22.1785 168.193C24.259 175.07 25.2702 181.007 25.3105 182.698C25.104 183.86 25.1456 185.053 25.4324 186.198C25.7193 187.343 26.2449 188.415 26.9749 189.343C27.8676 190.445 29.0148 191.315 30.3178 191.876C31.6208 192.437 33.0406 192.674 34.4552 192.565C35.8698 192.456 37.2368 192.006 38.4387 191.252C39.6406 190.498 40.6415 189.464 41.3552 188.237C42.5901 186.694 48.2322 181.445 55.4 176.179C63.6819 170.094 68.5902 167.955 70.6125 167.414C71.8389 168.232 73.254 168.722 74.7233 168.839C76.1927 168.956 77.6675 168.695 79.0076 168.081C80.3477 167.467 81.5086 166.521 82.3799 165.332C83.2513 164.143 83.8042 162.751 83.9862 161.289C85.7356 146.895 97.3061 134.497 111.507 131.803C112.945 131.538 114.291 130.913 115.421 129.985C116.551 129.058 117.427 127.859 117.968 126.501C118.508 125.143 118.695 123.67 118.511 122.22C118.328 120.77 117.779 119.391 116.917 118.21C113.266 113.19 112.035 106.465 113.534 99.7585C115.033 93.0515 118.975 87.5571 124.344 84.5907C125.518 83.9421 126.53 83.0367 127.305 81.9419C128.08 80.8471 128.597 79.5914 128.818 78.2685C129.026 77.0013 128.94 75.7033 128.567 74.4745C128.194 73.2458 127.544 72.1191 126.666 71.1812C126.293 70.7815 125.927 70.3789 125.566 69.9732C127.937 71.3155 130.389 74.0001 132.546 77.6063C136.51 84.2596 139.185 92.0717 140.492 100.823C140.802 102.759 141.783 104.524 143.263 105.81C144.743 107.096 146.627 107.822 148.587 107.86C150.547 107.897 152.459 107.245 153.987 106.017C155.515 104.789 156.563 103.063 156.948 101.141C157.396 98.8368 159.785 96.9621 162.317 96.9621C162.527 96.9618 162.736 96.9753 162.944 97.0023C166.47 97.4498 168.957 101.441 169.329 105.007C169.352 105.228 169.385 105.445 169.427 105.66C169.773 107.552 170.774 109.262 172.255 110.489C173.736 111.716 175.602 112.383 177.525 112.371C179.431 112.371 181.28 111.727 182.774 110.543C184.267 109.36 185.317 107.707 185.754 105.852C189.235 104.653 196.836 103.441 203.253 103.441C204.425 103.441 205.083 103.49 205.373 103.521C206.405 103.863 207.494 103.996 208.578 103.912C209.662 103.829 210.718 103.531 211.685 103.036C212.653 102.541 213.512 101.859 214.214 101.029C214.915 100.199 215.445 99.2379 215.772 98.2014C216.299 96.6121 216.341 94.902 215.893 93.2885C215.445 91.6751 214.528 90.2314 213.257 89.141V89.141Z" fill="black"/>
<path d="M178.528 103.83C178.501 103.548 178.447 103.271 178.407 102.989C177.78 96.9846 204.434 95.0338 207.619 96.3895C208.604 96.8101 209.114 95.338 208.349 94.7832C205.57 92.7653 189.333 65.253 195.557 61.5438C195.709 61.4585 195.833 61.3307 195.913 61.176C195.994 61.0213 196.027 60.8464 196.01 60.6729C195.992 60.4994 195.924 60.3349 195.814 60.1995C195.704 60.064 195.557 59.9637 195.391 59.9107C182.197 56.0046 172.572 43.4901 172.308 29.7137C172.313 29.5572 172.276 29.4023 172.202 29.2644C172.127 29.1266 172.018 29.0107 171.885 28.9282C171.752 28.8458 171.599 28.7998 171.443 28.7947C171.286 28.7897 171.131 28.8258 170.993 28.8994C158.912 34.9084 142.756 28.3983 138.304 15.6287C138.129 15.1321 137.539 14.707 137.011 15.0515C124.965 22.9863 110.7 26.8661 96.2949 26.1254C95.2479 26.0717 95.1092 27.5482 95.9638 27.848C95.9834 27.9665 96.031 28.0787 96.1026 28.1751C96.1741 28.2716 96.2677 28.3497 96.3754 28.4028C108.147 34.6981 123.006 44.8637 119.677 60.4118C119.633 60.5615 119.628 60.7203 119.664 60.8723C119.7 61.0243 119.775 61.1643 119.882 61.2783C119.989 61.3924 120.124 61.4764 120.273 61.5222C120.422 61.568 120.581 61.5739 120.733 61.5393C128.859 60.6444 135.217 67.3559 139.024 73.772C143.731 81.6736 146.586 90.6445 147.942 99.7228C148.067 100.568 149.499 100.64 149.66 99.781C150.872 93.2888 157.44 88.734 163.977 89.602C171.203 90.5595 176.107 97.3738 176.814 104.255C177.02 105.392 178.64 104.913 178.528 103.83Z" fill="#1E896F"/>
<path d="M197.619 89.6556C181.226 80.7876 167.642 67.3916 152.939 56.0985C138.818 45.2304 123.856 35.3289 107.221 28.7696C106.152 28.349 105.642 30.0537 106.702 30.4698C123.521 37.0962 138.59 47.2215 152.823 58.2372C167.208 69.3737 180.599 82.4788 196.671 91.1858C197.687 91.7138 198.617 90.2014 197.619 89.6556Z" fill="#17775E"/>
<path d="M142.89 30.3401C135.078 31.7152 127.235 32.8726 119.36 33.8121C118.223 33.9464 118.644 35.6779 119.767 35.5437C127.642 34.6041 135.485 33.4467 143.297 32.0717C144.429 31.8703 144.031 30.1388 142.89 30.3401Z" fill="#17775E"/>
<path d="M170.626 48.4655C161.743 48.5072 152.872 48.8711 144.013 49.5572C142.881 49.6467 142.809 51.423 143.946 51.3469C152.802 50.6579 161.673 50.294 170.559 50.2552C171.704 50.2373 171.772 48.461 170.626 48.4655Z" fill="#17775E"/>
<path d="M189.029 71.1545L166.872 67.4364C165.745 67.2484 165.691 69.0292 166.805 69.2261L188.962 72.9442C190.089 73.1455 190.143 71.3558 189.029 71.1545Z" fill="#17775E"/>
<path d="M140.317 60.7294C134.352 51.9419 127.973 43.4631 121.181 35.2931C120.447 34.3982 119.163 35.6421 119.892 36.519C126.586 44.5727 132.874 52.9247 138.756 61.575C139.391 62.5236 140.962 61.6779 140.317 60.7294Z" fill="#17775E"/>
<path d="M157.091 76.2283C153.959 67.6108 148.402 60.1656 145.306 51.5481C144.921 50.4832 143.185 50.8815 143.575 51.9553C146.675 60.5817 152.25 68.0224 155.36 76.6354C155.745 77.7048 157.481 77.3066 157.091 76.2283Z" fill="#17775E"/>
<path d="M183.472 96.2283C178.49 87.6675 173.909 78.8949 169.727 69.9106C169.244 68.8725 167.682 69.7271 168.165 70.7651C172.341 79.7465 176.923 88.5191 181.91 97.0829C182.483 98.0672 184.049 97.2216 183.472 96.2283Z" fill="#17775E"/>
<path d="M16.9256 148.313C17.2791 148.215 17.6236 148.094 17.9726 147.978C25.4939 145.888 33.7131 179.463 32.6706 183.817C32.3485 185.159 34.3306 185.495 34.8764 184.398C36.8541 180.421 68.4649 153.79 74.5186 160.935C74.6616 161.108 74.8513 161.235 75.065 161.302C75.2786 161.369 75.5071 161.374 75.7231 161.314C75.939 161.254 76.1331 161.134 76.2822 160.967C76.4312 160.8 76.5288 160.593 76.5633 160.372C78.711 142.703 92.6036 127.763 110.12 124.439C110.32 124.409 110.508 124.328 110.667 124.203C110.826 124.078 110.95 123.915 111.026 123.728C111.102 123.541 111.128 123.337 111.102 123.137C111.076 122.937 110.998 122.747 110.877 122.586C100.617 108.47 105.445 86.4654 120.774 78.0404C121.373 77.7137 121.789 76.8681 121.221 76.2506C108.505 62.587 100.488 45.2171 98.3396 26.6756C98.183 25.3333 96.2725 25.4676 96.0712 26.6219C95.9236 26.6718 95.7901 26.7564 95.6819 26.8685C95.5737 26.9806 95.4939 27.117 95.4493 27.2662C89.9504 43.6376 80.183 64.7741 59.655 63.8703C59.4559 63.8508 59.2552 63.8826 59.0719 63.9626C58.8886 64.0426 58.7288 64.1681 58.6077 64.3273C58.4866 64.4865 58.4083 64.6741 58.3801 64.8721C58.352 65.0701 58.375 65.2721 58.4469 65.4587C61.3418 75.6287 54.1158 85.1813 46.7735 91.4095C37.7087 99.1097 26.8809 104.68 15.6147 108.363C14.5632 108.707 14.778 110.546 15.9144 110.564C24.4514 110.712 31.6773 118.112 31.9771 126.64C32.3127 136.063 24.6706 143.781 16.0531 146.166C14.6079 146.721 15.5431 148.689 16.9256 148.313Z" fill="#1E896F"/>
<path d="M39.1091 169.611C46.8944 146.792 61.06 126.577 72.3262 105.405C83.154 85.0561 92.5634 63.8614 97.3509 41.2171C97.6596 39.763 95.3732 39.4766 95.069 40.9173C90.2323 63.7943 80.5589 85.1903 69.5656 105.709C58.4559 126.448 44.617 146.349 36.9749 168.739C36.5006 170.143 38.6304 171.016 39.1091 169.611Z" fill="#17775E"/>
<path d="M102.993 87.0561C99.5596 77.3886 96.3978 67.6332 93.5074 57.7898C93.0913 56.3714 90.9749 57.2752 91.3866 58.6846C94.2769 68.5281 97.4388 78.2835 100.872 87.9509C101.369 89.3469 103.489 88.4476 102.993 87.0561Z" fill="#17775E"/>
<path d="M85.8385 126.327C83.8757 114.992 81.5029 103.756 78.7199 92.6177C78.3664 91.1948 76.08 91.4812 76.438 92.9174C79.221 104.067 81.5938 115.304 83.5566 126.627C83.8116 128.085 86.0935 127.79 85.8385 126.327Z" fill="#17775E"/>
<path d="M60.8541 154.68L60.8094 125.62C60.8094 124.143 58.5275 124.457 58.5275 125.92C58.5275 135.605 58.5349 145.29 58.5498 154.976C58.5722 156.457 60.8541 156.139 60.8541 154.68Z" fill="#17775E"/>
<path d="M63.6774 90.309C73.6014 80.8116 83.0451 70.8533 92.0086 60.4342C92.975 59.3112 91.1137 57.9331 90.1652 59.0561C81.3329 69.3201 72.0294 79.1352 62.2546 88.5014C61.1942 89.5126 62.5991 91.3336 63.6774 90.309Z" fill="#17775E"/>
<path d="M47.5163 115.038C57.8385 109.222 66.1338 100.501 76.4604 94.6982C77.7356 93.9823 76.8587 91.8526 75.5656 92.5774C65.23 98.394 56.9391 107.096 46.6215 112.917C45.3463 113.633 46.2277 115.763 47.5163 115.038Z" fill="#17775E"/>
<path d="M27.6997 152.98C37.5431 144.786 47.7475 137.058 58.3127 129.794C59.5297 128.958 58.1069 127.15 56.8854 128.005C46.3291 135.268 36.1248 142.996 26.2724 151.19C25.1225 152.117 26.5409 153.933 27.6997 152.98Z" fill="#17775E"/>
</svg>
