<svg width="352" height="400" viewBox="0 0 352 400" fill="none" xmlns="http://www.w3.org/2000/svg">
<path d="M351.459 290.57C350.699 285.313 348.658 280.325 345.515 276.044C342.371 271.764 338.223 268.322 333.435 266.024C316.551 258.159 311.943 236.815 306.85 205.164C306.371 202.188 305.9 199.247 305.443 196.384C302.221 177.389 296.536 155.848 278.752 139.717C269.374 131.218 257.323 125.231 244.23 122.361C244.125 121.095 243.998 120.004 243.9 119.146C242.999 111.288 241.304 99.49 236.956 87.7836C233.228 77.5865 227.551 68.2127 220.241 60.185C223.247 55.3771 225.018 49.9011 225.398 44.2436C226.572 27.1413 216.02 10.9536 199.072 3.98185C192.565 1.30149 185.467 0 177.362 0C171.702 0.0702633 166.056 0.590149 160.478 1.55475C154.452 2.40364 148.534 3.89658 142.827 6.00795L142.461 6.14865C138.367 7.73154 132.169 10.1235 126.428 14.9003C119.499 18.7696 114.307 23.5675 110.649 29.4699C108.006 33.6855 106.31 38.424 105.676 43.3587C105.042 48.2933 105.486 53.3068 106.976 58.0534C108.526 62.8675 111.063 67.3052 114.426 71.0824C110.529 76.7104 107.328 82.3385 104.577 87.066C97.3593 99.7292 93.5674 112.392 93.2086 124.352C84.466 127.785 76.5892 133.106 70.1406 139.935C56.2816 154.349 49.4083 172.591 44.0546 188.568C41.7541 195.434 39.7984 202.23 37.906 208.801C35.4015 217.489 33.0447 225.685 30.1041 233.374C24.7715 247.332 18.9675 256.59 11.8129 262.493C7.46621 266.107 4.12894 270.785 2.12567 276.071C0.122397 281.357 -0.478685 287.072 0.380885 292.659C1.19848 297.984 3.40025 303 6.76586 307.207C10.1315 311.413 14.5428 314.662 19.5585 316.627C39.53 324.661 61.4951 326.332 82.452 321.411C79.3144 334.454 76.4722 345.077 74.2773 350.677C72.4883 355.292 71.7447 360.245 72.0999 365.182C72.4551 370.118 73.9003 374.915 76.3315 379.225C78.6025 383.268 81.7527 386.749 85.5493 389.411C89.346 392.072 93.6922 393.847 98.2668 394.604C120.218 398.188 142.422 399.993 164.664 400C189.48 399.985 214.245 397.758 238.666 393.345C243.567 392.431 248.198 390.42 252.212 387.463C256.226 384.506 259.52 380.68 261.846 376.271C264.101 372.019 265.352 367.307 265.5 362.497C265.649 357.687 264.693 352.907 262.705 348.524C260.383 343.375 258.237 337.972 256.239 332.414C263.292 335.044 270.643 336.788 278.125 337.606C281.378 337.956 284.647 338.132 287.918 338.134C308.32 338.134 326.808 331.281 341.434 318.323C345.283 314.897 348.216 310.564 349.966 305.718C351.717 300.871 352.23 295.664 351.459 290.57V290.57Z" fill="white"/>
<path d="M338.233 292.49C337.803 289.425 336.626 286.513 334.805 284.011C332.984 281.508 330.576 279.492 327.793 278.139C303.255 266.685 298.33 236.491 293.659 207.288C293.188 204.348 292.716 201.449 292.252 198.621C289.438 181.906 284.513 163.01 269.74 149.622C259.637 140.476 245.623 134.848 230.758 133.941C231.258 129.526 231.199 125.066 230.582 120.666C229.766 113.504 228.233 102.782 224.392 92.4408C219.39 78.9616 211.13 68.0151 200.845 60.8322C209.196 55.5278 211.686 48.7812 212.101 43.322C212.882 32.1432 205.446 21.0489 194.014 16.3495C188.705 14.2579 183.032 13.2439 177.327 13.3666C172.359 13.4457 167.405 13.9162 162.511 14.7736C157.429 15.4853 152.437 16.7328 147.618 18.4952L147.238 18.6429C143.573 20.0499 138.346 22.076 134.047 25.9805C128.546 28.8508 124.578 32.3121 121.968 36.5331C120.331 39.1038 119.28 42.0031 118.888 45.0255C118.497 48.0479 118.775 51.1194 119.703 54.0223C121.701 60.3046 126.738 65.7498 133.287 68.7537C125.978 76.6471 120.624 86.0108 116.206 93.7212C108.081 107.939 105.112 122.03 107.349 134.37C97.0427 136.03 87.6509 141.088 79.8068 149.235C67.8472 161.652 61.8744 177.586 56.7599 192.852C54.5509 199.444 52.6304 206.099 50.7801 212.551C48.1983 221.513 45.7571 229.984 42.6195 238.193C36.4286 254.374 29.3724 265.391 20.4027 272.834C17.8561 274.98 15.8988 277.74 14.7159 280.854C13.5329 283.967 13.1633 287.33 13.642 290.626C14.11 293.656 15.3655 296.51 17.2828 298.903C19.2001 301.295 21.7121 303.143 24.5675 304.26C36.8385 309.189 50.0317 311.403 63.2397 310.748C76.4477 310.094 89.3573 306.587 101.081 300.468C95.5865 324.915 90.5283 345.985 86.7716 355.616C85.7076 358.364 85.2644 361.314 85.4736 364.253C85.6828 367.193 86.5392 370.05 87.9816 372.62C89.2678 374.928 91.0567 376.917 93.2158 378.441C95.3749 379.964 97.8489 380.982 100.455 381.42C121.683 384.884 143.155 386.627 164.664 386.633C188.685 386.618 212.657 384.461 236.295 380.189C239.193 379.624 241.928 378.42 244.302 376.665C246.676 374.911 248.63 372.649 250.02 370.045C251.324 367.588 252.047 364.866 252.133 362.086C252.22 359.307 251.668 356.545 250.52 354.012C243.661 338.774 238.272 321.7 233.854 304.358C246.777 314.573 262.093 322.438 279.582 324.317C282.36 324.615 285.152 324.765 287.946 324.767C305.014 324.767 320.456 319.076 332.598 308.319C334.78 306.358 336.439 303.883 337.423 301.119C338.407 298.355 338.685 295.389 338.233 292.49Z" fill="black"/>
<path d="M89.4379 158.493C79.3285 169.003 73.9608 183.531 69.4302 197.094C64.3438 212.276 60.8263 227.971 55.0997 242.949C49.3732 257.927 41.4939 272.686 28.9293 283.105C26.277 285.3 25.6509 290.288 29.5132 291.829C61.7197 304.668 96.9373 294.973 119.668 269.317C130.565 257.005 138.064 242.253 143.094 226.677C146.052 217.599 148.316 208.309 149.869 198.888L150.158 162.243C132.542 147.012 107.87 139.301 89.4379 158.493Z" fill="#FFF1E9"/>
<path d="M54.5018 266.348C51.5426 271.86 47.7453 276.88 43.2457 281.227C41.902 282.528 44.0969 284.435 45.4336 283.14C50.1048 278.616 54.0467 273.395 57.1188 267.663C57.9912 265.996 55.3812 264.723 54.5018 266.348Z" fill="#FFC4C3"/>
<path d="M67.4534 269.197L59.3138 282.31C58.3289 283.9 60.9389 285.181 61.9168 283.605L70.0564 270.499C71.0413 268.902 68.4313 267.621 67.4534 269.197Z" fill="#FFC4C3"/>
<path d="M85.034 266.088L80.1094 273.573C79.0823 275.135 81.6923 276.387 82.7124 274.867L87.637 267.382C88.6852 265.82 86.047 264.54 85.034 266.088Z" fill="#FFC4C3"/>
<path d="M66.2362 243.751L59.5669 259.742C58.8634 261.465 61.4453 262.767 62.1699 261.036L68.8391 245.024C69.5567 243.322 66.9537 242.02 66.2362 243.751Z" fill="#FFC4C3"/>
<path d="M75.2553 239.396C72.7444 246.376 69.8677 253.219 66.6373 259.897C65.8212 261.585 68.4242 262.88 69.2403 261.191C72.4707 254.514 75.3473 247.671 77.8583 240.691C78.4844 238.932 75.8884 237.624 75.2553 239.396Z" fill="#FFC4C3"/>
<path d="M89.2551 238.369C86.3801 244.734 83.8334 251.22 81.615 257.828C81.017 259.601 83.8732 260.164 84.429 258.412C86.5817 252.038 89.0464 245.789 91.8229 239.664C92.6249 237.989 90.0219 236.667 89.2551 238.369Z" fill="#FFC4C3"/>
<path d="M101.728 254.036C100.358 259.352 98.1342 264.411 95.1433 269.014C94.1303 270.583 96.7403 271.863 97.7463 270.309C100.854 265.482 103.161 260.184 104.577 254.62C105.042 252.805 102.192 252.228 101.728 254.036Z" fill="#FFC4C3"/>
<path d="M113.779 253.037L104.416 274.776C103.712 276.492 106.273 277.794 107.019 276.07L116.382 254.332C117.121 252.622 114.525 251.321 113.779 253.037Z" fill="#FFC4C3"/>
<path d="M126.745 232.931C125.739 238.531 124.116 244.003 121.905 249.246C121.201 250.962 123.776 252.264 124.508 250.54C126.826 245.07 128.532 239.36 129.594 233.515C129.925 231.658 127.076 231.088 126.745 232.931Z" fill="#FFC4C3"/>
<path d="M113.125 227.437C112.039 232.236 110.629 236.955 108.904 241.563C108.25 243.301 110.846 244.609 111.507 242.858C113.337 238.019 114.836 233.062 115.995 228.021C116.389 226.22 113.54 225.636 113.125 227.437Z" fill="#FFC4C3"/>
<path d="M102.305 224.44C99.9554 230.399 98.0093 236.51 96.4801 242.731C96.0368 244.553 98.886 245.13 99.2941 243.315C100.757 237.334 102.621 231.458 104.873 225.727C105.569 224.004 102.995 222.695 102.305 224.44Z" fill="#FFC4C3"/>
<path d="M70.7598 215.365L67.39 233.065C67.0382 234.901 69.8874 235.485 70.204 233.649L73.5738 215.963C73.9607 214.112 71.0975 213.528 70.7598 215.365Z" fill="#FFC4C3"/>
<path d="M76.8452 219.487L74.7346 226.747C74.2141 228.548 77.0633 229.118 77.5487 227.331L79.6592 220.071C80.2431 218.291 77.3658 217.7 76.8452 219.487Z" fill="#FFC4C3"/>
<path d="M89.0721 211.488C87.2571 218.204 85.2779 224.869 83.1345 231.482C82.5576 233.262 85.4139 233.825 85.9485 232.066C88.0966 225.448 90.0758 218.784 91.8861 212.072C92.4067 210.264 89.5575 209.694 89.0721 211.488Z" fill="#FFC4C3"/>
<path d="M135.279 206.437C133.478 212.333 132.42 218.43 132.127 224.588C132.035 226.452 134.941 226.241 135.025 224.391C135.337 218.499 136.38 212.67 138.128 207.035C138.676 205.227 135.82 204.664 135.279 206.437Z" fill="#FFC4C3"/>
<path d="M126.815 202.554C125.056 207.643 123.925 212.928 123.445 218.291C123.284 220.134 126.126 220.732 126.26 218.875C126.737 213.502 127.868 208.208 129.629 203.109C130.27 201.407 127.413 200.809 126.815 202.554Z" fill="#FFC4C3"/>
<path d="M116.825 193.26C113.773 199.826 111.661 206.789 110.55 213.944C110.262 215.787 113.111 216.378 113.364 214.527C114.425 207.62 116.455 200.896 119.393 194.555C120.181 192.859 117.578 191.558 116.825 193.26Z" fill="#FFC4C3"/>
<path d="M105.457 192.543C102.372 197.785 100.772 203.767 100.828 209.849C100.828 211.72 103.733 211.516 103.726 209.652C103.702 204.082 105.201 198.611 108.06 193.83C109.01 192.226 106.4 190.939 105.457 192.543Z" fill="#FFC4C3"/>
<path d="M93.2017 182.412L87.44 199.078C86.835 200.823 89.4309 202.139 90.043 200.373L95.8047 183.707C96.4238 181.976 93.8138 180.661 93.2017 182.412Z" fill="#FFC4C3"/>
<path d="M81.2491 181.139C78.4495 186.579 76.3481 192.352 74.9949 198.319C74.5799 200.148 77.4291 200.725 77.809 198.903C79.1097 193.184 81.1283 187.653 83.8169 182.44C84.7104 180.766 82.1074 179.479 81.2491 181.139Z" fill="#FFC4C3"/>
<path d="M115.376 155.44C111.722 155.461 108.162 156.596 105.169 158.693C102.177 160.789 99.8942 163.748 98.6258 167.174C97.9926 168.912 100.589 170.228 101.229 168.469C102.276 165.503 104.219 162.935 106.789 161.12C109.358 159.306 112.428 158.334 115.573 158.338C117.438 158.324 117.241 155.426 115.376 155.44Z" fill="#FFC4C3"/>
<path d="M115.341 161.469C110.724 163.621 107.039 167.369 104.964 172.022C104.205 173.731 106.807 175.026 107.567 173.316C109.295 169.334 112.396 166.106 116.305 164.22C117.965 163.418 117.036 160.66 115.341 161.469Z" fill="#FFC4C3"/>
<path d="M91.3514 169.981C89.8782 171.75 88.7882 173.806 88.1505 176.017C87.6228 177.811 90.472 178.381 90.9645 176.601C91.4844 174.859 92.3613 173.244 93.5393 171.86C94.7353 170.453 92.5544 168.546 91.3514 169.981Z" fill="#FFC4C3"/>
<path d="M116.72 171.557C113.227 175.078 110.548 179.321 108.869 183.988C108.243 185.733 110.839 187.041 111.472 185.283C113.061 180.842 115.609 176.807 118.936 173.464C120.223 172.134 118.035 170.228 116.72 171.557Z" fill="#FFC4C3"/>
<path d="M124.276 182.926L122.601 186.922C121.898 188.638 124.48 189.947 125.204 188.216L126.879 184.22C127.596 182.504 125 181.202 124.276 182.926Z" fill="#FFC4C3"/>
<path d="M139.422 179.676L135.82 194.14C135.37 195.955 138.219 196.532 138.634 194.724L142.236 180.26C142.722 178.445 139.872 177.868 139.422 179.676Z" fill="#FFC4C3"/>
<path d="M129.84 155.25C128.891 153.639 126.492 155.25 127.434 156.882C128.918 159.364 129.801 162.158 130.013 165.042C130.226 167.926 129.762 170.819 128.658 173.492C127.955 175.216 130.558 176.524 131.261 174.786C132.575 171.647 133.131 168.243 132.884 164.848C132.637 161.454 131.594 158.166 129.84 155.25V155.25Z" fill="#FFC4C3"/>
<path d="M322.151 290.253C288.228 274.445 284.549 233.22 279.061 200.851C276.522 185.867 272.455 170.115 260.77 159.513C249.085 148.911 231.321 145.197 216.02 148.145C206.41 149.995 196.575 155.742 191.242 163.924L190.954 200.57C190.483 222.681 201.204 245.433 213.529 262.858C229.323 285.188 252.455 307.967 280.989 311.035C296.614 312.709 311.859 308.833 323.72 298.322C326.252 296.092 324.888 291.526 322.151 290.253Z" fill="#FFF1E9"/>
<path d="M200.43 208.048C198.96 204.639 198.148 200.982 198.038 197.27C198.079 197.124 198.098 196.972 198.095 196.82L198.045 194.752C198.003 192.845 195.231 193.127 195.147 194.949C194.898 199.771 195.764 204.586 197.679 209.019C198.432 210.714 201.169 209.772 200.43 208.048Z" fill="#FFC4C3"/>
<path d="M207.972 233.065C204.859 229.04 202.867 224.263 202.196 219.22C201.95 217.377 199.051 217.56 199.298 219.417C200.008 224.973 202.17 230.243 205.566 234.697C206.692 236.146 209.105 234.528 207.972 233.065Z" fill="#FFC4C3"/>
<path d="M222.478 257.99C219.383 253.22 216.977 254.852 220.072 259.622C221.092 261.205 223.498 259.559 222.478 257.99Z" fill="#FFC4C3"/>
<path d="M242.289 279.454C237.652 277.165 233.64 273.785 230.597 269.605C229.499 268.099 227.079 269.718 228.191 271.237C231.524 275.822 235.917 279.532 240.995 282.05C242.676 282.887 243.97 280.284 242.289 279.454Z" fill="#FFC4C3"/>
<path d="M269.24 299.328C262.778 297.819 256.699 294.988 251.385 291.013C249.894 289.901 247.973 292.082 249.472 293.201C255.179 297.484 261.711 300.54 268.656 302.177C270.485 302.606 271.062 299.764 269.24 299.328Z" fill="#FFC4C3"/>
<path d="M296.888 302.41C291.71 302.446 286.571 301.506 281.742 299.638C280.011 298.934 278.702 301.565 280.447 302.241C285.748 304.303 291.39 305.346 297.078 305.315C298.949 305.301 298.752 302.403 296.888 302.41Z" fill="#FFC4C3"/>
<path d="M206.684 192.001C204.919 185.203 203.859 178.242 203.519 171.227C203.427 169.355 200.529 169.552 200.62 171.424C200.985 178.699 202.098 185.917 203.941 192.965C204.405 194.766 207.149 193.802 206.684 192.001Z" fill="#FFC4C3"/>
<path d="M217.392 226.48C212.445 219.883 209.343 212.089 208.401 203.897C208.183 202.047 205.284 202.23 205.503 204.094C206.484 212.807 209.756 221.104 214.986 228.14C216.09 229.604 218.503 227.986 217.392 226.48Z" fill="#FFC4C3"/>
<path d="M230.35 251.3C225.831 246.928 222.362 241.588 220.206 235.682C219.559 233.93 216.815 234.88 217.462 236.639C219.796 243.025 223.548 248.798 228.437 253.523C229.781 254.789 231.687 252.601 230.35 251.3Z" fill="#FFC4C3"/>
<path d="M251.125 271.23C247.631 267.835 244.013 264.575 240.27 261.451C238.863 260.255 236.921 262.436 238.356 263.639C242.108 266.763 245.727 270.022 249.211 273.418C250.555 274.72 252.469 272.532 251.125 271.23Z" fill="#FFC4C3"/>
<path d="M263.718 283.183L258.892 278.962C257.485 277.738 255.564 279.918 256.978 281.15L261.804 285.371C263.218 286.595 265.132 284.421 263.718 283.183Z" fill="#FFC4C3"/>
<path d="M220.241 187.822L216.97 171.902C216.597 170.08 213.853 171.051 214.226 172.859L217.476 188.744C217.849 190.601 220.593 189.63 220.241 187.822Z" fill="#FFC4C3"/>
<path d="M227.515 217.545C224.777 213.076 222.888 208.139 221.943 202.983C221.613 201.168 218.707 201.337 219.045 203.18C220.06 208.841 222.116 214.266 225.109 219.178C226.08 220.768 228.486 219.142 227.515 217.545Z" fill="#FFC4C3"/>
<path d="M243.013 241.577L237.899 233.536C236.893 231.96 234.487 233.585 235.493 235.168L240.643 243.209C241.613 244.785 244.019 243.16 243.013 241.577Z" fill="#FFC4C3"/>
<path d="M261.713 269.422L255.381 261.444C254.22 259.995 251.807 261.606 252.975 263.076L259.307 271.054C260.468 272.503 262.881 270.892 261.713 269.422Z" fill="#FFC4C3"/>
<path d="M232.904 176.637L229.802 166.45C229.26 164.663 226.516 165.62 227.058 167.407L230.16 177.593C230.716 179.387 233.46 178.43 232.904 176.637Z" fill="#FFC4C3"/>
<path d="M241.114 204.622L235.148 192.057C234.353 190.39 231.631 191.354 232.405 193.014L238.37 205.579C239.158 207.246 241.916 206.332 241.114 204.622Z" fill="#FFC4C3"/>
<path d="M245.68 228.225C242.378 224.595 239.791 220.375 238.054 215.787C237.385 214.049 234.642 214.992 235.31 216.744C237.237 221.791 240.101 226.429 243.752 230.413C245.025 231.792 246.925 229.597 245.68 228.225Z" fill="#FFC4C3"/>
<path d="M269.895 263.646C264.951 259.318 260.799 254.162 257.625 248.408C256.718 246.776 254.319 248.408 255.219 250.04C258.526 256.005 262.844 261.349 267.981 265.834C269.395 267.065 271.309 264.877 269.895 263.646Z" fill="#FFC4C3"/>
<path d="M290.331 288.156L278.273 281.825C276.613 280.953 275.326 283.556 276.979 284.428L289.037 290.759C290.697 291.632 291.999 289.029 290.331 288.156Z" fill="#FFC4C3"/>
<path d="M307.075 287.805C303.891 285.77 300.479 284.117 296.909 282.88C295.165 282.275 293.849 284.871 295.615 285.483C299.185 286.72 302.597 288.373 305.78 290.408C307.356 291.414 308.637 288.797 307.075 287.805Z" fill="#FFC4C3"/>
<path d="M242.219 173.091L236.211 161.216C235.366 159.555 232.967 161.216 233.805 162.848L239.813 174.723C240.643 176.39 243.049 174.744 242.219 173.091Z" fill="#FFC4C3"/>
<path d="M252.314 175.982C251.463 173.368 250.145 170.929 248.423 168.785C247.263 167.336 244.843 168.954 246.018 170.418C247.578 172.358 248.77 174.569 249.535 176.939C250.154 178.712 252.898 177.762 252.314 175.982Z" fill="#FFC4C3"/>
<path d="M219.467 161.666C218.117 159.245 216.412 157.04 214.409 155.123C213.058 153.822 211.152 156.017 212.495 157.311C214.308 159.068 215.847 161.086 217.061 163.298C217.969 164.93 220.375 163.298 219.467 161.666Z" fill="#FFC4C3"/>
<path d="M230.491 155.454L227.058 152.45C225.651 151.219 223.737 153.407 225.144 154.638L228.578 157.642C229.992 158.873 231.905 156.685 230.491 155.454Z" fill="#FFC4C3"/>
<path d="M253.067 206.543C250.253 202.475 248.084 197.997 246.637 193.267C246.088 191.481 243.344 192.437 243.893 194.224C245.419 199.194 247.702 203.899 250.661 208.175C251.723 209.715 254.136 208.09 253.067 206.543Z" fill="#FFC4C3"/>
<path d="M259.891 231.777L255.86 221.731C255.156 220.001 252.419 220.943 253.116 222.688L257.147 232.734C257.843 234.472 260.587 233.522 259.891 231.777Z" fill="#FFC4C3"/>
<path d="M269.05 194.281C267.368 190.618 266.03 186.808 265.054 182.898C264.604 181.09 261.86 182.054 262.311 183.855C263.287 187.764 264.625 191.575 266.307 195.237C267.08 196.919 269.831 195.983 269.05 194.281Z" fill="#FFC4C3"/>
<path d="M260.341 198.065L254.368 186.169C253.545 184.523 250.787 185.466 251.624 187.126L257.597 199.022C258.413 200.661 261.171 199.733 260.341 198.065Z" fill="#FFC4C3"/>
<path d="M275.516 237.567C273.309 233.248 271.672 228.66 270.647 223.919C270.246 222.097 267.51 223.068 267.904 224.876C269.007 229.864 270.757 234.686 273.11 239.221C273.961 240.86 276.36 239.221 275.516 237.567Z" fill="#FFC4C3"/>
<path d="M273.975 249.625C272.458 246.409 270.445 243.451 268.009 240.86C266.729 239.495 264.829 241.69 266.096 243.048C268.188 245.278 269.92 247.82 271.231 250.582C272.019 252.249 274.777 251.314 273.975 249.625Z" fill="#FFC4C3"/>
<path d="M284.999 257.899L283.486 254.768C283.35 254.411 283.082 254.12 282.738 253.954C282.395 253.788 282 253.76 281.636 253.875C281.274 254.004 280.977 254.27 280.81 254.617C280.643 254.963 280.619 255.361 280.743 255.725L282.255 258.855C282.392 259.212 282.659 259.503 283.003 259.669C283.347 259.835 283.741 259.864 284.105 259.749C284.468 259.62 284.764 259.353 284.931 259.007C285.099 258.661 285.123 258.263 284.999 257.899V257.899Z" fill="#FFC4C3"/>
<path d="M280.546 220.029L279.673 216.884C279.621 216.692 279.529 216.512 279.404 216.356C279.279 216.201 279.123 216.073 278.946 215.98C278.77 215.887 278.576 215.831 278.377 215.816C278.178 215.802 277.978 215.828 277.789 215.894C277.601 215.959 277.428 216.063 277.281 216.198C277.134 216.334 277.017 216.498 276.937 216.681C276.856 216.863 276.814 217.06 276.813 217.26C276.811 217.46 276.851 217.657 276.93 217.841L277.795 221.014C277.848 221.206 277.939 221.386 278.064 221.542C278.189 221.697 278.345 221.825 278.522 221.918C278.699 222.011 278.892 222.067 279.092 222.082C279.291 222.096 279.491 222.07 279.679 222.004C279.868 221.939 280.041 221.835 280.187 221.699C280.334 221.564 280.451 221.4 280.532 221.217C280.612 221.035 280.655 220.837 280.656 220.638C280.657 220.438 280.617 220.241 280.539 220.057L280.546 220.029Z" fill="#FFC4C3"/>
<path d="M291.211 274.79C286.977 272.467 283.182 269.422 279.997 265.792C278.78 264.385 276.36 266.017 277.591 267.424C281.076 271.438 285.238 274.81 289.888 277.386C291.555 278.3 292.843 275.69 291.211 274.79Z" fill="#FFC4C3"/>
<path d="M298.668 275.128L290.986 267.952C289.614 266.671 287.707 268.859 289.072 270.14L296.754 277.315C298.119 278.596 300.033 276.401 298.668 275.128Z" fill="#FFC4C3"/>
<path d="M188.9 28.703C181.527 25.6709 172.311 26.7402 164.65 27.9643C160.49 28.5248 156.401 29.5223 152.451 30.9402C148.976 32.2909 144.431 33.9653 141.983 36.9552C138.465 38.5662 135.124 40.6627 133.337 43.5541C129.932 49.0555 134.04 54.5639 139.253 56.7589C146.084 59.6433 153.57 58.6161 160.675 57.582C168.414 56.4564 176.427 55.5067 184.017 53.4876C189.427 52.0806 198.278 49.0625 198.742 42.3792C199.136 36.2376 194.253 30.905 188.9 28.703ZM184.855 43.4204C179.001 45.8264 172.417 46.4947 166.219 47.55C160.197 48.5771 153.964 49.956 147.829 49.766C145.718 49.7027 139.577 49.3158 141.139 46.544C142.306 44.4334 147.308 42.5832 149.37 41.732C149.679 41.6053 149.996 41.4858 150.305 41.3662C153.865 40.6627 157.488 39.4034 160.661 38.7491C166.859 37.4687 173.387 36.5682 179.726 36.8919C182.329 37.0255 185.502 37.3773 187.514 39.2134C187.725 39.4034 188.879 41.3732 189.329 41.1903C188.583 42.0978 185.481 43.1601 184.848 43.4204H184.855Z" fill="#FFC4C3"/>
<path d="M217.307 122.178C216.337 113.694 214.845 105.118 211.862 97.0839C206.811 83.4781 196.899 71.0542 182.66 66.5165C176.777 64.6759 170.506 64.4571 164.509 65.8834C162.018 66.1234 159.572 66.7082 157.242 67.6211C143.411 73.031 134.807 88.065 127.8 100.327C120.498 113.11 115.841 130.191 125.253 143.241C134.195 155.665 150.453 155.658 164.122 153.583C173.219 152.176 182.287 150.557 191.362 149.038C198.51 147.842 207.057 147.371 212.643 142.158C218.229 136.945 218.13 129.276 217.307 122.178Z" fill="#F59439"/>
<path d="M238.356 359.499C206.741 289.275 205.524 185.93 184.545 149.01C163.566 112.09 177.447 121.524 156.939 149.573C136.432 177.621 112.604 326.378 99.2377 360.463C98.0629 363.453 99.4207 367.702 102.657 368.201C146.177 375.296 190.589 374.894 233.973 367.013C236.787 366.52 240.002 363.157 238.356 359.499Z" fill="#A3E5CF"/>
<path d="M114.588 338.914C113.337 345.155 111.398 351.238 108.805 357.051C107.975 358.915 110.585 360.386 111.415 358.521C114.115 352.452 116.135 346.103 117.437 339.59C117.503 339.396 117.527 339.191 117.508 338.987C117.49 338.783 117.429 338.586 117.33 338.407C117.231 338.228 117.095 338.072 116.932 337.948C116.769 337.825 116.582 337.737 116.383 337.69C116.184 337.642 115.978 337.637 115.776 337.675C115.575 337.712 115.384 337.791 115.215 337.906C115.046 338.021 114.903 338.17 114.795 338.344C114.687 338.518 114.617 338.712 114.588 338.914Z" fill="#6FD5B9"/>
<path d="M117.599 355.391L116.65 360.533C116.27 362.581 119.126 363.256 119.506 361.237L120.456 356.094C120.828 354.019 117.979 353.365 117.599 355.391Z" fill="#6FD5B9"/>
<path d="M127.786 335.538L126.963 352.281C126.857 354.392 129.777 354.152 129.861 352.084L130.685 335.341C130.79 333.265 127.892 333.476 127.786 335.538Z" fill="#6FD5B9"/>
<path d="M121.201 314.468L116.769 335.073C116.723 335.261 116.714 335.456 116.743 335.647C116.772 335.838 116.839 336.021 116.939 336.186C117.039 336.352 117.17 336.496 117.326 336.61C117.481 336.724 117.658 336.807 117.846 336.853C118.033 336.899 118.228 336.908 118.419 336.879C118.61 336.85 118.793 336.784 118.958 336.684C119.124 336.584 119.268 336.452 119.382 336.297C119.497 336.141 119.579 335.964 119.625 335.777L124.05 315.157C124.114 314.964 124.136 314.761 124.117 314.559C124.097 314.357 124.036 314.161 123.938 313.984C123.839 313.806 123.705 313.651 123.543 313.529C123.381 313.406 123.196 313.318 122.999 313.27C122.802 313.222 122.597 313.216 122.397 313.251C122.197 313.287 122.007 313.363 121.838 313.476C121.669 313.588 121.526 313.734 121.416 313.905C121.306 314.076 121.233 314.267 121.201 314.468V314.468Z" fill="#6FD5B9"/>
<path d="M137.783 328.636L134.336 362.278C134.125 364.346 136.974 365.036 137.192 362.982L140.639 329.34C140.843 327.25 137.994 326.561 137.783 328.636Z" fill="#6FD5B9"/>
<path d="M130.649 301.509C130.084 308.915 129.967 316.348 130.298 323.768C130.297 323.968 130.337 324.166 130.417 324.35C130.496 324.533 130.612 324.699 130.758 324.835C130.904 324.972 131.076 325.077 131.265 325.145C131.453 325.212 131.653 325.239 131.853 325.226C132.052 325.212 132.247 325.158 132.424 325.066C132.602 324.974 132.758 324.846 132.884 324.691C133.01 324.536 133.103 324.356 133.157 324.163C133.21 323.971 133.224 323.769 133.196 323.571C132.869 316.442 132.972 309.301 133.506 302.184C133.66 300.123 130.811 299.427 130.649 301.509Z" fill="#6FD5B9"/>
<path d="M147.78 341.482L147.639 349.474C147.604 351.585 150.502 351.36 150.538 349.277L150.678 341.285C150.685 339.196 147.78 339.4 147.78 341.482Z" fill="#6FD5B9"/>
<path d="M163.067 348.44C162.895 351.824 163.098 355.217 163.672 358.556C164.024 360.597 166.922 360.428 166.57 358.359C165.997 355.02 165.794 351.627 165.965 348.243C166.071 346.161 163.165 346.379 163.067 348.44Z" fill="#6FD5B9"/>
<path d="M178.143 327.834C178.116 327.446 177.936 327.085 177.642 326.829C177.349 326.574 176.966 326.446 176.578 326.473C176.19 326.5 175.828 326.68 175.573 326.974C175.318 327.267 175.189 327.65 175.216 328.038L177.165 347.504C177.165 347.704 177.205 347.902 177.284 348.086C177.363 348.27 177.48 348.435 177.625 348.572C177.771 348.708 177.944 348.814 178.132 348.881C178.321 348.948 178.521 348.976 178.72 348.962C178.92 348.949 179.114 348.894 179.292 348.802C179.469 348.71 179.626 348.582 179.752 348.427C179.878 348.272 179.971 348.092 180.024 347.9C180.078 347.707 180.091 347.505 180.064 347.307L178.143 327.834Z" fill="#6FD5B9"/>
<path d="M195.696 348.44L193.444 334.074C193.121 332.027 190.222 332.196 190.546 334.271L192.797 348.637C193.121 350.677 196.019 350.501 195.696 348.44Z" fill="#6FD5B9"/>
<path d="M209.308 330.852C209.069 328.777 206.164 328.96 206.41 331.049L209.259 355.538C209.498 357.614 212.404 357.431 212.158 355.341L209.308 330.852Z" fill="#6FD5B9"/>
<path d="M226.699 349.573L220.023 327.532C219.418 325.541 216.681 326.582 217.286 328.58L223.963 350.621C224.568 352.619 227.276 351.571 226.699 349.573Z" fill="#6FD5B9"/>
<path d="M198.341 121.601C197.492 116.331 195.313 111.365 192.009 107.172C191.45 105.86 190.742 104.616 189.899 103.465C185.643 97.7312 179.142 95.1282 172.466 95.0931C166.464 93.9282 160.247 94.73 154.737 97.3795C137.987 105.406 136.038 131.359 148.533 143.916C151.542 147.657 155.685 150.318 160.337 151.5C179.149 156.383 201.556 142.003 198.341 121.601Z" fill="#FFC4C3"/>
<path d="M159.352 109.642C158.669 109.652 158.017 109.929 157.534 110.412C157.051 110.895 156.774 111.547 156.764 112.23V112.66C156.764 113.346 157.036 114.005 157.522 114.49C158.007 114.976 158.666 115.248 159.352 115.248C160.039 115.248 160.698 114.976 161.183 114.49C161.669 114.005 161.941 113.346 161.941 112.66V112.23C161.934 111.546 161.659 110.892 161.175 110.408C160.691 109.924 160.037 109.649 159.352 109.642V109.642Z" fill="#C02942"/>
<path d="M180.486 108.776C177.158 108.776 177.151 113.954 180.486 113.954C183.82 113.954 183.82 108.776 180.486 108.776Z" fill="#C02942"/>
<path d="M174.379 121.292C174.675 126.681 167.344 129.03 165.234 123.627C164.059 120.546 159.05 121.883 160.246 125.034C161.998 129.614 166.507 132.773 171.502 131.837C176.427 130.951 179.768 126.209 179.508 121.327C179.374 117.978 174.196 117.957 174.379 121.292Z" fill="#C02942"/>
<path d="M168.829 70.7165C157.172 78.0047 147.34 87.8669 140.087 99.5462C132.835 111.226 128.355 124.411 126.991 138.091C126.808 139.928 129.686 139.913 129.862 138.091C131.21 124.908 135.553 112.207 142.561 100.96C149.568 89.7118 159.053 80.2143 170.292 73.1928C171.847 72.222 170.405 69.7386 168.829 70.7165Z" fill="#D95B43"/>
<path d="M143.735 84.9485C134.975 95.1031 128.429 106.973 124.515 119.8C123.973 121.573 126.745 122.326 127.28 120.56C131.036 108.197 137.331 96.7532 145.761 86.9605C146.957 85.5817 144.966 83.5415 143.735 84.9485Z" fill="#D95B43"/>
<path d="M172.29 73.3687C167.654 77.5761 163.858 82.6251 161.104 88.2479C160.295 89.9012 162.764 91.3574 163.58 89.6971C166.221 84.2931 169.867 79.4415 174.323 75.4019C175.695 74.1356 173.655 72.1095 172.29 73.3687Z" fill="#D95B43"/>
<path d="M175.92 75.9154L173.106 87.3193C172.656 89.1132 175.42 89.873 175.871 88.0791L178.734 76.6823C179.163 74.8883 176.398 74.1215 175.92 75.9154Z" fill="#D95B43"/>
<path d="M182.252 77.5265L181.492 87.7203C181.358 89.5635 184.228 89.5565 184.362 87.7203L185.066 77.5265C185.227 75.6833 182.357 75.6974 182.252 77.5265Z" fill="#D95B43"/>
<path d="M190.616 73.8823C189.913 72.1939 187.148 72.9326 187.851 74.6421C195.78 94.0448 203.694 113.799 204.736 134.975C204.827 136.811 207.697 136.825 207.606 134.975C206.544 113.525 198.643 93.5453 190.616 73.8823Z" fill="#D95B43"/>
<path d="M206.023 89.8519C205.46 88.1002 202.681 88.8529 203.258 90.6117C206.509 100.614 208.39 111.01 208.851 121.517C208.929 123.353 211.799 123.367 211.722 121.517C211.259 110.753 209.342 100.102 206.023 89.8519V89.8519Z" fill="#D95B43"/>
<path d="M152.761 164.782C150.505 171.714 148.593 178.735 147.027 185.845C146.633 187.646 149.398 188.413 149.792 186.605C151.363 179.49 153.272 172.465 155.518 165.528C156.102 163.783 153.33 163.031 152.761 164.782Z" fill="#B6FFE7"/>
<path d="M153.633 177.818C151.723 184.013 150.395 190.372 149.665 196.813C149.454 198.642 152.324 198.628 152.536 196.813C153.256 190.635 154.549 184.538 156.398 178.599C156.925 176.784 154.182 176.081 153.633 177.818Z" fill="#B6FFE7"/>
<path d="M159.535 184.523C157.875 191.919 156.506 199.365 155.427 206.859C155.167 208.667 157.931 209.448 158.192 207.619C159.27 200.115 160.64 192.669 162.3 185.283C162.708 183.496 159.943 182.729 159.535 184.523Z" fill="#B6FFE7"/>
<path d="M165.677 184.333L164.01 203.518C163.848 205.361 166.718 205.347 166.88 203.518L168.554 184.361C168.709 182.497 165.839 182.504 165.677 184.333Z" fill="#B6FFE7"/>
<path d="M173.535 185.782C173.224 190.799 172.547 195.786 171.509 200.704C171.129 202.505 173.894 203.278 174.274 201.463C175.357 196.299 176.062 191.063 176.384 185.796C176.525 183.939 173.655 183.946 173.535 185.782Z" fill="#B6FFE7"/>
<path d="M179.191 166.647C179.114 164.804 176.244 164.797 176.321 166.647L177.271 188.652C177.348 190.496 180.219 190.503 180.141 188.652L179.191 166.647Z" fill="#B6FFE7"/>
<path d="M184.932 182.996C184.672 181.174 181.9 181.948 182.167 183.756C183.009 189.652 183.268 195.616 182.941 201.562C182.843 203.405 185.713 203.405 185.811 201.562C186.129 195.359 185.835 189.141 184.932 182.996V182.996Z" fill="#B6FFE7"/>
<path d="M178.825 206.894C178.579 205.072 175.814 205.846 176.061 207.654C176.545 211.226 176.512 214.849 175.962 218.411C175.688 220.219 178.453 221 178.727 219.171C179.357 215.105 179.39 210.969 178.825 206.894V206.894Z" fill="#B6FFE7"/>
<path d="M185.389 212.086V222.639C185.389 224.489 188.26 224.489 188.26 222.639V212.086C188.26 210.243 185.389 210.236 185.389 212.086Z" fill="#B6FFE7"/>
<path d="M193.944 194.372C193.824 192.536 190.954 192.522 191.074 194.372L191.693 203.933C191.812 205.769 194.683 205.783 194.563 203.933L193.944 194.372Z" fill="#B6FFE7"/>
<path d="M148.089 203.088C147.162 206.654 146.689 210.323 146.682 214.007C146.682 215.857 149.546 215.857 149.553 214.007C149.565 210.58 150.012 207.169 150.882 203.855C151.297 202.061 148.561 201.302 148.089 203.088Z" fill="#B6FFE7"/>
</svg>
