<svg width="280" height="242" viewBox="0 0 280 242" fill="none" xmlns="http://www.w3.org/2000/svg">
<path d="M279.966 60.3428L278.557 43.4476C278.178 38.9699 276.871 34.6199 274.72 30.6744C272.569 26.7288 269.621 23.2739 266.063 20.5292C269.298 17.3812 270.551 12.5432 268.929 7.89919C266.753 1.68123 260.204 -1.48605 254.006 0.680533C238.131 6.22796 221.722 11.9602 207.46 22.7636C192.44 34.1308 183.385 49.8988 177.167 62.3636C175.651 65.3948 174.184 68.4744 172.756 71.4571C167.529 82.3384 162.604 92.6173 155.735 101.536C146.661 113.332 136.11 121.987 125.598 126.349C128.416 121.292 130.612 115.913 132.136 110.328C134.76 100.555 134.361 91.2764 131 83.4751C126.443 72.9437 115.951 66.7937 104.885 68.1346C92.7692 69.6208 84.0258 78.1704 78.8185 85.0781C72.7463 93.1516 69.1711 102.702 68.7629 111.97C68.2578 123.279 72.7756 133.742 81.0238 141.359C71.3766 149.151 60.3788 155.884 48.225 161.451L45.8738 162.519C31.0479 169.262 14.2503 176.898 4.95255 193.608C2.6536 197.701 1.04821 202.146 0.201536 206.763C-0.18536 208.837 -0.0131529 210.977 0.700471 212.963C1.4141 214.949 2.64342 216.709 4.26219 218.062C6.61518 220.049 9.62761 221.082 12.7049 220.957C12.7439 221.035 12.7826 221.103 12.8215 221.181L20.6325 236.22C21.2762 237.466 22.183 238.557 23.2902 239.418C24.3974 240.279 25.6785 240.888 27.0447 241.205C27.767 241.378 28.5073 241.467 29.2502 241.467C31.319 241.466 33.3337 240.806 35.0016 239.582L48.6616 229.546C54.0713 225.574 58.1116 220.017 60.2231 213.646C62.3346 207.275 62.4126 200.405 60.4464 193.988L59.8245 191.977C59.248 190.107 58.3179 188.366 57.0847 186.847L57.2695 186.07C57.4726 185.184 57.5511 184.275 57.5025 183.368C61.2136 181.658 64.8765 179.9 68.481 178.024C68.1427 184.657 69.8528 191.233 73.3791 196.86C76.9055 202.488 82.0775 206.895 88.1935 209.483L103.806 216.079C105.097 216.627 106.492 216.888 107.893 216.844C109.295 216.801 110.671 216.454 111.925 215.828C113.18 215.202 114.285 214.312 115.162 213.218C116.04 212.124 116.67 210.853 117.009 209.493L121.129 193.044C122.756 186.534 122.318 179.678 119.875 173.427C117.433 167.177 113.107 161.84 107.498 158.157L105.739 157.001C104.481 156.174 103.105 155.542 101.658 155.126C102.61 154.281 103.543 153.426 104.456 152.581C117.086 154.582 130.474 151.551 143.794 143.73C143.787 145.313 144.03 146.886 144.513 148.393L145.154 150.404C147.201 156.794 151.182 162.39 156.549 166.418C161.915 170.445 168.4 172.705 175.107 172.886L192.051 173.332C193.453 173.363 194.845 173.092 196.134 172.539C197.423 171.986 198.578 171.164 199.522 170.127C200.463 169.087 201.167 167.855 201.584 166.516C202.002 165.178 202.124 163.764 201.942 162.374L199.775 145.566C198.915 138.91 196.007 132.687 191.453 127.757C186.9 122.828 180.926 119.436 174.359 118.052L173.077 117.79C179.149 110.115 184.648 101.283 189.7 91.1396C189.894 90.7314 190.089 90.3332 190.293 89.9348C190.735 90.5916 191.229 91.2121 191.769 91.7903L193.206 93.3253C197.797 98.2197 203.795 101.567 210.37 102.903C216.946 104.24 223.774 103.5 229.911 100.787L245.407 93.9182C246.689 93.3509 247.834 92.5127 248.761 91.461C249.689 90.4094 250.378 89.1694 250.78 87.8262C251.183 86.4831 251.29 85.0686 251.094 83.6802C250.897 82.2918 250.403 80.9623 249.644 79.7832L241.192 66.6286C244.803 68.3371 248.7 69.3584 252.685 69.6403L269.6 70.8451C270.998 70.9435 272.401 70.7382 273.713 70.2433C275.025 69.7484 276.213 68.9756 277.198 67.9779C278.183 66.9802 278.94 65.7813 279.418 64.4633C279.896 63.1454 280.083 61.7398 279.966 60.3428H279.966ZM109.791 101.138C108.557 108.755 104.603 116.682 98.0061 124.766C96.5497 123.599 95.3184 122.177 94.3726 120.568C89.6023 112.466 94.839 100.448 102.728 94.298C105.165 92.4132 107.313 91.8304 108.159 91.8304C108.251 91.8243 108.344 91.8375 108.431 91.8691C108.501 91.915 108.563 91.9707 108.616 92.0343C109.733 93.2584 110.49 96.7755 109.791 101.138Z" fill="white"/>
<path d="M12.7474 208.935C15.8696 191.568 32.8609 182.618 47.4381 175.992C55.7124 172.231 63.8967 168.423 71.6556 163.661C79.3414 158.938 86.6113 153.57 93.3867 147.614C105.777 136.728 117.124 123.326 121.481 107.088C123.271 100.416 123.588 93.059 120.801 86.6051C118.036 80.2018 111.851 76.1913 104.793 77.0581C96.735 78.0479 90.0195 83.9441 85.3098 90.1984C80.6583 96.3747 77.5352 103.901 77.1921 111.676C76.5008 127.339 88.858 139.278 103.61 142.069C120.496 145.263 136.837 136.713 149.466 126.228C162.679 115.259 172.129 101.346 179.724 86.0868C186.823 71.8261 192.883 56.5897 203.2 44.2458C214.182 31.1065 229.545 23.5342 245.3 17.6226C249.216 16.1529 253.163 14.7665 257.112 13.3867C259.777 12.4553 258.63 8.1884 255.938 9.12998C240.704 14.4536 225.044 19.9452 212.047 29.7885C199.621 39.1992 191.454 52.2083 184.589 65.9782C177.668 79.8547 171.687 94.3649 162.162 106.741C152.257 119.611 138.557 131.749 122.743 136.496C109.347 140.517 92.3683 137.741 84.7298 124.781C77.0502 111.752 84.427 94.5274 95.488 85.9142C100.924 81.6812 109.163 78.8898 114.521 84.7661C118.55 89.1848 119.011 96.3436 118.105 101.963C115.582 117.604 104.816 131.027 93.553 141.519C80.9988 153.214 66.5635 162.439 50.9869 169.562C36.4339 176.218 20.3528 182.904 12.1609 197.616C10.3863 200.772 9.14586 204.2 8.48992 207.761C7.99039 210.539 12.2446 211.731 12.7467 208.935H12.7474Z" fill="#0C1F26"/>
<path d="M99.1361 164.404C98.3296 163.875 97.3985 163.567 96.4356 163.51C95.4728 163.453 94.5119 163.65 93.6488 164.081L86.8755 167.461L80.1024 170.842C79.2394 171.273 78.5044 171.922 77.971 172.726C77.4375 173.529 77.1242 174.459 77.0622 175.421L76.9271 177.523C76.6256 182.209 77.7895 186.872 80.2574 190.866C82.7253 194.86 86.3748 197.987 90.7 199.814L106.314 206.409L110.431 189.967C111.571 185.412 111.266 180.615 109.558 176.242C107.849 171.869 104.823 168.135 100.897 165.56L99.1361 164.404Z" fill="#F0B11D"/>
<path d="M84.6798 160.371L82.063 155.128L79.7128 156.301L82.3298 161.544L77.1841 164.112L80.455 170.666L93.2957 164.257L90.0247 157.704L84.6798 160.371Z" fill="#0C1F26"/>
<path d="M91.7779 165.043L90.7287 165.567C91.5529 166.365 92.3519 167.189 93.0961 168.065C94.3065 169.489 95.5377 171.021 96.3374 172.722C97.0933 174.328 97.1862 176.154 95.9508 177.548C95.1264 178.478 93.9061 178.942 92.7978 178.722C92.8561 178.304 92.8978 177.895 92.9122 177.525C92.9576 176.44 92.8348 175.354 92.5483 174.307C92.3144 173.465 92.0112 172.344 91.2828 171.788C90.5795 171.251 89.6208 171.468 89.1086 172.162C88.4839 173.008 88.6589 174.244 88.8646 175.202C89.2103 176.81 90.0672 178.619 91.5298 179.449C91.1842 180.942 90.4645 182.742 89.152 182.625C87.7033 182.494 86.7992 179.974 86.302 178.87C84.8562 175.659 84.1764 172.132 84.5689 168.641L83.4116 169.218C83.0974 173.31 84.1815 177.447 86.1499 181.041C86.9829 182.562 88.4799 184.555 90.4318 183.384C91.5838 182.693 92.2436 181.27 92.5913 179.83C92.7134 179.863 92.8373 179.888 92.9624 179.907C94.9671 180.072 96.8337 178.739 97.6262 176.949C98.6835 174.561 97.4249 172.092 96.0667 170.127C94.7991 168.302 93.3632 166.6 91.7779 165.043V165.043ZM91.1776 177.73C90.594 176.965 90.1853 176.081 89.9801 175.141C89.8657 174.697 89.8009 174.242 89.7867 173.784C89.7816 173.049 90.2397 172.161 90.9029 173.054C91.3612 173.671 91.5431 174.699 91.6743 175.442C91.8216 176.284 91.8551 177.141 91.7739 177.992C91.7663 178.075 91.7558 178.168 91.7434 178.267C91.5319 178.114 91.3418 177.934 91.1782 177.73H91.1776Z" fill="white"/>
<path d="M169.024 126.408C168.081 126.209 167.101 126.262 166.184 126.561C165.267 126.859 164.444 127.393 163.798 128.109L158.724 133.728L153.652 139.347C153.005 140.063 152.558 140.935 152.355 141.878C152.151 142.821 152.198 143.801 152.492 144.72L153.133 146.726C154.562 151.198 157.347 155.115 161.102 157.934C164.857 160.752 169.396 162.332 174.089 162.455L191.033 162.897L188.867 146.087C188.267 141.43 186.233 137.075 183.047 133.627C179.86 130.178 175.68 127.806 171.085 126.84L169.024 126.408Z" fill="#E02C37"/>
<path d="M154.093 127.927L149.744 124.001L147.984 125.95L152.333 129.877L148.48 134.146L153.916 139.054L163.533 128.402L158.097 123.494L154.093 127.927Z" fill="#0C1F26"/>
<path d="M162.407 129.687L161.621 130.558C162.68 131 163.724 131.476 164.737 132.02C166.384 132.905 168.089 133.882 169.454 135.173C170.744 136.393 171.497 138.059 170.855 139.808C170.427 140.975 169.459 141.851 168.347 142.052C168.249 141.64 168.138 141.245 168.017 140.895C167.663 139.869 167.153 138.903 166.504 138.032C165.979 137.333 165.288 136.401 164.407 136.148C163.556 135.905 162.743 136.458 162.519 137.29C162.246 138.305 162.86 139.392 163.401 140.209C164.31 141.581 165.768 142.951 167.432 143.191C167.656 144.707 167.642 146.647 166.377 147.015C164.981 147.422 163.219 145.406 162.354 144.559C159.836 142.098 157.916 139.062 157.008 135.668L156.141 136.628C157.342 140.552 159.86 144.008 163.004 146.636C164.335 147.748 166.456 149.058 167.846 147.256C168.666 146.192 168.761 144.627 168.56 143.159C168.685 143.145 168.81 143.123 168.933 143.095C170.86 142.517 172.111 140.595 172.196 138.639C172.309 136.03 170.237 134.191 168.255 132.856C166.409 131.62 164.451 130.559 162.407 129.687V129.687ZM166.478 141.719C165.656 141.219 164.953 140.546 164.418 139.745C164.15 139.374 163.924 138.974 163.743 138.553C163.47 137.871 163.573 136.876 164.516 137.466C165.168 137.874 165.713 138.765 166.106 139.408C166.55 140.138 166.894 140.924 167.129 141.746C167.152 141.826 167.176 141.916 167.202 142.013C166.948 141.948 166.705 141.849 166.478 141.719Z" fill="white"/>
<path d="M204.667 60.7928C203.729 61.0185 202.867 61.4862 202.166 62.1493C201.466 62.8123 200.951 63.6475 200.675 64.5715L198.502 71.8231L196.33 79.0746C196.053 79.9986 196.024 80.979 196.244 81.9179C196.465 82.8569 196.928 83.7216 197.587 84.4256L199.027 85.9631C202.236 89.3903 206.432 91.734 211.033 92.6692C215.634 93.6044 220.412 93.0847 224.705 91.1822L240.201 84.3141L231.032 70.0578C228.493 66.1087 224.787 63.0477 220.43 61.2992C216.072 59.5508 211.279 59.2016 206.714 60.3L204.667 60.7928Z" fill="#F0B11D"/>
<path d="M191.831 68.57L186.217 66.8884L185.463 69.4044L191.077 71.086L189.427 76.595L196.443 78.6968L200.561 64.9494L193.545 62.8475L191.831 68.57Z" fill="#0C1F26"/>
<path d="M200.096 66.5938L199.759 67.7173C200.905 67.6627 202.053 67.6445 203.201 67.7013C205.068 67.7942 207.027 67.9456 208.814 68.5266C210.503 69.0756 211.898 70.2573 212.068 72.1123C212.182 73.3493 211.684 74.5566 210.766 75.2146C210.5 74.8852 210.231 74.5752 209.971 74.3116C209.211 73.5358 208.336 72.8822 207.376 72.3737C206.602 71.968 205.578 71.4219 204.674 71.572C203.8 71.7175 203.303 72.5647 203.458 73.4131C203.647 74.4475 204.668 75.1659 205.507 75.672C206.916 76.5209 208.821 77.134 210.428 76.6361C211.28 77.9095 212.099 79.6673 211.115 80.5428C210.028 81.5095 207.572 80.4435 206.427 80.05C203.096 78.906 200.06 76.9872 197.784 74.3112L197.413 75.5503C200.18 78.5802 203.938 80.6218 207.905 81.6471C209.584 82.0809 212.062 82.3543 212.544 80.1301C212.829 78.8172 212.243 77.3623 211.431 76.1227C211.538 76.0559 211.642 75.983 211.741 75.9044C213.233 74.5561 213.539 72.2829 212.777 70.4798C211.76 68.0742 209.099 67.302 206.737 66.9465C204.539 66.6219 202.315 66.5038 200.096 66.5938V66.5938ZM208.934 75.7162C207.976 75.6175 207.052 75.3103 206.226 74.8161C205.824 74.5957 205.448 74.3316 205.105 74.0286C204.566 73.529 204.232 72.5869 205.337 72.7151C206.101 72.8036 206.974 73.3748 207.605 73.7872C208.32 74.2562 208.969 74.8191 209.534 75.4608C209.588 75.523 209.649 75.5941 209.713 75.6714C209.457 75.7211 209.194 75.7362 208.934 75.7162V75.7162Z" fill="white"/>
<path d="M49.2657 194.109C48.9827 193.187 48.4627 192.355 47.7577 191.697C47.0528 191.039 46.1874 190.577 45.2482 190.358L37.8765 188.637L30.5049 186.915C29.5656 186.696 28.5852 186.727 27.6616 187.005C26.738 187.283 25.9035 187.798 25.2414 188.5L23.7956 190.031C20.5727 193.446 18.4921 197.778 17.8422 202.428C17.1924 207.078 18.0056 211.815 20.169 215.982L27.9788 231.025L41.6432 220.996C45.4283 218.218 48.2551 214.331 49.7317 209.874C51.2083 205.417 51.2615 200.611 49.8838 196.123L49.2657 194.109Z" fill="#E02C37"/>
<path d="M40.7121 181.777L42.0445 176.071L39.4869 175.474L38.1544 181.18L32.5541 179.872L30.8887 187.005L44.8637 190.268L46.5293 183.135L40.7121 181.777Z" fill="#0C1F26"/>
<path d="M43.194 189.905L42.052 189.638C42.1769 190.778 42.2661 191.923 42.2799 193.072C42.3023 194.941 42.2721 196.906 41.8022 198.726C41.3583 200.445 40.2647 201.909 38.4237 202.194C37.1954 202.384 35.9604 201.962 35.2472 201.085C35.5595 200.799 35.8524 200.512 36.0994 200.236C36.8269 199.43 37.4254 198.516 37.8736 197.527C38.2309 196.729 38.713 195.673 38.5074 194.78C38.3088 193.918 37.4321 193.473 36.595 193.68C35.5741 193.932 34.9199 194.996 34.4666 195.865C33.7062 197.323 33.2114 199.262 33.807 200.835C32.5881 201.764 30.8845 202.691 29.9504 201.762C28.9188 200.736 29.8314 198.219 30.1536 197.052C31.0901 193.657 32.8183 190.509 35.3487 188.072L34.0893 187.778C31.2356 190.727 29.4294 194.603 28.6501 198.626C28.3205 200.329 28.2002 202.819 30.451 203.163C31.779 203.367 33.195 202.693 34.3822 201.806C34.4554 201.909 34.5343 202.008 34.6187 202.102C36.0567 203.509 38.3442 203.674 40.097 202.802C42.4353 201.638 43.0421 198.935 43.2513 196.555C43.44 194.341 43.4208 192.115 43.194 189.905V189.905ZM34.6338 199.288C34.6731 198.326 34.9228 197.385 35.3652 196.53C35.5603 196.115 35.8007 195.724 36.082 195.362C36.5473 194.793 37.4672 194.402 37.4074 195.513C37.3661 196.28 36.8498 197.188 36.4771 197.843C36.0531 198.585 35.5314 199.267 34.9259 199.87C34.8671 199.929 34.7998 199.993 34.7267 200.062C34.6612 199.809 34.6299 199.549 34.6338 199.288V199.288Z" fill="white"/>
<path d="M248.655 22.9905C247.721 22.75 246.74 22.7588 245.81 23.0159C244.881 23.273 244.035 23.7695 243.357 24.4558L238.038 29.842L232.719 35.2281C232.041 35.9144 231.555 36.7664 231.309 37.6992C231.064 38.6319 231.068 39.6128 231.32 40.5438L231.87 42.5768C233.097 47.1087 235.704 51.1465 239.33 54.1301C242.955 57.1137 247.419 58.8954 252.102 59.228L269.009 60.4286L267.597 43.5377C267.206 38.8589 265.369 34.4177 262.34 30.83C259.312 27.2423 255.242 24.686 250.695 23.5155L248.655 22.9905Z" fill="#F0B11D"/>
<path d="M233.671 23.8402L229.501 19.7224L227.656 21.5912L231.825 25.7088L227.784 29.8007L232.996 34.9476L243.08 24.7365L237.868 19.5898L233.671 23.8402Z" fill="#0C1F26"/>
<path d="M241.897 25.9706L241.073 26.805C242.111 27.2944 243.133 27.8163 244.12 28.4048C245.726 29.3624 247.386 30.4151 248.691 31.7663C249.926 33.0432 250.603 34.7408 249.884 36.4597C249.404 37.6057 248.398 38.4387 247.278 38.5881C247.199 38.1728 247.106 37.7727 247 37.4182C246.693 36.3765 246.227 35.3886 245.618 34.4894C245.125 33.7681 244.476 32.8054 243.607 32.5138C242.768 32.2328 241.931 32.7479 241.67 33.5698C241.351 34.5722 241.916 35.6855 242.42 36.5259C243.266 37.9363 244.662 39.3712 246.313 39.6855C246.468 41.21 246.368 43.1464 245.088 43.458C243.674 43.802 242.005 41.709 241.178 40.8243C238.773 38.2521 236.991 35.1334 236.236 31.7027L235.326 32.623C236.35 36.5968 238.711 40.1622 241.734 42.9281C243.014 44.0987 245.074 45.5022 246.543 43.764C247.411 42.7382 247.576 41.1785 247.44 39.703C247.566 39.6945 247.692 39.6787 247.816 39.6557C249.767 39.1645 251.103 37.3007 251.275 35.3506C251.505 32.7492 249.517 30.8189 247.597 29.3971C245.808 28.0795 243.9 26.9323 241.897 25.9706V25.9706ZM245.425 38.1722C244.626 37.6361 243.954 36.9314 243.456 36.1075C243.204 35.7246 242.996 35.3149 242.835 34.8861C242.593 34.1921 242.739 33.2033 243.656 33.8349C244.289 34.2715 244.793 35.1856 245.157 35.8457C245.568 36.5949 245.876 37.3959 246.074 38.2273C246.094 38.3081 246.114 38.3992 246.134 38.4975C245.884 38.4213 245.646 38.3119 245.425 38.1722V38.1722Z" fill="white"/>
</svg>
