<svg width="236" height="230" viewBox="0 0 236 230" fill="none" xmlns="http://www.w3.org/2000/svg">
<path d="M224.827 178.224L182.44 193.336C182.795 199.949 181.003 206.5 177.333 212.013C173.662 217.525 168.309 221.705 162.07 223.928C155.832 226.152 149.042 226.3 142.712 224.352C136.382 222.404 130.851 218.463 126.943 213.116L82.3357 229.018C80.5159 229.666 78.5986 229.998 76.6668 230.001C70.0674 230.001 63.9684 226.095 61.7138 219.777C61.3706 218.798 61.1294 217.786 60.9941 216.758C60.1517 211.001 62.6877 205.227 67.6023 201.681L72.9116 197.881C80.2658 192.642 82.7229 183.77 78.7737 176.767L57.7725 139.769C54.1113 133.301 51.7391 126.184 50.7872 118.812C49.2676 118.879 47.7565 118.552 46.3999 117.864C35.5611 112.318 22.5644 110.686 10.7522 113.38C8.8158 113.823 6.78642 113.595 4.9962 112.734C3.20598 111.874 1.76093 110.431 0.897539 108.642C0.0341454 106.853 -0.196465 104.824 0.243446 102.887C0.683358 100.95 1.76774 99.2191 3.31913 97.9786C11.5334 91.3968 14.7364 78.6983 10.5943 69.0538C10.0308 67.7373 9.79775 66.3029 9.91559 64.8756C10.0334 63.4484 10.4986 62.0717 11.2704 60.8654C12.0423 59.6591 13.0975 58.6599 14.344 57.9549C15.5905 57.2499 16.9906 56.8604 18.4221 56.8205C26.1097 56.6187 34.8679 55.8816 41.5814 52.029C46.5658 49.1945 51.1556 43.3936 50.3396 37.7772C50.0808 36.0037 50.3712 34.1935 51.1717 32.59C51.9721 30.9865 53.2444 29.6664 54.8173 28.8073C56.3902 27.9482 58.1884 27.5912 59.9702 27.7844C61.752 27.9776 63.432 28.7116 64.7843 29.8878C67.257 32.0543 69.9933 33.9001 72.9282 35.3814C75.8985 33.5878 79.2288 32.4734 82.6805 32.1183C86.1321 31.7632 89.6196 32.1761 92.8929 33.3275C94.7559 30.27 97.2932 27.6788 100.311 25.7517C103.328 23.8247 106.746 22.6127 110.304 22.2085C112.261 18.725 113.665 14.679 114.42 10.2912C114.724 8.52617 115.561 6.8965 116.819 5.62099C118.076 4.34548 119.694 3.48519 121.454 3.15562C123.215 2.82604 125.034 3.04297 126.667 3.77726C128.301 4.51155 129.671 5.72807 130.593 7.26348C133.516 12.1253 140.738 13.7225 146.363 12.7747C154.033 11.5027 161.273 6.52701 167.355 1.83195C168.488 0.95629 169.819 0.37132 171.231 0.128066C172.642 -0.115188 174.092 -0.00933789 175.454 0.436383C176.815 0.882104 178.047 1.65416 179.041 2.6852C180.036 3.71623 180.763 4.97494 181.159 6.35152C184.055 16.4349 194.559 24.2538 205.09 24.1486C207.078 24.1275 209.014 24.7819 210.581 26.0047C212.149 27.2275 213.254 28.9462 213.717 30.8794C214.18 32.8126 213.973 34.8457 213.129 36.6457C212.286 38.4457 210.856 39.906 209.075 40.7875C198.219 46.1669 189.189 55.6535 184.301 66.799C183.792 67.9556 183.041 68.9891 182.097 69.8295C181.154 70.6699 180.041 71.2974 178.834 71.6694C183.169 78.2924 186.097 85.7363 187.434 93.5385L194.577 135.504C195.893 143.297 203.572 148.729 212.418 148.15L218.93 147.737C224.906 147.351 230.54 150.186 233.594 155.144C233.709 155.328 233.813 155.53 233.919 155.723L233.963 155.802C234.34 156.517 234.671 157.256 234.954 158.014V158.023C237.85 166.14 233.304 175.205 224.827 178.224Z" fill="white"/>
<path d="M226.364 159.091C227.599 162.557 225.585 166.646 221.557 168.082L172.125 185.701C172.56 186.879 172.872 188.099 173.056 189.342C173.944 194.443 173.001 199.693 170.393 204.166C167.784 208.638 163.679 212.044 158.802 213.783C153.925 215.521 148.59 215.479 143.741 213.665C138.892 211.85 134.84 208.38 132.302 203.868C131.659 202.789 131.128 201.647 130.72 200.459L79.067 218.872C75.0687 220.297 70.8924 218.414 69.6574 214.949C69.5117 214.518 69.4092 214.074 69.3516 213.623C68.9807 211.084 70.2008 208.513 72.4054 206.926L77.6978 203.137C88.665 195.322 92.2269 181.435 86.0852 170.572L65.0822 133.562C54.4719 114.846 57.3483 91.3547 72.2873 74.0796L97.4365 45.087L135.225 51.6456C157.753 55.5661 174.809 71.9516 178.458 93.1491L185.6 135.099C187.684 147.409 199.257 155.902 212.665 155.028L219.161 154.615C221.902 154.439 224.443 155.669 225.792 157.86C226.009 158.257 226.2 158.669 226.364 159.091V159.091Z" fill="#F0B11D"/>
<path d="M172.126 185.701C172.56 186.879 172.872 188.099 173.056 189.342L132.302 203.868C131.659 202.789 131.129 201.647 130.72 200.459L172.126 185.701Z" fill="#142C43"/>
<path d="M106.789 59.34C95.8669 61.3557 87.331 74.8217 85.7514 85.8251C78.1103 84.628 70.2938 86.2287 63.7384 90.333C57.183 94.4374 52.329 100.77 50.0684 108.166C37.3544 101.667 22.3795 99.7744 8.4729 102.948C19.785 93.8985 24.0503 77.0333 18.3381 63.7148C27.7436 63.4622 37.4607 62.4474 45.6264 57.763C53.7958 53.1046 60.0535 43.9549 58.6989 34.6328C64.5139 39.6867 71.4992 43.506 79.072 44.8514C86.6415 46.1704 96.4258 50.2649 102.719 45.8316L106.789 59.34Z" fill="#336D3B"/>
<path d="M20.0724 97.2587C30.1903 87.0703 42.3585 78.5445 54.7887 71.4295C69.3939 63.07 85.3655 58.7125 101.661 54.9261C104.111 54.3569 103.555 50.4584 101.084 51.0327C84.4624 54.8942 68.1044 59.306 53.1976 67.8285C40.462 75.1096 27.9748 83.7509 17.6091 94.1881C15.845 95.9643 18.2846 99.0586 20.0721 97.2588L20.0724 97.2587Z" fill="#0C1F26"/>
<path d="M101.122 59.4548C110.857 54.1079 125.986 59.1387 134.169 66.6622C139.33 60.9017 146.397 57.1973 154.071 56.2299C161.744 55.2625 169.509 57.097 175.939 61.3963C181.675 48.321 192.077 37.3823 204.856 31.0444C190.37 31.1903 176.398 20.8256 172.399 6.89656C164.954 12.6502 156.785 18.0097 147.497 19.5471C138.223 21.1061 127.589 17.9773 122.741 9.9003C121.434 17.4929 118.44 24.8697 113.425 30.7015C108.397 36.5109 103.408 45.871 95.7292 46.4177L101.122 59.4548Z" fill="#336D3B"/>
<path d="M192.272 33.9745C177.991 32.4832 163.173 33.5757 149.045 35.9276C132.445 38.691 117.318 45.418 102.302 52.7926C100.044 53.9014 98.0086 50.5307 100.286 49.4122C115.603 41.8902 131.063 34.9599 148 32.132C162.469 29.7166 177.607 28.5103 192.237 30.0383C194.727 30.2982 194.795 34.2381 192.272 33.9745V33.9745Z" fill="#0C1F26"/>
<path d="M84.7614 68.5599C92.9521 68.5599 99.5921 61.9199 99.5921 53.7292C99.5921 45.5384 92.9521 38.8985 84.7614 38.8985C76.5706 38.8985 69.9307 45.5384 69.9307 53.7292C69.9307 61.9199 76.5706 68.5599 84.7614 68.5599Z" fill="#E02C37"/>
<path d="M112.701 58.601C120.892 58.601 127.532 51.9611 127.532 43.7704C127.532 35.5796 120.892 28.9397 112.701 28.9397C104.51 28.9397 97.8704 35.5796 97.8704 43.7704C97.8704 51.9611 104.51 58.601 112.701 58.601Z" fill="#E02C37"/>
<path d="M107.057 86.9392C115.248 86.9392 121.888 80.2992 121.888 72.1085C121.888 63.9177 115.248 57.2778 107.057 57.2778C98.8665 57.2778 92.2266 63.9177 92.2266 72.1085C92.2266 80.2992 98.8665 86.9392 107.057 86.9392Z" fill="#E02C37"/>
</svg>
