<svg width="165" height="260" viewBox="0 0 165 260" fill="none" xmlns="http://www.w3.org/2000/svg">
<path d="M148.569 244.148C150.55 241.219 151.695 237.805 151.881 234.274C152.068 230.743 151.289 227.228 149.629 224.106C147.667 220.405 144.583 217.42 140.818 215.581C141.181 213.331 141.413 211.061 141.515 208.784C141.647 205.732 141.373 202.676 140.7 199.696C154.978 185.406 163.499 166.361 164.638 146.192C165.777 126.023 159.456 106.14 146.878 90.3325C149.731 85.5605 151.495 80.2303 151.854 75.1038C152.538 65.3235 148.304 56.9287 140.9 52.0141C140.855 43 137.99 34.8172 132.611 28.786C131.154 27.1567 129.513 25.7017 127.721 24.4501C125.494 18.675 121.874 13.5401 117.183 9.50253C112.453 5.4357 106.823 2.55292 100.759 1.09249C94.695 -0.367947 88.3702 -0.3641 82.3078 1.10371C74.565 2.97419 60.3021 10.8147 53.676 21.842C50.5867 23.1511 47.7105 24.9148 45.1427 27.0744C38.775 32.289 34.7037 39.7908 33.8016 47.9716C33.8016 48.1102 33.769 48.2528 33.7568 48.3791C23.569 53.9702 17.8842 64.8997 19.4735 77.0191C19.86 79.9862 20.684 82.8797 21.9186 85.6053C7.29925 101.398 -0.557196 122.287 0.030776 143.799C0.618748 165.312 9.60443 185.74 25.0646 200.711C24.0675 203.368 23.3053 206.108 22.7866 208.898C18.39 209.112 14.195 210.807 10.8832 213.707C3.37682 220.247 0.772815 229.799 4.08181 238.634C7.70866 248.313 18.0024 255.069 29.1193 255.069C31.9876 255.078 34.8362 254.597 37.5426 253.647C55.4731 247.31 58.3664 230.345 59.9231 221.229L59.9924 220.822C65.2366 222.302 70.6151 223.258 76.0484 223.674C78.1715 223.837 80.3232 223.923 82.4463 223.923C88.3024 223.921 94.1415 223.291 99.8634 222.044C98.3189 230.472 97.3979 238.972 101.269 246.446C105.638 254.943 113.572 260 122.476 260C133.866 260 143.422 251.813 148.569 244.148Z" fill="white"/>
<path d="M141.356 239.307C142.453 237.686 143.089 235.798 143.195 233.844C143.301 231.89 142.874 229.944 141.959 228.214C141.007 226.445 139.597 224.964 137.876 223.926C136.156 222.888 134.188 222.331 132.179 222.313C131.655 222.314 131.132 222.353 130.614 222.431L130.757 221.767C131.682 217.513 132.64 213.112 132.827 208.47C133.044 204.606 132.297 200.748 130.655 197.243C136.424 192.239 141.386 186.376 145.366 179.859C151.401 169.979 154.995 158.803 155.851 147.258C156.656 136.961 155.283 126.61 151.822 116.879C148.36 107.149 142.888 98.2561 135.761 90.7807C136.152 90.3624 136.537 89.925 136.914 89.4685C140.545 85.0715 142.836 79.619 143.194 74.5088C143.769 66.3056 139.331 59.7446 131.869 57.2221C133.092 48.2569 131.054 40.1067 126.128 34.5686C124.536 32.768 122.627 31.2748 120.496 30.1634C118.964 24.6843 115.844 19.7811 111.53 16.0716C107.846 12.9094 103.462 10.6689 98.741 9.53515C94.0198 8.40144 89.0966 8.40701 84.378 9.55142C77.8945 11.1285 65.7669 18.1662 60.8768 26.7892C60.4865 27.4744 60.1368 28.182 59.8295 28.9082C56.4854 29.8528 53.3834 31.5052 50.7338 33.7535C44.5437 38.9208 41.7686 45.767 42.3798 54.178C32.6362 57.0306 26.7762 65.8981 28.0884 75.9066C28.5949 79.9769 30.2966 83.8058 32.9785 86.9094L32.4447 87.3984C24.6837 94.5497 18.5497 103.285 14.4576 113.013C10.3656 122.74 8.41107 133.234 8.72637 143.782C9.04168 154.331 11.6194 164.689 16.2852 174.155C20.9509 183.621 27.5958 191.974 35.77 198.649C34.8708 200.093 34.0951 201.61 33.4512 203.185C31.9068 206.934 31.2833 210.638 30.7331 213.906C30.6557 214.367 30.5783 214.831 30.4968 215.296C30.3867 215.919 30.2889 216.543 30.1871 217.175C30.0567 217.99 29.9303 218.776 29.7796 219.514C27.8118 218.146 25.4415 217.479 23.0493 217.62C20.6571 217.762 18.3817 218.702 16.5884 220.292C11.8124 224.457 10.1782 230.186 12.2158 235.623C14.559 241.878 21.6701 246.418 29.1194 246.418C31.0019 246.426 32.8721 246.113 34.6493 245.493C47.7671 240.855 49.9269 228.19 51.3573 219.819C52.3394 214.061 53.0485 211.139 54.3321 209.746C61.4666 212.69 69.0211 214.489 76.7168 215.076C78.6198 215.223 80.5433 215.296 82.4423 215.296C92.1848 215.289 101.829 213.35 110.817 209.591C110.532 212.704 109.693 217.02 109.163 219.734C107.402 228.748 105.882 236.535 108.979 242.518C111.889 248.133 116.812 251.353 122.493 251.353C130.463 251.312 137.636 244.845 141.356 239.307ZM69.2267 62.9436C70.271 64.335 71.6247 65.4643 73.1806 66.2423C74.7366 67.0203 76.4523 67.4256 78.192 67.4262C79.6692 67.4307 81.131 67.1247 82.4824 66.528C83.8338 65.9312 85.0447 65.0572 86.0366 63.9624C86.4392 64.8949 86.9775 65.7628 87.634 66.5379C88.1632 67.1626 88.7636 67.7234 89.423 68.2087L88.0741 68.0905C86.167 67.9438 84.2354 67.8664 82.3282 67.8664C77.5983 67.865 72.8792 68.3194 68.2364 69.2234C67.9738 66.6068 67.4412 64.0243 66.6471 61.5173C66.3374 60.523 66.0074 59.545 65.6854 58.5995C64.8704 56.1545 64.0105 53.6564 63.9779 51.9815C63.9779 51.3377 63.9779 51.1217 64.7033 50.5186C65.0291 50.2038 65.4425 49.995 65.8892 49.9195C66.1381 49.9638 66.3752 50.059 66.5856 50.1993C66.796 50.3395 66.9751 50.5218 67.1117 50.7346C67.3837 51.096 67.5658 51.5169 67.643 51.9626C67.7202 52.4083 67.6904 52.8659 67.5559 53.2978C67.0553 54.9236 66.9457 56.6446 67.236 58.3208C67.5263 59.997 68.2084 61.5809 69.2267 62.9436V62.9436ZM106.86 61.1343L107.011 60.2174C107.578 56.7617 108.169 53.1919 109.583 51.1665C109.796 50.8607 110.051 50.5863 110.341 50.3515C110.944 52.9514 109.526 57.3648 108.564 60.3926L108.185 61.5662C107.057 64.8393 106.145 68.1826 105.454 71.5747C103.42 70.9037 101.354 70.3223 99.2562 69.8306C101.205 69.2284 102.949 68.0963 104.291 66.5606C105.634 65.025 106.524 63.1462 106.86 61.1343V61.1343ZM88.3186 45.4695C87.1383 41.5641 85.0169 38.0083 82.1407 35.1146C82.6393 34.6101 83.1658 34.1339 83.7178 33.6883C85.3968 32.3802 88.0293 30.7665 91.0204 30.5179C91.2568 30.5179 91.4931 30.4894 91.7254 30.4894C93.8205 30.4815 95.841 31.2662 97.3817 32.6859C92.8053 36.166 90.0628 40.8116 88.3186 45.4573V45.4695Z" fill="black"/>
<path d="M147.193 146.588C149.96 110.792 123.185 79.5316 87.3902 76.7648C51.595 73.9979 20.3343 100.773 17.5675 136.568C14.8006 172.363 41.5754 203.624 77.3706 206.391C113.166 209.158 144.426 182.383 147.193 146.588Z" fill="#6FD5B9"/>
<path d="M139.092 145.961C141.513 114.641 118.085 87.2874 86.7639 84.8664C55.4431 82.4454 28.09 105.873 25.669 137.194C23.248 168.515 46.6759 195.868 77.9967 198.289C109.318 200.71 136.671 177.282 139.092 145.961Z" fill="#A3E5CF"/>
<path d="M89.1458 124.959C86.7667 121.002 85.1611 116.629 84.4146 112.073C84.34 111.705 84.1328 111.377 83.8322 111.152C83.5317 110.926 83.1589 110.819 82.7846 110.851C82.4605 110.824 82.1365 110.902 81.861 111.075C81.5855 111.248 81.3733 111.505 81.2564 111.808C81.1382 112.11 81.0119 112.403 80.8896 112.701L73.4118 124.449C72.5275 125.831 74.4346 127.803 75.6572 126.487C75.7468 126.389 75.8283 126.291 75.9139 126.194V126.161C77.5706 124.332 79.0702 122.366 80.3965 120.285C79.7717 127.636 79.4144 135.005 79.3248 142.392C79.3003 144.344 82.3404 144.593 82.3648 142.628C82.4518 135.133 82.8172 127.662 83.461 120.215C84.2608 122.334 85.2439 124.38 86.3992 126.328C87.3976 127.966 90.1483 126.65 89.1458 124.959Z" fill="#18AAA1"/>
<path d="M80.8733 141.911L53.9775 110.37C55.8725 110.643 58.1668 112.253 60.1269 112.407C62.087 112.562 62.3193 109.534 60.3632 109.367C57.258 109.107 54.0183 105.761 50.8356 106.67L50.7867 106.613C50.1103 105.822 48.4598 105.932 48.1949 107.085C47.3178 110.718 47.2607 114.5 48.0279 118.157C48.0992 118.479 48.2718 118.769 48.5204 118.985C48.7689 119.2 49.0802 119.331 49.4084 119.356C49.7366 119.382 50.0643 119.301 50.3432 119.126C50.6222 118.952 50.8376 118.692 50.9579 118.386C51.7729 116.348 50.6971 113.65 51.2757 111.865L78.579 143.867C79.8301 145.387 82.1447 143.407 80.8733 141.911Z" fill="#18AAA1"/>
<path d="M126.898 64.9445C124.074 64.537 123.739 68.9666 126.555 69.3619C133.683 70.3685 127.778 81.8155 124.334 82.8709C115.985 85.4464 117.888 76.0288 118.857 71.697C119.937 66.8883 122.118 62.3812 123.026 57.5319C124.09 51.8511 123.687 44.899 119.648 40.3512C117.874 38.3619 115.444 37.0762 112.802 36.7284C112.813 36.5928 112.813 36.4565 112.802 36.3209C111.738 23.3131 98.8935 14.9754 86.4073 17.9828C80.5962 19.3888 65.0007 29.0346 67.4499 36.8995C63.823 36.4228 59.9028 37.3926 56.2963 40.4041C49.6864 45.9219 50.1836 53.4445 52.5798 60.9672C54.275 66.2648 58.1627 73.812 52.702 78.315C43.7368 85.7194 34.9182 69.7083 46.0148 66.7498C48.7532 66.0203 47.9342 61.66 45.1712 62.3976C29.8447 66.4727 36.805 89.9739 52.2945 83.6167C60.677 80.1773 60.6281 71.5299 58.3216 64.0561C56.2189 57.2629 52.2334 49.4264 59.1855 43.7498C68.0326 36.5328 78.8032 45.8974 75.8732 55.751C75.0581 58.4773 79.227 59.9932 80.042 57.2547C81.0533 53.8949 80.9412 50.2969 79.7225 47.0066C78.5039 43.7163 76.2454 40.9132 73.2895 39.0227C73.4195 38.6277 73.4255 38.2025 73.3067 37.804C73.188 37.4056 72.9502 37.053 72.6253 36.7936C69.7972 34.3485 76.6189 28.1543 78.3794 26.7851C81.8147 24.1077 85.9305 22.168 90.3113 21.8053C99.354 21.0555 107.651 27.5349 108.397 36.6632C108.397 36.7284 108.421 36.7814 108.429 36.8384C107.054 37.1289 105.732 37.6292 104.509 38.3218C96.9578 42.5884 95.1892 51.4477 93.877 59.3086C93.4084 62.1204 97.8299 62.4465 98.2944 59.6509C99.0524 55.1031 99.7411 50.0336 102.467 46.1338C106.331 40.6079 114.253 38.6437 117.778 45.5021C120.593 50.9831 118.593 57.5685 116.844 62.9844C114.623 69.9324 110.19 81.9051 117.684 87.4351C128.242 95.2919 144.209 67.3855 126.898 64.9445Z" fill="#18AAA1"/>
<path d="M52.2783 196.163C46.9806 197.842 43.5983 201.298 41.4629 206.477C40.1018 209.774 39.6413 213.279 39.0178 216.767C38.5085 219.693 38.2028 222.753 37.0536 225.533L35.3991 228.74C33.242 232.725 29.8257 233.209 25.1502 230.191C27.3019 228.316 24.4208 224.946 22.265 226.825C15.5696 232.66 25.4355 239.506 31.7193 237.285C48.1502 231.478 37.4815 205.499 53.1055 200.52C55.8073 199.664 55.0005 195.299 52.2783 196.163Z" fill="#18AAA1"/>
<path d="M130.5 231.935C127.888 235.822 122.399 241.018 120.137 231.674C119.672 229.754 120.891 226.784 121.241 224.905C122.244 219.453 123.927 213.662 124.151 208.099C124.4 201.987 121.82 196.652 115.398 195.699C112.574 195.291 112.248 199.7 115.055 200.116C126.25 201.783 112.541 230.504 116.685 238.483C121.327 247.449 130.516 239.873 134.151 234.461C135.737 232.09 132.093 229.563 130.5 231.935Z" fill="#18AAA1"/>
<path d="M85.4212 88.352C84.0769 88.6495 82.8982 89.4518 82.1285 90.5933C81.3806 91.7507 81.113 93.154 81.3827 94.5054C82.0796 97.2398 84.6795 99.1388 87.5362 98.5439C88.8804 98.2464 90.0591 97.4441 90.8289 96.3025C91.5768 95.1451 91.8443 93.7418 91.5746 92.3904C90.8778 89.6601 88.2778 87.757 85.4212 88.352Z" fill="#18AAA1"/>
<path d="M81.4968 182.622C75.2252 183.922 77.2383 193.673 83.5344 192.369C89.8305 191.065 87.7807 181.318 81.4968 182.622Z" fill="#18AAA1"/>
<path d="M31.813 137.746C30.4939 138.037 29.337 138.823 28.5814 139.943C27.8472 141.079 27.5855 142.456 27.852 143.782C28.5366 146.463 31.0835 148.325 33.8872 147.743C35.2063 147.452 36.3632 146.666 37.1188 145.546C37.853 144.411 38.1147 143.033 37.8482 141.707C37.1432 139.03 34.6126 137.172 31.813 137.746Z" fill="#18AAA1"/>
<path d="M131.103 135.147C129.882 135.418 128.812 136.147 128.112 137.184C127.432 138.235 127.19 139.51 127.436 140.738C128.067 143.219 130.431 144.943 133.023 144.405C134.244 144.134 135.314 143.404 136.014 142.368C136.694 141.317 136.937 140.042 136.69 138.814C136.059 136.332 133.695 134.609 131.103 135.147Z" fill="#18AAA1"/>
<path d="M39.6169 161.215C37.8646 161.578 38.427 164.3 40.1834 163.937C41.9397 163.575 41.3733 160.852 39.6169 161.215Z" fill="#18AAA1"/>
<path d="M53.0362 176.293C50.6807 176.782 51.4346 180.446 53.7982 179.961C56.1618 179.476 55.3834 175.804 53.0362 176.293Z" fill="#18AAA1"/>
<path d="M107.883 176.232L107.349 176.322C106.755 176.45 106.234 176.807 105.901 177.315C105.567 177.824 105.446 178.443 105.564 179.04C105.862 180.209 107.031 181.134 108.283 180.825L108.804 180.694C109.957 180.409 110.882 179.227 110.573 178C110.439 177.416 110.084 176.906 109.583 176.576C109.082 176.247 108.473 176.123 107.883 176.232V176.232Z" fill="#18AAA1"/>
<path d="M124.734 161.048C124.105 161.177 123.546 161.534 123.165 162.05C123 162.29 122.885 162.561 122.828 162.847C122.77 163.132 122.771 163.426 122.83 163.711C122.889 163.996 123.005 164.267 123.171 164.506C123.337 164.745 123.55 164.948 123.797 165.103C124.351 165.426 125.006 165.532 125.634 165.4C126.796 165.286 127.635 163.852 127.358 162.772C127.081 161.692 125.92 160.665 124.734 161.048Z" fill="#18AAA1"/>
<path d="M111.033 98.5724C110.312 98.7231 109.627 99.5626 109.876 100.337L110.043 100.854C110.12 101.226 110.342 101.552 110.66 101.76C110.977 101.969 111.364 102.042 111.736 101.965C112.108 101.888 112.434 101.666 112.642 101.348C112.85 101.031 112.924 100.643 112.847 100.272L112.794 99.7338C112.716 98.9269 111.759 98.4216 111.033 98.5724Z" fill="#18AAA1"/>
<path d="M128.206 119.518C128.068 119.249 127.866 119.018 127.617 118.845C127.369 118.672 127.082 118.562 126.781 118.527C126.48 118.491 126.176 118.529 125.893 118.639C125.611 118.749 125.36 118.926 125.163 119.156C124.966 119.385 124.828 119.66 124.761 119.955C124.695 120.251 124.702 120.558 124.783 120.85C124.863 121.142 125.014 121.409 125.222 121.629C125.431 121.849 125.69 122.014 125.977 122.11L126.229 122.216C126.464 122.301 126.719 122.319 126.963 122.268C127.208 122.217 127.433 122.099 127.615 121.927C127.676 121.858 127.737 121.792 127.802 121.727C128.097 121.45 128.295 121.087 128.367 120.689C128.44 120.292 128.383 119.881 128.206 119.518Z" fill="#18AAA1"/>
<path d="M39.2827 113.634C36.7031 114.168 37.5304 118.178 40.0977 117.644C42.665 117.11 41.8663 113.096 39.2827 113.634Z" fill="#18AAA1"/>
<path d="M59.3486 93.6048C57.1195 94.0694 57.8367 97.5332 60.0658 97.0687C62.2949 96.6041 61.5939 93.1402 59.3486 93.6048Z" fill="#18AAA1"/>
</svg>
