<svg width="274" height="330" viewBox="0 0 274 330" fill="none" xmlns="http://www.w3.org/2000/svg">
<path d="M272.746 184.109V184.081C272.527 180.957 272.199 177.794 271.762 174.68C270.08 162.417 266.729 150.441 261.804 139.085C260.711 136.578 259.46 133.934 257.98 131.011C248.219 112.074 234.172 95.677 216.957 83.1246C199.743 70.5722 179.836 62.2114 158.821 58.7074C155.915 52.2888 150.414 44.7339 139.402 41.6147C139.037 41.5091 138.664 41.4108 138.282 41.3197C138.068 33.0991 135.447 25.1218 130.743 18.3765C122.626 6.69725 110.75 0 98.1638 0C90.041 0.0514038 82.1715 2.8336 75.8214 7.89904C68.9821 13.2555 63.7474 20.3894 60.6898 28.5207C56.9806 38.5064 57.1554 49.0713 61.1814 58.265C61.9287 59.9707 62.7901 61.6242 63.7598 63.2142C57.9784 69.2033 54.3093 76.9155 53.3097 85.1796C32.043 101.542 16.0656 123.805 7.37101 149.191C-1.3236 174.576 -2.35041 201.96 4.41868 227.925C4.92125 229.853 5.51122 231.831 6.14489 233.934C6.2068 234.152 6.27236 234.371 6.34155 234.589C6.41074 234.808 6.48358 235.032 6.56006 235.261C7.02985 236.725 7.54334 238.2 8.11146 239.768C9.99472 244.996 12.1948 250.104 14.6995 255.064L14.8524 255.369C14.9507 255.566 15.0527 255.761 15.1583 255.954C15.7046 257.046 16.2509 258.079 16.8845 259.193L17.469 260.248C18.2393 261.624 18.9112 262.782 19.5722 263.88L19.6432 263.995C34.8431 289.227 57.8041 308.86 85.0911 319.955C112.378 331.051 142.524 333.013 171.02 325.548C234.501 308.98 277.285 249.492 272.746 184.109Z" fill="white"/>
<path d="M261.744 184.879C261.542 182 261.241 179.083 260.837 176.21C259.292 164.931 256.211 153.916 251.682 143.472C250.693 141.188 249.54 138.763 248.147 136.054C238.685 117.689 224.846 101.938 207.852 90.1904C190.858 78.4432 171.233 71.062 150.709 68.6987C149.262 63.4272 146.366 55.042 136.413 52.2233C134.067 51.5785 131.642 51.2605 129.208 51.2782C128.323 51.2782 127.449 51.3165 126.586 51.3765C128.121 42.6035 127.679 33.235 121.708 24.6422C115.737 16.0494 107.106 10.9855 98.1802 10.9855C92.5127 11.0447 87.0296 13.0071 82.6115 16.5574C72.3581 24.5384 65.1856 39.894 71.2819 53.8184C73.1849 57.9676 75.8537 61.7206 79.1482 64.8803C75.346 67.1227 72.0232 70.0928 69.37 73.6206C65.7756 78.537 63.9619 84.3711 63.9729 91.0192C43.166 105.77 27.344 126.506 18.6122 150.47C9.88042 174.433 8.65283 200.488 15.0928 225.166C15.568 226.98 16.1034 228.848 16.7316 230.858C16.7753 231.011 16.819 231.17 16.8682 231.323C16.9173 231.476 16.972 231.645 17.0266 231.803C17.4691 233.175 17.9443 234.562 18.4851 236.042C20.2274 240.884 22.2652 245.615 24.5869 250.207L24.6962 250.426L24.9147 250.841C25.461 251.857 25.969 252.857 26.5535 253.922L27.0998 254.889C27.8208 256.178 28.4436 257.249 29.0499 258.259L29.0936 258.336C51.66 295.728 92.8049 318.977 136.468 318.977C147.188 318.97 157.863 317.593 168.234 314.88C226.586 299.644 265.912 244.979 261.744 184.879ZM99.3219 40.118C100.065 40.7844 100.201 43.0951 99.6824 46.1269L99.6278 46.4437C97.4154 44.1767 96.7435 42.5871 96.7162 41.9425C96.7162 41.5 97.0494 40.6314 98.0491 39.4351C98.5193 39.5556 98.955 39.7837 99.3219 40.1016V40.118Z" fill="black"/>
<path d="M152.791 225.625C191.029 209.445 225.843 181.459 238.336 141.068C214.371 94.3897 160.498 68.8462 107.614 82.6668C46.4377 98.6342 9.77217 161.166 25.7614 222.348C26.3077 224.369 26.854 226.357 27.4986 228.318C27.4603 228.204 27.4221 228.094 27.3839 227.98C64.9944 251.6 113.776 242.15 152.791 225.625Z" fill="#C02942"/>
<path d="M170.637 248.47C128.973 265.891 80.787 268.589 38.5277 252.611C64.0548 294.925 115.202 317.327 165.459 304.206C219.583 290.085 254.5 239.479 250.742 185.633C245.797 192.477 240.372 198.962 234.507 205.036C216.382 223.694 194.651 238.472 170.637 248.47V248.47Z" fill="#C02942"/>
<path d="M140.877 74.582C139.5 69.8021 138.79 64.3668 133.409 62.8372C127.772 61.2421 120.462 63.6949 114.891 64.6672C113.62 64.8894 112.345 65.1261 111.067 65.3774C114.967 54.239 119.703 41.1121 112.634 30.9625C107.068 22.9596 97.8524 18.6769 89.3634 25.2813C82.404 30.6948 77.6514 40.8718 81.3824 49.399C84.1138 55.5937 90.4122 60.2698 95.498 64.3777C96.9292 65.5358 98.4096 66.8086 99.9501 68.0541C96.7057 68.9938 93.5223 70.1321 90.4177 71.4628C79.181 76.33 74.3629 82.5575 75.0621 92.7672C74.5258 98.1192 75.1557 103.524 76.9085 108.609C77.3674 110.013 80.1861 114.88 83.5402 114.006C88.3965 112.739 90.7837 110.587 92.1712 106.905C99.7043 111.821 109.603 108.32 112.312 100.044C114.683 101.43 117.5 101.84 120.167 101.185C124.57 100.136 127.438 96.7769 129.454 92.9584C133.245 96.3617 139.571 96.5365 142.373 90.981C144.946 85.9826 142.28 79.5039 140.877 74.582ZM90.5051 31.3503C94.8097 26.7234 102.25 27.9034 106.696 31.8966C111.383 36.0974 111.526 42.3849 110.57 47.9897C109.543 54.0423 107.357 60.0075 105.38 65.9072C100.895 63.0066 96.6397 58.6637 93.3894 55.7412C85.2937 48.3993 82.4258 40.0305 90.4887 31.3449L90.5051 31.3503Z" fill="#542437"/>
<path d="M27.3838 227.985C28.1813 230.509 29.0827 232.967 30.0387 235.392C67.458 255.358 113.366 247.257 151.856 231.612C190.915 215.727 227.028 187.949 241.576 147.837C240.576 145.531 239.489 143.286 238.353 141.074C225.843 181.47 191.002 209.456 152.791 225.625C113.776 242.15 64.9944 251.6 27.3838 227.985Z" fill="#F59439"/>
<path d="M227.094 205.107C209.584 222.161 188.9 235.614 166.212 244.706C124.406 261.471 76.0781 263.17 34.5344 245.411C35.7836 247.873 37.1164 250.275 38.5331 252.616C80.7651 268.589 128.979 265.896 170.643 248.47C194.657 238.472 216.387 223.694 234.512 205.036C240.377 198.962 245.803 192.477 250.747 185.633C250.565 183.004 250.29 180.369 249.922 177.728C243.285 187.623 235.634 196.799 227.094 205.107Z" fill="#F59439"/>
<path d="M160.176 142.56C155.926 144.439 151.616 146.755 152.49 140.265C152.851 137.61 148.83 136.786 147.645 138.916L144.739 144.122C143.963 145.509 144.602 147.574 146.279 147.946L129.935 164.334C129.329 164.115 128.71 163.933 128.083 163.788C128.45 161.657 128.671 159.503 128.744 157.342L135.605 149.508C137.79 147.001 134.141 143.297 131.929 145.826L127.952 150.366C127.815 149.88 127.668 149.393 127.487 148.918C126.553 146.416 122.079 146.373 122.369 149.541C122.369 149.781 122.429 150 122.456 150.235C122.62 151.74 122.944 153.223 123.423 154.659C123.661 157.525 123.569 160.408 123.15 163.252C119.984 163.154 116.826 163.631 113.831 164.662C111.504 160.581 109.237 156.468 106.986 152.349C106.986 152.321 106.948 152.3 106.931 152.272L107.937 145.209C108.166 143.57 108.237 141.746 108.548 140.058C109.085 139.696 109.498 139.179 109.732 138.575C109.965 137.971 110.008 137.31 109.854 136.682C109.744 136.24 109.518 135.836 109.199 135.512C108.88 135.187 108.48 134.953 108.04 134.835C104.686 134.136 103.905 136.84 103.523 139.55C103.104 142.496 102.685 145.442 102.266 148.388L95.9023 143.756C93.1709 141.784 90.5816 146.291 93.2693 148.246L102.468 154.944C104.681 158.997 106.91 163.05 109.198 167.065C107.678 168.17 106.398 169.572 105.437 171.188C104.476 172.803 103.855 174.597 103.61 176.461L94.3236 176.767C94.019 176.435 93.6463 176.172 93.231 175.997C91.3336 175.195 89.7133 173.854 88.5713 172.14C86.7086 169.409 82.1855 171.96 84.0646 174.746C85.1109 176.299 86.4131 177.664 87.9158 178.783C86.3546 180.043 84.8578 181.381 83.431 182.792C81.0602 185.152 84.7256 188.845 87.1074 186.474C88.7865 184.817 90.5691 183.268 92.4444 181.836C92.7639 181.955 93.1036 182.008 93.4441 181.995L104.091 181.645C104.022 184.166 104.456 186.675 105.369 189.025L92.6465 201.797L86.2497 203.436C83.0049 204.272 84.3159 209.303 87.5662 208.472L90.7127 207.664C90.8207 207.761 90.9357 207.851 91.0569 207.932L89.653 214.093C88.91 217.371 93.9193 218.769 94.6622 215.497L97.1314 204.67L108.139 193.619C109.133 194.748 110.335 195.675 111.678 196.351C113.592 197.225 115.661 197.707 117.764 197.765C117.21 202.828 116.71 207.897 116.262 212.974L112.596 218.873C110.826 221.725 115.328 224.336 117.087 221.506L118.578 219.108L119.392 222.134C120.266 225.368 125.302 224.057 124.428 220.818L122.047 211.968C121.963 211.671 121.826 211.392 121.642 211.144C122.058 206.555 122.518 201.974 123.024 197.399C124.799 197.081 126.535 196.575 128.203 195.892C128.749 196.58 129.263 197.285 129.842 197.962C133.557 202.518 138.582 206.883 141.029 212.367L142.543 218.376C143.236 221.135 147.923 220.747 147.661 217.753C147.661 217.519 147.596 217.295 147.563 217.06V216.961C147.356 215.284 146.962 213.635 146.388 212.045L153.801 215.077C156.904 216.344 158.275 211.318 155.205 210.067L143.247 205.151C143.072 205.086 142.888 205.046 142.701 205.031C139.866 200.868 136.239 197.072 132.906 193.221C135.024 191.752 136.707 189.741 137.779 187.397C138.71 185.188 139.28 182.844 139.467 180.454L154.216 179.974C155.62 183.431 162.279 184.218 165.104 185.163C168.288 186.256 169.676 181.214 166.507 180.154C161.82 178.581 158.45 178.515 163.082 173.631C165.377 171.2 161.842 167.622 159.406 169.949C155.511 173.653 155.036 174.751 148.994 174.948L139.161 175.27C138.586 172.084 136.97 169.18 134.567 167.011L150.857 150.661C154.653 151.076 159.69 148.383 162.76 147.023C165.83 145.662 163.219 141.21 160.176 142.56ZM122.303 168.464C122.019 169.966 121.708 171.457 121.397 172.921L119.714 174.609C118.622 172.825 117.538 171.026 116.464 169.212C118.364 168.682 120.331 168.43 122.303 168.464V168.464ZM110.914 175.986C111.321 175.501 111.544 174.888 111.544 174.254C111.544 173.621 111.321 173.008 110.914 172.522C111.199 172.205 111.506 171.908 111.831 171.632C112.716 173.132 113.612 174.626 114.519 176.111L110.695 176.237C110.799 176.155 110.832 176.068 110.914 175.986ZM108.974 181.498L112.984 181.367L109.466 184.895C109.124 183.796 108.956 182.649 108.969 181.498H108.974ZM118.201 192.243C117.067 192.218 115.949 191.964 114.916 191.494C113.883 191.025 112.956 190.35 112.192 189.511L118.829 182.852L119.457 183.792C119.093 186.596 118.742 189.404 118.403 192.215L118.201 192.243ZM123.691 191.658C123.749 191.156 123.809 190.655 123.871 190.156C124.166 190.566 124.456 190.986 124.756 191.396C124.401 191.494 124.046 191.582 123.691 191.658V191.658ZM133.327 184.442C132.64 186.403 131.327 188.085 129.591 189.227C129.432 189.02 129.268 188.818 129.115 188.615C127.646 186.622 126.237 184.595 124.849 182.546C124.918 182.022 124.989 181.499 125.062 180.979L134.228 180.678C134.039 181.957 133.738 183.216 133.327 184.442V184.442ZM133.081 172.768C133.602 173.608 133.971 174.532 134.174 175.5L130.514 175.62L125.947 175.767L131.104 170.589C131.888 171.191 132.558 171.929 133.081 172.768V172.768Z" fill="#F59439"/>
<path d="M166.212 244.706C188.9 235.614 209.585 222.161 227.094 205.107C235.632 196.799 243.281 187.623 249.917 177.728C248.508 167.432 245.696 157.376 241.559 147.842C227.018 187.933 190.898 215.732 151.84 231.634C113.366 247.279 67.4581 255.386 30.0224 235.414C29.6108 234.365 29.2102 233.308 28.8206 232.24C31.3655 239.336 34.608 246.161 38.5004 252.616C37.0911 250.282 35.7618 247.887 34.5127 245.433C76.0509 263.165 124.407 261.471 166.212 244.706Z" fill="#D95B43"/>
<path d="M36.8889 207.904C38.6315 205.036 34.1575 202.409 32.3985 205.271C30.1261 209.002 30.94 213.514 33.0103 217.142C34.6492 220.048 39.1832 217.453 37.5171 214.536C36.3644 212.515 35.5942 210.035 36.8889 207.904Z" fill="#D95B43"/>
<path d="M40.4561 216.459C40.4561 219.163 40.1939 221.856 40.3304 224.56C40.4943 227.892 45.7002 227.98 45.5364 224.631C45.3998 221.927 45.6784 219.234 45.662 216.53C45.6347 213.181 40.4342 213.105 40.4561 216.459Z" fill="#D95B43"/>
<path d="M68.7199 229.334C68.3594 225.352 67.9224 221.315 66.6277 217.513C65.5352 214.361 60.5095 215.65 61.5911 218.83C62.7437 222.2 63.1971 225.729 63.514 229.263C63.8144 232.568 69.0204 232.667 68.7199 229.334Z" fill="#D95B43"/>
<path d="M80.6285 231.35C81.5845 228.143 80.9126 224.986 80.6285 221.741C80.3445 218.496 75.1385 218.338 75.4226 221.67C75.6575 224.402 76.4113 227.264 75.6138 229.941C74.6578 233.158 79.6944 234.557 80.6285 231.35Z" fill="#D95B43"/>
<path d="M48.5572 195.968C48.437 200.109 47.6777 204.037 49.8573 207.817C51.5289 210.712 56.041 208.123 54.364 205.211C52.7689 202.442 53.6757 199.071 53.7631 196.039C53.8505 192.685 48.6446 192.625 48.5572 195.968Z" fill="#D95B43"/>
<path d="M42.0019 176.707C41.9377 176.116 41.9691 175.518 42.0948 174.937C42.1713 174.609 42.2696 174.281 42.3789 173.959C42.4408 173.777 42.5063 173.595 42.5755 173.413L42.6739 173.167C43.2201 171.9 43.0016 170.436 41.7179 169.676C40.6253 169.026 38.7298 169.316 38.1562 170.605C37.3095 172.506 36.6212 174.511 36.796 176.614C36.9053 177.963 37.8885 179.296 39.3635 179.252C40.6417 179.231 42.1057 178.155 42.0019 176.707Z" fill="#D95B43"/>
<path d="M42.6575 173.183V173.254C42.6684 173.145 42.6739 173.129 42.6575 173.183Z" fill="#D95B43"/>
<path d="M59.3077 183.907C58.2151 183.246 56.3087 183.552 55.746 184.835C54.1459 188.45 53.9703 192.536 55.2544 196.274C56.2977 199.437 61.3398 198.148 60.291 194.958C59.4934 192.538 59.1984 189.866 60.2363 187.463C60.8045 186.174 60.6133 184.693 59.3077 183.907Z" fill="#D95B43"/>
<path d="M73.3905 194.329C72.7041 194.333 72.0459 194.603 71.554 195.082C71.0621 195.56 70.7746 196.211 70.7521 196.897C70.5336 199.224 70.1457 201.529 69.878 203.845C69.7141 205.244 71.1399 206.468 72.4455 206.484C73.9696 206.484 74.9201 205.32 75.084 203.916C75.3516 201.595 75.7395 199.29 75.958 196.968C76.0891 195.58 74.7125 194.346 73.3905 194.329Z" fill="#D95B43"/>
<path d="M78.4271 188.883C78.8156 190.658 79.0206 192.469 79.039 194.286C79.0468 194.971 79.3177 195.627 79.7956 196.118C80.2734 196.609 80.9217 196.898 81.6064 196.924C82.9338 196.924 84.3378 195.766 84.2449 194.357C84.1083 192.079 84.0646 189.785 83.4637 187.572C82.5897 184.338 77.5531 185.644 78.4271 188.883Z" fill="#D95B43"/>
<path d="M63.7435 159.734C63.2846 164.104 62.6509 168.201 63.8473 172.522C64.7322 175.751 69.7688 174.445 68.8839 171.206C67.8296 167.382 68.5397 163.684 68.9494 159.805C69.3154 156.473 64.0876 156.429 63.7435 159.734Z" fill="#D95B43"/>
<path d="M56.3306 150.295C56.4577 149.392 56.8173 148.537 57.3739 147.815C57.8874 147.05 58.4009 146.465 59.0728 145.63C59.9469 144.537 60.1654 143.024 59.0728 141.948C58.166 141.041 56.2705 140.855 55.391 141.948C53.7194 144.056 51.7856 146.154 51.3104 148.907C51.0755 150.289 51.66 151.71 53.1131 152.114C54.3695 152.425 56.0957 151.688 56.3306 150.295Z" fill="#D95B43"/>
<path d="M81.9451 162.87C81.653 160.858 81.9312 158.804 82.7481 156.943C83.3326 155.665 83.1141 154.141 81.8194 153.381C80.7269 152.726 78.8477 153.026 78.2577 154.31C76.8403 157.394 76.3707 160.83 76.9085 164.181C77.1106 165.574 78.8313 166.366 80.0823 166.044C81.5681 165.656 82.1472 164.268 81.9451 162.87Z" fill="#D95B43"/>
<path d="M89.2815 157.997C89.0684 160.783 88.5222 163.531 88.3146 166.317C88.0688 169.665 93.2747 169.715 93.5205 166.388C93.7226 163.602 94.2689 160.854 94.4874 158.068C94.7442 154.725 89.5273 154.676 89.2815 157.997Z" fill="#D95B43"/>
<path d="M65.2348 133.251C66.4694 133.601 68.2174 132.841 68.4414 131.448C68.7965 129.263 70.2113 127.625 71.4841 125.822C72.2871 124.669 71.7026 122.932 70.5555 122.26C69.9568 121.925 69.2516 121.834 68.5876 122.007C67.9235 122.18 67.3523 122.604 66.9938 123.189C65.4915 125.33 63.8527 127.39 63.4321 130.028C63.2081 131.427 63.7763 132.841 65.2348 133.251Z" fill="#D95B43"/>
<path d="M78.602 140.997C79.9458 138.577 81.6502 136.392 83.0541 134.011C84.7585 131.121 80.2681 128.488 78.5638 131.378C77.1599 133.759 75.4555 135.95 74.1117 138.364C72.4674 141.292 76.9632 143.931 78.602 140.997Z" fill="#D95B43"/>
<path d="M51.66 135.83C52.6986 132.943 54.1011 130.2 55.8335 127.668C57.7017 124.882 53.2005 122.26 51.3432 125.035C49.3888 127.945 47.812 131.091 46.6507 134.398C45.5363 137.589 50.5565 138.976 51.66 135.83Z" fill="#D95B43"/>
<path d="M42.5865 150.333C42.6466 150.333 42.9852 150.093 43.0126 150.076C43.3085 149.905 43.5678 149.678 43.7757 149.406C43.9836 149.135 44.1361 148.825 44.2243 148.495C44.3126 148.165 44.3349 147.82 44.2901 147.482C44.2453 147.143 44.1342 146.816 43.9631 146.52C43.792 146.224 43.5643 145.965 43.293 145.757C43.0216 145.549 42.712 145.397 42.3818 145.308C42.0516 145.22 41.7072 145.198 41.3684 145.243C41.0295 145.287 40.7028 145.399 40.4069 145.57C37.5717 147.099 36.1077 150.371 36.1187 153.496C36.1092 154.186 36.3744 154.852 36.8559 155.347C37.3374 155.842 37.9958 156.125 38.6861 156.134C39.3765 156.144 40.0423 155.879 40.5371 155.397C41.0319 154.916 41.3152 154.257 41.3246 153.567C41.3163 152.872 41.4444 152.181 41.7015 151.535C41.7998 151.327 41.92 151.136 42.0347 150.939L42.1495 150.77L42.1986 150.715C42.3205 150.581 42.45 150.453 42.5865 150.333Z" fill="#D95B43"/>
<path d="M52.0424 180.536C53.0366 183.721 58.0787 182.426 57.079 179.22C56.5367 177.331 56.5066 175.333 56.9916 173.429C57.6909 170.152 52.6816 168.742 51.9823 172.025C51.376 174.866 51.1629 177.723 52.0424 180.536Z" fill="#D95B43"/>
<path d="M34.2996 192.243C34.887 191.888 35.3141 191.319 35.4913 190.656C35.6685 189.993 35.5821 189.287 35.2501 188.687C34.5072 187.157 34.6602 185.267 35.0098 183.65C35.709 180.372 30.7052 178.963 30.0005 182.246C29.3395 185.327 29.3504 188.413 30.7489 191.292C31.3607 192.554 33.147 192.909 34.2996 192.243Z" fill="#D95B43"/>
<path d="M108.455 125.74C108.451 123.226 108.926 120.735 109.854 118.398C110.4 117.098 109.308 115.536 108.051 115.192C106.565 114.771 105.38 115.694 104.845 116.994C103.778 119.758 103.237 122.696 103.25 125.658C103.184 129.023 108.401 129.089 108.455 125.74Z" fill="#D95B43"/>
<path d="M124.991 131.367C126.291 131.367 127.722 130.208 127.63 128.799C127.382 126.013 127.786 123.208 128.809 120.605C129.317 119.294 128.263 117.754 127.007 117.398C125.543 116.989 124.303 117.885 123.8 119.201C122.632 122.229 122.163 125.482 122.429 128.717C122.538 130.127 123.494 131.35 124.991 131.367Z" fill="#D95B43"/>
<path d="M142.608 132.956C143.04 129.132 144.629 125.522 145.23 121.709C145.744 118.431 140.74 117 140.221 120.305C139.549 124.571 137.894 128.581 137.408 132.869C137.053 136.218 142.237 136.256 142.608 132.956Z" fill="#D95B43"/>
<path d="M134.605 108.784C134.388 107.68 134.612 106.535 135.228 105.594C135.577 104.998 135.676 104.288 135.501 103.62C135.327 102.953 134.895 102.381 134.299 102.032C133.704 101.683 132.994 101.584 132.326 101.759C131.658 101.933 131.087 102.365 130.738 102.961C129.446 105.1 129.029 107.656 129.574 110.095C129.661 110.426 129.811 110.736 130.018 111.008C130.224 111.281 130.482 111.51 130.777 111.683C131.072 111.856 131.398 111.968 131.737 112.015C132.076 112.062 132.42 112.041 132.751 111.955C133.082 111.868 133.392 111.718 133.664 111.511C133.937 111.305 134.166 111.047 134.339 110.752C134.511 110.457 134.624 110.131 134.671 109.792C134.718 109.454 134.697 109.109 134.611 108.778L134.605 108.784Z" fill="#D95B43"/>
<path d="M162.083 131.667C160.859 127.898 161.345 123.79 160.804 119.9C160.345 116.59 155.314 117.934 155.768 121.217C156.314 125.156 155.801 129.143 157.046 132.984C158.078 136.125 163.121 134.835 162.083 131.667Z" fill="#D95B43"/>
<path d="M174.822 117.295C172.97 114.602 172.238 111.379 170.736 108.5C169.184 105.534 164.677 108.139 166.229 111.106C167.737 113.984 168.458 117.196 170.315 119.9C172.172 122.605 176.728 120.064 174.822 117.295Z" fill="#D95B43"/>
<path d="M177.067 102.371C177.676 103.825 178.667 105.088 179.935 106.025C181.027 106.883 182.846 106.205 183.496 105.097C184.277 103.758 183.688 102.392 182.568 101.535C181.863 100.989 181.563 99.6994 181.251 98.9128C180.805 97.5904 180.083 96.3781 179.132 95.3566C176.755 92.9967 173.063 96.6676 175.45 99.0329C176.307 99.8851 176.608 101.289 177.067 102.371Z" fill="#D95B43"/>
<path d="M162.558 87.0642C159.608 86.3213 156.86 85.1304 153.774 85.0539C150.42 84.9665 150.354 90.1725 153.703 90.2599C156.292 90.3254 158.674 91.4562 161.154 92.079C164.404 92.882 165.814 87.8836 162.558 87.0642Z" fill="#D95B43"/>
<path d="M157.188 103.895C157.529 103.297 157.623 102.59 157.449 101.925C157.276 101.259 156.849 100.688 156.259 100.333C154.517 99.3935 152.436 99.0493 150.769 98.1807C150.171 97.8466 149.466 97.7567 148.802 97.9297C148.138 98.1027 147.567 98.5254 147.208 99.1094C146.865 99.7064 146.771 100.414 146.944 101.08C147.118 101.746 147.546 102.317 148.136 102.671C149.879 103.589 152.059 103.977 153.626 104.823C154.225 105.159 154.93 105.25 155.594 105.076C156.258 104.903 156.83 104.48 157.188 103.895V103.895Z" fill="#D95B43"/>
<path d="M195.465 111.177H195.542L195.929 111.297C195.432 111.127 196.099 111.395 196.17 111.433C196.355 111.537 196.536 111.646 196.716 111.767L197.006 111.969C197.153 112.089 197.301 112.22 197.437 112.351C197.574 112.482 197.743 112.668 197.901 112.826L198.016 112.93C198.045 112.985 198.078 113.038 198.114 113.088C198.472 113.673 199.041 114.097 199.703 114.274C200.365 114.451 201.069 114.367 201.671 114.039C202.818 113.378 203.424 111.646 202.621 110.483C201.081 108.243 198.415 105.965 195.52 105.976C194.829 105.967 194.164 106.232 193.669 106.713C193.174 107.195 192.891 107.853 192.881 108.544C192.872 109.234 193.137 109.9 193.619 110.395C194.1 110.889 194.758 111.173 195.449 111.182L195.465 111.177Z" fill="#D95B43"/>
<path d="M192.674 123.194C191.319 121.856 190.03 120.545 189.609 118.628C188.888 115.35 183.857 116.672 184.573 119.944C185.19 122.747 186.998 124.904 188.986 126.871C191.374 129.22 195.066 125.554 192.674 123.194Z" fill="#D95B43"/>
<path d="M214.268 128.592C215.819 131.558 220.326 128.952 218.774 125.986C217.551 123.722 216.011 121.643 214.202 119.813C211.88 117.399 208.193 121.069 210.52 123.489C212.009 125.001 213.271 126.719 214.268 128.592V128.592Z" fill="#D95B43"/>
<path d="M193.045 135.212C193.673 137.742 194.11 140.314 194.597 142.86C195.225 146.138 200.256 144.821 199.633 141.544C199.147 138.982 198.71 136.414 198.082 133.896C197.268 130.645 192.226 131.957 193.045 135.212Z" fill="#D95B43"/>
<path d="M176.045 136.693C176.444 140.101 176.968 143.483 177.684 146.837C178.4 150.191 183.431 148.793 182.721 145.52C182.087 142.625 181.579 139.708 181.235 136.78C181.071 135.376 180.202 134.18 178.667 134.142C177.422 134.098 175.881 135.3 176.045 136.693Z" fill="#D95B43"/>
<path d="M171.801 156.795C170.555 156.446 168.835 157.205 168.594 158.598C168.119 161.329 168.551 163.864 169.386 166.47C170.402 169.649 175.444 168.354 174.423 165.153C173.877 163.515 173.33 161.739 173.609 160.002C173.844 158.636 173.248 157.216 171.801 156.795Z" fill="#D95B43"/>
<path d="M185.965 156.877C182.611 156.752 182.551 161.958 185.894 162.083C187.899 162.16 189.686 163.176 191.472 163.968C192.75 164.552 194.269 164.339 195.033 163.039C195.689 161.947 195.389 160.067 194.105 159.477C191.466 158.265 188.948 156.986 185.965 156.877Z" fill="#D95B43"/>
<path d="M200.381 149.891C201.938 151.435 203.641 152.823 205.467 154.037C205.762 154.21 206.088 154.323 206.427 154.37C206.765 154.417 207.11 154.396 207.44 154.31C207.771 154.224 208.082 154.073 208.354 153.867C208.627 153.661 208.856 153.403 209.029 153.108C209.202 152.813 209.315 152.487 209.362 152.149C209.409 151.81 209.388 151.466 209.302 151.135C209.216 150.804 209.065 150.494 208.859 150.221C208.653 149.949 208.395 149.719 208.1 149.546C206.649 148.57 205.297 147.454 204.063 146.214C203.576 145.726 202.914 145.451 202.224 145.451C201.534 145.45 200.872 145.724 200.384 146.211C199.896 146.699 199.621 147.36 199.621 148.05C199.62 148.74 199.894 149.402 200.381 149.891V149.891Z" fill="#D95B43"/>
<path d="M212.536 144.28C212.893 144.866 213.461 145.291 214.124 145.468C214.786 145.645 215.491 145.56 216.092 145.231C216.685 144.881 217.117 144.312 217.294 143.647C217.472 142.982 217.382 142.274 217.043 141.675C216.204 140.53 215.473 139.31 214.858 138.031C214.311 136.725 213.164 135.786 211.684 136.168C210.455 136.491 209.302 138.031 209.821 139.342C210.551 141.078 211.461 142.733 212.536 144.28V144.28Z" fill="#D95B43"/>
<path d="M219.605 137.676C220.899 138.845 222.194 139.965 223.024 141.5C224.608 144.45 229.115 141.849 227.531 138.894C226.488 136.949 224.909 135.447 223.287 133.978C222.791 133.503 222.132 133.238 221.446 133.238C220.759 133.238 220.1 133.503 219.605 133.978C219.117 134.47 218.844 135.134 218.844 135.827C218.844 136.519 219.117 137.184 219.605 137.676Z" fill="#D95B43"/>
<path d="M182.338 190.713C182.486 187.982 180.519 185.988 179.197 183.83C177.455 180.984 172.937 183.568 174.691 186.436C175.401 187.594 177.203 189.38 177.132 190.642C176.93 193.991 182.158 194.045 182.338 190.713Z" fill="#D95B43"/>
<path d="M169.638 195.285C168.097 192.314 163.59 194.919 165.131 197.891C166.223 199.983 166.977 202.223 168.141 204.277C169.78 207.183 174.308 204.588 172.647 201.671C171.468 199.617 170.719 197.378 169.638 195.285Z" fill="#D95B43"/>
<path d="M191.548 189.2C191.719 189.496 191.947 189.755 192.218 189.963C192.49 190.171 192.799 190.323 193.129 190.412C193.46 190.5 193.804 190.522 194.143 190.478C194.482 190.433 194.809 190.322 195.104 190.15C195.4 189.979 195.66 189.752 195.868 189.48C196.076 189.209 196.228 188.899 196.316 188.569C196.404 188.239 196.427 187.895 196.382 187.556C196.337 187.217 196.226 186.89 196.055 186.594C195.192 185.185 194.514 183.677 193.591 182.306C193.231 181.726 192.662 181.306 192.001 181.133C191.341 180.961 190.639 181.048 190.041 181.377C188.888 182.044 188.303 183.765 189.09 184.934C190.008 186.294 190.685 187.796 191.548 189.2Z" fill="#D95B43"/>
<path d="M202.452 173.014C201.976 173.509 201.71 174.168 201.71 174.855C201.71 175.541 201.976 176.201 202.452 176.696C203.83 178.299 205.398 179.728 207.122 180.951C208.281 181.754 210.012 181.17 210.684 180.023C211.02 179.424 211.11 178.719 210.937 178.055C210.764 177.391 210.341 176.82 209.755 176.461C208.418 175.461 207.204 174.305 206.139 173.019C205.648 172.535 204.987 172.262 204.297 172.261C203.607 172.26 202.944 172.531 202.452 173.014V173.014Z" fill="#D95B43"/>
<path d="M222.893 157.544C222.193 157.713 221.559 158.088 221.073 158.62C220.587 159.152 220.271 159.818 220.165 160.531C220.06 161.244 220.17 161.972 220.482 162.622C220.793 163.272 221.292 163.814 221.914 164.178C222.535 164.543 223.252 164.713 223.971 164.668C224.69 164.622 225.38 164.363 225.951 163.923C226.521 163.483 226.948 162.882 227.175 162.198C227.402 161.514 227.419 160.778 227.225 160.084C226.798 159.31 226.17 158.666 225.408 158.219C224.646 157.772 223.777 157.539 222.893 157.544V157.544Z" fill="#D95B43"/>
<path d="M215.633 166.503C214.855 165.764 214.277 164.839 213.956 163.815C213.53 162.526 212.181 161.521 210.782 161.952C209.504 162.345 208.466 163.744 208.92 165.126C209.492 167.036 210.535 168.771 211.951 170.173C212.439 170.662 213.1 170.936 213.79 170.937C214.48 170.937 215.142 170.664 215.631 170.176C216.119 169.689 216.393 169.027 216.394 168.337C216.394 167.647 216.121 166.985 215.633 166.497V166.503Z" fill="#D95B43"/>
<path d="M228.187 149.355C228.673 148.033 227.64 146.504 226.384 146.149C225.72 145.977 225.015 146.069 224.418 146.405C223.82 146.741 223.375 147.295 223.177 147.951C222.549 149.661 222.314 151.977 223.467 153.534C224.303 154.665 225.706 155.244 227.023 154.485C228.116 153.846 228.815 152.065 227.973 150.928C227.929 150.862 227.889 150.792 227.853 150.721C227.856 150.681 227.856 150.641 227.853 150.601C227.853 150.393 227.853 150.399 227.853 150.415C227.853 150.431 227.886 150.328 227.924 150.196C228.006 149.912 228.088 149.634 228.187 149.355ZM227.875 150.841L227.837 150.765L227.875 150.841Z" fill="#D95B43"/>
<path d="M70.7412 269.327C69.9382 266.049 64.9016 267.387 65.7046 270.643C66.4003 273.509 67.9856 276.081 70.2331 277.99C71.3257 278.875 72.8498 279.083 73.915 277.99C74.8327 277.073 75.0075 275.204 73.915 274.309C72.3409 273.04 71.2261 271.29 70.7412 269.327V269.327Z" fill="#D95B43"/>
<path d="M86.3316 279.946C87.4242 279.307 88.1343 277.521 87.2822 276.39C85.687 274.265 83.7369 272.386 82.4804 270.026C80.9072 267.071 76.4005 269.671 77.9737 272.632C79.2411 275.013 81.1694 276.865 82.7754 278.996C83.6167 280.121 85.0097 280.711 86.3316 279.946Z" fill="#D95B43"/>
<path d="M96.5851 287.594C93.9521 286.501 91.1224 285.917 88.3583 285.261C85.0807 284.491 83.6877 289.5 86.9544 290.271C89.724 290.926 92.5482 291.489 95.1812 292.603C96.4759 293.149 98.0437 292.057 98.3878 290.8C98.8139 289.304 97.8853 288.146 96.5851 287.594Z" fill="#D95B43"/>
<path d="M100.999 272.358C99.2564 269.512 94.7388 272.096 96.4923 274.964C98.2458 277.832 99.5459 280.678 101.611 283.235C102.501 284.327 104.342 284.147 105.293 283.235C106.385 282.169 106.178 280.64 105.293 279.553C103.561 277.39 102.468 274.724 100.999 272.358Z" fill="#D95B43"/>
<path d="M115.622 290.871C114.229 290.675 113 292.161 112.984 293.439C112.984 294.99 114.153 295.881 115.551 296.077C116.546 296.219 117.573 296.957 118.403 297.509C119.463 298.213 120.479 298.989 121.571 299.645C124.45 301.371 127.078 296.88 124.204 295.154C121.331 293.428 119.026 291.347 115.622 290.871Z" fill="#D95B43"/>
<path d="M122.058 271.599C121.178 270.507 119.293 270.681 118.376 271.599C117.283 272.692 117.491 274.177 118.376 275.281C120.118 277.466 121.577 279.859 123.292 282.066C124.15 283.158 126.067 282.972 126.974 282.066C128.066 280.973 127.842 279.504 126.974 278.384C125.259 276.177 123.806 273.784 122.058 271.599Z" fill="#D95B43"/>
<path d="M148.306 297.186L148.115 296.908C147.863 296.525 147.628 296.132 147.388 295.739C146.854 294.823 146.249 293.95 145.58 293.128C143.941 291.199 141.45 290.8 139.522 292.543C137.44 294.433 139.691 297.312 141.936 296.869C142.122 297.137 142.297 297.416 142.483 297.678C143.156 298.895 143.947 300.044 144.842 301.109C147.137 303.55 150.851 299.874 148.524 297.432L148.306 297.186Z" fill="#D95B43"/>
<path d="M147.432 272.604C146.935 272.132 146.276 271.869 145.591 271.869C144.906 271.869 144.246 272.132 143.75 272.604C142.816 273.538 142.657 275.363 143.75 276.286C145.542 277.827 146.203 280.263 147.912 281.924C150.311 284.256 154.009 280.591 151.594 278.247C149.885 276.592 149.256 274.177 147.432 272.604Z" fill="#D95B43"/>
<path d="M159.881 286.731C159.1 288.064 159.684 289.462 160.81 290.292C162.17 291.325 162.711 292.936 162.929 294.559C163.115 295.952 164.863 296.744 166.103 296.421C167.6 296.028 168.152 294.646 167.966 293.248C167.755 291.765 167.245 290.341 166.467 289.061C165.69 287.782 164.661 286.673 163.443 285.802C162.323 284.95 160.542 285.616 159.881 286.731Z" fill="#D95B43"/>
<path d="M166.857 261.892C165.267 258.948 160.761 261.548 162.35 264.498C163.388 266.431 163.803 268.627 164.83 270.572C166.398 273.533 170.905 270.927 169.337 267.966C168.31 266.049 167.9 263.837 166.857 261.892Z" fill="#D95B43"/>
<path d="M177.394 279.575L178.93 285.447C179.776 288.686 184.813 287.375 183.966 284.13L182.431 278.258C181.584 275.024 176.548 276.33 177.394 279.575Z" fill="#D95B43"/>
<path d="M183.485 256.478C182.016 256.861 181.399 258.259 181.623 259.652C182.125 262.728 181.814 265.557 183.13 268.491C183.704 269.775 185.561 270.091 186.687 269.441C188.009 268.677 188.216 267.174 187.637 265.885C186.621 263.613 187.053 260.756 186.659 258.341C186.413 256.954 184.736 256.151 183.485 256.478Z" fill="#D95B43"/>
<path d="M199.48 271.839C199.279 270.1 199.332 268.341 199.639 266.617C199.805 265.953 199.711 265.251 199.375 264.655C199.04 264.059 198.489 263.613 197.836 263.41C196.574 263.055 194.886 263.826 194.629 265.213C194.192 267.369 194.075 269.578 194.28 271.768C194.427 273.161 195.323 274.385 196.847 274.407C198.114 274.423 199.633 273.243 199.48 271.839Z" fill="#D95B43"/>
<path d="M201.616 272.724C200.952 272.545 200.244 272.634 199.645 272.971C199.045 273.308 198.602 273.867 198.409 274.527C198.111 275.787 197.843 277.053 197.606 278.324C197.44 278.987 197.534 279.689 197.87 280.286C198.205 280.882 198.756 281.327 199.409 281.53C200.671 281.885 202.359 281.115 202.616 279.728C202.852 278.457 203.12 277.191 203.419 275.931C203.589 275.267 203.497 274.563 203.161 273.966C202.825 273.369 202.272 272.924 201.616 272.724V272.724Z" fill="#D95B43"/>
<path d="M195.755 249.956C196.716 251.671 197.066 253.61 197.552 255.495C198.393 258.734 203.43 257.429 202.588 254.179C201.982 251.83 201.463 249.486 200.261 247.35C198.617 244.433 194.105 247.028 195.755 249.956Z" fill="#D95B43"/>
<path d="M209.996 258.516C210.515 261.921 210.162 265.402 208.969 268.633C207.8 271.779 212.82 273.161 213.978 270.037C215.413 265.916 215.774 261.498 215.027 257.199C214.519 253.9 209.488 255.238 209.996 258.516Z" fill="#D95B43"/>
<path d="M226.734 247.416C226.023 249.448 226.313 252.332 224.958 254.086C224.095 255.178 223.866 256.68 224.958 257.768C225.854 258.663 227.771 258.887 228.64 257.768C229.716 256.446 230.465 254.889 230.825 253.223C231.043 251.736 231.359 250.265 231.77 248.82C232.852 245.651 227.837 244.264 226.734 247.416Z" fill="#D95B43"/>
<path d="M237.785 227.947C237.2 231.59 236.774 235.261 235.687 238.801C234.698 242.013 239.713 243.406 240.696 240.205C241.789 236.665 242.209 232.994 242.794 229.351C243.318 226.079 238.314 224.642 237.785 227.947Z" fill="#D95B43"/>
<path d="M222.068 239.222C220.309 237.283 220.484 234.305 220.43 231.864C220.342 228.52 215.136 228.438 215.224 231.793C215.333 235.819 215.557 239.774 218.392 242.898C220.632 245.378 224.319 241.702 222.068 239.222Z" fill="#D95B43"/>
<path d="M234.572 227.717C234.848 225.491 235.398 223.307 236.211 221.217C236.714 219.906 235.665 218.365 234.409 218.01C232.95 217.6 231.677 218.496 231.202 219.813C230.268 222.338 229.654 224.969 229.372 227.646C229.208 229.045 230.639 230.268 231.939 230.285C233.464 230.307 234.409 229.121 234.572 227.717Z" fill="#D95B43"/>
<path d="M242.952 205.195C241.433 205.195 240.472 206.358 240.314 207.762C240.068 210.002 239.221 212.132 238.91 214.405C238.729 215.798 240.188 217.027 241.477 217.043C243.018 217.043 243.935 215.874 244.116 214.476C244.405 212.225 245.268 210.106 245.52 207.833C245.673 206.435 244.258 205.211 242.952 205.195Z" fill="#D95B43"/>
</svg>
