<svg width="261" height="301" viewBox="0 0 261 301" fill="none" xmlns="http://www.w3.org/2000/svg">
<path d="M232.584 12.0487C218.129 5.22101 202.801 3.14413 191.062 2.10569C188.242 1.85646 185.226 1.58647 181.897 1.51897C181.197 1.41513 180.48 1.31128 179.722 1.21263C173.848 0.441197 167.93 0.0561483 162.006 0.0599646C153.746 0.07399 145.501 0.780874 137.359 2.17319C110.318 6.76309 101.257 24.0323 101.792 38.6588C102.021 44.8323 104.227 55.035 114.83 63.6436C114.861 64.7911 114.903 65.9074 114.939 66.9978C115.017 69.2356 115.089 71.3436 115.089 73.2544V95.6172V103.052V119.148V130.784C115.017 132.518 114.996 134.148 114.975 135.732C114.975 137.523 114.918 140.01 114.752 141.579C102.291 149.367 89.0921 156.921 76.3297 164.222C69.2476 168.277 61.9214 172.467 54.7302 176.683L53.51 177.399C45.0987 182.337 35.5658 187.929 27.0298 195.053L26.9519 195.12C26.4466 195.546 25.9464 195.975 25.4514 196.408L25.3683 196.481C24.8491 196.948 24.3299 197.395 23.8418 197.852L23.7016 197.981C23.1824 198.449 22.7203 198.895 22.253 199.342L22.0349 199.549C21.578 199.989 21.128 200.434 20.6849 200.884L20.4098 201.164L20.3734 201.201C19.9632 201.621 19.5375 202.068 19.1117 202.519L18.8625 202.789L18.8002 202.857L18.7638 202.898C18.3692 203.328 17.9798 203.759 17.5956 204.191L17.2633 204.57L17.1958 204.648C16.8116 205.089 16.4377 205.526 16.0743 205.967L15.6849 206.445L15.6174 206.528C15.2851 206.933 14.9424 207.364 14.6049 207.795L14.1739 208.355L14.1012 208.449C13.7949 208.854 13.4782 209.274 13.1666 209.7L12.7097 210.344L12.6319 210.453C12.3463 210.853 12.0607 211.268 11.7751 211.684C11.6194 211.917 11.4584 212.161 11.2975 212.405L11.2196 212.53L11.1417 212.649C10.9029 213.013 10.6692 213.376 10.4356 213.75C10.2746 214.004 10.1084 214.269 9.9423 214.56L9.85922 214.7L9.76057 214.861C9.55288 215.204 9.34519 215.552 9.14789 215.9C8.95059 216.248 8.80521 216.507 8.62867 216.824L8.54559 216.98L8.45733 217.135C8.2756 217.462 8.09907 217.79 7.93811 218.117C7.77715 218.444 7.57465 218.828 7.38774 219.202L7.30466 219.368L7.24235 219.487C7.08659 219.794 6.93601 220.1 6.78544 220.412C6.58294 220.843 6.37526 221.294 6.17276 221.751L6.10526 221.902V221.943C5.98065 222.213 5.86123 222.463 5.74181 222.764C5.38874 223.589 5.05644 224.41 4.7501 225.22C-6.0289 253.569 6.46872 283.372 33.8264 294.509C34.7402 294.883 35.7164 295.252 36.8223 295.647L37.6219 295.922L37.7309 295.958C38.4578 296.207 39.2159 296.451 39.9584 296.68L40.057 296.711L40.9293 297.023C42.8608 297.588 44.9065 298.092 46.9627 298.507L47.6844 298.648H47.7986C48.5567 298.793 49.3563 298.933 50.1507 299.063H50.2753L50.862 299.157C52.9389 299.463 54.9794 299.676 57.0459 299.847L57.5651 299.883H57.6845C58.5724 299.941 59.4291 299.987 60.2806 300.018H60.3897H60.8102C61.7241 300.046 62.6327 300.06 63.5361 300.06C64.6784 300.06 65.8415 300.06 67.0045 299.998H67.3991H67.4095C68.313 299.961 69.2476 299.909 70.1614 299.842H70.1354H70.4106C72.4512 299.691 74.528 299.478 76.6101 299.198L76.8386 299.167C77.7991 299.037 78.8064 298.887 79.7825 298.726H79.8345C81.7919 298.404 83.7961 298.019 85.7899 297.588H85.9093C93.6085 295.872 101.146 293.498 108.438 290.491C127.078 282.869 143.885 272.583 160.132 262.629C163.351 260.656 166.679 258.621 169.929 256.664L179.976 250.62L184.743 247.754L184.821 247.707C189.989 244.592 195.151 241.476 200.309 238.361C210.901 231.938 222.521 223.257 228.42 207.545C232.573 196.46 233.877 184.793 235.014 174.502C235.341 171.537 235.652 168.734 236.011 166.075C237.864 152.435 239.52 138.967 240.938 126.054C242.854 108.759 244.463 91.048 245.767 73.2388C251.354 69.8337 255.717 64.7434 258.228 58.7006C264.012 44.744 260.31 25.159 232.584 12.0487Z" fill="white"/>
<path d="M228.295 21.1091C215.351 14.9875 201.763 13.1183 190.179 12.0955C187.339 11.8462 184.307 11.5763 181.01 11.5243C180.184 11.3945 179.327 11.2699 178.414 11.1505C172.977 10.4374 167.5 10.0819 162.017 10.0861C154.323 10.1013 146.645 10.7613 139.062 12.0591C121.523 15.0343 111.346 24.8423 111.839 38.2901C112.016 43.1656 114.072 51.6393 124.82 58.4255C124.82 61.2085 124.903 63.9551 124.996 66.6447C125.079 68.9708 125.152 71.1619 125.152 73.244V103.042V120.986V131.007C125.079 132.674 125.059 134.299 125.038 135.872C124.924 144.699 124.461 147.352 121.403 149.268C108.36 157.472 94.6219 165.333 81.335 172.934C74.2736 176.974 66.9786 181.148 59.8393 185.344L58.614 186.065C50.1507 191.034 41.3966 196.169 33.5201 202.779L33.463 202.826C32.9991 203.217 32.5405 203.611 32.087 204.009L32.0247 204.067C31.5574 204.477 31.1057 204.882 30.6644 205.287L30.5294 205.411C30.0932 205.816 29.6727 206.211 29.2521 206.611L29.06 206.798C28.655 207.189 28.2569 207.583 27.8658 207.982L27.6373 208.215L27.601 208.252C27.2323 208.625 26.8585 209.015 26.495 209.409L26.2822 209.643L26.2095 209.726C25.846 210.121 25.5033 210.5 25.171 210.879L24.9062 211.18L24.818 211.279C24.4857 211.658 24.1637 212.037 23.8522 212.416L23.5355 212.805L23.4628 212.899C23.172 213.257 22.8761 213.625 22.5853 213.994L22.2374 214.467L22.1544 214.581C21.8896 214.934 21.6351 215.292 21.3496 215.661L20.9913 216.18L20.8978 216.315C20.6486 216.668 20.3786 217.021 20.1606 217.353L19.7815 217.925L19.6829 218.08L19.5998 218.205C19.4025 218.506 19.2052 218.812 19.0131 219.119C18.8833 219.321 18.7535 219.539 18.6237 219.757L18.5198 219.929L18.416 220.1C18.2498 220.375 18.0837 220.656 17.8968 220.936C17.7098 221.216 17.6216 221.424 17.4866 221.679L17.3879 221.86L17.2841 222.047C17.1439 222.307 16.9985 222.566 16.8635 222.821C16.7285 223.075 16.5676 223.397 16.4222 223.693L16.3287 223.88L16.2353 224.062C16.1158 224.295 16.0016 224.524 15.8874 224.763C15.716 225.126 15.5499 225.5 15.3682 225.874L15.3007 226.03L15.2384 226.17C15.1501 226.367 15.0618 226.564 14.9736 226.762C14.6776 227.457 14.3972 228.153 14.1376 228.839C9.9475 239.862 9.88 251.575 13.9507 261.819C18.1771 272.448 26.5833 280.781 37.6219 285.283C38.4059 285.605 39.2211 285.911 40.218 286.259L40.893 286.493L40.9968 286.529C41.6251 286.742 42.2741 286.955 42.9231 287.152L43.0478 287.188L43.6916 287.381C45.3791 287.874 47.1496 288.31 48.9357 288.673L49.5276 288.788H49.6574C50.3324 288.917 51.023 289.037 51.7343 289.151L51.9005 289.177L52.3781 289.255C54.1539 289.52 55.9711 289.722 57.7884 289.857L58.1934 289.883H58.344C59.1124 289.935 59.8653 289.971 60.6182 290.003H60.7584H61.0907C61.8902 290.003 62.7002 290.039 63.4998 290.039C64.5383 290.039 65.5767 290.039 66.6151 289.982H66.9474H67.0201C67.8353 289.946 68.6765 289.899 69.4968 289.842H69.5539H69.7305C71.5633 289.707 73.4377 289.515 75.3173 289.26H75.5042C76.4024 289.141 77.3163 289.001 78.2041 288.855H78.2561C80.0474 288.559 81.8906 288.211 83.7234 287.817H83.8065C90.9434 286.225 97.9301 284.022 104.69 281.233C122.582 273.917 139.036 263.844 154.945 254.104C158.18 252.126 161.523 250.075 164.81 248.102L174.888 241.985L179.613 239.145H179.654C184.822 236.03 189.987 232.914 195.148 229.799C204.728 223.989 214.26 216.845 219.074 204.03C222.796 194.118 223.959 183.589 225.086 173.396C225.424 170.369 225.74 167.503 226.125 164.72C227.968 151.163 229.614 137.788 231.016 124.958C233.093 106.002 234.827 86.536 236.208 66.9251C242.439 64.3601 246.753 60.3258 249.007 54.8844C252.33 46.8624 250.237 38.2226 243.264 31.1768C238.617 26.509 232.563 23.1289 228.295 21.1091Z" fill="black"/>
<path d="M225.055 37.9006C209.022 30.4862 191.628 26.5297 173.922 26.997C159.748 27.376 140.391 29.4893 136.154 45.8654C133.927 54.4793 135.116 64.4327 135.147 73.2283C135.147 83.1593 135.147 93.0919 135.147 103.026C135.147 112.424 135.147 121.822 135.147 131.22C134.68 141.225 136.341 151.698 126.725 157.747C106.548 170.442 85.4576 181.901 64.9017 193.978C48.5775 203.568 30.6073 213.708 23.5147 232.4C16.7649 250.09 23.6341 268.746 41.4174 276.015C60.3378 283.73 82.5863 279.395 100.837 271.929C121.569 263.45 140.453 251.009 159.571 239.488C169.68 233.397 179.821 227.333 189.899 221.211C198.59 215.941 205.953 210.308 209.629 200.494C213.949 188.994 214.479 175.463 216.124 163.375C217.911 150.222 219.531 137.054 220.984 123.873C223.951 96.7836 226.151 69.6267 227.584 42.4023C227.713 40.7148 226.608 38.6171 225.055 37.9006Z" fill="#AD1C3B"/>
<path d="M224.011 30.1748C213.108 25.0241 201.207 23.1342 189.302 22.0853C186.737 21.8569 183.517 21.5661 180.122 21.5661C179.083 21.3948 178.081 21.2494 177.095 21.1196C164.996 19.5837 152.736 19.8707 140.723 21.9711C132.265 23.3938 121.455 27.4437 121.839 37.9319C122.187 47.4648 133.688 52.5843 141.476 54.8325C152.494 58.0102 164.545 58.3113 175.911 59.0797C188.44 59.9261 201.114 60.7101 213.674 60.3986C221.618 60.2013 236.062 59.8015 239.702 51.0526C243.757 41.229 231.249 33.6016 224.011 30.1748Z" fill="#FFF1E9"/>
<path d="M217.028 156.833C190.729 154.71 168.133 178.64 168.18 205.64C168.18 213.698 170.049 223.08 174.41 230.521C179.582 227.406 184.75 224.29 189.914 221.175C198.606 215.905 205.968 210.271 209.645 200.458C213.964 188.957 214.494 175.426 216.14 163.339C216.462 161.189 216.742 159.019 217.028 156.833Z" fill="#FFF1E9"/>
<path d="M81.6413 277.978C79.4139 274.011 76.8386 270.293 74.9538 267.183C63.3752 248.086 50.4985 230.059 39.9895 210.463C32.923 216.393 26.9727 223.402 23.5562 232.395C16.8064 250.085 23.6756 268.741 41.4589 276.01C54.0915 281.145 68.2143 280.927 81.6413 277.978Z" fill="#FFF1E9"/>
<path d="M146.383 69.5316L145.256 76.5151C144.929 78.5453 148.039 79.4228 148.371 77.3719L149.498 70.3883C149.82 68.3582 146.71 67.4859 146.383 69.5316Z" fill="#C02942"/>
<path d="M157.894 76.567L156.336 84.1113C155.921 86.1363 159.031 87.0034 159.452 84.968L161.009 77.4237C161.419 75.3988 158.309 74.5317 157.894 76.567Z" fill="#C02942"/>
<path d="M174.649 71.219C173.927 72.0965 173.964 73.3686 173.818 74.4434L173.201 79.1164C173.086 79.9886 174.026 80.7207 174.815 80.7311C175.781 80.7311 176.316 79.9783 176.43 79.1164L177.079 74.2045L177.11 73.9605C177.323 73.8179 177.512 73.6427 177.671 73.4413C179.109 71.5202 176.155 69.3966 174.649 71.219Z" fill="#C02942"/>
<path d="M189.26 69.9625L188.741 76.4164C188.58 78.4932 191.809 78.4932 191.965 76.4164L192.484 69.9625C192.645 67.8908 189.426 67.9012 189.26 69.9625Z" fill="#C02942"/>
<path d="M207.687 68.3581V73.1972C207.687 75.2741 210.912 75.2741 210.912 73.1972V68.3581C210.917 66.2812 207.687 66.276 207.687 68.3581Z" fill="#C02942"/>
<path d="M147.333 93.1665C146.839 95.7982 146.717 98.4863 146.97 101.152C147.172 103.198 150.402 103.229 150.194 101.152C149.944 98.7758 150.028 96.3762 150.443 94.0232C150.812 91.9982 147.702 91.1259 147.333 93.1665Z" fill="#C02942"/>
<path d="M159.831 97.3981V102.237C159.831 104.314 163.055 104.314 163.055 102.237V97.3981C163.055 95.3212 159.831 95.316 159.831 97.3981Z" fill="#C02942"/>
<path d="M173.85 89.9733C172.499 93.5229 172.273 97.4019 173.201 101.085C173.689 103.099 176.804 102.248 176.316 100.228C175.551 97.1039 175.778 93.8192 176.965 90.83C177.713 88.8933 174.597 88.0521 173.85 89.9733Z" fill="#C02942"/>
<path d="M192.173 95.3212C191.62 92.9608 191.522 90.5169 191.882 88.1196C192.194 86.0895 189.089 85.212 188.767 87.2629C188.292 90.2258 188.391 93.2522 189.058 96.1779C189.525 98.2028 192.635 97.3461 192.173 95.3212Z" fill="#C02942"/>
<path d="M208.762 86.105V92.0189C208.762 94.0958 211.986 94.0958 211.986 92.0189V86.105C211.992 84.0281 208.762 84.0229 208.762 86.105Z" fill="#C02942"/>
<path d="M153.382 114.605C153.309 112.528 150.08 112.528 150.158 114.605C150.265 117.337 150.072 120.072 149.581 122.762C149.207 124.792 152.312 125.664 152.697 123.619C153.255 120.648 153.485 117.626 153.382 114.605Z" fill="#C02942"/>
<path d="M160.708 118.157C159.756 120.061 159.255 122.159 159.244 124.289C159.244 126.365 162.463 126.365 162.468 124.289C162.465 122.728 162.82 121.188 163.507 119.787C164.405 117.928 161.622 116.287 160.708 118.157Z" fill="#C02942"/>
<path d="M174.421 111.49C173.461 115.499 173.078 119.626 173.284 123.743C173.387 125.82 176.617 125.82 176.508 123.743C176.306 119.906 176.656 116.059 177.546 112.32C178.003 110.332 174.888 109.47 174.421 111.49Z" fill="#C02942"/>
<path d="M195.89 106.105C195.339 108.903 195.15 111.76 195.33 114.605C195.465 116.682 198.694 116.682 198.554 114.605C198.372 112.049 198.52 109.48 198.995 106.962C199.395 104.911 196.285 104.065 195.89 106.105Z" fill="#C02942"/>
<path d="M212.095 104.392L211.576 109.771C211.379 111.848 214.603 111.848 214.8 109.771L215.32 104.392C215.522 102.315 212.272 102.346 212.095 104.392Z" fill="#C02942"/>
<path d="M214.286 124.839L213.087 135.026C212.843 137.103 216.073 137.066 216.311 135.026L217.511 124.823C217.755 122.783 214.525 122.798 214.286 124.839Z" fill="#C02942"/>
<path d="M195.896 142.124C195.472 139.244 195.269 136.337 195.288 133.427C195.288 131.35 192.069 131.35 192.064 133.427C192.06 136.625 192.302 139.819 192.786 142.98C193.092 145.031 196.202 144.159 195.896 142.124Z" fill="#C02942"/>
<path d="M172.235 140.415C172.274 143.566 171.695 146.693 170.532 149.621C169.774 151.558 172.894 152.394 173.647 150.478C174.9 147.272 175.517 143.852 175.464 140.41C175.438 138.344 172.209 138.339 172.235 140.415Z" fill="#C02942"/>
<path d="M155.511 144.185C155.402 142.108 152.172 142.108 152.286 144.185C152.48 147.66 152.154 151.144 151.321 154.523C150.801 156.537 153.917 157.399 154.436 155.379C155.346 151.722 155.708 147.949 155.511 144.185V144.185Z" fill="#C02942"/>
<path d="M145.76 150.748C145.643 150.337 145.37 149.989 144.999 149.778C144.628 149.567 144.189 149.511 143.776 149.621C143.369 149.742 143.024 150.016 142.814 150.386C142.604 150.756 142.545 151.192 142.65 151.605C142.766 152.285 142.652 152.984 142.328 153.593C142.123 153.964 142.069 154.399 142.176 154.809C142.283 155.219 142.544 155.572 142.904 155.795C143.274 156.006 143.713 156.064 144.125 155.957C144.537 155.849 144.891 155.584 145.111 155.218C145.834 153.847 146.063 152.268 145.76 150.748V150.748Z" fill="#C02942"/>
<path d="M67.5601 205.089C67.1707 204.404 66.044 203.983 65.3535 204.513L59.5382 208.947C59.1797 209.173 58.9206 209.527 58.8135 209.937C58.7064 210.346 58.7595 210.782 58.9619 211.154C59.3513 211.839 60.478 212.26 61.1685 211.73L66.9838 207.296C67.3423 207.07 67.6015 206.717 67.7085 206.307C67.8156 205.897 67.7625 205.462 67.5601 205.089V205.089Z" fill="#C02942"/>
<path d="M68.7439 214.986C66.6626 216.062 64.6556 217.276 62.7365 218.62C61.0491 219.804 62.6587 222.603 64.3669 221.409C66.2793 220.065 68.2792 218.851 70.3535 217.774C72.2175 216.824 70.5871 214.041 68.7439 214.986Z" fill="#C02942"/>
<path d="M71.8748 233.091L64.4188 236.995C62.5808 237.961 64.2059 240.744 66.0492 239.784L73.5052 235.879C75.3432 234.913 73.7129 232.12 71.8748 233.091Z" fill="#C02942"/>
<path d="M86.2676 245.345C82.9174 246.552 79.9716 248.673 77.7627 251.466C76.501 253.086 78.7648 255.381 80.0421 253.746C81.8677 251.355 84.3266 249.524 87.1399 248.46C89.0506 247.738 88.2198 244.618 86.2676 245.345Z" fill="#C02942"/>
<path d="M93.5937 258.631L86.7037 264.665C85.146 266.035 87.4306 268.299 88.9831 266.944L95.8731 260.911C97.436 259.54 95.1462 257.266 93.5937 258.631Z" fill="#C02942"/>
<path d="M78.0276 195.775L70.9091 201.486C69.2943 202.794 71.5893 205.063 73.1885 203.765L80.307 198.007C81.9477 196.725 79.6268 194.456 78.0276 195.775Z" fill="#C02942"/>
<path d="M80.9872 206.678L76.174 209.409C74.3671 210.448 75.9923 213.226 77.8043 212.198L82.6175 209.467C84.4244 208.459 82.7992 205.671 80.9872 206.678Z" fill="#C02942"/>
<path d="M89.113 220.785C86.6229 221.91 84.349 223.461 82.3942 225.37C80.9041 226.819 83.1887 229.103 84.6736 227.649C86.4401 225.938 88.4948 224.551 90.7433 223.553C92.6333 222.717 90.9925 219.939 89.113 220.785Z" fill="#C02942"/>
<path d="M105.505 229.005C105.197 228.713 104.789 228.55 104.365 228.55C103.941 228.55 103.533 228.713 103.225 229.005L98.3862 232.769C97.6956 233.288 97.8255 234.488 98.3862 235.048C98.6939 235.34 99.1018 235.503 99.5259 235.503C99.95 235.503 100.358 235.34 100.666 235.048L105.505 231.284C106.19 230.734 106.065 229.524 105.505 229.005Z" fill="#C02942"/>
<path d="M109.601 243.938C109.382 243.572 109.028 243.307 108.616 243.199C108.203 243.092 107.765 243.15 107.395 243.361L104.17 245.511C103.809 245.734 103.547 246.088 103.44 246.499C103.333 246.91 103.388 247.346 103.594 247.717C103.813 248.083 104.167 248.348 104.58 248.456C104.992 248.563 105.43 248.505 105.801 248.294L109.025 246.144C109.386 245.921 109.648 245.567 109.755 245.156C109.863 244.745 109.808 244.309 109.601 243.938Z" fill="#C02942"/>
<path d="M117.255 246.83L110.266 253.818C108.797 255.288 111.076 257.572 112.545 256.098L119.534 249.109C121.029 247.64 118.75 245.36 117.255 246.83Z" fill="#C02942"/>
<path d="M95.5772 186.387L89.736 189.207C87.8668 190.105 89.5023 192.888 91.3663 191.995L97.2179 189.175C99.0819 188.277 97.4412 185.494 95.5772 186.387Z" fill="#C02942"/>
<path d="M101.013 195.603C99.0015 197.015 96.725 198.006 94.3207 198.516C92.2906 198.952 93.1525 202.062 95.1774 201.631C97.858 201.051 100.396 199.942 102.644 198.371C104.336 197.208 102.717 194.414 101.013 195.603Z" fill="#C02942"/>
<path d="M108.662 205.946C106.973 207.813 104.825 209.204 102.431 209.98C100.463 210.614 101.304 213.734 103.288 213.096C106.22 212.17 108.86 210.495 110.946 208.236C112.348 206.678 110.074 204.414 108.662 205.946Z" fill="#C02942"/>
<path d="M114.882 216.398L109.555 219.181C107.711 220.142 109.342 222.93 111.185 221.969L116.512 219.186C118.35 218.221 116.735 215.432 114.882 216.398Z" fill="#C02942"/>
<path d="M129.197 229.186C127.976 230.482 126.592 231.613 125.079 232.551C123.319 233.641 124.934 236.435 126.71 235.339C128.458 234.26 130.06 232.96 131.476 231.471C132.93 229.96 130.656 227.676 129.197 229.186Z" fill="#C02942"/>
<path d="M139.062 237.899L131.113 242.411C129.306 243.449 130.931 246.222 132.743 245.199L140.692 240.687C142.509 239.659 140.884 236.871 139.062 237.899Z" fill="#C02942"/>
<path d="M122.052 173.085C120.1 174.757 117.791 175.961 115.302 176.605C113.298 177.124 114.15 180.24 116.159 179.72C119.171 178.91 121.959 177.423 124.311 175.374C125.91 174.009 123.62 171.735 122.052 173.085Z" fill="#C02942"/>
<path d="M132.281 185.478L126.907 191.932C125.588 193.516 127.857 195.811 129.186 194.212L134.56 187.758C135.884 186.174 133.61 183.879 132.281 185.478Z" fill="#C02942"/>
<path d="M137.951 201.263L133.35 204.295C131.621 205.432 133.236 208.225 134.981 207.083L139.597 204.051C141.305 202.914 139.69 200.12 137.951 201.263Z" fill="#C02942"/>
<path d="M148.133 215.915L145.412 220.178C144.296 221.933 147.084 223.558 148.2 221.808L150.921 217.525C152.042 215.785 149.249 214.165 148.133 215.915Z" fill="#C02942"/>
<path d="M162.785 222.894C162.385 222.213 161.274 221.782 160.578 222.317L155.708 226.045C155.35 226.271 155.09 226.625 154.983 227.035C154.876 227.444 154.929 227.88 155.132 228.252C155.532 228.932 156.643 229.363 157.338 228.828L162.209 225.1C162.567 224.875 162.826 224.521 162.933 224.111C163.04 223.701 162.987 223.266 162.785 222.894V222.894Z" fill="#C02942"/>
<path d="M163.045 196.979C162.638 198.941 161.707 200.755 160.35 202.229C158.938 203.75 161.217 206.034 162.629 204.508C164.38 202.645 165.6 200.346 166.16 197.852C166.58 195.811 163.496 194.949 163.045 196.979Z" fill="#C02942"/>
<path d="M152.603 179.461C151.394 181.174 150.553 183.118 150.132 185.172C149.711 187.197 152.821 188.064 153.247 186.029C153.608 184.257 154.339 182.582 155.391 181.112C156.591 179.388 153.797 177.778 152.603 179.461Z" fill="#C02942"/>
<path d="M145.843 177.529C145.092 178.211 144.49 179.04 144.074 179.964C143.657 180.889 143.436 181.889 143.423 182.903C143.377 184.98 146.606 184.98 146.648 182.903C146.656 182.309 146.792 181.723 147.047 181.185C147.301 180.648 147.668 180.171 148.122 179.788C149.67 178.422 147.369 176.148 145.843 177.529Z" fill="#C02942"/>
<path d="M140.536 165.203L136.097 170.463C134.768 172.02 137.037 174.336 138.376 172.742L142.816 167.482C144.15 165.904 141.876 163.614 140.536 165.203Z" fill="#C02942"/>
<path d="M166.025 166.532L162.162 172.384C161.014 174.123 163.808 175.738 164.95 174.014L168.813 168.163C169.961 166.423 167.167 164.803 166.025 166.532Z" fill="#C02942"/>
<path d="M189.109 155.14C188.74 154.928 188.301 154.869 187.888 154.977C187.475 155.084 187.121 155.35 186.903 155.717L184.665 160.514C184.461 160.886 184.408 161.322 184.515 161.732C184.622 162.143 184.882 162.496 185.241 162.721C185.611 162.934 186.05 162.993 186.463 162.885C186.876 162.777 187.229 162.511 187.448 162.145L189.686 157.352C189.891 156.98 189.946 156.543 189.838 156.132C189.731 155.72 189.47 155.365 189.109 155.14Z" fill="#C02942"/>
<path d="M208.757 145.353C208.345 145.248 207.908 145.307 207.538 145.517C207.168 145.727 206.894 146.072 206.773 146.48L205.636 149.684C205.527 150.096 205.584 150.534 205.795 150.905C206.006 151.276 206.353 151.549 206.763 151.667C207.175 151.772 207.612 151.713 207.981 151.503C208.351 151.293 208.625 150.948 208.746 150.54L209.883 147.337C209.992 146.924 209.935 146.486 209.725 146.115C209.514 145.744 209.167 145.471 208.757 145.353V145.353Z" fill="#C02942"/>
</svg>
