<svg width="240" height="271" viewBox="0 0 240 271" fill="none" xmlns="http://www.w3.org/2000/svg">
<path d="M169.785 270.987C187.008 270.987 203.449 265.524 216.073 255.626C229.873 244.787 237.674 229.936 238.072 213.817L239.992 133.261C240.222 123.661 235.523 110.59 211.815 78.1509C199.7 61.5761 183.711 41.4491 164.294 18.3413C154.502 6.68658 139.333 0 122.667 0C107.158 0 92.7337 5.97136 83.095 16.3828C62.5841 38.5306 45.654 57.8608 32.7465 73.8356C7.50737 105.094 2.18402 117.906 1.94881 127.525L0.0143614 208.062C-0.374449 224.257 7.14736 240.074 20.6549 251.464C33.2217 262.058 49.8349 268.126 67.437 268.548L167.803 270.948C168.475 270.977 169.133 270.987 169.785 270.987Z" fill="white"/>
<path d="M168.019 261.909C168.605 261.909 169.185 261.909 169.766 261.909C184.968 261.909 199.421 257.109 210.462 248.469C222.097 239.349 228.702 226.931 229.005 213.563L230.925 133.007C231.078 126.603 228.045 115.726 204.49 83.4598C192.49 67.0482 176.65 47.0844 157.343 24.1302C149.394 14.6692 136.424 9.01941 122.653 9.01941C109.659 9.01941 97.6586 13.9347 89.724 22.503C69.3522 44.502 52.547 63.6737 39.7786 79.4949C14.6835 110.576 11.1458 121.309 10.9778 127.712L9.05778 208.268C8.39536 235.715 34.6809 258.669 67.6482 259.481L168.019 261.909Z" fill="black"/>
<path d="M168.254 252.857L67.8882 250.456C39.985 249.784 17.5972 230.91 18.1349 208.513L20.0549 127.957C20.4101 113.168 65.6561 61.8449 96.377 28.6856C109.937 14.0404 137.61 14.698 150.446 29.9721C179.539 64.5714 222.26 118.011 221.905 132.8L219.985 213.356C219.428 235.754 196.157 253.529 168.254 252.857Z" fill="#F59439"/>
<path d="M156.321 235.662L80.6566 233.838C59.6128 233.33 42.7355 218.171 43.1868 200.146L44.7468 135.316C45.0348 123.416 79.2309 82.0342 102.425 55.3311C112.664 43.5324 133.52 44.0364 143.178 56.2911C165.062 84.1031 197.228 127.055 196.94 138.959L195.38 203.814C194.933 221.838 177.36 236.171 156.321 235.662Z" fill="#D95B43"/>
<path d="M148.818 132.484L93.0697 131.164C89.9031 131.099 86.8393 132.289 84.5464 134.474C82.2535 136.659 80.9174 139.662 80.8294 142.828L79.4853 198.596C79.4208 201.762 80.6107 204.826 82.7957 207.119C84.9807 209.412 87.9836 210.748 91.1497 210.836L146.918 212.18C150.084 212.245 153.148 211.055 155.441 208.87C157.734 206.685 159.07 203.682 159.158 200.516L160.502 144.748C160.573 141.574 159.383 138.501 157.193 136.203C155.004 133.904 151.992 132.567 148.818 132.484V132.484ZM116.782 194.818C116.745 196.225 116.151 197.561 115.132 198.532C114.113 199.503 112.751 200.032 111.344 200.002L95.4122 199.618C94.0049 199.581 92.6697 198.987 91.6983 197.968C90.727 196.949 90.1984 195.587 90.228 194.18L90.612 178.248C90.6498 176.841 91.243 175.506 92.262 174.534C93.281 173.563 94.6431 173.034 96.0506 173.064L111.982 173.448C113.39 173.486 114.725 174.079 115.696 175.098C116.667 176.117 117.196 177.479 117.166 178.887L116.782 194.818ZM117.517 164.285C117.479 165.692 116.886 167.027 115.867 167.998C114.848 168.97 113.486 169.498 112.078 169.469L96.1466 169.085C94.7393 169.047 93.4041 168.454 92.4327 167.435C91.4614 166.416 90.9328 165.054 90.9625 163.646L91.3465 147.714C91.3842 146.307 91.9774 144.972 92.9964 144.001C94.0155 143.029 95.3775 142.501 96.785 142.53L112.717 142.914C114.124 142.952 115.459 143.545 116.431 144.564C117.402 145.583 117.93 146.945 117.901 148.353L117.517 164.285ZM148.65 195.591C148.61 196.997 148.016 198.329 146.997 199.299C145.978 200.268 144.618 200.795 143.212 200.766L127.28 200.382C125.873 200.344 124.538 199.751 123.566 198.732C122.595 197.713 122.066 196.35 122.096 194.943L122.48 179.011C122.518 177.604 123.111 176.269 124.13 175.297C125.149 174.326 126.511 173.798 127.919 173.827L143.85 174.211C145.257 174.249 146.591 174.841 147.562 175.859C148.534 176.877 149.063 178.238 149.034 179.645L148.65 195.591ZM149.385 165.053C149.347 166.46 148.754 167.795 147.735 168.766C146.716 169.738 145.354 170.266 143.946 170.237L128.015 169.853C126.607 169.815 125.272 169.222 124.301 168.203C123.329 167.184 122.801 165.822 122.831 164.414L123.215 148.482C123.25 147.073 123.843 145.734 124.863 144.761C125.883 143.787 127.248 143.258 128.658 143.289L144.59 143.673C145.998 143.709 147.334 144.302 148.306 145.321C149.279 146.34 149.808 147.703 149.778 149.111L149.385 165.053Z" fill="#F59439"/>
<path d="M71.8915 146.346C68.9216 144.549 65.6119 143.385 62.1704 142.928C58.729 142.471 55.2302 142.731 51.8942 143.692C49.4365 144.388 50.3821 148.262 52.8542 147.561C55.6729 146.723 58.6356 146.485 61.552 146.86C64.4684 147.235 67.2741 148.216 69.789 149.74C72.0163 151.05 74.0948 147.657 71.8915 146.346Z" fill="#B0454F"/>
<path d="M71.7811 155.519C65.1356 153.68 58.271 152.753 51.3757 152.764C48.8173 152.764 48.7117 156.753 51.2797 156.748C57.8146 156.722 64.3225 157.586 70.6243 159.316C73.1011 160.017 74.2532 156.201 71.7811 155.519Z" fill="#B0454F"/>
<path d="M72.4627 175.017C65.5519 171.747 57.8904 170.389 50.2765 171.086C47.7517 171.321 47.6269 175.305 50.1805 175.07C57.0895 174.37 64.0602 175.53 70.3699 178.43C72.6691 179.472 74.786 176.093 72.4627 175.017Z" fill="#B0454F"/>
<path d="M66.9282 191.28L51.6878 187.176C49.2109 186.509 48.0589 190.325 50.5357 190.992L65.7761 195.097C68.253 195.764 69.4098 191.948 66.9282 191.28Z" fill="#B0454F"/>
<path d="M192.408 145.502L169.848 142.141C167.318 141.767 167.246 145.751 169.752 146.126L192.312 149.486C194.847 149.884 194.9 145.876 192.408 145.502Z" fill="#B0454F"/>
<path d="M191.41 157.809L170.193 156.427C167.63 156.259 167.544 160.267 170.097 160.411L191.314 161.793C193.872 161.961 193.964 157.977 191.41 157.809Z" fill="#B0454F"/>
<path d="M192.98 173.299L170.376 168.83C167.88 168.35 166.709 172.147 169.224 172.646L191.828 177.115C194.328 177.605 195.5 173.794 192.98 173.299Z" fill="#B0454F"/>
<path d="M185.429 189.389C179.466 190.472 173.38 190.706 167.352 190.085C164.798 189.831 164.716 193.815 167.256 194.069C173.643 194.701 180.088 194.428 186.399 193.258C188.919 192.797 187.949 188.928 185.429 189.389Z" fill="#B0454F"/>
<path d="M179.611 206.089L167.03 204.937C164.476 204.702 164.39 208.686 166.934 208.921L179.515 210.073C182.069 210.303 182.155 206.319 179.611 206.089Z" fill="#B0454F"/>
<path d="M177.922 218.934C158.08 220.538 138.135 220.39 118.318 218.492C99.9867 216.702 81.175 210.673 62.6993 212.732C60.16 213.011 61.1489 216.88 63.6593 216.601C73.8548 215.473 83.7719 217.499 93.7801 219.198C102.723 220.72 111.709 221.92 120.742 222.731C139.727 224.403 158.82 224.472 177.816 222.937C180.36 222.717 180.499 218.732 177.922 218.934Z" fill="#B0454F"/>
<path d="M157.142 228.635C143.254 229.641 129.301 229.288 115.482 227.579C101.561 225.817 87.7416 221.267 73.5956 222.779C71.0803 223.048 70.9555 227.037 73.4996 226.763C87.6312 225.241 101.46 229.792 115.386 231.563C129.205 233.272 143.158 233.626 157.046 232.619C159.58 232.446 159.7 228.457 157.142 228.635Z" fill="#B0454F"/>
<path d="M186.927 124.405C143.697 125.01 100.485 122.339 57.6591 116.413C55.1247 116.062 55.0479 120.047 57.5631 120.397C100.389 126.323 143.601 128.994 186.831 128.389C189.389 128.351 189.495 124.367 186.927 124.405Z" fill="#B0454F"/>
<path d="M174.633 105.396C157.123 105.944 139.535 106.491 122.072 104.691C105.545 102.992 88.8071 96.2186 72.1267 99.5451C69.6114 100.025 70.5762 103.913 73.0867 103.414C89.9304 100.054 107.619 107.389 124.448 108.92C141.095 110.432 157.843 109.904 174.523 109.4C177.086 109.299 177.202 105.315 174.633 105.396Z" fill="#B0454F"/>
<path d="M155.279 89.7865C135.244 91.6826 115.27 82.3415 95.5321 88.6153C93.1033 89.3881 94.0441 93.2618 96.4922 92.4842C115.798 86.3448 135.541 95.6331 155.179 93.7754C157.703 93.5306 157.828 89.5465 155.279 89.7865Z" fill="#B0454F"/>
<path d="M142.353 70.3123C129.825 68.5385 117.105 68.6307 104.604 70.586C102.075 70.9748 103.049 74.8389 105.564 74.4549C117.717 72.5892 130.079 72.5358 142.247 74.2964C144.791 74.6565 144.863 70.682 142.353 70.3123Z" fill="#B0454F"/>
<path d="M128.763 56.8863C122.353 56.3224 115.903 56.369 109.5 57.0255C106.985 57.2847 106.856 61.2689 109.404 61.0096C115.807 60.3531 122.257 60.3065 128.667 60.8704C131.226 61.0816 131.312 57.1119 128.763 56.8863Z" fill="#B0454F"/>
</svg>
