<svg width="310" height="240" viewBox="0 0 310 240" fill="none" xmlns="http://www.w3.org/2000/svg">
<path d="M308.565 156.855C303.133 180.977 281.604 197.425 257.832 197.425C254.014 197.421 250.209 196.995 246.485 196.156L180.354 181.27C170.888 179.151 162.604 173.463 157.225 165.39L158.862 183.523C160.566 202.345 147.941 219.683 129.478 223.846L63.357 238.713C59.5807 239.566 55.7212 239.998 51.8496 240C39.0698 239.973 26.7483 235.236 17.2405 226.697C7.73258 218.157 1.70521 206.413 0.310486 193.71C-1.08424 181.006 2.25152 168.235 9.68013 157.836C17.1087 147.437 28.1091 140.14 40.5785 137.34L50.1744 135.173L47.1089 101.408C37.986 99.8934 30.6518 92.3794 29.7907 82.802L28.9389 73.3953C27.9168 62.0107 36.3582 51.9228 47.7525 50.9007L140.059 42.6295C143.73 42.3032 147.421 42.9585 150.755 44.5283C154.089 46.098 156.946 48.5259 159.033 51.563L159.232 49.3203C155.13 47.6364 151.675 44.6843 149.371 40.8957C147.067 37.1071 146.036 32.6808 146.428 28.2641L147.28 18.8573C147.776 13.3859 150.424 8.33531 154.642 4.815C158.859 1.29469 164.302 -0.407388 169.774 0.0827061L262.109 8.31593C267.58 8.81413 272.631 11.4621 276.152 15.6791C279.674 19.8961 281.379 25.3377 280.894 30.8102L280.071 40.1885C279.658 44.7829 277.729 49.1094 274.586 52.4865C271.444 55.8635 267.267 58.0991 262.715 58.841L259.658 92.5968L269.263 94.7545C282.709 97.7789 294.403 106.02 301.774 117.666C309.144 129.311 311.587 143.407 308.565 156.854L308.565 156.855Z" fill="white"/>
<path d="M127.047 212.593L60.933 227.451C38.0451 232.609 15.3036 218.219 10.1458 195.302C5.01725 172.415 19.4066 149.673 42.2945 144.544L59.9951 140.559L55.3942 89.7718L140.058 82.1816L149.085 182.349C149.704 189.206 147.81 196.053 143.756 201.617C139.702 207.181 133.764 211.082 127.047 212.593Z" fill="#E02C37"/>
<path d="M153.628 69.6679C153.759 71.1419 153.598 72.6273 153.155 74.0392C152.712 75.4512 151.995 76.762 151.045 77.8968C150.095 79.0317 148.931 79.9683 147.62 80.6532C146.308 81.3381 144.874 81.7579 143.4 81.8886L140.059 82.1816L55.3947 89.7718L51.0867 90.1528C48.1112 90.411 45.1545 89.4797 42.8641 87.5628C40.5737 85.6459 39.1362 82.8996 38.8662 79.9251L38.0157 70.5177C37.8824 69.0433 38.0414 67.557 38.4836 66.1442C38.9258 64.7313 39.6426 63.4196 40.5927 62.2843C41.5429 61.149 42.7078 60.2124 44.0207 59.5282C45.3336 58.8441 46.7686 58.4257 48.2434 58.2972L140.558 50.033C142.033 49.8974 143.52 50.0548 144.934 50.4961C146.347 50.9374 147.66 51.654 148.796 52.6046C149.932 53.5552 150.868 54.721 151.552 56.0349C152.235 57.3489 152.652 58.785 152.779 60.2607L153.628 69.6679Z" fill="#F0B11D"/>
<path d="M124.767 109.612C128.643 109.612 131.785 106.47 131.785 102.594C131.785 98.718 128.643 95.5759 124.767 95.5759C120.891 95.5759 117.749 98.718 117.749 102.594C117.749 106.47 120.891 109.612 124.767 109.612Z" fill="#E1E1E1"/>
<path d="M74.4127 203.496C78.2888 203.496 81.4309 200.354 81.4309 196.478C81.4309 192.602 78.2888 189.46 74.4127 189.46C70.5367 189.46 67.3945 192.602 67.3945 196.478C67.3945 200.354 70.5367 203.496 74.4127 203.496Z" fill="#E1E1E1"/>
<path d="M105.995 140.846C109.871 140.846 113.013 137.704 113.013 133.827C113.013 129.951 109.871 126.809 105.995 126.809C102.119 126.809 98.9768 129.951 98.9768 133.827C98.9768 137.704 102.119 140.846 105.995 140.846Z" fill="#E1E1E1"/>
<path d="M127.05 159.047C130.926 159.047 134.068 155.904 134.068 152.028C134.068 148.152 130.926 145.01 127.05 145.01C123.174 145.01 120.031 148.152 120.031 152.028C120.031 155.904 123.174 159.047 127.05 159.047Z" fill="#E1E1E1"/>
<path d="M40.101 182.441C43.977 182.441 47.1192 179.299 47.1192 175.423C47.1192 171.547 43.977 168.405 40.101 168.405C36.2249 168.405 33.0828 171.547 33.0828 175.423C33.0828 179.299 36.2249 182.441 40.101 182.441Z" fill="#E1E1E1"/>
<path d="M81.4308 118.887C85.3068 118.887 88.449 115.745 88.449 111.869C88.449 107.992 85.3068 104.85 81.4308 104.85C77.5548 104.85 74.4126 107.992 74.4126 111.869C74.4126 115.745 77.5548 118.887 81.4308 118.887Z" fill="#E1E1E1"/>
<path d="M120.031 196.478C123.907 196.478 127.05 193.336 127.05 189.46C127.05 185.584 123.907 182.441 120.031 182.441C116.155 182.441 113.013 185.584 113.013 189.46C113.013 193.336 116.155 196.478 120.031 196.478Z" fill="#E1E1E1"/>
<path d="M81.4308 168.405C85.3068 168.405 88.449 165.262 88.449 161.386C88.449 157.51 85.3068 154.368 81.4308 154.368C77.5548 154.368 74.4126 157.51 74.4126 161.386C74.4126 165.262 77.5548 168.405 81.4308 168.405Z" fill="#E1E1E1"/>
<path d="M298.985 152.75C293.827 175.638 271.115 190.028 248.198 184.899L182.083 170.012C175.369 168.507 169.431 164.612 165.376 159.053C161.321 153.494 159.427 146.65 160.045 139.797L169.071 39.6297L253.736 47.1906L249.135 97.9776L266.835 101.963C289.753 107.121 304.142 129.863 298.985 152.75Z" fill="#E02C37"/>
<path d="M271.115 27.9364L270.295 37.3436C270.163 38.8198 269.741 40.2556 269.054 41.5688C268.367 42.882 267.428 44.0469 266.29 44.9968C265.152 45.9467 263.838 46.663 262.424 47.1048C261.009 47.5466 259.521 47.7052 258.045 47.5715L253.737 47.1905L169.073 39.6296L165.732 39.3363C164.256 39.2045 162.82 38.7829 161.507 38.0958C160.194 37.4086 159.029 36.4693 158.079 35.3316C157.129 34.1938 156.413 32.88 155.971 31.4653C155.529 30.0505 155.371 28.5625 155.504 27.0864L156.355 17.6794C156.625 14.7079 158.064 11.965 160.355 10.0529C162.645 8.14087 165.601 7.21579 168.573 7.48075L260.916 15.7157C263.888 15.9861 266.632 17.4249 268.544 19.7161C270.456 22.0074 271.381 24.9639 271.115 27.9364Z" fill="#F0B11D"/>
<path d="M184.374 67.0482C188.25 67.0482 191.393 63.9061 191.393 60.03C191.393 56.154 188.25 53.0118 184.374 53.0118C180.498 53.0118 177.356 56.154 177.356 60.03C177.356 63.9061 180.498 67.0482 184.374 67.0482Z" fill="#E1E1E1"/>
<path d="M234.729 160.932C238.605 160.932 241.747 157.79 241.747 153.914C241.747 150.038 238.605 146.895 234.729 146.895C230.853 146.895 227.711 150.038 227.711 153.914C227.711 157.79 230.853 160.932 234.729 160.932Z" fill="#E1E1E1"/>
<path d="M203.147 98.2816C207.023 98.2816 210.165 95.1395 210.165 91.2634C210.165 87.3874 207.023 84.2452 203.147 84.2452C199.271 84.2452 196.129 87.3874 196.129 91.2634C196.129 95.1395 199.271 98.2816 203.147 98.2816Z" fill="#E1E1E1"/>
<path d="M182.092 116.482C185.968 116.482 189.11 113.34 189.11 109.464C189.11 105.588 185.968 102.446 182.092 102.446C178.216 102.446 175.074 105.588 175.074 109.464C175.074 113.34 178.216 116.482 182.092 116.482Z" fill="#E1E1E1"/>
<path d="M269.041 139.877C272.917 139.877 276.059 136.735 276.059 132.859C276.059 128.983 272.917 125.841 269.041 125.841C265.165 125.841 262.023 128.983 262.023 132.859C262.023 136.735 265.165 139.877 269.041 139.877Z" fill="#E1E1E1"/>
<path d="M227.711 76.3226C231.587 76.3226 234.729 73.1805 234.729 69.3045C234.729 65.4284 231.587 62.2863 227.711 62.2863C223.835 62.2863 220.693 65.4284 220.693 69.3045C220.693 73.1805 223.835 76.3226 227.711 76.3226Z" fill="#E1E1E1"/>
<path d="M189.11 153.914C192.987 153.914 196.129 150.772 196.129 146.895C196.129 143.019 192.987 139.877 189.11 139.877C185.234 139.877 182.092 143.019 182.092 146.895C182.092 150.772 185.234 153.914 189.11 153.914Z" fill="#E1E1E1"/>
<path d="M227.711 125.841C231.587 125.841 234.729 122.698 234.729 118.822C234.729 114.946 231.587 111.804 227.711 111.804C223.835 111.804 220.693 114.946 220.693 118.822C220.693 122.698 223.835 125.841 227.711 125.841Z" fill="#E1E1E1"/>
</svg>
