<svg width="285" height="330" viewBox="0 0 285 330" fill="none" xmlns="http://www.w3.org/2000/svg">
<path d="M284.118 139.574L230.497 318.187C229.469 321.592 227.375 324.578 224.523 326.704C221.671 328.831 218.213 329.986 214.656 330C213.032 329.994 211.418 329.755 209.863 329.29L11.7927 269.814C9.71007 269.188 7.77113 268.158 6.08658 266.783C4.40203 265.408 3.00488 263.715 1.97491 261.8C0.944946 259.884 0.302347 257.785 0.083816 255.622C-0.134715 253.458 0.0751033 251.273 0.701287 249.19L54.3225 70.5772C55.4977 66.6717 58.0717 63.3366 61.552 61.2101C65.0322 59.0835 69.1743 58.3149 73.1858 59.0512C69.1357 52.6781 66.0817 46.0515 64.8726 39.4669C62.5187 26.6687 66.8556 15.2807 77.0985 7.42276C89.6529 -2.22623 104.625 -2.48076 117.126 6.73363C126.256 13.4667 132.798 24.2291 137.135 35.7018C146.402 23.477 155.998 15.5881 165.774 12.1845C176.144 8.56872 186.653 9.71389 196.143 15.4928C210.892 24.4631 217.413 39.1169 213.585 54.6933C210.277 68.1701 199.122 81.5409 183.229 91.9852L273.017 118.95C277.222 120.215 280.754 123.098 282.835 126.965C284.916 130.832 285.378 135.367 284.118 139.574V139.574Z" fill="white"/>
<path d="M130.645 87.8176C137.944 70.2715 154.289 38.0899 170.953 32.2896C173.943 31.2491 176.725 31.1319 179.484 31.9604C180.806 32.3698 182.072 32.9465 183.248 33.6764C190.125 37.8638 192.688 43.0776 191.08 49.6157C187.395 64.6195 162.665 83.0749 133.599 88.7046L152.77 94.4609C177.174 85.606 197.3 69.0999 201.458 52.1651C204.202 40.9938 199.71 31.1857 188.805 24.5484C182.017 20.4166 174.824 19.6205 167.433 22.1973C152.692 27.3325 139.829 45.9191 130.961 62.3444C128.666 43.1146 120.427 23.6873 109.009 15.2695C100.278 8.83503 90.5844 9.02761 81.7282 15.829C74.7061 21.2235 71.8513 28.7356 73.469 37.5539C76.1268 52.0216 91.1842 68.4948 103.642 79.7098L130.645 87.8176ZM88.2389 24.305C91.8084 21.5626 95.1588 20.7025 98.5325 21.7154C100.024 22.1916 101.422 22.9211 102.666 23.872C114.906 32.8948 122.86 60.0352 120.562 80.0475C109.428 71.2884 84.439 48.6177 83.7303 33.5015C83.5544 29.7243 84.9874 26.8022 88.2383 24.3048L88.2389 24.305Z" fill="#F0B11D"/>
<path d="M272.802 130.625L65.4009 68.275C64.8103 68.0974 64.1875 68.4323 64.0099 69.023L7.51097 256.96C7.3334 257.551 7.66828 258.174 8.25894 258.351L215.661 320.702C216.251 320.879 216.874 320.544 217.052 319.954L273.55 132.016C273.728 131.426 273.393 130.803 272.802 130.625Z" fill="#E02C37"/>
<path d="M93.24 126.67C98.8515 126.67 103.401 122.121 103.401 116.509C103.401 110.898 98.8515 106.349 93.24 106.349C87.6284 106.349 83.0793 110.898 83.0793 116.509C83.0793 122.121 87.6284 126.67 93.24 126.67Z" fill="white"/>
<path d="M128.599 257.839C134.211 257.839 138.76 253.29 138.76 247.678C138.76 242.067 134.211 237.518 128.599 237.518C122.988 237.518 118.439 242.067 118.439 247.678C118.439 253.29 122.988 257.839 128.599 257.839Z" fill="white"/>
<path d="M122.55 207.32C128.162 207.32 132.711 202.771 132.711 197.159C132.711 191.548 128.162 186.999 122.55 186.999C116.939 186.999 112.39 191.548 112.39 197.159C112.39 202.771 116.939 207.32 122.55 207.32Z" fill="white"/>
<path d="M184.33 289.039C189.942 289.039 194.491 284.489 194.491 278.878C194.491 273.266 189.942 268.717 184.33 268.717C178.719 268.717 174.169 273.266 174.169 278.878C174.169 284.489 178.719 289.039 184.33 289.039Z" fill="white"/>
<path d="M185.355 139.474C190.967 139.474 195.516 134.925 195.516 129.314C195.516 123.702 190.967 119.153 185.355 119.153C179.744 119.153 175.195 123.702 175.195 129.314C175.195 134.925 179.744 139.474 185.355 139.474Z" fill="white"/>
<path d="M67.4846 247.783C73.0962 247.783 77.6452 243.233 77.6452 237.622C77.6452 232.01 73.0962 227.461 67.4846 227.461C61.873 227.461 57.324 232.01 57.324 237.622C57.324 243.233 61.873 247.783 67.4846 247.783Z" fill="white"/>
<path d="M228.213 170.184C233.825 170.184 238.374 165.635 238.374 160.024C238.374 154.412 233.825 149.863 228.213 149.863C222.602 149.863 218.053 154.412 218.053 160.024C218.053 165.635 222.602 170.184 228.213 170.184Z" fill="white"/>
<path d="M216.812 227.43C222.424 227.43 226.973 222.881 226.973 217.269C226.973 211.658 222.424 207.109 216.812 207.109C211.2 207.109 206.651 211.658 206.651 217.269C206.651 222.881 211.2 227.43 216.812 227.43Z" fill="white"/>
<path d="M61.5268 185.717C67.1384 185.717 71.6875 181.168 71.6875 175.557C71.6875 169.945 67.1384 165.396 61.5268 165.396C55.9153 165.396 51.3662 169.945 51.3662 175.557C51.3662 181.168 55.9153 185.717 61.5268 185.717Z" fill="white"/>
<path d="M170.477 203.481C176.089 203.481 180.638 198.932 180.638 193.321C180.638 187.709 176.089 183.16 170.477 183.16C164.866 183.16 160.317 187.709 160.317 193.321C160.317 198.932 164.866 203.481 170.477 203.481Z" fill="white"/>
<path d="M136.448 169.064C142.059 169.064 146.608 164.515 146.608 158.903C146.608 153.291 142.059 148.742 136.448 148.742C130.836 148.742 126.287 153.291 126.287 158.903C126.287 164.515 130.836 169.064 136.448 169.064Z" fill="white"/>
<path d="M132.42 88.3501L117.631 83.9098L60.5765 273.939L75.3654 278.379L132.42 88.3501Z" fill="#F0B11D"/>
<path d="M249.614 211.551L254.054 196.762L44.5653 133.865L40.125 148.654L249.614 211.551Z" fill="#F0B11D"/>
</svg>
