<svg width="181" height="200" viewBox="0 0 181 200" fill="none" xmlns="http://www.w3.org/2000/svg">
<path d="M170.104 89.3615C171.711 84.6626 172.552 79.7356 172.593 74.7696C175.555 72.4434 177.862 69.3885 179.289 65.9036C180.715 62.4187 181.214 58.6231 180.734 54.8881C179.826 47.9738 175.669 41.2622 169.333 36.4791C161.649 30.6901 152.061 25.8997 139.162 21.4422C135.906 20.3205 132.7 19.492 129.588 18.6888C123.604 17.1438 117.956 15.6857 115.025 12.7695C113.635 11.376 111.983 10.2712 110.165 9.51863C108.346 8.76605 106.396 8.38056 104.428 8.38436C102.304 8.38487 100.204 8.82593 98.2591 9.67964C93.0649 11.9576 87.4742 13.1942 81.8039 13.3195C78.7212 11.8722 75.5626 10.0921 72.2557 8.22154C70.8482 7.42556 69.3937 6.60062 67.9139 5.79016C62.7147 2.93185 56.4481 0.0011728 49.4181 0.0011728C45.9939 -0.0341608 42.6086 0.729339 39.5311 2.23104C36.4536 3.73275 33.7686 5.93129 31.6893 8.6521C23.4943 19.1736 25.6687 33.0961 31.4577 42.221C31.7496 42.6817 32.0511 43.1364 32.3623 43.585C31.6082 44.3989 30.9015 45.2554 30.2457 46.1503C27.3446 50.0766 25.6261 54.7502 25.2925 59.6206C18.1213 61.473 10.8562 64.9862 5.23722 72.3274C3.15375 75.0046 1.64068 78.0801 0.791294 81.3644C-0.0580968 84.6487 -0.225811 88.0722 0.298487 91.4238C1.42372 98.5877 5.67139 105.198 11.9597 109.558C16.4626 112.701 21.738 114.556 27.2173 114.924C27.3524 115.674 27.5164 116.414 27.7094 117.145C26.808 117.955 25.9619 118.824 25.1767 119.746C21.8994 123.555 19.7283 128.189 18.899 133.144C18.0698 138.1 18.6142 143.188 20.4731 147.856C24.728 158.797 35.387 167.137 47.0012 168.613C47.3751 168.661 47.7501 168.703 48.1264 168.739C46.9035 179.026 49.6569 187.803 56.0465 193.737C60.4606 197.833 66.1121 200 72.3931 200C78.0917 200 84.029 198.162 89.1089 194.822C90.5848 193.851 91.9799 192.762 93.2805 191.566C97.5291 193.431 102.118 194.394 106.758 194.396C110.979 194.399 115.159 193.572 119.06 191.961C128.105 188.227 135.016 180.972 138.478 171.533C141.632 162.885 141.621 153.4 138.449 144.759L138.417 144.668C139.61 143.556 140.7 142.338 141.673 141.028C143.196 141.173 144.748 141.26 146.329 141.26C152.911 141.26 158.906 139.758 164.156 136.799C175.571 130.362 181.302 117.728 178.415 105.354C176.957 98.9206 173.679 93.7394 170.104 89.3615Z" fill="white"/>
<path d="M162.408 90.6893C165.021 84.9691 166.428 77.8233 165.719 71.1515C167.814 70.2074 169.64 68.7547 171.03 66.9255C172.272 65.369 173.185 63.5763 173.712 61.6562C174.239 59.7361 174.371 57.7288 174.098 55.7564C173.433 50.691 170.14 45.4664 165.296 41.8085C158.186 36.4428 149.184 31.9745 136.969 27.7557C133.981 26.721 130.891 25.925 127.924 25.1543C121.05 23.3778 114.537 21.699 110.318 17.502C109.547 16.728 108.631 16.1141 107.622 15.6956C106.613 15.2771 105.531 15.0622 104.439 15.0634C103.235 15.0602 102.044 15.3066 100.94 15.787C94.6073 18.5639 87.7672 19.9967 80.8523 19.9949H80.3964C76.601 18.3414 72.8852 16.2356 68.9704 14.0177C67.581 13.2326 66.1482 12.4185 64.7118 11.6298C60.2543 9.18031 54.9429 6.67296 49.4361 6.67296C47.0284 6.63228 44.6452 7.16139 42.481 8.21712C40.3167 9.27285 38.4326 10.8253 36.9826 12.7478C30.7847 20.7076 32.5866 31.4824 37.1237 38.6318C38.4513 40.7186 40.0137 42.6463 41.7802 44.3774C39.4072 45.891 37.3321 47.8275 35.6583 50.0904C34.0808 52.1993 32.9625 54.6153 32.3755 57.1828C31.7885 59.7502 31.7457 62.4121 32.2501 64.997C24.3192 66.22 16.3774 68.7888 10.5703 76.376C9.03936 78.3369 7.92626 80.5906 7.29964 82.9982C6.67302 85.4057 6.54615 87.9161 6.92685 90.3745C7.76987 95.7438 11.0009 100.726 15.7912 104.051C19.8491 106.877 24.6855 108.372 29.6306 108.328C30.9131 108.326 32.1942 108.241 33.4658 108.074C33.4223 108.885 33.4151 109.692 33.4658 110.488C33.5738 113.624 34.3315 116.704 35.6909 119.533C33.6623 120.735 31.8478 122.266 30.3216 124.063C25.1441 130.177 23.8416 137.964 26.7433 145.431C30.1371 154.155 38.6324 160.805 47.884 161.981C49.1654 162.147 50.456 162.233 51.7481 162.238C53.309 162.236 54.8677 162.122 56.4119 161.894L56.325 162.227C55.9632 163.533 55.6014 164.879 55.3228 166.319C53.3654 175.853 55.2505 183.852 60.6306 188.849C63.7856 191.78 67.8668 193.328 72.4329 193.328C76.8434 193.328 81.4782 191.881 85.4762 189.247C87.9602 187.612 90.1489 185.568 91.949 183.201C96.351 186.114 101.505 187.686 106.783 187.724C110.135 187.729 113.454 187.074 116.552 185.795C123.861 182.781 129.433 176.905 132.244 169.242C134.86 162.072 134.85 154.205 132.215 147.042C131.647 145.495 130.995 143.98 130.261 142.504C133.736 140.467 136.528 137.445 138.286 133.821C140.958 134.302 143.666 134.555 146.38 134.577C151.872 134.577 156.63 133.401 160.925 130.977C169.728 126.013 174.164 116.327 171.957 106.873C170.422 100.314 166.508 95.1758 162.408 90.6893Z" fill="black"/>
<path d="M125.938 149.346C123.278 142.078 118.242 136.064 114.237 129.537C111.59 125.244 109.388 120.693 107.663 115.955C106.331 112.271 105.716 108.263 104.157 104.673C102.489 100.827 99.3265 97.7556 94.8943 99.5285C91.1821 101.016 88.0415 104.037 84.3655 105.737C82.8965 106.415 81.3915 107.011 79.8574 107.525C79.6794 107.397 79.4772 107.307 79.2632 107.261C79.0493 107.215 78.8281 107.213 78.6133 107.256C78.3986 107.299 78.195 107.385 78.015 107.51C77.835 107.634 77.6826 107.794 77.5671 107.98C77.4983 108.089 77.4223 108.187 77.3536 108.292C75.3173 108.854 73.252 109.306 71.1666 109.645C69.0754 109.988 69.8786 113.187 71.9662 112.843C72.6561 112.73 73.3411 112.609 74.0213 112.481C68.4784 118.198 61.2674 120.615 52.9313 121.668C46.672 122.457 39.7541 123.263 35.4015 128.401C26.226 139.255 36.5991 153.829 48.709 155.367C52.411 155.8 56.1628 155.428 59.708 154.278L62.4325 153.283C64.4779 155.065 64.9278 157.201 63.782 159.691C63.2791 162.372 62.3999 164.969 61.8536 167.65C60.7356 173.078 60.7681 179.851 65.1642 183.932C69.7881 188.227 76.9592 186.826 81.8075 183.643C85.8563 180.966 88.7875 176.903 90.0496 172.217C95.238 179.641 105.246 183.216 114.02 179.594C125.818 174.738 130.12 160.762 125.938 149.346Z" fill="#048C4A"/>
<path d="M165.437 108.385C163.646 100.708 157.054 94.8428 151.901 89.318C144.075 80.9276 139.061 71.0609 137.136 59.7145C137.009 58.9547 136.264 58.5495 135.576 58.4663C118.933 56.4256 102.051 53.3719 85.2845 52.471C75.7254 51.9573 64.6214 55.228 62.0127 65.0332C48.9586 74.6248 26.7216 66.2452 15.8419 80.4572C11.1383 86.5899 13.4974 94.3689 19.5686 98.5767C26.917 103.675 35.4449 101.601 43.1153 98.2837C39.1028 105.628 38.4407 115.122 45.1125 121.179C50.5144 126.082 59.1508 126.516 64.6503 122.109C65.8588 132.207 71.286 143.235 82.1042 145.012C90.8347 146.459 100.213 140.333 101.183 131.715C107.543 136.274 115.21 140.76 123.101 138.394C128.89 136.665 133.391 131.802 133.369 125.923C141.398 127.912 150.089 129.4 157.632 125.145C163.657 121.751 167.036 115.238 165.437 108.385Z" fill="#099E59"/>
<path d="M161.272 47.1452C153.562 41.3237 143.865 37.2099 134.791 34.0766C125.022 30.7009 113.231 29.8506 105.589 22.2417C105.332 21.9872 105.002 21.8204 104.644 21.7652C104.287 21.7099 103.921 21.7691 103.599 21.9342C95.8443 25.3286 87.4282 26.9455 78.9673 26.6667C72.925 24.1955 67.2482 20.6715 61.4845 17.502C55.7209 14.3325 47.3124 10.3671 42.247 16.8688C38.1838 22.0861 39.4466 29.8506 42.7571 35.068C45.8579 39.956 50.5976 43.5199 55.8077 45.9874C50.1598 47.2393 44.4215 49.4427 41.0385 54.0558C36.3567 60.4454 38.8677 68.3004 44.6313 72.9931C56.4264 82.5775 73.6016 78.6518 84.1557 68.977C82.5782 80.2583 87.1696 92.4477 99.7787 94.8827C108.607 96.5868 116.596 90.3709 117.822 82.3893C125.42 93.2437 137.809 104.601 150.686 95.3639C158.001 90.114 161.837 74.2413 157.198 65.1345C160.35 65.9667 163.382 65.8799 165.773 62.8153C170.043 57.3339 165.875 50.6223 161.272 47.1452Z" fill="#048C4A"/>
<path d="M67.5015 28.53C66.0018 28.9568 64.4296 29.0663 62.8852 28.8513C61.3409 28.6364 59.8583 28.1019 58.5322 27.2818C56.7231 26.1963 54.9792 28.9895 56.7991 30.0858C58.5022 31.1296 60.4015 31.8127 62.3794 32.0927C64.3572 32.3728 66.3715 32.2439 68.2975 31.714C70.3417 31.1749 69.5566 27.9728 67.5015 28.53Z" fill="#099E59"/>
<path d="M66.5535 36.0485L59.9504 38.943C58.0111 39.7969 59.6103 42.6805 61.546 41.8375L68.1491 38.943C70.0884 38.0819 68.4856 35.1982 66.5535 36.0485Z" fill="#099E59"/>
<path d="M61.7921 53.506L54.7693 58.9331C53.0869 60.2284 55.3771 62.6055 57.0415 61.3211L64.0642 55.8939C65.7467 54.5986 63.46 52.2215 61.7921 53.506Z" fill="#099E59"/>
<path d="M72.0458 60.3876C71.7414 60.0764 71.3276 59.8963 70.8925 59.8855C70.4574 59.8747 70.0352 60.0341 69.7157 60.3297L67.4652 62.4716C67.2967 62.6178 67.1596 62.7966 67.0622 62.9972C66.9648 63.1979 66.909 63.4162 66.8984 63.639C66.8877 63.8618 66.9223 64.0844 67.0001 64.2935C67.0779 64.5025 67.1973 64.6936 67.3511 64.8552C67.5049 65.0168 67.6898 65.1455 67.8947 65.2336C68.0996 65.3217 68.3203 65.3673 68.5433 65.3678C68.7664 65.3682 68.9872 65.3233 69.1924 65.236C69.3977 65.1486 69.5831 65.0206 69.7374 64.8596L71.9879 62.7176C72.2982 62.4128 72.4777 61.9992 72.4885 61.5643C72.4993 61.1295 72.3405 60.7075 72.0458 60.3876Z" fill="#099E59"/>
<path d="M99.1672 64.4109C97.8913 66.1974 97.0727 68.2693 96.7832 70.4455C96.4937 72.6216 96.742 74.8355 97.5065 76.8934C98.2301 78.8581 101.447 78.0874 100.705 76.0938C100.056 74.4638 99.832 72.6957 100.053 70.9554C100.275 69.2151 100.935 67.5595 101.971 66.144C103.201 64.4073 100.386 62.6851 99.1672 64.4109Z" fill="#099E59"/>
<path d="M108.553 73.3694L105.759 83.1998C105.181 85.2405 108.336 86.1957 108.918 84.155L111.697 74.3174C112.276 72.2804 109.121 71.3252 108.553 73.3694Z" fill="#099E59"/>
<path d="M132.834 69.896C132.284 67.8518 129.078 68.6369 129.635 70.6956C130.734 74.7508 131.077 78.9737 130.645 83.1528C130.435 85.2658 133.731 85.3237 133.941 83.2324C134.39 78.7567 134.015 74.2364 132.834 69.896Z" fill="#099E59"/>
<path d="M143.764 63.6186C143.533 61.5201 140.334 62.3341 140.566 64.4182C141.106 69.3879 141.371 74.3837 141.358 79.3827C141.358 81.5029 144.654 81.5898 144.654 79.4623C144.651 74.1687 144.353 68.8793 143.764 63.6186V63.6186Z" fill="#099E59"/>
<path d="M155.346 60.9665C153.359 55.5574 149.39 51.6426 145.215 47.8399C143.652 46.418 141.253 48.683 142.827 50.1121C146.51 53.4625 150.389 56.9865 152.147 61.7661C152.867 63.7343 156.08 62.9637 155.346 60.9665Z" fill="#099E59"/>
<path d="M138.865 54.7107C136.923 52.2761 134.784 50.0059 132.468 47.9231C130.898 46.512 128.488 48.7734 130.08 50.1953C132.396 52.2781 134.535 54.5484 136.477 56.9829C137.801 58.6436 140.179 56.3605 138.865 54.7107Z" fill="#099E59"/>
<path d="M111.635 49.3343C111.559 48.4478 110.988 47.67 110.029 47.6446C109.215 47.6229 108.263 48.3683 108.339 49.2511L108.625 52.5544C108.701 53.4409 109.273 54.2188 110.231 54.2441C111.045 54.2658 111.997 53.5205 111.921 52.6376L111.635 49.3343Z" fill="#099E59"/>
<path d="M90.4331 37.2858C89.2432 39.1636 88.2097 41.1361 87.3432 43.1834C86.9814 44.0083 87.6616 44.9924 88.4287 45.2385C89.3585 45.5315 90.1364 44.9526 90.4837 44.153C91.2551 42.3744 92.1712 40.6621 93.2227 39.0334C94.3841 37.228 91.5764 35.4985 90.4331 37.2858Z" fill="#099E59"/>
<path d="M91.3413 32.8972C89.221 32.8465 89.1378 36.1535 91.2617 36.1933C93.3855 36.2331 93.4651 32.9478 91.3413 32.8972Z" fill="#099E59"/>
<path d="M90.5741 49.9204L86.71 54.1428C85.2844 55.7022 87.5494 58.101 88.9822 56.5307L92.8463 52.3084C94.2719 50.749 92.0105 48.3538 90.5741 49.9204Z" fill="#099E59"/>
<path d="M110.221 29.1849C109.848 28.9594 109.401 28.8891 108.977 28.9892C108.553 29.0893 108.185 29.3519 107.952 29.7204L106.798 31.8913C106.579 32.2658 106.512 32.7103 106.612 33.1327C106.712 33.555 106.97 33.9228 107.333 34.1598C107.706 34.3854 108.153 34.4557 108.577 34.3555C109.001 34.2554 109.369 33.9929 109.602 33.6243L110.756 31.4535C110.975 31.0789 111.042 30.6344 110.942 30.2121C110.843 29.7897 110.584 29.4219 110.221 29.1849V29.1849Z" fill="#099E59"/>
<path d="M125.648 48.9543L123.839 61.3644C123.535 63.4593 126.835 63.5353 127.135 61.444L128.944 49.0339C129.248 46.939 125.952 46.8738 125.648 48.9543Z" fill="#099E59"/>
<path d="M104.247 52.4495C104.182 50.3365 100.886 50.2424 100.951 52.3699L101.157 58.9693C101.222 61.0823 104.518 61.1764 104.453 59.0489L104.247 52.4495Z" fill="#099E59"/>
<path d="M53.6476 130.369C50.7602 132.427 48.5187 135.264 47.1857 138.55C46.3788 140.514 49.5411 141.444 50.3443 139.505C51.3695 137.011 53.0651 134.85 55.2432 133.26C56.9365 132.026 55.3662 129.125 53.6476 130.369Z" fill="#099E59"/>
<path d="M60.1929 139.603C59.6176 138.998 58.4598 138.879 57.8628 139.545L55.6123 142.077C55.3061 142.385 55.1295 142.797 55.1187 143.231C55.1079 143.665 55.2639 144.086 55.5544 144.408C56.1297 145.012 57.2875 145.131 57.8845 144.465L60.135 141.933C60.4412 141.626 60.6179 141.213 60.6286 140.779C60.6394 140.346 60.4834 139.925 60.1929 139.603V139.603Z" fill="#099E59"/>
<path d="M72.9757 156.394C71.2537 159.03 69.7727 161.815 68.5507 164.716C67.7222 166.67 70.888 167.611 71.7093 165.671C72.8376 163.036 74.2011 160.507 75.7833 158.117C76.9484 156.351 74.1371 154.64 72.9757 156.394Z" fill="#099E59"/>
<path d="M81.5397 172.216C80.7076 171.688 79.8284 172.064 79.2712 172.752L74.6617 178.447C74.0972 179.145 74.5133 180.281 75.1972 180.715C76.0293 181.244 76.9085 180.867 77.4657 180.18L82.0752 174.485C82.6396 173.787 82.2235 172.647 81.5397 172.216Z" fill="#099E59"/>
<path d="M85.9612 149.748C84.7883 151.395 83.9297 153.245 83.4285 155.204C82.9075 157.259 86.0625 158.218 86.5871 156.159C87.0101 154.477 87.7466 152.89 88.758 151.481C89.9954 149.748 87.1841 148.026 85.9612 149.748Z" fill="#099E59"/>
<path d="M99.5797 153.478C99.3204 156.572 98.6375 159.616 97.5499 162.523C96.8263 164.517 99.974 165.458 100.709 163.479C101.881 160.291 102.611 156.958 102.879 153.572C103.053 151.441 99.757 151.383 99.5797 153.478Z" fill="#099E59"/>
<path d="M109.982 160.327C109.966 163.277 109.173 166.171 107.684 168.718C106.617 170.552 109.421 172.289 110.488 170.451C112.276 167.403 113.238 163.941 113.278 160.407C113.303 158.29 110 158.204 109.982 160.327Z" fill="#099E59"/>
<path d="M110.745 144.147L110.416 142.674C110.296 142.266 110.022 141.92 109.653 141.709C109.283 141.497 108.846 141.437 108.433 141.54C108.02 141.644 107.663 141.902 107.437 142.263C107.21 142.623 107.132 143.057 107.218 143.474L107.547 144.947C107.592 145.164 107.68 145.371 107.807 145.554C107.934 145.737 108.096 145.892 108.285 146.01C108.473 146.129 108.683 146.208 108.903 146.243C109.123 146.278 109.347 146.268 109.563 146.214C109.779 146.16 109.981 146.063 110.159 145.929C110.336 145.795 110.484 145.626 110.595 145.433C110.705 145.24 110.776 145.026 110.801 144.805C110.827 144.584 110.808 144.36 110.745 144.147V144.147Z" fill="#099E59"/>
<path d="M118.578 155.041L118.488 158.703C118.437 160.823 121.744 160.906 121.784 158.782L121.875 155.121C121.94 153.001 118.633 152.917 118.578 155.041Z" fill="#099E59"/>
<path d="M34.468 78.1127C30.9005 79.4659 28.1797 82.2917 27.2318 86.0328C26.7107 88.0879 29.8694 89.0467 30.3904 86.988C30.6877 85.7201 31.2862 84.5425 32.1352 83.5549C32.9842 82.5674 34.0586 81.799 35.2676 81.3148C37.2214 80.5694 36.4507 77.3602 34.468 78.1127Z" fill="#048C4A"/>
<path d="M41.6175 83.1925C39.2711 84.7112 37.1875 86.6016 35.4486 88.7898C34.8878 89.4881 35.2966 90.6241 35.984 91.0583C36.8126 91.583 37.699 91.2139 38.2526 90.5228C39.6606 88.7816 41.339 87.2779 43.2239 86.0689C44.9968 84.9365 43.4265 82.0384 41.6175 83.1925Z" fill="#048C4A"/>
<path d="M61.5641 83.1962C61.0033 82.6064 59.8093 82.4544 59.234 83.1383L56.2165 86.7274C55.6448 87.4076 55.4929 88.3628 56.1586 89.0575C56.7194 89.6473 57.9134 89.7992 58.4887 89.1154L61.517 85.5335C62.0778 84.846 62.2407 83.8908 61.5641 83.1962Z" fill="#048C4A"/>
<path d="M75.2659 79.6324C74.441 79.1114 73.5473 79.4732 72.9974 80.1679C71.668 81.8524 70.5184 83.6714 69.5674 85.5951C68.6303 87.4837 71.4271 89.2132 72.3715 87.3281C73.3225 85.4045 74.4721 83.5855 75.8014 81.901C76.3514 81.1918 75.9606 80.0702 75.2659 79.6324Z" fill="#048C4A"/>
<path d="M49.9391 103.805C48.3956 105.298 47.0572 106.989 45.9592 108.834C44.8738 110.643 47.6778 112.391 48.7632 110.567C49.7184 108.959 50.8855 107.487 52.233 106.189C53.7454 104.71 51.4732 102.329 49.9391 103.805Z" fill="#048C4A"/>
<path d="M62.2407 110.719L58.8542 114.301C57.4069 115.839 59.6646 118.234 61.1263 116.689L64.5129 113.107C65.9782 111.584 63.7097 109.174 62.2407 110.719Z" fill="#048C4A"/>
<path d="M70.9893 95.9935C68.4741 97.6256 66.5066 99.975 65.3414 102.738C64.9796 103.563 65.6635 104.547 66.4269 104.793C67.3567 105.086 68.131 104.503 68.482 103.707C69.3471 101.74 70.7666 100.068 72.5668 98.8952C74.3469 97.7265 72.7731 94.8284 70.9893 95.9935Z" fill="#048C4A"/>
<path d="M82.1946 111.946C79.7845 115.788 77.8469 119.908 76.4237 124.215C75.7544 126.234 78.913 127.182 79.5823 125.17C80.921 121.135 82.7433 117.276 85.0095 113.679C86.1203 111.888 83.3235 110.158 82.1946 111.946Z" fill="#048C4A"/>
<path d="M93.0924 119.888L87.9692 131.466C87.1117 133.405 90.2775 134.335 91.1278 132.421L96.251 120.843C97.1049 118.903 93.939 117.97 93.0924 119.888Z" fill="#048C4A"/>
<path d="M87.184 102.901C86.929 102.093 86.8452 101.242 86.938 100.4C87.0212 99.514 86.1782 98.7324 85.3315 98.7107C84.8967 98.7075 84.4775 98.8732 84.1624 99.1728C83.8472 99.4725 83.6606 99.8827 83.6419 100.317C83.5375 101.455 83.6543 102.603 83.9856 103.697C84.0998 104.116 84.3718 104.475 84.7446 104.699C85.1175 104.923 85.5624 104.994 85.9864 104.898C86.4076 104.788 86.7688 104.517 86.9927 104.143C87.2166 103.77 87.2853 103.324 87.184 102.901V102.901Z" fill="#048C4A"/>
<path d="M107.467 100.44C105.901 104.457 104.808 108.642 104.211 112.912C103.911 115.007 107.207 115.083 107.507 112.991C108.092 109.018 109.136 105.125 110.619 101.392C111.393 99.4163 108.231 98.4792 107.467 100.44Z" fill="#048C4A"/>
<path d="M120.706 118.762L119.016 124.551C118.423 126.592 121.578 127.543 122.175 125.506L123.865 119.717C124.472 117.677 121.299 116.725 120.706 118.762Z" fill="#048C4A"/>
<path d="M123.264 104.485C122.898 103.586 122.742 102.614 122.808 101.645C122.913 99.5248 119.617 99.4452 119.512 101.565C119.45 103.117 119.746 104.662 120.377 106.081C120.738 106.899 121.893 107.126 122.616 106.729C123.463 106.258 123.615 105.307 123.264 104.485Z" fill="#048C4A"/>
<path d="M142.563 114.156L141.872 110.119C141.724 109.239 140.689 108.715 139.871 108.917C139.452 109.031 139.093 109.302 138.869 109.674C138.645 110.047 138.573 110.491 138.67 110.915L139.361 114.952C139.509 115.832 140.544 116.356 141.362 116.154C141.781 116.04 142.14 115.769 142.364 115.397C142.588 115.024 142.659 114.58 142.563 114.156Z" fill="#048C4A"/>
<path d="M155.009 106.092C154.926 105.205 154.369 104.427 153.403 104.402C152.596 104.384 151.63 105.126 151.713 106.009L151.992 108.95C152.075 109.836 152.632 110.614 153.598 110.64C154.405 110.658 155.371 109.916 155.288 109.033L155.009 106.092Z" fill="#048C4A"/>
<path d="M157.759 103.783C155.639 103.733 155.556 107.04 157.68 107.079C159.803 107.119 159.887 103.834 157.759 103.783Z" fill="#048C4A"/>
</svg>
