<svg width="120" height="136" viewBox="0 0 120 136" fill="none" xmlns="http://www.w3.org/2000/svg">
<path d="M118.538 120.503C117.905 121.193 117.099 121.702 116.204 121.978C115.31 122.254 114.358 122.288 113.446 122.075C109.592 121.205 105.778 119.786 102.712 118.645C99.3249 117.387 95.487 115.956 91.9039 114.015C89.2029 112.536 86.5926 110.897 84.0869 109.107C81.6446 109.523 79.1749 110.013 76.7208 110.569C76.6072 110.667 76.5092 110.754 76.4385 110.816C75.7368 111.82 73.9139 114.929 73.2201 116.438C73.2233 116.473 73.2246 116.508 73.2239 116.544C73.2279 117.584 72.8189 118.583 72.0868 119.321C71.3547 120.06 70.3594 120.478 69.3194 120.484C65.2896 120.499 61.3104 121.809 57.9468 124.043C54.5872 126.274 51.8351 129.43 50.2553 133.138C49.9658 133.818 49.4897 134.403 48.882 134.824C48.2743 135.245 47.5598 135.485 46.8212 135.517C46.7625 135.521 46.7037 135.521 46.6487 135.521C45.9389 135.522 45.2424 135.329 44.6334 134.965C44.0244 134.6 43.5259 134.077 43.191 133.451C40.584 128.575 34.5001 125.54 29.0389 126.399C28.1083 126.545 27.1563 126.351 26.3571 125.852C25.5578 125.354 24.9647 124.584 24.6863 123.684C24.4079 122.785 24.4628 121.815 24.841 120.952C25.2191 120.089 25.8952 119.391 26.7456 118.986C30.2347 117.324 32.7867 115.485 34.543 113.372C36.4599 111.068 37.4322 108.249 37.146 105.83C37.0697 105.189 37.1528 104.539 37.3881 103.938C37.6233 103.337 38.0033 102.803 38.4943 102.385C38.9853 101.966 39.5722 101.675 40.2028 101.537C40.8334 101.399 41.4882 101.42 42.1091 101.596C43.2431 101.918 44.4004 102.151 45.5706 102.294C44.0939 100.729 43.2466 98.6742 43.191 96.5233C42.5508 97.3133 41.6287 97.8237 40.6193 97.9465C39.6099 98.0694 38.5922 97.7952 37.7812 97.1819C35.4758 95.4352 32.5906 94.6347 29.7148 94.9436C26.839 95.2525 24.1896 96.6477 22.3078 98.8441C21.8661 99.3605 21.2977 99.7531 20.6584 99.9834C20.019 100.214 19.3308 100.274 18.6612 100.157C17.9917 100.041 17.364 99.7526 16.8397 99.3203C16.3154 98.888 15.9126 98.3267 15.6708 97.6916C13.8244 92.8617 8.92405 89.3298 3.75331 89.1063C2.81045 89.0663 1.9137 88.6874 1.22775 88.0392C0.541795 87.3911 0.1127 86.5173 0.019266 85.5782C-0.0741675 84.6391 0.174334 83.6979 0.719132 82.9273C1.26393 82.1567 2.06845 81.6086 2.98493 81.3835C8.79112 79.9526 13.8361 75.3855 15.8394 69.7521C16.0155 69.2593 16.2884 68.8066 16.6419 68.4207C16.9954 68.0349 17.4226 67.7236 17.8981 67.5051C18.3737 67.2867 18.8882 67.1655 19.4112 67.1487C19.9343 67.132 20.4555 67.2199 20.944 67.4075C25.8074 69.2695 31.1257 69.5911 36.1781 68.3287C38.1343 67.8387 38.8556 67.2232 38.9733 66.937C39.2581 66.2495 39.7328 65.6572 40.3419 65.2296C40.9509 64.8019 41.6692 64.5564 42.4126 64.5219C43.156 64.4873 43.8939 64.6651 44.54 65.0345C45.1861 65.4039 45.7136 65.9496 46.061 66.6077C47.3194 68.9912 48.5034 71.2415 50.0518 73.0997C50.711 73.9055 51.4682 74.6259 52.3059 75.2441C52.5019 75.248 52.698 75.2558 52.894 75.2597C52.8862 75.2362 52.8744 75.2126 52.8665 75.1852C49.1426 68.9696 46.0297 62.4079 43.5713 55.5919C38.6671 52.8634 34.4175 51.1856 29.1684 51.1111C28.3458 51.0996 27.5476 50.8296 26.887 50.3393C26.2264 49.849 25.7367 49.1634 25.4874 48.3794C25.2381 47.5954 25.2417 46.7528 25.4978 45.971C25.7539 45.1892 26.2494 44.5078 26.9142 44.0233C27.6395 43.494 28.2549 42.4042 28.694 40.8714C30.0974 35.9711 28.7999 30.3573 25.3932 26.5664C25.0299 26.1626 24.7545 25.6876 24.5845 25.1717C24.4144 24.6558 24.3535 24.1102 24.4054 23.5694C24.4574 23.0287 24.6212 22.5047 24.8863 22.0306C25.1515 21.5565 25.5123 21.1427 25.9459 20.8154C30.8306 17.1304 33.4454 10.5954 32.4537 4.55435C32.3145 3.70803 32.4568 2.8394 32.8588 2.08176C33.2608 1.32411 33.9003 0.719299 34.6792 0.360124C35.458 0.000948187 36.3333 -0.0927488 37.1705 0.0934095C38.0078 0.279568 38.7608 0.735297 39.3141 1.39067C43.5989 6.45549 49.4597 10.2975 55.8144 12.203C56.3887 12.3747 56.916 12.6759 57.3556 13.0834C57.7952 13.4909 58.1355 13.9939 58.3502 14.5536C58.5649 15.1132 58.6483 15.7147 58.594 16.3117C58.5398 16.9087 58.3492 17.4853 58.0371 17.997C56.5592 20.4172 56.0667 23.3123 56.6612 26.085C57.2557 28.8577 58.8919 31.2964 61.2321 32.8979C61.8454 33.3174 62.3267 33.9026 62.6199 34.5853C62.9131 35.2679 63.0062 36.0199 62.8883 36.7535C62.7703 37.487 62.4462 38.1719 61.9538 38.7283C61.4613 39.2846 60.8208 39.6895 60.107 39.8956C58.8133 41.2088 56.1789 44.8821 55.5203 45.9993C54.7895 47.3239 54.2008 48.7221 53.7641 50.1705C53.6817 50.4449 53.5953 51.0293 53.521 51.5465C53.5131 51.6052 53.5053 51.6639 53.4935 51.7268C53.8582 52.7422 54.2267 53.7261 54.5912 54.6592C55.1557 56.0901 55.7581 57.5184 56.3985 58.944C56.7043 58.1913 57.0178 57.47 57.3354 56.7721C57.001 55.8321 56.8312 54.8415 56.8336 53.8437C56.8361 51.5197 57.7603 49.2915 59.4037 47.6482C61.047 46.0048 63.2751 45.0804 65.5991 45.0778C70.429 45.0778 74.3608 49.0098 74.3608 53.8434C74.3589 56.0202 73.5477 58.1186 72.0849 59.7306C70.6221 61.3427 68.6122 62.3533 66.4458 62.566C65.995 63.6403 65.5638 64.7927 65.1365 66.051C64.6582 67.4545 64.2231 68.8697 63.8193 70.1869C63.7645 70.3712 63.7056 70.5515 63.6505 70.7358C63.5289 71.1199 63.4113 71.4924 63.3251 71.8334C66.5923 76.999 70.3143 81.8624 74.4468 86.3657C74.6044 86.1428 74.7843 85.9365 74.9839 85.7503C78.5042 82.473 78.9473 76.0904 75.913 72.3626C75.53 71.8915 75.2615 71.3379 75.1289 70.7455C74.9962 70.153 75.0029 69.5378 75.1484 68.9483C75.294 68.3589 75.5744 67.8113 75.9676 67.3486C76.3608 66.886 76.8561 66.521 77.4144 66.2823C79.598 65.3494 81.6365 63.3265 83.1615 60.5824C84.6394 57.9127 85.5489 54.9176 86.58 51.2796C86.8023 50.4976 87.2622 49.804 87.8959 49.2948C88.5297 48.7856 89.3061 48.4859 90.1176 48.4373C90.9292 48.3886 91.7358 48.5934 92.4259 49.0232C93.1159 49.4531 93.6554 50.0868 93.9695 50.8366C95.4044 54.2708 96.8902 57.8225 99.0227 60.6568C101.136 63.4716 103.735 65.2827 106.338 65.761C107.02 65.8862 107.656 66.1899 108.182 66.641C108.708 67.0921 109.105 67.6745 109.333 68.329C109.561 68.9835 109.611 69.6867 109.479 70.367C109.347 71.0473 109.037 71.6804 108.58 72.2019C104.978 76.3103 103.9 82.716 105.958 87.777C106.152 88.2539 106.251 88.7645 106.248 89.2795C106.245 89.7946 106.14 90.3039 105.94 90.7784C105.739 91.2529 105.447 91.6833 105.08 92.0448C104.714 92.4063 104.279 92.6918 103.802 92.8851C103.339 93.0721 102.846 93.1706 102.347 93.1752C101.316 93.6652 99.4069 94.8139 98.7283 95.2921C98.4934 95.4999 98.2305 95.786 97.9522 96.0879C97.7914 96.2604 97.6228 96.4408 97.4425 96.6289C98.0338 99.8179 98.8515 102.961 99.8892 106.034C105.817 108.742 111.078 110.597 115.923 111.69C116.819 111.887 117.649 112.314 118.33 112.929C118.998 113.539 119.492 114.316 119.761 115.179C120.041 116.096 120.076 117.07 119.861 118.005C119.647 118.939 119.19 119.801 118.538 120.503V120.503Z" fill="white"/>
<path d="M63.5399 98.1596C63.4058 100.894 60.6955 102.735 58.1422 103.724C52.6294 105.84 46.581 106.123 40.895 104.528C41.3406 108.296 39.8401 112.121 37.415 115.039C34.99 117.957 31.7112 120.054 28.2859 121.685C35.4354 120.564 43.0938 124.381 46.5038 130.763C50.2657 121.934 59.5622 115.763 69.1588 115.722C68.088 115.727 72.8413 107.89 73.3755 107.342C74.0306 106.669 80.9837 100.706 80.3723 104.294C80.0284 106.311 65.1968 99.1075 63.5399 98.1596Z" fill="#336D3B"/>
<path d="M77.5122 87.7784C82.555 83.0842 83.1569 74.3927 78.8086 69.0484C82.1293 67.6295 84.6914 64.8007 86.4435 61.6429C88.1955 58.4852 89.2208 54.9853 90.2066 51.5109C91.7565 55.2158 93.3309 58.9638 95.7437 62.1743C98.1564 65.3848 101.536 68.053 105.486 68.7782C100.881 74.0334 99.5499 81.9394 102.18 88.4126C101.878 87.6691 96.5675 91.0193 96.1218 91.3961C94.4037 92.8482 93.4416 95.1154 90.9035 94.2662C88.7534 93.5468 86.9111 91.4041 84.8193 90.3959C82.486 89.2709 79.9906 88.5092 77.5122 87.7784Z" fill="#336D3B"/>
<path d="M29.0794 46.3514C30.7696 45.1178 31.7435 43.1217 32.3189 41.1097C34.0866 34.9284 32.4606 27.8873 28.1616 23.1069C34.194 18.555 37.4031 10.5376 36.1773 3.08057C41.0121 8.77837 47.3901 12.9581 54.5441 15.1172C52.5449 18.3943 51.8793 22.3137 52.6845 26.0671C53.4898 29.8205 55.7044 33.1219 58.8719 35.2907C57.7704 34.5364 52.4499 42.3533 51.9627 43.2342C51.0896 44.8092 50.3864 46.4726 49.8649 48.1962C49.4182 49.6769 49.4574 52.1026 48.644 53.2492C42.369 49.4976 36.6398 46.4585 29.0794 46.3514Z" fill="#336D3B"/>
<path d="M53.7535 79.4565C51.0262 78.7538 48.6926 76.9319 46.8919 74.766C45.0913 72.6002 43.7639 70.0889 42.45 67.5978C41.5772 69.7053 39.2038 70.7333 36.992 71.2915C31.1543 72.7499 25.0093 72.3783 19.3899 70.2272C16.9402 77.1146 10.877 82.5995 3.7793 84.3488C10.4748 84.639 16.7943 89.1934 19.1873 95.4536C21.719 92.4991 25.283 90.6223 29.1516 90.2063C33.0201 89.7904 36.9016 90.8667 40.0036 93.2155C40.7458 89.253 43.733 86.135 46.6987 83.4041C48.4184 81.8207 50.4077 80.1903 52.7453 80.2067C52.6714 80.3885 52.5976 80.5704 52.5238 80.7522L53.7535 79.4565Z" fill="#336D3B"/>
<path d="M114.918 114.673C108.791 113.293 102.627 110.878 96.952 108.219C96.8299 108.162 96.7113 108.095 96.5897 108.037C92.356 96.4135 91.1395 83.8356 93.2258 71.627C93.5309 69.8411 90.7973 69.0738 90.4899 70.8728C88.4787 82.6416 89.2952 94.7375 92.93 106.085C87.764 103.076 82.9588 99.2037 78.5889 95.2751C71.0014 88.4419 64.4355 80.5536 59.0925 71.8522C59.125 70.6037 59.5614 69.4015 59.9246 68.2077C60.3577 66.7829 60.7996 65.3602 61.2786 63.9503C62.2302 61.1489 63.344 58.4182 64.8129 55.8451C65.7197 54.2568 63.2693 52.8258 62.3632 54.4131C60.7763 57.1926 59.5707 60.17 58.5428 63.1961C58.0296 64.707 57.5592 66.2321 57.0961 67.759C57.051 67.9076 57.0057 68.058 56.9599 68.2073C54.6136 64.0351 52.5555 59.7073 50.8 55.2542C47.4426 46.7118 45.19 37.7328 44.2304 28.602C44.0416 26.8045 41.2023 26.7852 41.3933 28.602C43.0321 44.1979 48.2004 59.3009 56.308 72.7064C56.3817 73.0613 56.5779 73.3791 56.8622 73.604C57.2813 74.2822 57.7009 74.9601 58.1351 75.6291C58.8345 76.7065 59.5592 77.7676 60.2958 78.8207C45.3879 77.423 30.3505 78.6411 15.862 82.4202C14.0969 82.8816 14.8454 85.6189 16.6163 85.156C31.5821 81.244 47.1394 80.1561 62.5075 81.8657C64.4614 84.4663 66.5282 86.9764 68.7079 89.396C63.7376 90.548 58.8309 91.9585 54.0077 93.6219C52.2924 94.2148 53.0296 96.9564 54.7619 96.3578C59.8671 94.5935 65.0659 93.1127 70.3344 91.922C70.5176 91.882 70.6909 91.8057 70.8441 91.6976C71.9197 92.8232 73.0115 93.9332 74.1352 95.0099C76.5861 97.3588 79.1769 99.6467 81.8775 101.807C68.29 104.169 55.1332 108.555 42.8456 114.817C41.2185 115.646 42.6526 118.095 44.2776 117.267C56.9924 110.799 70.6483 106.377 84.7414 104.166C84.7898 104.151 84.8372 104.133 84.8834 104.113C87.6936 106.181 90.6102 108.088 93.6309 109.728C96.9021 111.503 100.455 112.837 103.936 114.132C107.277 115.375 110.68 116.625 114.164 117.409C115.942 117.81 116.701 115.075 114.918 114.673Z" fill="#0C1F26"/>
<path d="M65.4526 57.8473C68.1282 57.8473 70.2973 55.6782 70.2973 53.0026C70.2973 50.3269 68.1282 48.1579 65.4526 48.1579C62.7769 48.1579 60.6079 50.3269 60.6079 53.0026C60.6079 55.6782 62.7769 57.8473 65.4526 57.8473Z" fill="#E02C37"/>
<path d="M51.8098 100.299C54.4854 100.299 56.6545 98.1295 56.6545 95.4538C56.6545 92.7782 54.4854 90.6091 51.8098 90.6091C49.1341 90.6091 46.9651 92.7782 46.9651 95.4538C46.9651 98.1295 49.1341 100.299 51.8098 100.299Z" fill="#E02C37"/>
</svg>
