<svg width="310" height="251" viewBox="0 0 310 251" fill="none" xmlns="http://www.w3.org/2000/svg">
<path d="M9.67181 135.304C10.023 135.779 10.3825 136.248 10.7502 136.711C10.6345 137.359 10.5477 138.014 10.4899 138.675C10.1628 142.357 10.7766 146.061 12.2738 149.44C13.7709 152.819 16.1022 155.762 19.0488 157.993C25.8662 163.212 28.8535 173.289 25.9406 181.433C24.927 184.275 24.5132 187.296 24.7254 190.305C24.9375 193.315 25.7709 196.248 27.1731 198.92C28.5752 201.591 30.5157 203.943 32.8722 205.828C35.2286 207.712 37.9499 209.087 40.8645 209.868C44.5831 215.445 49.82 226.514 51.2951 231.293C51.9332 236.023 54.1112 240.412 57.4927 243.781C61.6375 247.918 67.2486 250.25 73.1045 250.27C77.3969 250.279 81.5945 249.008 85.1597 246.617C88.7249 244.227 91.4955 240.827 93.1167 236.852C95.0751 233.927 99.7482 228.671 103.411 225.232C103.824 225.256 104.237 225.269 104.65 225.269C108.923 225.274 113.104 224.033 116.68 221.697C120.257 219.361 123.075 216.032 124.787 212.117C126.193 208.88 126.788 205.348 126.521 201.828C126.253 198.308 125.13 194.907 123.25 191.919C127.356 191.667 131.307 190.258 134.646 187.855C137.986 185.452 140.577 182.154 142.121 178.34C142.196 178.161 142.27 177.975 142.338 177.795C146.082 181.572 151.053 183.885 156.353 184.317C161.653 184.749 166.932 183.271 171.238 180.15C177.354 175.904 184.635 173.655 192.081 173.711C199.527 173.768 206.772 176.128 212.824 180.466C216.639 183.298 221.268 184.82 226.019 184.804C230.212 184.805 234.32 183.624 237.873 181.396C241.426 179.169 244.279 175.985 246.105 172.211C251.153 170.477 256.335 169.163 261.599 168.282C271.565 166.422 280.192 165.802 283.551 165.802H283.601C284.906 166.038 286.229 166.156 287.555 166.156C292.501 166.149 297.307 164.513 301.228 161.499C305.15 158.485 307.968 154.262 309.247 149.484C310.359 145.289 310.208 140.859 308.812 136.75C307.416 132.641 304.838 129.035 301.4 126.386C297.855 122.339 290.728 110.768 287.518 103.38C290.123 98.3501 290.732 92.5214 289.222 87.0616C287.932 82.4112 285.16 78.3087 281.327 75.377C277.494 72.4453 272.809 70.8445 267.983 70.8176C264.584 70.8263 261.232 71.6061 258.178 73.0983C257.629 73.3669 257.091 73.6582 256.567 73.9722C254.932 74.9375 253.073 75.4587 251.175 75.4844C250.555 75.4844 248.993 75.4039 248.281 74.6787C248.074 74.3814 247.939 74.041 247.884 73.6833C247.829 73.3257 247.857 72.9603 247.964 72.6149C250.83 69.4566 252.718 65.5345 253.399 61.3245C254.08 57.1145 253.525 52.7974 251.801 48.8966C250.06 44.9185 247.2 41.5328 243.568 39.1524C239.937 36.7721 235.691 35.4999 231.349 35.4911V35.4911C227.695 35.4957 224.1 36.4094 220.887 38.1499C208.256 44.9673 195.582 49.1507 183.205 50.5018C181.534 50.6872 179.854 50.7824 178.173 50.7869C171.771 50.7869 167.978 49.3057 167.16 47.9298C165.179 44.584 162.365 41.8082 158.993 39.8728C155.62 37.9374 151.804 36.9082 147.916 36.8856C147.088 36.8866 146.26 36.9341 145.437 37.0282C143.791 31.8053 141.231 26.916 137.876 22.5877C132.265 14.9144 124.735 8.85089 116.042 5.00501C115.208 4.63267 114.351 4.3159 113.476 4.05677L105.183 1.57772C104.316 1.3135 103.432 1.10647 102.537 0.957957C99.6672 0.502993 96.7661 0.27298 93.8604 0.27002V0.27002C87.417 0.27745 81.0258 1.42519 74.9824 3.66012C74.0759 3.9927 73.1936 4.38824 72.3422 4.84386L67.5515 7.41588L64.3535 9.12643C63.7709 9.44044 63.2049 9.77924 62.6553 10.1428C56.3477 14.3011 51.1606 19.9479 47.5517 26.5851C43.6047 32.432 41.0597 39.1106 40.1146 46.1015C39.3871 50.0675 39.1788 54.1113 39.4948 58.1311C36.997 58.6388 34.5418 59.3371 32.1506 60.2197C31.2441 60.5523 30.3619 60.9479 29.5104 61.4034L26.8083 62.8537L22.8108 64.9981C22.2282 65.3121 21.6622 65.6509 21.1126 66.0145C15.4155 69.7709 10.7221 74.8621 7.44067 80.8454C4.03349 86.191 1.75574 92.1771 0.747478 98.4356C-0.260783 104.694 0.0217493 111.093 1.57771 117.238C2.79267 123.82 5.5683 130.016 9.67181 135.304V135.304Z" fill="white"/>
<path d="M17.9395 129.075C19.3247 130.968 20.8761 132.733 22.5753 134.35C21.0098 136.791 20.4224 139.733 20.9301 142.589C21.4378 145.445 23.0035 148.004 25.3147 149.757C35.7577 157.721 40.1146 172.508 35.6771 184.916C35.0603 186.643 34.8672 188.493 35.1142 190.31C35.3612 192.128 36.041 193.859 37.0964 195.359C38.1566 196.871 39.5633 198.107 41.199 198.964C42.8346 199.821 44.6516 200.275 46.4982 200.286C48.0848 202.034 51.0286 206.038 54.865 213.599C58.7013 221.16 61.0192 227.5 61.4778 229.291C61.6964 232.01 62.8789 234.562 64.8122 236.486C67.0096 238.682 69.9857 239.921 73.0922 239.932C75.4648 239.937 77.7782 239.193 79.7025 237.805C81.6268 236.417 83.0636 234.457 83.8079 232.204C86.0205 228.219 95.3231 217.881 100.504 214.163C103.289 215.23 106.379 215.185 109.132 214.037C111.885 212.889 114.09 210.726 115.292 207.996C116.169 205.962 116.433 203.716 116.052 201.534C115.671 199.352 114.662 197.329 113.147 195.712C112.941 195.489 112.724 195.283 112.497 195.092C109.286 192.192 107.167 186.992 109.181 183.317C109.769 182.335 110.601 181.521 111.595 180.953C112.589 180.385 113.713 180.083 114.858 180.076C115.616 180.068 116.366 180.231 117.052 180.553C118.573 181.28 120.237 181.659 121.923 181.662C124.206 181.654 126.435 180.965 128.324 179.683C130.213 178.401 131.676 176.585 132.527 174.467C133.399 172.382 133.628 170.085 133.187 167.869C132.745 165.653 131.652 163.619 130.048 162.028C127.983 159.995 126.059 157.917 124.278 155.793C129.501 154.846 134.492 152.902 138.979 150.067C142.761 154.016 145.341 158.96 146.416 164.321C146.784 166.304 147.648 168.162 148.928 169.72C150.209 171.278 151.863 172.486 153.737 173.231C155.611 173.975 157.644 174.233 159.644 173.979C161.645 173.724 163.548 172.967 165.177 171.777C173.075 166.245 182.5 163.311 192.143 163.381C201.785 163.45 211.167 166.522 218.984 172.167C221.016 173.683 223.484 174.501 226.019 174.498C228.813 174.489 231.517 173.502 233.661 171.709C235.804 169.916 237.254 167.43 237.757 164.681C239.697 163.509 244.946 161.024 257.311 158.57C267.623 156.518 278.302 155.471 283.526 155.471C284.146 155.471 284.574 155.471 284.766 155.502C285.668 155.717 286.591 155.825 287.518 155.824C290.18 155.817 292.766 154.932 294.875 153.308C296.985 151.684 298.5 149.41 299.188 146.838C299.846 144.491 299.741 141.996 298.889 139.712C298.037 137.429 296.481 135.475 294.447 134.133C292.897 132.596 288.249 126.485 283.291 117.814C278.674 109.757 276.721 104.489 276.003 101.738C277.56 100.224 278.682 98.3201 279.251 96.2245C279.82 94.129 279.815 91.919 279.238 89.8258C278.563 87.35 277.097 85.1626 275.064 83.5964C273.031 82.0301 270.543 81.1708 267.977 81.1491V81.1491C266.153 81.1534 264.355 81.5775 262.721 82.3886C262.448 82.5208 262.18 82.6675 261.915 82.8287C258.67 84.7749 254.959 85.8111 251.175 85.8283C248.237 85.8283 244.066 85.1528 240.899 81.93C236.629 77.5916 236.356 69.9934 240.317 65.6674C241.84 63.9912 242.843 61.9085 243.204 59.6726C243.565 57.4367 243.268 55.1441 242.349 53.0738C241.422 50.938 239.894 49.1178 237.95 47.8348C236.007 46.5518 233.733 45.8613 231.404 45.8474C229.474 45.8508 227.574 46.3342 225.876 47.2543C212.062 54.7472 198.098 59.3024 184.352 60.7961C182.308 61.0226 180.254 61.1385 178.198 61.1431C171.256 61.1431 162.165 59.7673 158.279 53.2164C157.327 51.5613 155.992 50.1591 154.385 49.128C152.779 48.0969 150.948 47.467 149.047 47.2914C147.146 47.1158 145.231 47.3997 143.462 48.1192C141.694 48.8386 140.125 49.9724 138.886 51.4253C138.622 51.731 138.353 52.0285 138.081 52.3177C137.887 49.8288 137.432 47.3671 136.723 44.9735C135.734 39.0742 133.281 33.517 129.59 28.8101C125.03 22.5432 118.896 17.5916 111.809 14.4564C111.392 14.2715 110.963 14.1141 110.526 13.9854L102.233 11.5063C101.8 11.3783 101.359 11.2789 100.913 11.2088C98.5805 10.8395 96.2224 10.653 93.8605 10.6511C88.6354 10.658 83.4527 11.5896 78.5523 13.4028C78.0982 13.5779 77.657 13.785 77.2322 14.0226L73.2348 16.1608L69.2373 18.3051C68.9481 18.4621 68.665 18.6315 68.3882 18.8133C63.345 22.135 59.2238 26.6782 56.4082 32.0205C53.1377 36.7228 51.048 42.1436 50.3159 47.8244C49.2283 53.4376 49.5067 59.23 51.1278 64.713C51.2931 65.7129 51.4997 66.6983 51.7476 67.6692C50.8716 67.6114 49.9998 67.5825 49.1322 67.5825C44.5544 67.5886 40.0138 68.4048 35.7205 69.9933C35.2664 70.1686 34.8253 70.3757 34.4004 70.6131L31.2396 72.3051L27.7008 74.2015C27.4074 74.3586 27.1244 74.528 26.8517 74.7098C22.4241 77.6318 18.8013 81.619 16.3157 86.3055C13.6027 90.4971 11.7911 95.2072 10.9963 100.137C10.2014 105.066 10.4405 110.107 11.6985 114.939C12.5789 120.094 14.7231 124.951 17.9395 129.075Z" fill="black"/>
<path d="M268.466 94.5235C268.045 94.7776 267.605 95.0008 267.171 95.2363C258.184 100.647 283.34 139.667 288.553 142.673C290.158 143.603 288.652 145.846 287.084 145.363C281.376 143.621 226.211 149.85 227.586 162.357C227.623 162.655 227.572 162.958 227.441 163.228C227.309 163.498 227.102 163.725 226.845 163.881C226.588 164.037 226.291 164.115 225.991 164.106C225.69 164.097 225.398 164.002 225.151 163.832C205.938 149.577 178.532 149.36 159.121 163.367C158.908 163.528 158.656 163.631 158.391 163.667C158.126 163.703 157.856 163.671 157.607 163.572C157.358 163.474 157.139 163.314 156.97 163.106C156.801 162.899 156.688 162.651 156.642 162.388C152.353 139.345 126.435 123.727 104.055 130.897C103.181 131.176 101.973 130.804 101.905 129.707C100.325 104.685 90.7896 80.8227 74.6909 61.6017C73.5196 60.2073 75.4223 58.4719 76.7362 59.3396C76.9221 59.2439 77.1282 59.194 77.3373 59.194C77.5465 59.194 77.7526 59.2439 77.9385 59.3396C99.0104 69.0947 128.617 79.0914 146.732 58.2178C146.897 58.0054 147.113 57.8386 147.36 57.7334C147.607 57.6281 147.877 57.5878 148.144 57.6164C148.411 57.645 148.667 57.7414 148.886 57.8966C149.105 58.0518 149.281 58.2605 149.397 58.5029C156.642 70.7184 172.632 72.4972 185.492 71.0965C201.377 69.3674 216.809 63.9506 230.803 56.3647C232.111 55.6582 233.704 57.5671 232.662 58.6888C224.921 67.1548 225.467 81.0313 233.505 89.206C242.386 98.2359 256.976 97.8826 267.257 91.685C269.036 90.7988 270.115 93.5319 268.466 94.5235Z" fill="#1E896F"/>
<path d="M268.751 135.831C239.288 122.357 206.509 117.498 175.452 108.933C145.611 100.696 116.24 90.303 89.7391 74.0528C88.041 73.0116 89.8693 70.5201 91.555 71.5737C118.335 87.9912 148.133 98.3165 178.322 106.547C208.808 114.87 240.998 119.748 269.892 132.98C271.677 133.786 270.567 136.667 268.751 135.831Z" fill="#17775E"/>
<path d="M129.23 121.892C122.975 109.617 116.38 97.5294 109.447 85.6299C108.45 83.9132 111.307 82.6861 112.28 84.3904C119.209 96.3023 125.803 108.396 132.063 120.671C132.961 122.425 130.129 123.665 129.23 121.892Z" fill="#17775E"/>
<path d="M183.373 141.409C174.142 129.038 165.375 116.347 157.07 103.337C156.01 101.676 158.403 99.711 159.468 101.384C167.773 114.395 176.541 127.086 185.771 139.456C186.961 141.074 184.569 143.032 183.373 141.409Z" fill="#17775E"/>
<path d="M234.1 143.268L205.783 116.407C204.339 115.038 206.756 113.104 208.182 114.455L236.499 141.316C237.943 142.648 235.526 144.6 234.1 143.268Z" fill="#17775E"/>
<path d="M168.715 86.5534C150.288 87.4624 131.854 87.4748 113.414 86.5906C111.424 86.4976 111.784 83.4236 113.767 83.4918C131.947 84.3677 150.114 84.3677 168.269 83.4918C170.234 83.3988 170.705 86.4542 168.715 86.5534Z" fill="#17775E"/>
<path d="M207.76 93.6311C192.545 98.3227 176.388 98.3661 161.191 103.076C159.332 103.659 158.049 100.833 159.952 100.244C175.161 95.5337 191.318 95.4904 206.521 90.7988C208.392 90.2224 209.657 93.0671 207.76 93.6311Z" fill="#17775E"/>
<path d="M263.08 109.336C245.991 111.373 229.028 114.187 212.192 117.777C210.245 118.192 209.805 115.131 211.745 114.715C228.578 111.129 245.541 108.315 262.634 106.274C264.605 106.039 265.064 109.094 263.08 109.336Z" fill="#17775E"/>
<path d="M103.826 204.234C103.554 203.992 103.306 203.726 103.045 203.472C97.2816 198.266 75.0507 224.457 74.0218 228.795C73.712 230.134 71.7969 229.545 71.8031 228.33C71.8031 223.918 55.5653 186.186 47.0126 189.818C46.8085 189.907 46.5831 189.936 46.3633 189.9C46.1435 189.864 45.9387 189.766 45.7733 189.617C45.6079 189.468 45.4889 189.274 45.4306 189.059C45.3724 188.845 45.3772 188.617 45.4446 188.405C51.4005 171.74 45.6987 152.273 31.6115 141.526C31.448 141.41 31.3174 141.254 31.2324 141.073C31.1474 140.891 31.111 140.691 31.1266 140.491C31.1422 140.291 31.2093 140.099 31.3215 139.933C31.4336 139.766 31.5869 139.632 31.7664 139.543C47.1737 131.561 52.6772 109.85 42.7982 95.5399C42.6867 95.4049 42.6073 95.2463 42.5659 95.0761C42.5245 94.906 42.5222 94.7286 42.5592 94.5574C42.5961 94.3863 42.6714 94.2257 42.7794 94.0878C42.8873 93.9499 43.0251 93.8382 43.1824 93.7612C60.5685 87.2713 75.4258 75.3955 85.5866 59.8664C86.3241 58.7384 87.9603 59.7114 87.6256 60.827C87.7344 60.9371 87.8153 61.0716 87.8616 61.2193C87.908 61.367 87.9184 61.5236 87.8921 61.6761C85.4937 78.6762 84.7933 101.818 103.436 110.16C103.622 110.231 103.787 110.349 103.914 110.502C104.042 110.655 104.128 110.838 104.165 111.034C104.202 111.23 104.187 111.432 104.124 111.621C104.06 111.809 103.949 111.979 103.801 112.112C96.7052 119.866 98.8433 131.579 102.624 140.386C107.254 151.269 114.399 161.043 122.779 169.329C123.559 170.104 122.549 171.641 121.539 171.151C113.879 167.482 104.186 170.847 100.101 178.291C95.6082 186.521 98.9673 196.784 105.568 202.74C106.59 203.856 104.886 205.188 103.826 204.234Z" fill="#1E896F"/>
<path d="M74.6167 213.301C77.8518 189.552 74.2572 165.269 73.6684 141.409C73.0983 118.477 74.1704 95.4656 79.9962 73.2037C80.3681 71.7783 82.5311 72.5406 82.1592 73.9536C76.2714 96.4448 75.3418 119.773 75.9616 142.908C76.5813 166.292 80.052 190.147 76.8726 213.456C76.6991 214.931 74.4308 214.764 74.6167 213.301Z" fill="#17775E"/>
<path d="M54.5983 111.462C61.9529 104.396 69.107 97.1307 76.0607 89.6646C77.0647 88.5862 78.5398 90.3339 77.5482 91.4061C70.5944 98.8681 63.4403 106.134 56.0858 113.203C54.995 114.22 53.5138 112.478 54.5983 111.462Z" fill="#17775E"/>
<path d="M52.3424 154.015C59.1268 144.821 66.2375 135.889 73.6746 127.216C74.6229 126.107 76.5256 127.383 75.5711 128.499C68.134 137.176 61.0232 146.108 54.2389 155.297C53.3588 156.475 51.4685 155.198 52.3424 154.015Z" fill="#17775E"/>
<path d="M61.9302 190.37L74.8895 164.544C75.5464 163.23 77.4367 164.544 76.7859 165.827L63.8267 191.609C63.1697 192.936 61.2795 191.609 61.9302 190.37Z" fill="#17775E"/>
<path d="M88.0656 131.852C83.4711 118.99 79.5088 105.931 76.1786 92.6766C75.8191 91.2512 78.075 90.8174 78.4283 92.2676C81.7048 105.324 85.6072 118.194 90.1356 130.879C90.6438 132.255 88.58 133.246 88.0656 131.852Z" fill="#17775E"/>
<path d="M91.4371 161.036C84.849 151.263 81.3535 139.828 74.7593 130.048C73.9412 128.84 75.6703 127.34 76.5008 128.561C83.1013 138.328 86.5967 149.763 93.1786 159.549C93.9905 160.758 92.2614 162.257 91.4371 161.036Z" fill="#17775E"/>
<path d="M92.1807 203.596C87.0739 191.928 81.4423 180.514 75.286 169.354C74.5733 168.065 76.6495 167.098 77.356 168.381C83.5082 179.536 89.1397 190.95 94.2507 202.623C94.8395 203.974 92.7695 204.953 92.1807 203.596Z" fill="#17775E"/>
<path d="M121.309 35.0449C117.811 30.1683 113.071 26.3166 107.582 23.8892L99.2955 21.4101C93.5195 20.4742 87.5995 21.0551 82.1156 23.0959L74.1207 27.4342C70.3353 29.9162 67.2803 33.3628 65.2705 37.4186C62.6797 40.954 61.0503 45.101 60.5417 49.4544C59.6548 53.7458 59.8961 58.1938 61.242 62.3641C61.8749 66.8455 63.6912 71.0771 66.5038 74.623C70.0026 79.4996 74.7424 83.3513 80.2316 85.7787L88.5178 88.2577C94.2937 89.1939 100.214 88.613 105.698 86.572L113.686 82.2894C117.472 79.8074 120.527 76.3609 122.537 72.3051C125.14 68.7569 126.774 64.5916 127.278 60.2197C128.165 55.9283 127.923 51.4803 126.577 47.31C125.944 42.8258 124.125 38.5918 121.309 35.0449V35.0449Z" fill="#AD1C3B"/>
<path d="M60.6471 80.331L53.6996 78.2734C48.8572 77.4886 43.8939 77.9755 39.2963 79.6864L32.5967 83.2749C29.4164 85.354 26.8489 88.2445 25.1595 91.6479C23.1311 94.6878 21.7802 98.1284 21.1985 101.736C20.6167 105.344 20.8178 109.035 21.788 112.559C22.3261 116.31 23.8534 119.85 26.2131 122.816C29.1499 126.895 33.1232 130.115 37.7221 132.143L44.6821 134.232C49.5245 135.017 54.4878 134.53 59.0854 132.819L65.754 129.224C68.9343 127.145 71.5018 124.254 73.1912 120.851C75.2196 117.811 76.5705 114.371 77.1522 110.763C77.7339 107.155 77.5329 103.464 76.5627 99.9403C76.0322 96.1816 74.509 92.6324 72.15 89.6584C69.2149 85.5802 65.2438 82.3601 60.6471 80.331V80.331Z" fill="#AD1C3B"/>
<path d="M100.795 94.9759C87.985 103.38 85.7353 122.524 94.4119 134.542C103.708 147.42 121.13 149.354 133.978 140.925C146.825 132.496 149.038 113.377 140.361 101.36C131.059 88.4746 113.643 86.541 100.795 94.9759Z" fill="#AD1C3B"/>
<path d="M112.453 30.8429C109.888 27.3153 106.317 24.6451 102.209 23.1826L95.7878 21.7944C91.1334 21.4241 86.4579 22.1743 82.153 23.9821L75.6145 27.6387C72.5178 29.6862 69.9415 32.428 68.0906 35.6461C65.8999 38.3584 64.3986 41.5609 63.7151 44.9797C62.7869 48.14 62.7397 51.4938 63.5787 54.679C63.8106 57.954 65.0317 61.0813 67.0804 63.6469C69.6451 67.1746 73.2161 69.8447 77.3251 71.3072L83.7272 72.6955C88.3816 73.0658 93.057 72.3156 97.362 70.5077L103.9 66.8511C106.997 64.8037 109.573 62.0619 111.424 58.8438C113.615 56.1313 115.116 52.9289 115.8 49.5102C116.728 46.3499 116.775 42.996 115.936 39.8109C115.71 36.5379 114.495 33.4108 112.453 30.8429V30.8429Z" fill="#DA0C3C"/>
<path d="M48.7169 80.4859C45.0225 79.8876 41.236 80.2592 37.7285 81.5643L32.6154 84.3036C30.1926 85.8919 28.2371 88.0976 26.9508 90.6934C25.4028 93.0135 24.372 95.6394 23.9282 98.393C23.4844 101.147 23.6381 103.963 24.3788 106.652C24.7829 109.52 25.9446 112.229 27.7441 114.498C31.1776 119.246 36.2039 122.029 41.8313 123.175C45.5257 123.774 49.3121 123.402 52.8197 122.097L57.9327 119.357C60.3556 117.769 62.311 115.563 63.5974 112.968C65.1454 110.648 66.1762 108.022 66.62 105.268C67.0638 102.515 66.9101 99.6977 66.1694 97.0088C65.7652 94.1407 64.6036 91.4322 62.8041 89.1626C59.3706 84.3904 54.3381 81.6387 48.7169 80.4859Z" fill="#DA0C3C"/>
<path d="M93.6929 128.964C111.313 153.364 151.331 124.409 133.73 100.046C116.128 75.6828 76.0979 104.607 93.6929 128.964Z" fill="#DA0C3C"/>
<path d="M102.376 27.8866C91.2945 32.4605 98.3908 49.6899 109.485 45.1037C120.578 40.5174 113.476 23.3004 102.376 27.8866Z" fill="#542437"/>
<path d="M122.909 121.458C120.269 128.22 130.767 132.335 133.445 125.561C136.122 118.787 125.555 114.691 122.909 121.458Z" fill="#542437"/>
<path d="M37.6665 111.27C28.116 115.217 34.2268 130.067 43.796 126.144C53.3651 122.221 47.2357 107.322 37.6665 111.27Z" fill="#542437"/>
</svg>
