<svg width="310" height="330" viewBox="0 0 310 330" fill="none" xmlns="http://www.w3.org/2000/svg">
<path d="M105.012 321.258C111.313 326.88 119.46 329.991 127.905 330C137.818 329.882 147.295 325.91 154.33 318.925C163.203 310.207 172.409 301.366 181.319 292.815C205.604 269.502 230.717 245.39 253.56 219.546C277.468 192.514 309.245 150.776 309.35 100.659C309.394 78.0329 301.022 57.1573 285.771 41.8811C270.303 26.4131 249.174 17.8624 226.244 17.8624C223.831 17.8624 221.375 17.9614 218.943 18.147C199.478 19.6753 181.597 26.5616 164.879 39.0659C158.853 29.7841 151.115 21.7338 142.08 15.3442C127.911 5.30861 111.571 0 94.8219 0C73.0678 0 52.1303 8.87243 35.8085 24.9901C11.6351 48.885 -0.739244 81.9555 0.0341549 120.625C0.652874 152.254 10.5524 186.544 27.2578 214.671C27.6909 215.5 76.1366 295.556 105.012 321.258Z" fill="white"/>
<path d="M112.344 313.016C116.615 316.87 122.17 318.993 127.923 318.968C134.949 318.863 141.657 316.027 146.627 311.061C155.549 302.3 164.774 293.434 173.702 284.865C197.832 261.7 222.773 237.749 245.319 212.245C268.026 186.55 298.213 147.032 298.325 100.659C298.368 80.978 291.135 62.8743 277.969 49.6832C264.592 36.3127 246.241 28.8881 226.244 28.8881C224.116 28.8881 221.95 28.9747 219.803 29.1417C198.699 30.7937 179.537 39.66 161.644 56.1179C156.024 43.3825 147.067 32.4028 135.719 24.3405C123.425 15.6289 109.288 11.0256 94.8343 11.0256C76.0066 11.0256 57.7977 18.7658 43.5734 32.8293C21.6027 54.5463 10.3606 84.8017 11.0721 120.403C11.6908 150.188 21.0211 182.51 36.7365 209.084C37.1696 209.876 84.6563 288.373 112.344 313.016Z" fill="black"/>
<path d="M287.299 100.659C287.373 63.2517 257.601 37.2779 220.663 40.1735C193.582 42.2957 173.368 57.708 156.818 77.0801C153.254 59.9044 144.567 44.1766 129.328 33.3799C104.226 15.5918 72.8512 19.4155 51.3074 40.7118C8.28787 83.2363 18.0822 155.954 46.2092 203.509C51.2827 212.085 95.3231 283.126 119.676 304.806C125.541 310.028 133.739 308.277 138.893 303.216C171.803 270.881 206.476 239.556 237.053 204.963C262.439 176.224 287.213 140.499 287.299 100.659Z" fill="#FF677F"/>
</svg>
