<svg width="278" height="280" viewBox="0 0 278 280" fill="none" xmlns="http://www.w3.org/2000/svg">
<path d="M20.1777 200.742C21.8983 201.392 25.7835 204.627 28.1368 206.548C31.5669 209.384 35.4576 212.598 39.9589 215.195C46.6673 219.067 53.988 221.764 61.605 223.171C62.11 226.221 63.2936 229.12 65.0683 231.652C68.0366 235.921 72.5589 238.857 77.6663 239.833C82.7737 240.808 88.0599 239.744 92.3923 236.869C96.0055 245.344 99.3301 253.381 100.163 261.235C101.3 271.93 110.098 280 120.621 280C124.459 279.998 128.217 278.896 131.448 276.824C134.68 274.753 137.25 271.798 138.854 268.311C141.762 262.173 147.24 257.81 154.172 252.282C155.183 251.479 156.213 250.652 157.264 249.801C158.874 253.139 161.397 255.953 164.54 257.918C167.683 259.882 171.318 260.917 175.025 260.902C179.391 260.864 183.634 259.449 187.149 256.858C190.663 254.266 193.269 250.631 194.595 246.471C196.144 241.537 197.642 236.636 198.935 231.679C199.84 231.679 200.656 231.74 201.416 231.801C208.337 232.323 209.792 234.504 210.297 235.22C211.999 237.819 214.285 239.983 216.973 241.541C219.661 243.098 222.676 244.005 225.777 244.189C228.878 244.374 231.979 243.83 234.832 242.603C237.686 241.375 240.212 239.497 242.211 237.119C244.213 234.805 245.693 232.086 246.549 229.149C247.405 226.211 247.618 223.123 247.173 220.096C245.591 209.412 243.887 198.933 241.067 188.865C244.02 186.237 246.703 183.322 249.076 180.162C251.297 177.27 253.167 174.389 254.982 171.603C257.618 167.563 260.604 162.984 262.908 161.546C266.669 159.212 269.563 155.712 271.147 151.578C272.732 147.445 272.92 142.907 271.683 138.657C270.614 134.893 268.496 131.511 265.577 128.905C267.299 124.445 268.575 119.825 269.385 115.113C270.145 110.917 270.6 106.843 271.05 102.902C271.838 95.7976 272.587 89.0874 274.863 84.9913C276.623 81.8318 277.53 78.2682 277.493 74.6517C277.457 71.0352 276.478 67.4907 274.655 64.3674C272.831 61.2441 270.225 58.6499 267.094 56.8404C263.962 55.0309 260.413 54.0687 256.797 54.0485C253.179 54.0491 249.628 55.0189 246.512 56.857C241.045 60.0817 234.174 60.7422 225.538 60.7422C223.456 60.7422 221.353 60.7033 219.138 60.6645C218.997 57.5021 218.119 54.4164 216.575 51.6529C215.032 48.8893 212.864 46.5242 210.245 44.7458C207.627 42.9673 204.629 41.8245 201.491 41.4083C198.353 40.9922 195.161 41.3141 192.17 42.3486C190.044 38.1137 187.663 34.1231 185.104 29.9326C183.594 27.4572 181.063 23.3111 181.108 21.2187C181.193 18.434 180.716 15.6607 179.706 13.0641C178.696 10.4676 177.174 8.10093 175.23 6.1053C173.329 4.17552 171.064 2.64221 168.566 1.5942C166.067 0.546195 163.386 0.00433019 160.677 2.31645e-06V2.31645e-06C156.227 -0.00210769 151.895 1.43731 148.332 4.10276C144.768 6.76821 142.163 10.5163 140.907 14.7859C139.647 18.9486 137.311 22.1067 132.843 25.7033C130.2 27.8079 127.667 30.0476 125.255 32.4136C123.787 31.7562 122.378 30.9745 121.043 30.0769C119.545 26.315 116.957 23.0864 113.611 20.8051C110.266 18.5237 106.315 17.2936 102.266 17.2724C99.6156 17.2637 96.9899 17.7846 94.5433 18.8044C92.0967 19.8242 89.8784 21.3225 88.0187 23.2112C86.1129 25.1394 84.6114 27.4287 83.6021 29.9448C82.5928 32.4609 82.096 35.1533 82.141 37.8639C82.141 38.1267 82.141 38.3894 82.141 38.6521C81.4305 38.6262 80.7182 38.6132 80.0041 38.6132C79.0384 38.6132 78.0615 38.6132 77.0902 38.6798C75.0477 38.7742 73.0996 38.9518 71.218 39.1294C68.9979 39.3348 66.9221 39.5235 65.196 39.5235C64.5499 39.5353 63.9039 39.4944 63.2645 39.4014C61.0526 37.4079 58.4301 35.9244 55.5821 35.0555C52.734 34.1866 49.73 33.9535 46.782 34.3728C43.8341 34.792 41.0141 35.8533 38.5213 37.4818C36.0284 39.1102 33.9234 41.2661 32.355 43.7972C30.4858 46.8112 29.4211 50.2543 29.2627 53.7973C29.1043 57.3403 29.8575 60.8647 31.4503 64.0335C35.7018 72.6641 38.7656 82.3993 41.9959 92.7062L42.4288 94.0771C39.4261 95.448 36.6509 96.5303 34.8693 96.5303H34.4086C29.9606 96.5579 25.6458 98.0523 22.1336 100.782C18.6213 103.511 16.1078 107.323 14.9827 111.627C13.8289 115.891 14.0805 120.413 15.7002 124.522C17.32 128.631 20.2215 132.109 23.9741 134.439C24.8566 135.521 26.1942 138.424 27.2377 140.838C26.3311 141.985 25.4413 143.162 24.568 144.368C23.4302 145.939 22.3479 147.504 21.2823 149.019C17.5469 154.37 13.6839 159.903 10.1817 161.929C6.26239 164.244 3.21454 167.786 1.50911 172.006C-0.196323 176.226 -0.464418 180.891 0.746248 185.279C3.13286 194.293 11.0975 200.614 20.1777 200.742Z" fill="white"/>
<path d="M20.4608 191.384H20.594C24.4792 191.384 29.369 195.425 34.0978 199.327C37.428 202.058 40.8192 204.877 44.6433 207.097C52.8973 211.859 62.1849 214.543 71.7064 214.918C71.6028 215.225 71.4974 215.528 71.3901 215.828C70.7617 217.552 70.5573 219.402 70.7939 221.222C71.0306 223.042 71.7014 224.778 72.7499 226.284C73.5549 227.451 74.587 228.444 75.7845 229.203C76.9819 229.962 78.3201 230.472 79.719 230.702C81.1179 230.932 82.5488 230.877 83.9262 230.542C85.3037 230.206 86.5993 229.596 87.7356 228.749C90.6489 226.725 93.9355 225.301 97.4042 224.558C98.1646 226.445 98.9027 228.194 99.5466 229.72L100.535 232.035C104.62 241.603 108.483 250.645 109.504 260.247C110.136 266.174 114.926 270.642 120.654 270.642C122.717 270.631 124.734 270.029 126.466 268.907C128.198 267.786 129.573 266.193 130.428 264.315C134.264 256.217 140.802 250.994 148.372 244.972C152.491 241.692 156.698 238.312 160.655 234.321C162.975 236.841 164.307 239.494 164.696 242.33C165.002 244.867 166.225 247.205 168.134 248.903C170.044 250.601 172.508 251.542 175.064 251.549C177.443 251.524 179.753 250.748 181.665 249.332C183.577 247.915 184.992 245.931 185.709 243.662C187.929 236.541 190.071 229.509 191.559 222.366H192.175C193.807 222.333 195.344 222.305 196.887 222.305C198.946 222.305 200.623 222.36 202.16 222.477C209.875 223.06 215.087 225.53 218.089 230.025C219.053 231.505 220.369 232.724 221.918 233.572C223.468 234.421 225.203 234.872 226.97 234.887C228.526 234.874 230.061 234.524 231.47 233.863C232.879 233.203 234.129 232.246 235.134 231.058C236.246 229.755 237.069 228.23 237.547 226.586C238.026 224.941 238.149 223.213 237.909 221.517C236.05 208.973 234.024 196.746 230.167 185.44L230.389 185.229C234.307 182.798 237.981 179.301 241.617 174.545C243.615 171.925 245.397 169.194 247.123 166.552C250.592 161.23 253.872 156.207 257.924 153.67C259.959 152.402 261.524 150.503 262.379 148.262C263.234 146.021 263.332 143.562 262.658 141.26C262.079 139.174 260.906 137.301 259.28 135.871C257.655 134.441 255.648 133.515 253.505 133.206C253.787 132.437 254.055 131.663 254.31 130.886C256.986 126.196 258.906 120.507 260.177 113.497C260.876 109.612 261.315 105.727 261.737 101.908C262.636 93.844 263.485 86.229 266.671 80.49C267.653 78.7535 268.164 76.7907 268.155 74.7958C268.145 72.8009 267.615 70.8431 266.616 69.1161C265.618 67.3891 264.185 65.9528 262.461 64.9494C260.737 63.946 258.781 63.4102 256.786 63.3952C254.834 63.3916 252.917 63.913 251.235 64.9048C243.942 69.2063 235.695 70.0888 225.504 70.0888C223.184 70.0888 220.77 70.0444 218.439 70C216.108 69.9556 213.532 69.9056 211.046 69.9056C209.803 69.9056 208.626 69.9056 207.505 69.9445C207.633 68.8498 207.948 67.7853 208.437 66.7975C209.347 65.1255 209.807 63.2457 209.772 61.3425C209.736 59.4392 209.207 57.5779 208.235 55.9409C207.264 54.3039 205.883 52.9475 204.23 52.0047C202.576 51.062 200.706 50.5651 198.802 50.563C197.346 50.5614 195.904 50.8518 194.561 51.4171C193.219 51.9825 192.004 52.8112 190.987 53.8543C190.061 54.8004 189.034 55.6417 187.924 56.363C187.776 55.9301 187.626 55.5008 187.474 55.0753C184.599 47.0885 180.436 40.2617 177.089 34.7835C174.098 29.8826 171.628 25.4591 171.728 20.9911C171.781 19.4526 171.524 17.9191 170.972 16.4821C170.42 15.0451 169.584 13.7339 168.514 12.6269C167.494 11.5717 166.272 10.733 164.921 10.1608C163.57 9.58862 162.117 9.29473 160.649 9.2967C158.208 9.31009 155.836 10.1145 153.889 11.5895C151.943 13.0644 150.527 15.1304 149.854 17.4778C148.05 23.4388 144.609 28.2176 138.704 32.9742C134.57 36.2012 130.785 39.8508 127.409 43.8638L127.17 43.7361C125.738 42.9813 124.279 42.2875 122.863 41.6159C117.18 38.924 113.644 37.0591 112.468 33.8455C111.707 31.7443 110.321 29.9265 108.496 28.6365C106.671 27.3466 104.495 26.6464 102.261 26.6302C100.847 26.6253 99.4473 26.9026 98.1425 27.4458C96.8377 27.9891 95.6546 28.7873 94.6624 29.7938C93.6312 30.8464 92.8199 32.0937 92.2758 33.463C91.7317 34.8324 91.4656 36.2964 91.4932 37.7696C91.5032 41.5656 91.318 45.3596 90.9381 49.1365C87.3428 48.351 83.6731 47.9565 79.993 47.9599C79.1716 47.9599 78.3279 47.9599 77.5065 48.0154C75.6804 48.0986 73.8377 48.2707 72.0617 48.4316C69.6306 48.6537 67.3384 48.8646 65.1793 48.8646C60.3395 48.8646 58.4912 47.7545 57.2147 46.5501C56.0313 45.4199 54.6103 44.5685 53.0556 44.0579C51.501 43.5474 49.8519 43.3906 48.2288 43.5992C46.6058 43.8077 45.0499 44.3762 43.6748 45.2632C42.2996 46.1502 41.1401 47.3332 40.2808 48.7258C39.2571 50.3912 38.6778 52.2913 38.5981 54.2445C38.5184 56.1977 38.9411 58.1386 39.8257 59.8819C44.3936 69.1563 47.5628 79.2245 50.9262 89.8533C51.8753 92.8616 52.8355 95.9253 53.8401 98.989C52.5691 99.5718 51.3148 100.171 50.0992 100.754C44.6378 103.368 39.4871 105.838 34.8693 105.838H34.4086C32.0181 105.843 29.6981 106.648 27.8181 108.125C25.9382 109.601 24.6065 111.665 24.0352 113.986C23.3732 116.348 23.5082 118.862 24.4192 121.14C25.3302 123.417 26.9665 125.331 29.0748 126.585C31.9443 128.25 34.1755 133.362 36.329 138.318C36.9118 139.661 37.5057 141.021 38.1273 142.375C35.9972 144.76 33.9927 147.253 32.1219 149.846C31.0119 151.35 29.9629 152.882 28.9305 154.364C24.4126 160.841 20.1389 166.958 14.8273 170.021C10.3871 172.569 8.36122 177.725 9.73214 182.848C11.1031 187.971 15.4267 191.384 20.4608 191.384Z" fill="black"/>
<path d="M252.157 142.442C234.662 142.298 220.837 128.217 205.168 121.751C201.206 120.117 197.037 119.036 192.78 118.537C196.061 111.886 198.128 104.702 198.885 97.324C199.507 91.2187 198.991 85.3909 198.403 79.38C197.847 73.7076 197.448 67.6911 200.179 62.4794C201.172 60.5812 198.963 59.1493 197.681 60.4425C192.43 65.7707 186.264 67.9797 179.565 68.9344C173.46 69.8058 167.771 71.2155 162.254 74.6845C155.998 78.6141 150.792 84.2254 146.652 90.7802C146.578 90.2104 146.496 89.6424 146.408 89.0763C145.159 81.0284 142.522 73.197 138.41 66.631C134.614 60.4494 129.222 55.4049 122.802 52.0283C116.014 48.4483 106.834 45.7232 103.676 37.0425C103.082 35.4219 100.829 35.6439 100.851 37.6642C101.029 56.3186 95.6226 74.6179 95.6337 93.2723C95.6161 97.5471 95.9446 101.816 96.6161 106.038C91.4561 103.829 85.9302 102.6 80.3205 102.414C72.6834 102.147 65.2793 104.079 58.1194 107.37C50.4601 110.861 42.8118 115.385 34.4919 115.229C32.9712 115.229 32.5327 117.788 33.7926 118.509C42.1569 123.31 44.3381 135.632 49.4943 143.802C54.5511 151.849 61.895 158.204 70.5854 162.051C75.8873 164.4 81.557 165.811 87.3416 166.22C85.177 173.884 84.5998 181.855 84.2335 189.814C83.7839 199.599 83.573 209.711 80.2095 219.014C79.6545 220.496 80.8811 222.172 82.2298 221.189C94.2129 212.453 108.921 215.001 121.909 210.255C126.225 208.749 130.201 206.404 133.609 203.356C133.923 203.116 134.234 202.872 134.541 202.624C136.149 205.1 138.091 207.341 140.313 209.284C146.574 214.718 154.078 217.665 160.788 222.238C166.938 226.434 172.794 232.429 173.981 241.048C174.237 242.902 176.368 242.23 176.801 240.854C181.835 224.819 186.919 207.552 182.784 190.985L183.667 191.162C188.032 192.022 192.522 192.022 196.887 191.162C207.409 189.983 217.212 185.244 224.672 177.731L225.227 177.409C228.668 175.311 231.621 172.181 234.185 168.85C240.202 160.969 244.731 150.879 252.967 145.722C254.449 144.773 253.567 142.453 252.157 142.442Z" fill="#E87060"/>
<path d="M256.014 72.986C238.048 83.5871 216.779 77.2653 197.481 80.0959C192.531 80.8287 187.709 82.2543 183.156 84.3308C183.17 75.4419 181.651 66.6173 178.666 58.2445C176.218 51.4399 172.738 45.6232 169.097 39.6567C165.662 34.0287 162.209 27.9401 162.365 20.7858C162.42 18.1771 159.434 18.0106 158.779 20.1752C156.104 29.0113 150.909 35.1221 144.537 40.2506C138.743 44.9128 133.625 49.9025 129.735 56.9402C125.294 64.9215 122.836 74.0239 121.909 83.4539C121.539 82.8988 121.169 82.3438 120.799 81.7888C115.454 74.0906 108.782 67.4746 101.267 63.0899C94.2215 58.9101 86.0991 56.9021 77.9173 57.3176C69.159 57.7228 58.3915 60.4979 50.7765 53.3159C49.3501 51.9727 47.1577 53.5934 48.2012 55.7081C57.8198 75.2284 61.5218 97.8068 70.9573 117.433C73.0808 121.905 75.5741 126.191 78.4113 130.248C71.9173 131.144 65.6505 133.256 59.94 136.476C51.992 140.916 45.4038 147.493 39.7148 155.346C33.6428 163.733 28.1092 173.185 19.5174 178.141C17.9466 179.046 18.8069 182.027 20.4609 182.027C31.4449 181.938 39.9202 193.555 49.3223 198.988C58.6428 204.362 69.4607 206.552 80.1374 205.227C86.8544 204.407 93.3731 202.404 99.3913 199.31C101.056 208.707 104.492 217.448 108.144 226.046C112.634 236.619 117.53 247.387 118.795 259.242C118.995 261.129 121.082 262.15 121.964 260.291C129.807 243.735 146.141 237.374 157.025 224.397C160.695 220.135 163.568 215.247 165.506 209.967C165.706 209.523 165.9 209.073 166.089 208.618C168.994 210.235 172.129 211.399 175.386 212.07C184.538 213.941 193.701 212.425 202.882 213.119C211.296 213.758 220.321 216.449 225.887 224.803C227.086 226.595 228.929 224.581 228.663 222.86C225.704 202.879 222.174 181.599 209.564 166.708L210.552 166.353C215.532 164.517 220.119 161.752 224.067 158.205C234.368 150.316 241.937 139.398 245.713 126.985C245.852 126.763 245.985 126.535 246.118 126.307C248.599 122 250.037 116.905 250.958 111.788C253.128 99.7938 252.623 86.4066 258.479 75.9055C259.539 74.035 257.463 72.1313 256.014 72.986Z" fill="#DA0C3C"/>
<path d="M129.635 161.08C119.883 177.847 117.319 198.572 122.713 217.559C122.947 218.392 124.129 217.87 123.896 217.043C118.651 198.566 121.121 178.219 130.661 161.907C131.089 161.174 130.062 160.342 129.635 161.08Z" fill="#542437"/>
<path d="M138.26 158.127C137.761 175.589 135.772 192.976 132.315 210.1C132.143 210.949 133.425 211.132 133.592 210.294C137.05 193.165 139.039 175.772 139.536 158.305C139.564 157.461 138.287 157.261 138.26 158.127Z" fill="#542437"/>
<path d="M143.799 172.735C144.39 189.723 142.922 206.72 139.425 223.354C139.248 224.198 140.535 224.386 140.702 223.548C144.213 206.794 145.682 189.676 145.076 172.569C145.042 171.681 143.749 171.859 143.799 172.735Z" fill="#542437"/>
<path d="M120.038 151.434L97.7705 161.635C94.1684 163.3 90.5829 164.965 86.9697 166.586C83.0845 168.323 79.055 169.805 74.7591 169.605C73.9376 169.566 73.76 170.898 74.587 170.937C82.4406 171.298 89.8003 166.78 96.7437 163.594L120.571 152.649C121.298 152.327 120.799 151.089 120.038 151.434Z" fill="#542437"/>
<path d="M116.136 139.534C101.888 143.646 87.4104 146.913 72.7776 149.319C71.9617 149.452 72.1338 150.79 72.9552 150.657C87.7008 148.226 102.29 144.927 116.647 140.777C117.435 140.544 116.924 139.306 116.136 139.534Z" fill="#542437"/>
<path d="M125.361 155.341C112.372 167.443 97.4605 177.3 81.2363 184.508C80.4759 184.846 80.981 186.089 81.7469 185.751C98.0717 178.5 113.077 168.586 126.149 156.412C126.771 155.84 125.988 154.769 125.361 155.341Z" fill="#542437"/>
<path d="M125.855 136.037C125.156 135.582 124.367 136.642 125.078 137.103C125.43 137.263 125.722 137.531 125.91 137.869C116.948 134.875 108.53 130.447 100.984 124.759C93.2415 118.926 83.6063 110.839 83.3843 100.027C83.3843 99.1612 82.0911 99.3388 82.1077 100.193C82.3297 110.906 91.4544 118.987 99.0471 124.92C107.281 131.356 116.59 136.283 126.543 139.473C126.65 139.514 126.765 139.526 126.878 139.508C126.991 139.491 127.097 139.444 127.186 139.373C127.275 139.302 127.344 139.208 127.386 139.102C127.428 138.996 127.442 138.881 127.426 138.768C127.415 138.217 127.265 137.679 126.99 137.201C126.716 136.724 126.325 136.324 125.855 136.037V136.037Z" fill="#542437"/>
<path d="M123.735 126.285C107.941 113.92 93.9587 99.4019 82.1965 83.1542C81.6914 82.4604 80.6813 83.2763 81.1864 83.9756C93.0173 100.315 107.08 114.915 122.963 127.351C123.624 127.873 124.406 126.807 123.735 126.285Z" fill="#542437"/>
<path d="M136.617 135.094C130.85 111.671 117.008 90.7692 97.9703 76.9046C97.8286 76.813 97.6572 76.7792 97.4913 76.81C97.3254 76.8408 97.1776 76.9339 97.0782 77.0702C96.9788 77.2066 96.9354 77.3758 96.9568 77.5431C96.9781 77.7105 97.0628 77.8633 97.1933 77.9703C115.931 91.6239 129.668 112.193 135.346 135.266C135.546 136.104 136.822 135.937 136.617 135.094Z" fill="#542437"/>
<path d="M138.043 71.2267C138.443 70.4718 137.25 69.9501 136.856 70.6716C133.525 76.9656 132.732 84.1643 132.415 91.2798C132.16 97.3351 131.439 104.645 135.834 109.435C136.389 110.056 137.427 109.246 136.845 108.613C132.404 103.796 133.442 96.0308 133.759 89.9699C134.114 83.4872 134.98 76.9767 138.043 71.2267Z" fill="#542437"/>
<path d="M150.715 69.0842C148.926 82.9097 148.214 96.8532 148.583 110.789C148.583 111.655 149.882 111.477 149.86 110.622C149.5 96.8067 150.212 82.9839 151.991 69.2785C152.017 69.1092 151.975 68.9366 151.873 68.7987C151.772 68.6608 151.619 68.5688 151.45 68.5431C151.281 68.5173 151.108 68.5598 150.97 68.6613C150.832 68.7628 150.74 68.9149 150.715 69.0842V69.0842Z" fill="#542437"/>
<path d="M164.89 79.985C164.762 93.6893 163.16 107.34 160.111 120.702C159.917 121.54 161.221 121.729 161.388 120.896C164.436 107.534 166.039 93.8836 166.167 80.1792C166.178 79.3245 164.901 79.1247 164.89 79.985Z" fill="#542437"/>
<path d="M195.228 102.081C182.182 108.527 169.822 116.276 158.335 125.209C157.675 125.725 158.468 126.79 159.129 126.28C170.534 117.414 182.807 109.725 195.761 103.329C196.477 102.958 195.977 101.692 195.228 102.081Z" fill="#542437"/>
<path d="M201.422 124.176L164.607 141.937C163.863 142.298 164.363 143.541 165.118 143.18L201.932 125.42C202.676 125.059 202.171 123.81 201.422 124.176Z" fill="#542437"/>
<path d="M205.44 138.618C197.162 146.949 186.772 152.87 175.386 155.746C174.592 155.946 174.758 157.284 175.563 157.084C187.187 154.181 197.8 148.166 206.262 139.684C206.828 139.095 206.04 138.024 205.44 138.618Z" fill="#542437"/>
<path d="M198.58 197.712C183.914 195.651 170.589 188.065 161.332 176.504C161.223 176.37 161.066 176.285 160.894 176.267C160.722 176.25 160.55 176.301 160.416 176.41C160.282 176.519 160.197 176.676 160.18 176.848C160.162 177.02 160.213 177.192 160.322 177.325C169.957 189.247 183.666 197.079 198.414 199.044C198.587 199.06 198.76 199.007 198.896 198.898C199.032 198.789 199.12 198.631 199.141 198.458C199.163 198.285 199.116 198.111 199.012 197.971C198.907 197.832 198.752 197.739 198.58 197.712V197.712Z" fill="#542437"/>
<path d="M210.325 203.756C200.501 190.598 188.212 179.476 174.142 171.009C173.421 170.576 172.938 171.82 173.648 172.247C187.516 180.609 199.627 191.585 209.309 204.566C209.797 205.26 210.841 204.444 210.325 203.756Z" fill="#542437"/>
<path d="M211.185 192.117C207.057 181.99 200.541 173.011 192.192 165.948C191.542 165.393 190.765 166.464 191.415 167.013C199.587 173.928 205.965 182.718 210.003 192.633C210.036 192.711 210.085 192.781 210.146 192.84C210.207 192.899 210.279 192.945 210.358 192.976C210.437 193.007 210.521 193.022 210.606 193.02C210.691 193.018 210.774 193 210.852 192.966C210.929 192.932 211 192.884 211.058 192.822C211.117 192.761 211.163 192.689 211.194 192.611C211.225 192.532 211.24 192.448 211.239 192.363C211.237 192.278 211.219 192.195 211.185 192.117V192.117Z" fill="#542437"/>
<path d="M147.157 135.116C146.633 134.695 145.966 134.496 145.298 134.561L144.509 134.655C144.18 134.704 143.863 134.817 143.577 134.989C143.291 135.16 143.042 135.386 142.844 135.654C142.44 136.218 142.266 136.914 142.357 137.602C142.448 138.289 142.796 138.917 143.333 139.356C143.592 139.568 143.891 139.726 144.212 139.821C144.533 139.916 144.87 139.947 145.203 139.911L145.991 139.795C146.656 139.696 147.254 139.339 147.656 138.801C148.06 138.239 148.233 137.545 148.143 136.859C148.052 136.173 147.703 135.548 147.168 135.11L147.157 135.116Z" fill="#542437"/>
<path d="M132.166 138.085C132.031 137.313 131.7 136.589 131.205 135.982L130.167 134.905C129.949 134.71 129.711 134.539 129.457 134.394C129.011 134.063 128.497 133.833 127.953 133.723C127.309 133.469 126.608 133.4 125.927 133.523L124.6 133.889C123.777 134.252 123.065 134.827 122.536 135.554L122.464 135.66C122.024 136.116 121.687 136.661 121.476 137.258L121.093 138.74C120.96 139.533 121.033 140.347 121.304 141.105C121.438 141.876 121.769 142.601 122.264 143.208L123.302 144.285C123.862 144.781 124.544 145.12 125.278 145.267C125.983 145.544 126.751 145.621 127.498 145.489L128.969 145.079C129.666 144.807 130.279 144.355 130.745 143.769C131.305 143.267 131.729 142.631 131.977 141.92L132.36 140.438C132.496 139.65 132.429 138.84 132.166 138.085V138.085Z" fill="#542437"/>
<path d="M139.381 156.551C136.023 156.995 133.559 160.364 134.019 163.883C134.48 167.402 137.721 170.021 141.096 169.577C144.471 169.133 146.918 165.764 146.458 162.245C145.997 158.727 142.75 156.085 139.381 156.551Z" fill="#542437"/>
<path d="M156.47 158.643C152.879 159.115 149.876 162.878 150.554 166.736C151.231 170.593 154.516 173.529 158.363 173.019C161.954 172.547 164.956 168.784 164.279 164.926C163.602 161.069 160.322 158.138 156.47 158.643Z" fill="#542437"/>
<path d="M166.45 145.356C165.623 140.633 161.615 137.069 156.92 137.686C152.541 138.241 148.872 142.847 149.704 147.559C150.537 152.272 154.539 155.846 159.234 155.23C163.608 154.653 167.271 150.063 166.45 145.356Z" fill="#542437"/>
<path d="M162.936 120.402L162.026 118.787L160.772 117.483L159.245 116.545L157.519 116.039C156.603 115.86 155.655 115.941 154.783 116.273C154.172 116.353 153.596 116.601 153.118 116.989C152.308 117.391 151.619 118 151.12 118.754C150.385 119.749 149.92 120.917 149.771 122.145C149.637 122.781 149.626 123.436 149.738 124.076L150.176 125.741C150.204 125.814 150.243 125.875 150.271 125.941C150.735 127.084 151.486 128.087 152.452 128.855L153.978 129.793L155.704 130.298C156.62 130.478 157.568 130.397 158.441 130.065C159.051 129.985 159.628 129.737 160.106 129.349C160.656 129.107 161.133 128.724 161.488 128.239C161.957 127.856 162.32 127.359 162.542 126.796C162.902 126.306 163.133 125.733 163.214 125.131C163.53 124.222 163.608 123.248 163.441 122.3L162.936 120.402Z" fill="#542437"/>
<path d="M150.648 108.852L150.026 106.499C149.442 105.061 148.503 103.794 147.296 102.819L145.37 101.642C143.961 101.011 142.404 100.784 140.874 100.987C139.713 101.085 138.602 101.504 137.666 102.197C136.645 102.702 135.776 103.468 135.146 104.417C134.424 105.326 133.945 106.403 133.753 107.548C133.356 108.692 133.259 109.918 133.47 111.111L134.092 113.464C134.676 114.902 135.615 116.168 136.822 117.144L138.754 118.343C140.163 118.974 141.719 119.2 143.249 118.998C144.41 118.9 145.521 118.481 146.458 117.788C147.478 117.282 148.347 116.517 148.977 115.568C149.699 114.659 150.179 113.582 150.37 112.437C150.769 111.286 150.864 110.051 150.648 108.852V108.852Z" fill="#542437"/>
<path d="M135.168 142.836C128.169 143.758 129.657 155.152 136.667 154.231C143.677 153.31 142.184 141.915 135.168 142.836Z" fill="#542437"/>
<path d="M173.565 130.304C169.93 130.781 166.905 134.588 167.571 138.496C168.237 142.403 171.584 145.373 175.48 144.862C179.115 144.385 182.14 140.577 181.474 136.67C180.808 132.762 177.461 129.788 173.565 130.304Z" fill="#542437"/>
<path d="M172.35 151.489C166.516 152.255 167.754 161.752 173.598 160.986C179.443 160.22 178.194 150.718 172.35 151.489Z" fill="#542437"/>
<path d="M145.22 121.851C142.833 122.167 143.338 126.052 145.73 125.736C148.123 125.419 147.634 121.534 145.22 121.851Z" fill="#542437"/>
<path d="M126.016 152.388C123.013 152.782 123.652 157.667 126.66 157.272C129.668 156.878 129.024 151.994 126.016 152.388Z" fill="#542437"/>
<path d="M149.827 171.947C149.608 171.47 149.272 171.055 148.85 170.743C148.315 170.31 147.676 170.026 146.996 169.922C146.296 169.817 145.58 169.911 144.931 170.193L144.376 170.482L143.549 170.987C143.16 171.275 142.851 171.657 142.65 172.097C142.455 172.365 142.331 172.678 142.289 173.007C142.12 173.496 142.078 174.019 142.167 174.528L142.434 175.533L142.922 176.404C143.204 176.813 143.586 177.141 144.032 177.359C144.425 177.647 144.886 177.827 145.37 177.881L145.969 178.019C146.669 178.124 147.385 178.03 148.034 177.747C148.662 177.47 149.206 177.032 149.61 176.476C150.227 175.596 150.498 174.519 150.371 173.451C150.319 172.912 150.132 172.395 149.827 171.947V171.947Z" fill="#542437"/>
<path d="M141.362 50.3021C138.577 52.9501 136.676 56.3921 135.918 60.1594C135.601 61.7468 138.138 62.4239 138.437 60.831C139.075 57.4917 140.738 54.4341 143.194 52.0838C144.398 50.9348 142.556 49.1532 141.362 50.3021Z" fill="#E56060"/>
<path d="M148.361 53.6989C145.409 56.9478 143.699 61.1345 143.533 65.521C143.466 67.1417 146.08 67.1417 146.147 65.521C146.281 61.8012 147.719 58.247 150.209 55.4806C151.297 54.2539 149.46 52.4612 148.361 53.6989Z" fill="#E56060"/>
<path d="M144.759 79.2024C142.915 82.4531 142.124 86.1955 142.495 89.9144C142.656 91.5129 145.27 91.5295 145.109 89.9144C144.744 86.6477 145.409 83.3485 147.013 80.4789C147.806 79.047 145.553 77.7704 144.759 79.2024Z" fill="#E56060"/>
<path d="M158.651 82.849L156.637 95.4092C156.381 96.9966 158.901 97.6793 159.156 96.0808L161.171 83.5205C161.426 81.9332 158.907 81.2505 158.651 82.849Z" fill="#E56060"/>
<path d="M161.049 64.3276C160.515 63.1124 160.234 61.8011 160.224 60.4737C160.213 59.1464 160.473 57.8308 160.988 56.6072C161.599 55.0975 159.073 54.4426 158.468 55.9356C157.881 57.3749 157.584 58.9162 157.594 60.4708C157.604 62.0253 157.922 63.5624 158.529 64.9937C159.156 66.4811 161.682 65.8318 161.049 64.3276Z" fill="#E56060"/>
<path d="M176.024 94.61L173.959 104.6C173.632 106.182 176.151 106.859 176.479 105.272L178.544 95.2816C178.871 93.6942 176.357 93.017 176.024 94.61Z" fill="#E56060"/>
<path d="M170.89 62.4073C168.985 66.0642 168.586 70.3213 169.78 74.2682C170.246 75.8223 172.766 75.1618 172.299 73.5966C171.28 70.3045 171.591 66.7439 173.165 63.6783C173.881 62.2241 171.628 60.9475 170.89 62.4073Z" fill="#E56060"/>
<path d="M176.729 74.7621V83.1597C176.729 84.7804 179.343 84.7859 179.343 83.1597V74.7621C179.337 73.1415 176.729 73.1359 176.729 74.7621Z" fill="#E56060"/>
<path d="M159.09 36.5819C158.292 41.1416 158.105 45.7874 158.535 50.3965C158.685 52.0005 161.31 52.0116 161.149 50.3965C160.723 46.0139 160.881 41.5941 161.621 37.2534C161.882 35.6439 159.367 34.9834 159.09 36.5819Z" fill="#E56060"/>
<path d="M201.217 83.7703C199.034 84.0663 196.946 84.8547 195.113 86.0758C193.279 87.297 191.747 88.9189 190.632 90.8191C189.805 92.2344 192.059 93.5054 192.886 92.0901C193.833 90.4795 195.14 89.1099 196.705 88.0883C198.269 87.0668 200.049 86.4209 201.905 86.2013C203.564 85.9737 202.859 83.5427 201.217 83.7703Z" fill="#E56060"/>
<path d="M196.815 110.439C194.036 111.447 191.513 113.056 189.428 115.151C188.268 116.328 190.11 118.11 191.276 116.933C193.03 115.137 195.158 113.75 197.509 112.87C199.063 112.293 198.391 109.851 196.815 110.439Z" fill="#E56060"/>
<path d="M218.955 91.9402C216.182 92.0137 213.462 92.7146 211 93.9902C208.537 95.2659 206.395 97.0831 204.735 99.3054C203.747 100.621 206.012 101.881 206.989 100.576C208.399 98.7292 210.206 97.2218 212.276 96.1652C214.346 95.1086 216.626 94.5297 218.95 94.4711C220.631 94.399 220.642 91.8736 218.955 91.9402Z" fill="#E56060"/>
<path d="M220.898 108.069C216.968 109.708 213.212 111.737 209.686 114.125C208.321 115.052 209.625 117.238 211.007 116.3C214.529 113.913 218.281 111.885 222.208 110.245C223.745 109.601 222.418 107.425 220.898 108.069Z" fill="#E56060"/>
<path d="M230.333 120.186L219.821 128.511C218.522 129.543 220.376 131.314 221.669 130.293L232.181 121.967C233.469 120.94 231.615 119.164 230.333 120.186Z" fill="#E56060"/>
<path d="M232.426 137.874C231.732 139.267 230.695 140.459 229.412 141.339C228.129 142.219 226.643 142.757 225.094 142.903C223.429 143.058 223.429 145.578 225.094 145.423C227.094 145.278 229.024 144.626 230.702 143.529C232.38 142.432 233.751 140.925 234.685 139.151C235.417 137.697 233.164 136.415 232.426 137.874Z" fill="#E56060"/>
<path d="M235.567 95.2926L225.954 101.137C224.533 101.997 225.843 104.179 227.275 103.313L236.888 97.4905C238.309 96.608 236.994 94.4267 235.567 95.2926Z" fill="#E56060"/>
<path d="M241.778 87.8941C238.846 89.2042 235.738 90.0775 232.553 90.4861C230.888 90.7081 231.599 93.1336 233.247 92.9171C236.653 92.4558 239.972 91.4964 243.099 90.0698C244.62 89.3871 243.293 87.2114 241.778 87.8941Z" fill="#E56060"/>
<path d="M247.089 102.336C243.712 103.993 241.001 106.754 239.408 110.162C238.731 111.633 240.979 112.937 241.661 111.433C243.038 108.413 245.422 105.966 248.405 104.512C249.898 103.768 248.583 101.592 247.089 102.336Z" fill="#E56060"/>
<path d="M210.497 154.37L199.196 160.281C197.72 161.052 199.035 163.228 200.517 162.456L211.817 156.545C213.294 155.774 211.973 153.598 210.497 154.37Z" fill="#E56060"/>
<path d="M201.15 136.359L193.38 138.224C191.748 138.612 192.442 141.043 194.073 140.655L201.844 138.79C203.475 138.396 202.782 135.965 201.15 136.359Z" fill="#E56060"/>
<path d="M175.485 198.178C172.141 195.26 169.471 191.651 167.66 187.599C166.994 186.117 164.74 187.399 165.406 188.87C167.319 193.121 170.129 196.908 173.643 199.971C174.88 201.042 176.734 199.271 175.485 198.178Z" fill="#E56060"/>
<path d="M200.306 205.321C195.545 206.002 190.689 205.504 186.164 203.873C184.582 203.318 183.9 205.749 185.47 206.304C190.453 208.055 195.79 208.553 201.011 207.752C202.66 207.514 201.955 205.083 200.306 205.321Z" fill="#E56060"/>
<path d="M185.931 185.584L179.826 178.841C178.716 177.62 176.873 179.396 177.978 180.622L184.083 187.344C185.193 188.593 187.041 186.8 185.931 185.584Z" fill="#E56060"/>
<path d="M204.347 183.742C201.631 181.685 199.43 179.025 197.92 175.971C197.198 174.506 194.945 175.783 195.666 177.242C197.271 180.507 199.61 183.357 202.499 185.568C203.803 186.522 205.662 184.746 204.347 183.742Z" fill="#E56060"/>
<path d="M226.276 208.812C225.224 205.401 223.337 202.307 220.787 199.81C219.61 198.65 217.762 200.431 218.938 201.591C221.178 203.777 222.834 206.488 223.756 209.478C224.228 211.032 226.759 210.4 226.276 208.812Z" fill="#E56060"/>
<path d="M127.398 232.123C124.609 237 123.787 242.757 125.1 248.219C125.467 249.801 127.986 249.129 127.62 247.548C126.471 242.743 127.199 237.68 129.657 233.394C130.428 231.962 128.208 230.686 127.398 232.123Z" fill="#E56060"/>
<path d="M120.577 228.876C116.917 224.264 115.115 218.449 115.526 212.575C115.631 210.955 113.017 210.96 112.912 212.575C112.484 218.9 114.412 225.159 118.323 230.147C119.328 231.43 121.581 230.175 120.577 228.876Z" fill="#E56060"/>
<path d="M134.147 222.283L131.538 229.01C130.95 230.53 133.475 231.191 134.058 229.681L136.656 222.954C137.255 221.428 134.73 220.773 134.147 222.283Z" fill="#E56060"/>
<path d="M127.442 191.445C126.462 192.55 125.849 193.933 125.688 195.401C125.527 196.87 125.826 198.352 126.543 199.643C127.326 201.081 129.579 199.81 128.797 198.372C128.349 197.564 128.157 196.639 128.247 195.719C128.336 194.8 128.702 193.929 129.296 193.222C130.351 191.978 128.514 190.186 127.442 191.445Z" fill="#E56060"/>
<path d="M160.206 205.943L156.448 214.224C155.782 215.695 158.03 216.999 158.701 215.495L162.459 207.214C163.131 205.743 160.877 204.455 160.206 205.943Z" fill="#E56060"/>
<path d="M108.988 185.007C107.343 188.323 106.688 192.041 107.1 195.719C107.284 197.312 109.876 197.329 109.715 195.719C109.309 192.492 109.84 189.216 111.247 186.284C111.946 184.813 109.692 183.536 108.988 185.007Z" fill="#E56060"/>
<path d="M55.0391 190.458L37.6002 182.954C36.0794 182.299 34.7473 184.469 36.2792 185.129L53.7181 192.633C55.2389 193.272 56.571 191.118 55.0391 190.458Z" fill="#E56060"/>
<path d="M48.2844 171.753C44.6653 172.175 40.9985 171.663 37.6334 170.266C36.1071 169.622 34.775 171.792 36.3124 172.441C40.0803 174.067 44.2027 174.698 48.2844 174.273C49.9495 174.101 49.9495 171.575 48.2844 171.753Z" fill="#E56060"/>
<path d="M57.5255 150.829C53.5683 152.241 50.0271 154.62 47.2242 157.75C46.1142 158.976 47.9735 160.764 49.0725 159.531C51.5525 156.709 54.6986 154.551 58.2249 153.254C59.7789 152.688 59.1018 150.251 57.5255 150.829Z" fill="#E56060"/>
<path d="M60.6503 176.066L53.7402 180.345C52.3305 181.216 53.6403 183.403 55.0612 182.521L61.9657 178.286C63.3755 177.387 62.0712 175.205 60.6503 176.066Z" fill="#E56060"/>
<path d="M74.4539 161.147L63.9528 162.445C62.2877 162.651 62.2877 165.17 63.9528 164.965L74.4539 163.666C76.0968 163.461 76.119 160.941 74.4539 161.147Z" fill="#E56060"/>
<path d="M97.4487 155.113C97.3425 154.791 97.118 154.52 96.8204 154.357C96.5227 154.193 96.1741 154.148 95.8447 154.231C93.6602 154.547 91.6216 155.514 89.9947 157.006C88.7626 158.116 90.6108 159.892 91.843 158.788C93.157 157.623 94.7951 156.887 96.5385 156.679C96.7021 156.637 96.8558 156.564 96.9905 156.462C97.1253 156.361 97.2384 156.233 97.3232 156.088C97.408 155.942 97.4628 155.781 97.4844 155.613C97.5059 155.446 97.4938 155.276 97.4487 155.113Z" fill="#E56060"/>
<path d="M83.9726 134.128L77.007 133.284C75.3419 133.084 75.3419 135.604 77.007 135.804L83.9726 136.659C85.6377 136.853 85.621 134.333 83.9726 134.128Z" fill="#E56060"/>
<path d="M77.4955 188.404C72.5558 189.574 67.8034 191.427 63.3756 193.91C61.9214 194.726 63.2368 196.901 64.6965 196.086C68.9293 193.715 73.4727 191.948 78.1948 190.835C79.821 190.446 79.1328 188.015 77.4955 188.404Z" fill="#E56060"/>
<path d="M97.865 191.462C95.0075 193.813 91.633 195.453 88.0188 196.246C86.3815 196.618 87.0752 199.049 88.7126 198.677C92.7569 197.76 96.5266 195.898 99.7132 193.244C101.012 192.161 99.136 190.408 97.865 191.462Z" fill="#E56060"/>
<path d="M69.0145 76.1608C66.2845 74.3667 63.9684 72.0109 62.221 69.2507C61.3441 67.8687 59.0851 69.1342 59.9676 70.5217C61.9631 73.6448 64.6029 76.3054 67.7102 78.3254C69.0867 79.2412 70.3966 77.0544 69.0145 76.1608Z" fill="#E56060"/>
<path d="M78.0504 107.392C74.8269 103.575 72.2695 99.243 70.4854 94.5766C69.9304 93.0669 67.3828 93.7219 67.9656 95.2482C69.9104 100.322 72.6989 105.03 76.2133 109.174C77.2623 110.434 79.105 108.641 78.0504 107.392Z" fill="#E56060"/>
<path d="M84.2224 82.9488L76.9627 75.6613C75.7971 74.4902 73.9489 76.2718 75.1144 77.4429L82.3742 84.7304C83.5397 85.9015 85.388 84.1199 84.2224 82.9488Z" fill="#E56060"/>
<path d="M91.6154 70.3219C89.1263 68.667 87.2001 66.2936 86.0928 63.5173C85.499 62.0187 82.9736 62.6681 83.573 64.1889C84.9006 67.5912 87.2484 70.4993 90.2944 72.5143C91.6764 73.4245 92.9863 71.2433 91.6154 70.3219Z" fill="#E56060"/>
<path d="M106.767 98.1399L97.9869 90.6581C96.7326 89.5869 94.8788 91.363 96.1387 92.4397L104.897 99.9215C106.179 100.993 108.033 99.2166 106.767 98.1399Z" fill="#E56060"/>
<path d="M118.007 83.9312L110.17 76.3884C108.982 75.2395 107.134 77.0211 108.322 78.17L116.159 85.7295C117.346 86.8784 119.195 85.0968 118.007 83.9312Z" fill="#E56060"/>
<path d="M96.8325 130.825L88.9955 127.462C87.4748 126.807 86.1427 128.977 87.6746 129.638L95.5116 133.001C97.0323 133.65 98.3644 131.48 96.8325 130.825Z" fill="#E56060"/>
</svg>
