<svg width="174" height="300" viewBox="0 0 174 300" fill="none" xmlns="http://www.w3.org/2000/svg">
<path d="M172.4 211.147C172.366 211.228 172.336 211.31 172.312 211.394C172.28 211.482 172.248 211.561 172.217 211.649C169.143 220.193 163.41 223.72 159.126 225.169C150.837 227.988 141.434 225.249 134.881 222.382C130.924 228.521 124.1 234.628 113.557 235.735L113.573 236.07C114.195 248.38 115.023 263.516 115.532 272.394C115.559 273.01 115.716 273.613 115.993 274.164C116.27 274.714 116.661 275.199 117.141 275.587L129.649 285.891C130.916 286.933 131.83 288.342 132.266 289.924C132.702 291.506 132.639 293.184 132.084 294.728C131.53 296.273 130.512 297.608 129.17 298.552C127.827 299.495 126.226 300.001 124.585 300H47.9231C46.283 299.999 44.6831 299.493 43.3418 298.549C42.0006 297.605 40.9835 296.27 40.4295 294.726C39.8754 293.182 39.8115 291.505 40.2463 289.924C40.6812 288.343 41.5937 286.934 42.8591 285.891L55.3678 275.595C55.8421 275.21 56.2304 274.73 56.5074 274.186C56.7845 273.641 56.9441 273.045 56.9761 272.434C57.2786 267.147 58.3059 248.866 59.0941 233.873C59.102 233.729 59.1101 233.578 59.118 233.435C48.9181 232.161 42.2775 226.197 38.3998 220.145C31.8627 223.012 22.4988 225.727 14.2339 222.932C9.97395 221.491 4.27291 217.995 1.19137 209.539C1.13561 209.396 1.08791 209.269 1.0481 209.149C1.00039 209.022 0.952532 208.902 0.912725 208.775C0.594301 207.763 0.357338 206.727 0.204101 205.678C-1.06987 196.736 3.59604 184.984 14.8789 168.812C12.6892 166.574 10.9773 163.724 9.83858 160.34C9.82277 160.3 9.81472 160.252 9.79877 160.212C9.54297 159.41 9.34605 158.59 9.20957 157.76C8.03907 150.848 9.55247 138.14 34.9441 107.597C34.2538 106.348 33.6781 105.039 33.2242 103.687C33.1765 103.552 33.1367 103.416 33.0969 103.273C32.997 102.97 32.9173 102.662 32.8583 102.349C32.6538 101.31 32.6565 100.241 32.8662 99.2028C35.6849 85.4597 50.9489 65.8722 65.5679 49.6686C64.4484 47.4233 64.0746 44.8794 64.5008 42.4069L65.4883 36.6819L61.3239 32.622C59.7559 31.0927 58.6469 29.1553 58.1222 27.0287C57.5975 24.9022 57.6781 22.6713 58.3548 20.5881C59.0316 18.505 60.2775 16.6526 61.9517 15.2404C63.626 13.8282 65.6618 12.9124 67.8293 12.5966L73.5861 11.7605L76.1579 6.54502C77.1269 4.58049 78.6263 2.92633 80.4866 1.76966C82.3468 0.613003 84.4937 0 86.6842 0C88.8747 0 91.0215 0.613003 92.8818 1.76966C94.7421 2.92633 96.2415 4.58049 97.2105 6.54502L99.7823 11.7605L105.539 12.5966C107.707 12.9124 109.742 13.8281 111.417 15.2403C113.091 16.6525 114.337 18.5049 115.014 20.5881C115.69 22.6712 115.771 24.9022 115.246 27.0287C114.722 29.1553 113.613 31.0927 112.045 32.622L107.88 36.6829L108.867 42.408C109.298 44.8958 108.916 47.4562 107.777 49.7095C120.986 64.3604 137.548 84.999 140.462 99.2038C140.672 100.242 140.675 101.311 140.47 102.35C140.408 102.664 140.329 102.975 140.232 103.281C140.192 103.425 140.152 103.56 140.104 103.695C139.511 105.466 138.701 107.156 137.692 108.728C165.688 142.186 165.855 155.348 163.482 162.362C163.448 162.473 163.408 162.582 163.363 162.689C163.331 162.784 163.291 162.872 163.267 162.952C162.113 166.121 160.448 168.788 158.354 170.898C171.054 189.076 175.521 201.911 172.4 211.147Z" fill="white"/>
<path d="M164.347 208.238C164.324 208.284 164.324 208.307 164.302 208.352C164.28 208.398 164.279 208.443 164.257 208.489C157.231 228.382 130.63 211.058 130.63 211.058C130.63 211.058 126.879 227.178 110.259 227.587C109.608 227.621 108.955 227.621 108.304 227.587H108.19C107.007 227.649 105.821 227.619 104.643 227.496C89.319 226.154 85.8176 211.058 85.8176 211.058C85.7908 211.079 85.7599 211.094 85.7269 211.102L85.704 211.148C84.2944 214.763 80.6339 221.584 72.631 224.244C70.8012 224.856 68.8966 225.215 66.9697 225.312C66.0313 225.377 65.0898 225.385 64.1504 225.335H64.0367C45.6888 226.199 41.6646 208.806 41.6646 208.806C41.6646 208.806 15.1312 226.109 8.10566 206.283C8.06093 206.192 8.03738 206.101 7.99205 205.988C7.80526 205.401 7.66835 204.801 7.5828 204.191C6.44599 196.234 13.244 183.684 22.3384 170.974C23.5206 169.292 24.7712 167.609 26.0209 165.927C22.1331 165.245 18.7006 162.858 16.8817 157.446C16.7409 157.016 16.6345 156.575 16.5634 156.128C14.7673 145.737 28.9317 126.093 42.1868 110.383C43.0963 109.292 44.0284 108.223 44.938 107.178C42.9599 105.95 41.3229 103.904 40.2543 100.767C40.2317 100.653 40.186 100.562 40.1634 100.448C43.7557 82.9178 74.1763 50.9057 81.7016 43.1983C82.0427 42.8345 82.3383 42.5388 82.5884 42.2888C83.1141 41.7613 83.7507 41.3575 84.452 41.1065C84.9983 40.9076 85.5757 40.8074 86.1571 40.8109C86.8279 40.8082 87.4921 40.9418 88.1096 41.2037C88.7272 41.4656 89.285 41.8502 89.7493 42.3343C89.9996 42.5844 90.2951 42.8799 90.6133 43.2437C98.2538 51.0195 128.56 82.9178 132.154 100.447C132.131 100.561 132.085 100.652 132.063 100.766C130.79 104.494 128.698 106.677 126.219 107.791C127.243 108.951 128.266 110.155 129.312 111.384C143.386 127.936 158.891 149.239 155.435 159.448C155.39 159.562 155.344 159.698 155.299 159.812C153.412 165.041 150.001 167.337 146.113 167.952C147.296 169.543 148.478 171.135 149.637 172.726C159.641 186.616 167.007 200.372 164.347 208.238Z" fill="#336D3B"/>
<path d="M124.082 291.679H47.416L59.9208 281.38C61.2488 280.293 62.3353 278.941 63.1105 277.41C63.8857 275.879 64.3326 274.204 64.4225 272.49C64.8996 264.078 65.8322 247.435 66.5369 233.93C66.6051 232.702 66.6507 231.52 66.7188 230.36C66.8098 228.586 66.8779 226.882 66.969 225.313C68.8958 225.216 70.8004 224.856 72.6302 224.244C80.6332 221.584 84.2937 214.763 85.7033 211.148L85.7261 211.103C85.7591 211.094 85.7901 211.079 85.8169 211.058C85.8169 211.058 89.3183 226.154 104.642 227.496V227.587C104.756 229.519 104.87 231.566 104.983 233.703C105.029 234.521 105.074 235.34 105.12 236.158C105.779 249.231 106.62 264.533 107.075 272.49C107.165 274.204 107.612 275.88 108.387 277.411C109.162 278.941 110.249 280.293 111.577 281.38L124.082 291.679Z" fill="#CC894C"/>
<path d="M105.12 236.158C89.3866 235.09 85.8164 219.675 85.8164 219.675C85.7895 219.696 85.7586 219.711 85.7256 219.719L85.7028 219.765C84.2931 223.38 80.6327 230.201 72.6297 232.861C70.6638 233.521 68.6096 233.881 66.5364 233.929C66.6045 232.702 66.6501 231.519 66.7183 230.36C66.8092 228.586 66.8773 226.881 66.9684 225.312C68.8953 225.215 70.7999 224.856 72.6297 224.244C80.6327 221.584 84.2931 214.763 85.7028 211.148L85.7256 211.102C85.7586 211.094 85.7895 211.079 85.8164 211.058C85.8164 211.058 89.3183 226.154 104.643 227.496V227.587C104.756 229.519 104.87 231.566 104.983 233.703C105.029 234.521 105.074 235.34 105.12 236.158Z" fill="#0C1F26"/>
<path d="M149.637 172.725C140.429 178.022 125.173 168.087 125.173 168.087C125.173 168.087 121.603 183.502 105.37 182.729H105.279C89.0227 183.502 85.4532 168.087 85.4532 168.087C85.4327 168.105 85.4097 168.12 85.3849 168.132L85.3402 168.154C83.726 172.315 78.724 181.319 66.2418 180.727H66.1507C49.8941 181.501 46.3246 166.086 46.3246 166.086C46.3246 166.086 31.569 175.703 22.3381 170.974C23.5204 169.292 24.771 167.609 26.0207 165.927C35.0923 167.518 46.7331 159.947 46.7331 159.947C46.7331 159.947 50.3026 175.362 66.5589 174.589H66.6498C79.1318 175.18 84.1337 166.177 85.7482 162.016L85.793 161.993C85.8178 161.982 85.8408 161.967 85.8612 161.949C85.8612 161.949 89.4308 177.364 105.687 176.591H105.778C122.011 177.364 125.581 161.949 125.581 161.949C125.581 161.949 137.062 169.429 146.111 167.951C147.295 169.542 148.477 171.133 149.637 172.725Z" fill="#0C1F26"/>
<path d="M129.311 111.383C121.376 119.887 104.483 108.882 104.483 108.882C104.483 108.882 101.187 123.115 86.2041 122.41H86.1131C71.1075 123.115 67.8107 108.882 67.8107 108.882C67.8107 108.882 49.69 120.705 42.1873 110.383C43.0967 109.292 44.0288 108.223 44.9384 107.178C53.3961 112.452 67.8107 103.063 67.8107 103.063C67.8107 103.063 71.1075 117.295 86.1131 116.591H86.2041C101.188 117.295 104.484 103.063 104.484 103.063C104.484 103.063 117.67 111.633 126.219 107.792C127.242 108.951 128.265 110.156 129.311 111.383Z" fill="#0C1F26"/>
<path d="M89.5637 9.71271L93.111 16.9003C93.3819 17.4494 93.7823 17.9244 94.2777 18.2844C94.773 18.6443 95.3485 18.8784 95.9544 18.9666L103.886 20.1192C106.984 20.5693 108.221 24.3766 105.979 26.5616L100.239 32.1565C99.8007 32.584 99.4727 33.1116 99.2835 33.694C99.0942 34.2765 99.0495 34.8961 99.153 35.4997L100.508 43.3997C101.037 46.4851 97.7986 48.838 95.0277 47.3813L87.9331 43.6515C87.391 43.3665 86.7878 43.2176 86.1755 43.2176C85.5631 43.2176 84.9599 43.3665 84.4178 43.6515L77.3245 47.3807C74.5535 48.8374 71.3148 46.4845 71.8441 43.3991L73.199 35.4991C73.3025 34.8955 73.2578 34.2759 73.0685 33.6934C72.8793 33.111 72.5513 32.5834 72.1127 32.1559L66.3728 26.561C64.131 24.376 65.368 20.5687 68.4661 20.1186L76.3977 18.966C77.0037 18.8779 77.5793 18.6438 78.0747 18.2838C78.5702 17.9239 78.9707 17.4489 79.2417 16.8997L82.7898 9.71271C84.1751 6.9055 88.1782 6.9055 89.5637 9.71271Z" fill="#F0B11D"/>
<path d="M67.5932 87.4295C70.279 87.4295 72.4562 85.2523 72.4562 82.5665C72.4562 79.8807 70.279 77.7035 67.5932 77.7035C64.9075 77.7035 62.7302 79.8807 62.7302 82.5665C62.7302 85.2523 64.9075 87.4295 67.5932 87.4295Z" fill="#F0B11D"/>
<path d="M75.1577 156.375C77.8435 156.375 80.0207 154.198 80.0207 151.512C80.0207 148.826 77.8435 146.649 75.1577 146.649C72.4719 146.649 70.2947 148.826 70.2947 151.512C70.2947 154.198 72.4719 156.375 75.1577 156.375Z" fill="white"/>
<path d="M61.674 205.818C64.3598 205.818 66.5371 203.641 66.5371 200.955C66.5371 198.269 64.3598 196.092 61.674 196.092C58.9883 196.092 56.811 198.269 56.811 200.955C56.811 203.641 58.9883 205.818 61.674 205.818Z" fill="#F0B11D"/>
<path d="M108.01 88.9425C110.696 88.9425 112.873 86.7652 112.873 84.0794C112.873 81.3937 110.696 79.2164 108.01 79.2164C105.324 79.2164 103.147 81.3937 103.147 84.0794C103.147 86.7652 105.324 88.9425 108.01 88.9425Z" fill="#E02C37"/>
<path d="M88.1257 103.062C90.8115 103.062 92.9887 100.885 92.9887 98.1989C92.9887 95.5132 90.8115 93.3359 88.1257 93.3359C85.4399 93.3359 83.2627 95.5132 83.2627 98.1989C83.2627 100.885 85.4399 103.062 88.1257 103.062Z" fill="white"/>
<path d="M139.349 196.055C142.034 196.055 144.212 193.878 144.212 191.192C144.212 188.506 142.034 186.329 139.349 186.329C136.663 186.329 134.486 188.506 134.486 191.192C134.486 193.878 136.663 196.055 139.349 196.055Z" fill="#F0B11D"/>
<path d="M100.257 204.464C102.943 204.464 105.12 202.287 105.12 199.601C105.12 196.916 102.943 194.738 100.257 194.738C97.571 194.738 95.3938 196.916 95.3938 199.601C95.3938 202.287 97.571 204.464 100.257 204.464Z" fill="#E02C37"/>
<path d="M127.57 140.273C130.255 140.273 132.433 138.096 132.433 135.41C132.433 132.725 130.255 130.547 127.57 130.547C124.884 130.547 122.707 132.725 122.707 135.41C122.707 138.096 124.884 140.273 127.57 140.273Z" fill="white"/>
<path d="M105.12 154.863C107.806 154.863 109.983 152.686 109.983 150C109.983 147.314 107.806 145.137 105.12 145.137C102.434 145.137 100.257 147.314 100.257 150C100.257 152.686 102.434 154.863 105.12 154.863Z" fill="#F0B11D"/>
<path d="M49.0061 141.749C51.6918 141.749 53.8691 139.572 53.8691 136.886C53.8691 134.201 51.6918 132.023 49.0061 132.023C46.3203 132.023 44.1431 134.201 44.1431 136.886C44.1431 139.572 46.3203 141.749 49.0061 141.749Z" fill="#E02C37"/>
<path d="M29.6623 192.483C32.3481 192.483 34.5253 190.306 34.5253 187.62C34.5253 184.934 32.3481 182.757 29.6623 182.757C26.9766 182.757 24.7993 184.934 24.7993 187.62C24.7993 190.306 26.9766 192.483 29.6623 192.483Z" fill="white"/>
</svg>
