<svg width="408" height="420" viewBox="0 0 408 420" fill="none" xmlns="http://www.w3.org/2000/svg">
<path d="M402.527 327.7C399.284 332.683 394.701 336.65 389.306 339.146C383.91 341.642 377.919 342.565 372.022 341.809L265.84 328.714C265.591 328.684 265.337 328.715 265.103 328.805C264.868 328.894 264.659 329.04 264.493 329.228L193.507 409.282C190.539 412.648 186.889 415.345 182.799 417.192C178.709 419.04 174.273 419.997 169.785 420C166.916 420.003 164.06 419.622 161.292 418.866C155.551 417.317 150.361 414.182 146.319 409.821C142.276 405.459 139.543 400.048 138.433 394.205L118.072 289.189C118.03 288.94 117.927 288.705 117.771 288.507C117.615 288.308 117.411 288.152 117.179 288.053L19.1105 245.27C13.6652 242.896 8.99291 239.046 5.62193 234.155C2.25095 229.264 0.315841 223.528 0.0354804 217.594C-0.24488 211.661 1.1407 205.767 4.03549 200.58C6.93028 195.393 11.2188 191.12 16.4159 188.243L110.018 136.425C110.24 136.303 110.429 136.13 110.569 135.919C110.709 135.708 110.795 135.466 110.82 135.214L121.19 28.7439C121.767 22.8321 123.987 17.1996 127.598 12.4833C131.208 7.76687 136.067 4.15471 141.623 2.05515C147.179 -0.0444082 153.212 -0.547624 159.04 0.602396C164.867 1.75242 170.257 4.5098 174.599 8.56282L252.806 81.561C252.99 81.7312 253.213 81.8545 253.456 81.9204C253.698 81.9863 253.953 81.993 254.198 81.9397L358.67 58.9138C364.471 57.6319 370.515 57.9992 376.117 59.9742C381.72 61.9493 386.659 65.4532 390.373 70.0894C394.088 74.7256 396.431 80.309 397.136 86.2078C397.842 92.1065 396.883 98.085 394.367 103.467L349.102 200.399C348.998 200.63 348.951 200.882 348.964 201.135C348.977 201.388 349.051 201.634 349.178 201.853L403.375 294.093C406.405 299.209 407.932 305.074 407.782 311.018C407.632 316.962 405.811 322.744 402.527 327.7V327.7Z" fill="white"/>
<path d="M161.658 19.6216L239.862 92.6272C241.841 94.4743 244.239 95.8126 246.85 96.5268C249.461 97.241 252.206 97.3097 254.85 96.7268L359.325 73.6919C372.838 70.7124 383.901 84.52 378.047 97.0593L332.782 193.995C331.637 196.448 331.105 199.142 331.233 201.846C331.36 204.55 332.143 207.182 333.514 209.516L387.707 301.76C394.716 313.691 385.002 328.481 371.268 326.787L265.088 313.691C262.401 313.359 259.674 313.686 257.142 314.643C254.61 315.6 252.349 317.158 250.553 319.183L179.57 399.23C170.389 409.583 153.322 404.914 150.689 391.329L130.332 286.299C129.817 283.642 128.663 281.15 126.971 279.037C125.278 276.925 123.097 275.256 120.616 274.173L22.5539 231.4C9.87025 225.867 9.03631 208.193 21.1425 201.491L114.741 149.674C117.109 148.363 119.123 146.496 120.609 144.234C122.095 141.971 123.008 139.381 123.271 136.687L133.65 30.2062C134.991 16.4338 151.543 10.1788 161.658 19.6216Z" fill="#CC894C"/>
<path d="M325.759 115.67C325.109 114.742 324.117 114.109 323.001 113.912C321.886 113.714 320.737 113.967 319.808 114.616L292.14 133.942L302.756 102.704C302.944 102.172 303.025 101.607 302.993 101.043C302.961 100.479 302.818 99.9264 302.571 99.4181C302.324 98.9098 301.979 98.4555 301.556 98.0816C301.132 97.7076 300.639 97.4214 300.104 97.2395C299.569 97.0576 299.003 96.9836 298.439 97.0219C297.876 97.0602 297.325 97.21 296.82 97.4626C296.314 97.7151 295.864 98.0655 295.495 98.4933C295.126 98.9211 294.845 99.4179 294.67 99.9549L280.302 142.21L247.042 165.441L259.876 117.111C260.022 116.568 260.059 116.002 259.986 115.444C259.913 114.887 259.73 114.349 259.449 113.862C259.167 113.375 258.793 112.949 258.346 112.607C257.899 112.265 257.39 112.015 256.846 111.871C256.302 111.727 255.736 111.692 255.179 111.767C254.621 111.842 254.084 112.027 253.598 112.31C253.113 112.593 252.688 112.97 252.348 113.418C252.008 113.866 251.76 114.376 251.617 114.92L236.192 173.019L214.039 188.493L205.856 166.837L230.471 110.772C230.926 109.734 230.951 108.558 230.539 107.502C230.127 106.446 229.312 105.597 228.274 105.142C227.236 104.686 226.06 104.662 225.004 105.074C223.948 105.486 223.1 106.301 222.644 107.338L201.538 155.417L187.055 117.093L200.397 75.8499C200.574 75.315 200.643 74.7504 200.601 74.1886C200.559 73.6269 200.406 73.079 200.151 72.5765C199.896 72.0741 199.544 71.627 199.116 71.2611C198.688 70.8951 198.191 70.6175 197.655 70.4442C197.119 70.2709 196.554 70.2054 195.993 70.2513C195.431 70.2973 194.884 70.4539 194.384 70.7121C193.883 70.9702 193.438 71.3249 193.075 71.7557C192.712 72.1864 192.438 72.6848 192.268 73.222L182.218 104.293L170.271 72.6752C170.072 72.1503 169.773 71.6696 169.389 71.2606C169.004 70.8516 168.544 70.5223 168.032 70.2914C167.521 70.0605 166.969 69.9326 166.408 69.9149C165.847 69.8973 165.289 69.9903 164.764 70.1887C164.239 70.387 163.758 70.6868 163.349 71.0709C162.94 71.4549 162.611 71.9158 162.38 72.4272C162.149 72.9386 162.021 73.4904 162.003 74.0512C161.986 74.612 162.079 75.1708 162.277 75.6957L173.16 104.493L147.019 86.1624C146.091 85.5121 144.943 85.257 143.828 85.4531C142.712 85.6492 141.72 86.2805 141.069 87.2081C140.419 88.1357 140.164 89.2837 140.36 90.3994C140.556 91.5152 141.187 92.5073 142.115 93.1576L178.525 118.693L192.894 156.716L149.396 130.349C148.427 129.762 147.265 129.584 146.165 129.854C145.064 130.124 144.116 130.82 143.529 131.788C142.942 132.757 142.763 133.92 143.033 135.02C143.303 136.12 143.999 137.069 144.968 137.656L197.794 169.68L206.019 191.444L181.999 194.288L127.301 158.362C126.832 158.054 126.307 157.841 125.756 157.737C125.205 157.632 124.639 157.636 124.089 157.75C123.54 157.864 123.019 158.085 122.555 158.401C122.091 158.716 121.694 159.12 121.387 159.589C121.079 160.058 120.866 160.582 120.762 161.133C120.657 161.684 120.661 162.251 120.775 162.8C120.889 163.349 121.11 163.87 121.426 164.334C121.741 164.798 122.145 165.195 122.614 165.503L168.81 195.85L123.353 201.232L87.5315 182.479C87.0344 182.219 86.491 182.059 85.9322 182.009C85.3734 181.959 84.8101 182.019 84.2747 182.187C83.7392 182.354 83.2419 182.625 82.8113 182.985C82.3807 183.345 82.0251 183.785 81.7649 184.283C81.5047 184.78 81.3449 185.323 81.2947 185.882C81.2446 186.441 81.3049 187.004 81.4724 187.539C81.6399 188.075 81.9112 188.572 82.2708 189.003C82.6304 189.433 83.0714 189.789 83.5684 190.049L108.33 203.011L72.5408 207.248C71.9819 207.312 71.4411 207.486 70.9495 207.76C70.4579 208.033 70.0251 208.401 69.676 208.842C69.3269 209.283 69.0683 209.789 68.915 210.33C68.7618 210.871 68.7169 211.437 68.783 211.996C68.8491 212.555 69.0248 213.095 69.3001 213.585C69.5754 214.076 69.9449 214.507 70.3873 214.855C70.8297 215.202 71.3364 215.459 71.8782 215.61C72.42 215.761 72.9864 215.804 73.5448 215.736L116.558 210.643L89.872 238.067C89.0817 238.879 88.6465 239.972 88.662 241.105C88.6775 242.238 89.1425 243.318 89.9546 244.108C90.7667 244.899 91.8596 245.334 92.9926 245.318C94.1257 245.303 95.2061 244.838 95.9964 244.026L130.036 209.047L167.793 204.577L134.788 243.478C134.174 244.2 133.819 245.106 133.776 246.052C133.734 246.999 134.008 247.932 134.554 248.706C135.1 249.48 135.888 250.05 136.794 250.327C137.7 250.604 138.673 250.572 139.558 250.236C140.235 249.982 140.835 249.558 141.3 249.005L180.248 203.101L206.106 200.04L198.789 231.937L145.096 269.722C144.17 270.373 143.54 271.367 143.346 272.483C143.152 273.599 143.409 274.746 144.061 275.673C144.712 276.599 145.706 277.229 146.822 277.423C147.938 277.618 149.085 277.36 150.012 276.709L195.932 244.394L186.203 286.823L152.908 315.564C152.063 316.308 151.547 317.355 151.47 318.478C151.394 319.602 151.763 320.709 152.499 321.562C153.234 322.414 154.276 322.941 155.398 323.03C156.52 323.118 157.632 322.761 158.492 322.034L182.974 300.901L175.002 335.664C174.758 336.765 174.959 337.919 175.561 338.873C176.164 339.827 177.119 340.504 178.219 340.756C179.319 341.008 180.474 340.815 181.432 340.219C182.39 339.622 183.073 338.672 183.333 337.574L191.376 302.503L205.464 333.823C205.909 334.815 206.716 335.599 207.72 336.016C208.724 336.433 209.849 336.452 210.866 336.068C210.948 336.037 211.028 336.002 211.113 335.966C211.624 335.736 212.085 335.407 212.47 334.998C212.855 334.59 213.155 334.11 213.354 333.585C213.553 333.061 213.646 332.502 213.629 331.941C213.612 331.381 213.485 330.829 213.255 330.317L194.539 288.705L203.429 249.934L227.003 294.045C227.491 294.959 228.296 295.665 229.266 296.03C230.236 296.395 231.305 296.395 232.276 296.03C232.449 295.964 232.618 295.887 232.781 295.799C233.276 295.535 233.714 295.176 234.07 294.743C234.426 294.309 234.693 293.81 234.856 293.273C235.019 292.737 235.075 292.173 235.02 291.615C234.965 291.057 234.8 290.515 234.536 290.02L206.337 237.249L214.501 201.647L238.038 216.956L246.666 276.602C246.829 277.723 247.43 278.734 248.338 279.412C249.245 280.09 250.385 280.38 251.507 280.218C251.815 280.173 252.117 280.094 252.408 279.984C253.317 279.64 254.082 278.996 254.575 278.158C255.069 277.32 255.262 276.34 255.123 275.377L247.572 223.152L279.612 243.991L291.084 290.38C291.357 291.479 292.055 292.426 293.025 293.011C293.996 293.596 295.159 293.772 296.259 293.499C296.424 293.458 296.586 293.407 296.745 293.346C297.723 292.976 298.53 292.261 299.016 291.335C299.501 290.41 299.63 289.338 299.379 288.324L290.102 250.813L328.928 276.065C329.398 276.371 329.924 276.581 330.476 276.684C331.028 276.786 331.595 276.779 332.144 276.663C332.693 276.546 333.214 276.323 333.676 276.005C334.139 275.688 334.535 275.282 334.841 274.812C335.147 274.341 335.357 273.815 335.459 273.263C335.562 272.711 335.555 272.144 335.439 271.595C335.322 271.046 335.099 270.526 334.781 270.063C334.464 269.6 334.058 269.204 333.587 268.898L305.395 250.563L331.148 251.775C331.709 251.802 332.269 251.718 332.797 251.528C333.325 251.338 333.811 251.046 334.226 250.668C334.641 250.29 334.978 249.835 335.217 249.327C335.456 248.819 335.592 248.269 335.619 247.709C335.646 247.148 335.561 246.588 335.371 246.06C335.181 245.532 334.889 245.046 334.512 244.631C334.134 244.216 333.678 243.879 333.171 243.64C332.663 243.401 332.113 243.264 331.552 243.238L291.218 241.343L251.792 215.702L305.422 214.566C306.551 214.536 307.623 214.061 308.403 213.244C309.182 212.427 309.607 211.334 309.583 210.205C309.559 209.075 309.09 208.002 308.277 207.218C307.463 206.434 306.373 206.003 305.244 206.021L239.068 207.426L219.8 194.895L238.507 181.827L303.205 190.754C304.328 190.909 305.466 190.611 306.369 189.927C307.272 189.243 307.867 188.228 308.021 187.105C308.176 185.983 307.879 184.845 307.195 183.942C306.51 183.038 305.495 182.444 304.373 182.289L248.816 174.627L283.823 150.175L328.753 151.894C329.882 151.931 330.979 151.519 331.805 150.749C332.632 149.979 333.119 148.914 333.162 147.785C333.205 146.657 332.799 145.557 332.034 144.727C331.268 143.897 330.205 143.404 329.077 143.355L295.43 142.067L324.701 121.62C325.63 120.971 326.264 119.98 326.462 118.864C326.66 117.748 326.407 116.599 325.759 115.67V115.67Z" fill="white"/>
</svg>
