<svg width="125" height="132" viewBox="0 0 125 132" fill="none" xmlns="http://www.w3.org/2000/svg">
<path d="M124.932 14.1419C125.033 12.5592 124.757 10.9752 124.127 9.51957C123.609 8.31941 122.853 7.23679 121.905 6.33722C120.852 4.77724 119.38 3.54616 117.658 2.78552C115.937 2.02488 114.035 1.76557 112.173 2.03741C109.454 0.691448 106.456 0.00622965 103.423 0.0374987H102.853C102.413 0.0124998 101.963 0 101.511 0C95.4186 0 89.8988 2.1374 88.3514 2.79487C86.189 3.71233 82.0342 5.77224 78.5093 9.27208C74.312 13.4394 72.9221 17.6692 72.6646 21.0641C55.5275 31.325 40.4952 44.7472 28.3666 60.6173C27.3033 61.5433 26.4509 62.6864 25.8667 63.9696C13.7347 80.7464 4.8951 99.9955 0.27031 119.745C-0.0772944 121.199 -0.0898112 122.713 0.233704 124.172C0.557218 125.632 1.2083 126.998 2.13773 128.169C3.08499 129.352 4.28517 130.307 5.65006 130.964C7.01495 131.622 8.50985 131.965 10.0249 131.969C12.2491 131.974 14.4091 131.224 16.1506 129.84C17.8922 128.457 19.1118 126.522 19.6094 124.354C23.7518 106.675 31.7514 89.476 42.7659 74.5517C49.3998 69.4883 57.3436 66.4281 65.6599 65.7321C68.6823 68.5869 73.1046 70.1919 78.1043 70.1919C80.5884 70.2019 83.0552 69.7789 85.394 68.9419C87.8025 68.221 90.0324 67.0013 91.9387 65.3621L92.2337 65.3121C93.707 65.0624 95.1025 64.4753 96.3112 63.5967C97.5199 62.718 98.5089 61.5717 99.2009 60.2473C99.7424 59.2161 100.097 58.0973 100.248 56.9425C100.738 55.1988 100.738 53.3538 100.248 51.6102C100.198 51.4335 100.144 51.2594 100.086 51.0877C102.133 49.8918 103.907 48.2817 105.296 46.3604C107.651 45.4531 109.572 43.6829 110.668 41.4098C111.764 39.1367 111.954 36.5313 111.198 34.1235C112.754 33.1333 114.196 31.9747 115.498 30.6686C116.95 29.1958 118.159 27.5014 119.08 25.6489C119.3 25.5072 119.514 25.3572 119.722 25.1989C120.949 24.4856 122.008 23.5172 122.827 22.3591C123.647 21.2011 124.208 19.8804 124.472 18.4867C124.794 17.5387 124.971 16.5476 124.997 15.5468C125.008 15.0776 124.986 14.6081 124.932 14.1419Z" fill="white"/>
<path d="M120.485 14.2119C120.616 13.2125 120.476 12.1964 120.08 11.2695C119.733 10.4583 119.189 9.74675 118.498 9.19958C118.008 8.33602 117.298 7.61719 116.442 7.11586C115.585 6.61453 114.611 6.3485 113.618 6.34471C113.251 6.34453 112.885 6.38053 112.525 6.4522C112.172 6.52387 111.818 6.6072 111.463 6.70219L111.353 6.63219C109.06 5.18726 106.391 4.45479 103.421 4.45479C103.211 4.45479 102.998 4.45479 102.783 4.45479C102.368 4.42729 101.938 4.41479 101.506 4.41479C97.326 4.41479 92.8562 5.67724 90.0663 6.85969C83.3166 9.72206 76.3544 15.5668 77.0669 23.3964C77.0669 23.4598 77.0735 23.5231 77.0869 23.5864C59.6276 33.586 43.9533 47.3754 31.5664 63.6771L31.3914 63.8196C30.6342 64.435 30.0572 65.2434 29.7215 66.1595C17.7845 82.5513 9.0924 101.408 4.5626 120.747C4.36842 121.554 4.36024 122.395 4.53867 123.206C4.71709 124.016 5.07747 124.776 5.59255 125.427C6.125 126.09 6.79927 126.626 7.56583 126.994C8.3324 127.363 9.17179 127.555 10.0224 127.557C11.2508 127.559 12.4433 127.143 13.4045 126.378C14.3657 125.613 15.0383 124.544 15.3121 123.347C19.6344 104.883 28.024 86.9386 39.586 71.4218C47.5587 65.1684 57.3001 61.588 67.4248 61.1898C67.6217 61.4211 67.8303 61.6422 68.0498 61.8522C70.2097 64.3521 73.8445 65.7721 78.1018 65.7721C80.1128 65.7825 82.1096 65.4355 83.9991 64.7471C86.1548 64.1292 88.1196 62.9769 89.7113 61.3972L89.8663 61.2373H89.9088L91.4737 60.9648C92.2811 60.8295 93.0463 60.5094 93.7094 60.0293C94.3725 59.5492 94.9155 58.9222 95.296 58.1974C95.6453 57.5278 95.853 56.7934 95.906 56.04C96.26 54.9966 96.2888 53.8703 95.9885 52.8101C95.8351 52.2623 95.6018 51.74 95.296 51.2602C95.2785 51.1277 95.2561 50.9952 95.2286 50.8627C95.0822 50.1437 94.8005 49.4591 94.3986 48.8453C95.4376 48.5103 96.4421 48.0767 97.3985 47.5504C99.6659 46.3004 101.383 44.583 102.438 42.5781C103.465 42.4378 104.431 42.0129 105.228 41.3515C106.026 40.6902 106.622 39.8189 106.949 38.8362C107.277 37.8535 107.323 36.7987 107.082 35.7913C106.841 34.7839 106.322 33.8641 105.586 33.136C105.496 32.8576 105.384 32.5867 105.251 32.326C107.901 31.2004 110.317 29.5895 112.375 27.5763C113.815 26.1102 114.945 24.369 115.698 22.4565C116.264 22.2437 116.791 21.9369 117.255 21.549C118.287 21.0233 119.123 20.1804 119.64 19.1441C119.923 18.5834 120.109 17.9792 120.192 17.3567C120.436 16.7493 120.569 16.1034 120.585 15.4493C120.597 15.0344 120.564 14.6194 120.485 14.2119ZM68.1323 49.6653C68.0106 49.8103 67.8931 49.9586 67.7798 50.1103L67.1598 50.1328L68.1323 49.6653Z" fill="black"/>
<path d="M115.04 17.6868C115.192 17.6381 115.333 17.5584 115.453 17.4526C115.572 17.3468 115.669 17.2173 115.736 17.0722C115.803 16.9272 115.839 16.7698 115.842 16.6101C115.845 16.4503 115.814 16.2917 115.753 16.1443C115.884 16.0411 115.99 15.9099 116.063 15.7603C116.137 15.6107 116.176 15.4465 116.178 15.2798C116.179 15.1131 116.143 14.9482 116.073 14.7971C116.003 14.646 115.899 14.5127 115.77 14.4069C116.398 13.7419 116.21 12.387 115.063 12.4895L114.563 12.5345C115.24 11.7245 114.38 10.5746 113.393 10.7846C111.916 11.0805 110.507 11.6439 109.233 12.447C108.363 12.992 108.691 14.1294 109.395 14.4594C109.46 14.6499 109.579 14.817 109.738 14.9394C109.898 15.0618 110.09 15.134 110.29 15.1469C110.321 15.3857 110.43 15.6075 110.601 15.7773C110.772 15.9471 110.994 16.0551 111.233 16.0843C111.068 16.2511 110.958 16.464 110.917 16.6948C110.876 16.9256 110.906 17.1634 111.003 17.3768C110.845 18.0992 111.415 19.0092 112.36 18.7742L114.058 18.3517C114.206 18.3102 114.344 18.2368 114.461 18.1367C114.578 18.0365 114.671 17.9119 114.735 17.7717C114.835 17.7368 114.938 17.7168 115.04 17.6868Z" fill="#F59439"/>
<path d="M101.761 35.9659C101.752 35.8201 101.712 35.6779 101.644 35.5486C101.576 35.4194 101.481 35.306 101.366 35.2159C101.445 35.0018 101.457 34.7686 101.401 34.5473C101.345 34.326 101.223 34.127 101.051 33.9766C100.879 33.8262 100.666 33.7316 100.439 33.7051C100.212 33.6786 99.9827 33.7217 99.7809 33.8285C98.3107 34.4928 96.9965 35.4586 95.9235 36.6634C95.7878 36.8063 95.694 36.9838 95.6525 37.1766C95.6111 37.3693 95.6235 37.5697 95.6886 37.7558C95.4386 38.5433 96.0035 39.5507 96.971 39.1882C98.5 38.6055 100.113 38.2745 101.748 38.2083C103.183 38.1508 103.186 36.0734 101.761 35.9659Z" fill="#F59439"/>
<path d="M91.3937 55.06C92.2287 54.4975 91.6287 53.1201 90.6813 53.0776C90.6188 53.0776 90.5638 53.0601 90.5013 53.0576C90.4713 52.9869 90.4336 52.9199 90.3888 52.8576V52.8576C91.5387 52.3576 90.7013 50.3377 89.5288 50.8102C89.4363 50.8477 89.3463 50.8902 89.2538 50.9302L89.1063 50.9977C87.1021 51.8452 85.3007 53.1089 83.8216 54.705C82.8466 55.765 84.4366 57.3449 85.4165 56.2799C85.6665 56 85.9465 55.7325 86.224 55.475C85.839 56.175 86.4365 57.3649 87.5039 57.1774L90.7213 56.6174C91.4987 56.4774 91.6712 55.66 91.3937 55.06Z" fill="#F59439"/>
<path d="M11.0199 122.355C15.6172 102.72 24.3943 84.3112 36.4037 68.3294C46.0504 60.6231 58.0849 56.5267 70.4297 56.7474C71.8747 56.7699 71.8847 54.5275 70.4422 54.4975C60.7897 54.341 51.2646 56.7165 42.816 61.3872C46.6333 55.8875 53.5055 52.4476 59.2002 49.2978C65.7966 45.6666 72.6783 42.5799 79.7768 40.0682C81.1267 39.5882 80.5543 37.4183 79.1943 37.9033C71.4683 40.6305 63.9931 44.0222 56.8528 48.0403C55.1554 49.0028 53.388 49.9878 51.6381 51.0402C61.1996 41.7436 72.0067 33.8206 83.7491 27.4988C85.0191 26.8163 83.8841 24.8839 82.6117 25.5663C63.8075 35.6559 47.4883 49.8853 34.7388 66.8145C34.5588 66.9595 34.3738 67.0945 34.1963 67.242C34.0727 67.3326 33.974 67.453 33.9093 67.592C33.8446 67.7309 33.8161 67.884 33.8264 68.0369C22.0444 83.9962 13.4148 102.3 8.85747 121.765C8.52749 123.169 10.6924 123.759 11.0199 122.355Z" fill="#17775E"/>
<path d="M109.248 24.4538C112.928 20.749 114.015 13.5243 108.998 10.362C107.108 9.17202 104.953 8.76954 102.713 8.88203C98.8959 8.57455 94.3661 9.83699 91.7837 10.9294C87.2214 12.8619 80.9367 17.2767 81.4592 23.0039C81.9591 28.5462 88.2089 30.7711 92.9837 30.6286C98.4984 30.4636 105.278 28.4512 109.248 24.4538Z" fill="#C02942"/>
<path d="M99.2184 38.2482C99.2449 37.954 99.254 37.6585 99.2459 37.3633C99.4559 35.8058 99.0234 34.2834 97.451 33.381C97.3717 33.3369 97.2879 33.3017 97.201 33.276C93.8261 30.7761 87.1489 31.661 84.0041 33.6759C83.0851 34.2619 82.2614 34.9852 81.5617 35.8208C81.0326 36.2326 80.5683 36.7213 80.1842 37.2708C78.5943 39.5807 79.7367 42.3531 81.9342 43.833C86.8339 47.1378 98.5609 45.2304 99.2184 38.2482Z" fill="#C02942"/>
<path d="M82.6017 60.5623C84.0948 60.1622 85.4611 59.3878 86.5715 58.3124C86.84 58.0396 87.0827 57.7426 87.2965 57.425C89.5838 55.76 87.4539 51.1753 86.254 50.0853C82.3142 46.4755 71.6546 49.4378 70.3422 54.7351C69.5772 56.485 70.1247 57.835 71.2572 58.8299C73.1496 61.2323 77.2944 61.6573 80.0243 61.2448C80.9049 61.1083 81.7688 60.8795 82.6017 60.5623V60.5623Z" fill="#C02942"/>
<path d="M105.621 15.8368C103.338 11.0546 95.9011 14.5869 98.1885 19.3842C100.476 24.1815 107.908 20.6266 105.621 15.8368Z" fill="#E56060"/>
<path d="M94.3811 39.3507C93.2661 36.2058 88.3814 37.9332 89.4938 41.0831C90.6063 44.233 95.4985 42.498 94.3811 39.3507Z" fill="#E56060"/>
<path d="M82.5566 53.9551C82.4711 53.7131 82.3158 53.5019 82.1103 53.3482C81.9047 53.1944 81.6582 53.1051 81.4019 53.0915C81.1456 53.078 80.891 53.1407 80.6703 53.2718C80.4497 53.403 80.2729 53.5966 80.1623 53.8282C80.0518 54.0599 80.0124 54.3191 80.0492 54.5731C80.086 54.8272 80.1973 55.0646 80.369 55.2553C80.5408 55.4461 80.7652 55.5816 81.014 55.6447C81.2628 55.7079 81.5247 55.6958 81.7666 55.6101C82.0887 55.4925 82.3518 55.2533 82.4995 54.9439C82.6472 54.6345 82.6677 54.2795 82.5566 53.9551V53.9551Z" fill="#E56060"/>
</svg>
