<svg width="270" height="163" viewBox="0 0 270 163" fill="none" xmlns="http://www.w3.org/2000/svg">
<path d="M270 81.12C270 85.2426 268.645 88.9025 266.008 91.6293C261.715 96.0764 255.904 96.2955 252.771 96.4173L224.725 97.4809C223.638 99.5512 221.777 101.109 219.548 101.815L216.886 102.667C216.651 102.744 216.413 102.809 216.172 102.861C212.276 107.52 207.391 112.048 201.589 116.373C198.878 118.394 195.973 120.358 192.962 122.216C190.178 123.929 187.184 125.625 184.084 127.248C181.187 128.741 178.614 129.983 176.163 131.07C172.285 132.807 168.381 134.381 164.575 135.752L164.518 135.769C162.741 136.418 160.858 137.059 158.764 137.733C158.172 137.919 157.612 138.097 157.068 138.26C153.319 139.429 149.424 140.484 145.488 141.401C143.191 141.936 140.773 142.448 138.322 142.902C135.165 143.486 131.944 143.973 128.754 144.355C126.385 144.639 124.039 144.858 121.767 145.004C117.961 145.255 114.212 145.328 110.617 145.239C108.117 145.166 105.877 145.028 103.759 144.817C100.819 144.544 97.8954 144.108 95.0031 143.51C92.8767 143.072 90.9533 142.577 89.16 142.025L87.829 142.455C86.4026 142.911 84.8844 143 83.4144 142.715L60.6349 158.004C58.3869 159.505 54.4834 162.127 49.5333 162.127C48.7226 162.127 47.9134 162.056 47.115 161.915C41.4343 160.917 36.8896 156.454 34.6336 149.67C33.7041 146.864 33.1343 143.952 32.9376 141.002C25.528 133.845 22.9882 122.005 27.403 112.534C27.5733 112.161 27.7601 111.796 27.9384 111.431C27.9872 111.333 28.036 111.236 28.0927 111.13C27.9872 110.838 27.8898 110.546 27.7924 110.254C25.9178 104.33 26.6969 97.6102 29.8944 92.278C31.2011 90.0868 32.7662 88.488 34.6579 87.4003C37.4577 85.8016 40.3143 85.7448 41.6856 85.7205C51.0105 85.5526 60.3156 86.6392 69.3508 88.9513C69.7305 88.7734 70.1208 88.6189 70.5193 88.4886L73.1812 87.6366C74.0669 87.3477 74.9926 87.1998 75.9242 87.1984C77.4578 85.4864 79.1242 83.7903 80.9234 82.1101C79.1137 81.5745 77.3366 81.0063 75.6161 80.3978C73.2546 79.57 71.1689 78.7503 69.2132 77.9058C66.4997 76.7412 63.8503 75.4325 61.2764 73.9854C59.3855 72.9143 57.7056 71.8674 56.1639 70.7881H54.768C53.2677 70.7895 51.7912 70.4127 50.475 69.6925L24.1243 77.2896C21.1137 78.158 15.5222 79.7648 10.0524 76.892C4.9479 74.2058 1.98591 68.5658 1.91312 61.4162C1.87994 58.4599 2.22623 55.5117 2.94351 52.6436C-1.92562 43.5708 -0.732654 31.5196 6.36819 23.8425C6.64413 23.5505 6.92828 23.2499 7.21212 22.958L7.4475 22.7227C7.43944 22.4061 7.43124 22.0978 7.43124 21.7894C7.46322 18.6743 8.14611 15.6003 9.43608 12.7647C10.7261 9.92913 12.5946 7.39453 14.9218 5.32362C16.8452 3.62754 18.8171 2.58849 20.9516 2.13431C24.1002 1.46071 26.843 2.28033 28.1579 2.67799C37.0875 5.36368 45.6148 9.23974 53.5097 14.2017C53.9267 14.1461 54.3469 14.119 54.7676 14.1205H57.5594C58.4908 14.1169 59.4168 14.2621 60.3024 14.5506C64.2788 12.2053 68.7313 10.1089 73.66 8.26129C76.8662 7.06847 80.3064 5.97275 83.9015 4.9989C87.4804 4.02519 91.3434 3.165 95.3929 2.44277C98.298 1.92325 101.22 1.49323 104.109 1.14419C107.671 0.722225 111.307 0.413916 114.902 0.243426C117.45 0.0974008 120.128 0.0162588 122.806 0H123.755C127.618 0 131.465 0.129766 135.182 0.389451C137.527 0.535629 140.011 0.762796 142.518 1.04679C145.829 1.42014 149.092 1.89894 152.192 2.45888C154.424 2.84028 156.696 3.30297 159.074 3.8547C162.814 4.73116 166.377 5.72127 169.68 6.80058C171.879 7.51476 174.046 8.30186 176.131 9.14595C179.335 10.4314 182.461 11.8999 185.496 13.5443C186.77 14.2503 187.971 14.9591 189.099 15.6706C189.335 15.6543 189.571 15.6463 189.814 15.6463H192.605C193.075 15.6441 193.545 15.6794 194.009 15.7517C202.407 10.1154 211.582 5.73308 221.244 2.74303C222.559 2.33716 225.286 1.49323 228.45 2.14236C230.593 2.58059 232.573 3.60322 234.504 5.28305C236.848 7.33412 238.737 9.85287 240.049 12.6774C241.362 15.502 242.069 18.5699 242.125 21.6839C242.125 22.0004 242.125 22.3087 242.116 22.6172C242.198 22.6983 242.279 22.7795 242.352 22.8526C242.644 23.1448 242.936 23.4368 243.212 23.7371C245.719 26.432 247.569 29.6706 248.617 33.1994C249.732 34.8301 250.614 36.6082 251.238 38.4824C251.335 38.7747 251.433 39.0669 251.522 39.3671C251.62 39.4239 251.725 39.4726 251.814 39.5213C252.179 39.7079 252.545 39.9027 252.902 40.0974C262.039 45.1613 266.949 56.2305 265.172 66.3746C266.749 68.8754 268 71.567 268.897 74.3843C269.608 76.5597 269.98 78.8315 270 81.12V81.12Z" fill="white"/>
<path d="M235.9 29.2915C234.747 28.0654 233.358 26.9362 232.849 25.3318C232.489 24.1958 232.624 22.9721 232.611 21.7802C232.576 19.8128 232.13 17.8743 231.302 16.0895C230.473 14.3047 229.28 12.7131 227.799 11.4171C227.105 10.8172 226.323 10.2733 225.424 10.0892C224.366 9.87286 223.278 10.1775 222.247 10.4965C210.544 14.1279 199.64 19.9552 190.117 27.667C188.63 26.2973 187.051 25.0312 185.391 23.8778C183.72 22.7163 181.989 21.644 180.205 20.6654C177.448 19.1715 174.607 17.8379 171.696 16.6713C169.799 15.9062 167.824 15.1869 165.759 14.5136C162.622 13.4884 159.301 12.5702 155.842 11.7592C153.73 11.2694 151.573 10.8258 149.354 10.4431C146.385 9.90751 143.325 9.46366 140.203 9.11174C137.923 8.8516 135.597 8.63735 133.225 8.48433C129.675 8.23949 126.054 8.11707 122.361 8.11707H121.458C118.902 8.13226 116.377 8.20824 113.898 8.34666C110.409 8.51503 107.002 8.80069 103.676 9.20367C100.86 9.54019 98.1104 9.94823 95.4276 10.4278C91.6785 11.1011 88.0671 11.8969 84.6239 12.8303C81.2879 13.7332 78.1052 14.7432 75.1056 15.8602C67.2405 18.8062 60.6497 22.471 55.7537 26.639C46.3931 19.3635 35.7717 13.8754 24.4218 10.4498C23.3885 10.1392 22.2977 9.84369 21.2419 10.0687C20.3454 10.2599 19.5665 10.8104 18.8775 11.4159C17.4078 12.7241 16.228 14.3254 15.4141 16.1168C14.6003 17.9082 14.1703 19.8501 14.1519 21.8176C14.1482 23.0095 14.2939 24.2321 13.9428 25.371C13.4462 26.9791 12.0665 28.1199 10.9239 29.3555C5.47315 35.2501 5.25282 45.2555 10.4391 51.3842C9.21062 54.5566 8.59597 57.9335 8.62781 61.3353C8.66002 64.5585 9.58085 68.2073 12.4333 69.7078C14.8692 70.9895 17.83 70.2538 20.4747 69.4914L54.0657 59.8103C55.5212 61.2063 57.0807 62.4897 58.7306 63.6495C60.3813 64.8374 62.098 65.9308 63.8725 66.9244C66.1984 68.2334 68.5945 69.4137 71.0499 70.4598C72.9169 71.2708 74.8604 72.0207 76.8958 72.7391C80.048 73.8409 83.3841 74.836 86.8731 75.7078C88.954 76.2282 91.0965 76.7026 93.3006 77.1311C96.2234 77.6973 99.2381 78.1819 102.344 78.5848C104.609 78.8755 106.92 79.1205 109.261 79.304C112.995 79.61 116.821 79.7938 120.723 79.8243C121.259 79.8395 121.809 79.8395 122.361 79.8395C124.319 79.8395 126.278 79.8091 128.206 79.7331H128.221C132.261 79.5955 136.225 79.2893 140.081 78.8608C142.881 78.5549 145.605 78.1569 148.283 77.7131C151.543 77.1469 154.69 76.4889 157.725 75.7391C160.969 74.9433 164.091 74.0252 167.029 73.0152C177.195 69.537 185.432 64.8967 190.931 59.5187L226.679 69.5048C229.329 70.2453 232.296 70.9567 234.721 69.6551C237.562 68.1307 238.453 64.4745 238.458 61.2511C238.462 57.8492 237.82 54.4776 236.566 51.3153C241.701 45.1447 241.399 35.1412 235.9 29.2915Z" fill="#E02C37"/>
<path d="M84.6235 12.8297L52.9775 58.7227C51.4014 57.0852 53.5592 50.3494 52.5338 48.5896L75.1053 15.8593C78.1046 14.7426 81.2876 13.7326 84.6235 12.8297Z" fill="white"/>
<path d="M103.676 9.20306L63.8731 66.9248C62.0986 65.9313 60.3819 64.8379 58.7312 63.65L95.4275 10.4272C98.1053 9.95279 100.855 9.54475 103.676 9.20306Z" fill="white"/>
<path d="M121.457 8.11646L76.8957 72.7399C74.8603 72.0207 72.9168 71.2708 71.0498 70.4606L113.898 8.34605C116.377 8.20823 118.902 8.1318 121.457 8.11646Z" fill="white"/>
<path d="M155.842 11.7586L109.261 79.3047C106.92 79.1212 104.609 78.8762 102.344 78.5856L149.354 10.4425C151.573 10.8251 153.731 11.2688 155.842 11.7586Z" fill="white"/>
<path d="M171.696 16.6707L128.221 79.7333H128.206C126.278 79.8093 124.319 79.8396 122.36 79.8396C121.809 79.8396 121.258 79.8396 120.722 79.8244L165.759 14.513C167.824 15.1863 169.798 15.9056 171.696 16.6707Z" fill="white"/>
<path d="M185.392 23.8782L148.283 77.7132C145.605 78.1571 142.881 78.555 140.081 78.8609L180.205 20.6653C181.989 21.6442 183.721 22.7166 185.392 23.8782V23.8782Z" fill="white"/>
<path d="M192.044 36.7503L167.029 73.0154C164.091 74.0254 160.969 74.9435 157.725 75.7392L190.595 28.0873C192.217 29.6168 190.912 35.0977 192.044 36.7503Z" fill="white"/>
<path d="M140.203 9.11111L93.3001 77.1318C91.0966 76.7033 88.9541 76.2289 86.8726 75.7085L133.225 8.4837C135.597 8.63672 137.923 8.85097 140.203 9.11111Z" fill="white"/>
<path d="M56.8433 22.2326H52.6902C52.6038 22.2326 52.5337 22.3027 52.5337 22.3891V62.5186C52.5337 62.605 52.6038 62.6751 52.6902 62.6751H56.8433C56.9298 62.6751 56.9998 62.605 56.9998 62.5186V22.3891C56.9998 22.3027 56.9298 22.2326 56.8433 22.2326Z" fill="#0C1F26"/>
<path d="M191.887 23.7589H187.734C187.648 23.7589 187.578 23.829 187.578 23.9154V64.0449C187.578 64.1313 187.648 64.2014 187.734 64.2014H191.887C191.974 64.2014 192.044 64.1313 192.044 64.0449V23.9154C192.044 23.829 191.974 23.7589 191.887 23.7589Z" fill="#0C1F26"/>
<path d="M247.569 47.195C246.097 46.3795 244.429 45.728 243.454 44.3561C242.764 43.3836 242.52 42.1777 242.143 41.0469C241.509 39.1841 240.492 37.4745 239.158 36.0282C237.824 34.5818 236.202 33.4307 234.397 32.6488C233.553 32.2895 232.641 32.0106 231.729 32.1099C230.656 32.2267 229.713 32.849 228.829 33.4677C218.794 40.4995 210.19 49.3784 203.477 59.6298C201.643 58.7794 199.753 58.056 197.82 57.4646C195.874 56.8686 193.898 56.376 191.899 55.9887C188.818 55.4082 185.706 55.0059 182.578 54.7839C180.537 54.6348 178.438 54.5528 176.265 54.5424C172.965 54.5242 169.522 54.664 165.981 54.9478C163.821 55.1264 161.631 55.3628 159.401 55.6762C156.411 56.0726 153.361 56.5848 150.28 57.203C148.03 57.6515 145.75 58.158 143.444 58.7365C139.989 59.5874 136.503 60.5768 132.986 61.7047L132.126 61.9809C129.698 62.7759 127.322 63.6183 124.998 64.508C121.727 65.7338 118.57 67.0463 115.526 68.4457C112.948 69.6262 110.451 70.8608 108.046 72.1304C104.681 73.9166 101.485 75.7772 98.4918 77.7175C95.5908 79.5959 92.8684 81.5298 90.3534 83.5094C83.7636 88.7166 78.6076 94.2189 75.2176 99.6829C64.0825 95.6138 52.2928 93.6316 40.4392 93.8359C39.3604 93.8558 38.2314 93.9073 37.2948 94.4437C36.4988 94.8995 35.926 95.6615 35.4548 96.4485C34.4545 98.143 33.82 100.028 33.592 101.982C33.3639 103.937 33.5474 105.917 34.1307 107.797C34.4911 108.933 35.0032 110.052 35.0166 111.244C35.0355 112.927 34.0702 114.435 33.3603 115.96C29.9699 123.238 32.8157 132.832 39.6254 137.085C39.4244 140.481 39.8705 143.884 40.9399 147.113C41.9548 150.173 43.946 153.366 47.1205 153.924C49.8315 154.401 52.4262 152.796 54.7117 151.263L83.7405 131.786C85.553 132.67 87.4301 133.416 89.3556 134.017C91.29 134.644 93.2584 135.16 95.2513 135.565C97.8657 136.101 100.508 136.493 103.165 136.739C105.19 136.941 107.27 137.062 109.428 137.125C112.766 137.212 116.246 137.14 119.835 136.905C121.975 136.765 124.16 136.562 126.39 136.297C129.346 135.944 132.364 135.485 135.446 134.92C137.691 134.505 139.966 134.032 142.252 133.492C145.901 132.643 149.6 131.65 153.325 130.487C153.84 130.338 154.364 130.17 154.889 130.002C156.754 129.404 158.61 128.776 160.423 128.115L160.438 128.11C164.243 126.745 167.924 125.243 171.465 123.658C174.038 122.511 176.51 121.301 178.925 120.06C181.856 118.526 184.652 116.938 187.312 115.297C190.159 113.549 192.851 111.721 195.34 109.862C203.957 103.446 210.384 96.5116 213.979 89.7111L251.068 88.3033C253.818 88.1989 256.861 87.9702 258.772 85.9903C261.011 83.6714 260.743 79.9177 259.764 76.8466C258.729 73.606 257.088 70.5915 254.928 67.9634C257.934 60.519 254.591 51.086 247.569 47.195Z" fill="#F0B11D"/>
<path d="M98.4917 77.717L82.3729 131.082C80.3721 130.004 80.3697 122.931 78.856 121.568L90.354 83.509C92.8683 81.5294 95.5907 79.5955 98.4917 77.717Z" fill="white"/>
<path d="M115.526 68.4452L95.2524 135.565C93.2595 135.16 91.2911 134.644 89.3567 134.017L108.047 72.1299C110.451 70.8603 112.948 69.6257 115.526 68.4452Z" fill="white"/>
<path d="M132.126 61.9809L109.429 137.125C107.271 137.062 105.191 136.941 103.166 136.739L124.998 64.5075C127.317 63.6194 129.693 62.7772 132.126 61.9809Z" fill="white"/>
<path d="M165.981 54.9479L142.253 133.493C139.967 134.033 137.692 134.505 135.447 134.92L159.401 55.6762C161.631 55.3629 163.821 55.1264 165.981 54.9479Z" fill="white"/>
<path d="M182.578 54.7839L160.438 128.11L160.423 128.115C158.61 128.776 156.754 129.404 154.889 130.002C154.364 130.17 153.841 130.338 153.325 130.487L176.264 54.5421C178.438 54.5528 180.537 54.6348 182.578 54.7839Z" fill="white"/>
<path d="M197.821 57.4646L178.925 120.06C176.51 121.301 174.038 122.512 171.465 123.658L191.9 55.9887C193.898 56.376 195.874 56.8686 197.821 57.4646V57.4646Z" fill="white"/>
<path d="M208.086 67.6905L195.34 109.862C192.851 111.721 190.159 113.549 187.312 115.297L204.06 59.8829C206.072 60.8448 206.502 66.4626 208.086 67.6905Z" fill="white"/>
<path d="M150.28 57.2029L126.391 136.298C124.162 136.562 121.977 136.765 119.836 136.905L143.444 58.7364C145.75 58.158 148.03 57.6515 150.28 57.2029Z" fill="white"/>
<path d="M74.9099 95.1549L70.9552 96.4232C70.8729 96.4495 70.8276 96.5377 70.8539 96.62L83.1087 134.832C83.1351 134.915 83.2232 134.96 83.3055 134.934L87.2602 133.665C87.3425 133.639 87.3879 133.551 87.3615 133.469L75.1068 95.2561C75.0804 95.1738 74.9922 95.1285 74.9099 95.1549Z" fill="#0C1F26"/>
<path d="M203.969 55.3685L200.015 56.6368C199.932 56.6632 199.887 56.7513 199.913 56.8336L212.168 95.0461C212.194 95.1284 212.283 95.1737 212.365 95.1473L216.32 93.8791C216.402 93.8527 216.447 93.7645 216.421 93.6822L204.166 55.4697C204.14 55.3874 204.052 55.3421 203.969 55.3685Z" fill="#0C1F26"/>
</svg>
