<svg width="230" height="275" viewBox="0 0 230 275" fill="none" xmlns="http://www.w3.org/2000/svg">
<path d="M3.6528 239.794C1.94276 242.307 0.796331 245.16 0.292103 248.158C-0.212125 251.155 -0.0622308 254.226 0.73151 257.161C2.42448 263.289 6.7443 268.252 12.8905 271.146C20.0304 274.504 27.3497 274.895 32.2354 274.895C34.3332 274.895 36.3758 274.817 38.17 274.748L40.4426 274.665L47.3433 274.454C53.0248 274.279 58.9042 274.1 64.6594 273.952C80.0939 273.557 95.7308 273.322 111.124 273.253C114.347 273.253 117.568 273.253 120.785 273.253C148.388 273.253 176.979 273.791 205.741 274.849C206.036 274.849 206.33 274.849 206.62 274.849C215.044 274.849 222.864 270.465 227.032 263.408C228.902 260.315 229.924 256.785 229.996 253.172C230.068 249.559 229.187 245.99 227.442 242.826L202.254 197.166C204.981 195.863 207.426 194.037 209.449 191.793C211.462 189.602 212.994 187.013 213.945 184.194C214.896 181.375 215.245 178.387 214.97 175.424C213.332 159.599 204.389 147.076 195.814 136.919C193.615 134.306 191.305 131.518 188.982 128.578C193.119 126.591 196.543 123.379 198.79 119.377C200.695 115.995 201.652 112.162 201.558 108.281C201.464 104.401 200.323 100.618 198.257 97.3318C179.731 67.1344 156.926 38.9061 130.464 13.4334C129.219 11.8569 127.977 10.2805 126.738 8.70409C124.626 5.98852 121.921 3.79228 118.829 2.28359C115.738 0.774896 112.342 -0.0062301 108.902 3.74201e-05V3.74201e-05C105.658 0.00641481 102.45 0.671594 99.471 1.95523C92.9016 4.7569 87.7445 9.61498 83.7007 16.8147C82.0951 19.69 80.6092 22.5331 79.1738 25.2887C78.5144 26.5523 77.8519 27.8159 77.1864 29.0795L63.9187 54.1428L45.1213 89.5662L37.6271 103.694C35.9642 106.838 35.0803 110.334 35.0499 113.891C35.0195 117.447 35.8434 120.958 37.4523 124.129C38.9929 127.161 41.2243 129.788 43.9666 131.798C33.908 145.579 24.551 159.859 15.9314 174.583C14.0388 177.804 13.0279 181.467 13.0005 185.202C12.973 188.938 13.93 192.616 15.775 195.864C18.2754 200.168 22.1708 203.489 26.8161 205.277C21.1943 213.617 15.5864 221.972 10.1164 230.119L3.6528 239.794Z" fill="white"/>
<path d="M17.7439 235.253L11.2619 244.914C10.2804 246.324 9.62016 247.933 9.32766 249.626C9.03515 251.319 9.11751 253.055 9.56893 254.713C10.5396 258.219 13.1021 261.103 16.787 262.838C22.1972 265.386 27.8787 265.713 32.2216 265.713C34.1399 265.713 35.9985 265.639 37.7973 265.57C38.5886 265.538 39.3753 265.51 40.1527 265.487L47.0534 265.276C52.7488 265.101 58.6374 264.922 64.4155 264.774C79.9098 264.379 95.6158 264.14 111.087 264.071C114.32 264.071 117.555 264.071 120.794 264.071C148.516 264.071 177.214 264.609 206.091 265.676H206.629C211.74 265.676 216.644 262.957 219.129 258.752C220.175 257.031 220.752 255.064 220.799 253.05C220.847 251.035 220.364 249.044 219.4 247.274L187.721 189.847L191.038 190.109L191.549 190.15C191.88 190.178 192.216 190.187 192.552 190.187C194.455 190.175 196.335 189.763 198.069 188.979C199.804 188.196 201.355 187.057 202.622 185.637C203.771 184.4 204.649 182.937 205.198 181.34C205.747 179.743 205.955 178.05 205.81 176.368C204.43 163.054 196.803 152.381 188.761 142.83C183.429 136.495 177.467 129.144 172.084 121.047C173.716 121.216 175.34 121.4 176.956 121.599C177.555 121.673 178.157 121.71 178.76 121.71C181.181 121.741 183.567 121.128 185.673 119.933C187.779 118.738 189.529 117.005 190.744 114.91C191.84 112.949 192.387 110.729 192.325 108.483C192.264 106.238 191.596 104.051 190.394 102.153C172.172 72.4525 149.703 44.6934 123.614 19.6394C122.231 17.8912 120.851 16.14 119.474 14.3856C118.219 12.7699 116.611 11.4629 114.773 10.565C112.935 9.66706 110.915 9.20202 108.87 9.20554C106.859 9.20778 104.869 9.61944 103.023 10.4155C96.1724 13.3367 92.8233 19.3265 91.7192 21.2955C90.178 24.0558 88.7243 26.8391 87.3212 29.5349C86.6526 30.82 85.9794 32.102 85.3016 33.3809L72.0109 58.4442L54.6718 91.1718L45.7423 108.009C44.7706 109.85 44.2546 111.897 44.2378 113.978C44.221 116.06 44.7038 118.115 45.6457 119.971C46.5569 121.782 47.8957 123.344 49.5461 124.521C51.1965 125.699 53.109 126.456 55.118 126.729C56.3647 126.908 57.6207 127.055 58.8904 127.189C56.4199 130.409 54.1105 133.528 51.9897 136.44C41.8923 150.21 32.5102 164.49 23.8809 179.224C22.7886 181.044 22.2024 183.123 22.183 185.245C22.1636 187.368 22.7117 189.457 23.7705 191.296C26.0707 195.298 30.3814 197.686 35.3177 197.686C37.8663 197.686 40.4702 197.635 43.1384 197.553L41.151 200.479C33.3027 212.058 25.3899 223.849 17.7439 235.253Z" fill="black"/>
<path d="M211.349 251.695L171.514 179.468C178.438 179.878 185.352 180.425 192.267 180.968C194.567 181.152 196.867 179.022 196.669 177.288C195.561 166.582 189.074 157.446 181.732 148.723C173.727 139.214 166.297 129.696 160.16 119.308C158.458 116.424 156.825 113.516 155.233 110.595C162.873 110.902 170.487 111.515 178.074 112.435C181.598 112.868 184.391 109.882 182.564 106.915C164.521 77.5406 142.352 50.2876 116.824 25.827C115.29 23.9009 113.771 21.9733 112.265 20.0442C110.885 18.2914 108.764 17.974 106.661 18.8711C103.404 20.2512 101.353 22.9609 99.7608 25.7718C97.5664 29.7006 95.5422 33.7121 93.4398 37.6777L80.1491 62.741L53.8575 112.32C52.8086 114.294 53.6781 117.256 56.4337 117.657C63.9325 118.742 71.3346 118.333 78.7367 117.325C71.8039 125.266 65.4782 133.565 59.3688 141.878C49.4498 155.395 40.2366 169.416 31.7661 183.885C30.4918 186.056 32.1618 188.522 35.2901 188.517C43.9573 188.517 52.5556 188.02 61.1216 187.28C56.9812 193.389 52.8776 199.522 48.7418 205.626C38.7266 220.408 28.8126 235.226 18.8711 250.035C17.6979 251.783 18.4524 253.48 20.679 254.529C26.31 257.179 33.3763 256.498 39.8583 256.305C47.9551 256.061 56.0519 255.799 64.1533 255.592C79.7734 255.193 95.395 254.959 111.018 254.888C142.844 254.744 174.638 255.273 206.399 256.475C209.656 256.604 212.513 253.789 211.349 251.695Z" fill="#008545"/>
<path d="M96.5083 57.4045L103.713 40.4748C104.734 38.078 101.049 36.3758 100.032 38.7864L92.828 55.7207C91.7975 58.1129 95.4824 59.8197 96.5083 57.4045Z" fill="#049752"/>
<path d="M107.398 57.11C108.664 53.5773 109.522 49.9115 109.955 46.184C110.25 43.5985 106.252 42.8947 105.953 45.5031C105.584 48.8857 104.829 52.2151 103.703 55.4263C102.843 57.8645 106.524 59.5805 107.398 57.11Z" fill="#049752"/>
<path d="M126.945 61.8899L120.964 48.6682C119.888 46.299 116.065 47.6561 117.141 50.0483L123.122 63.27C124.185 65.6255 128.003 64.2683 126.945 61.8899Z" fill="#049752"/>
<path d="M114.165 36.8313C114.356 34.6414 114.291 32.4367 113.972 30.2618C113.911 29.7315 113.649 29.2446 113.24 28.9021C112.831 28.5595 112.305 28.3875 111.773 28.4216C111.239 28.4742 110.747 28.734 110.403 29.1452C110.059 29.5564 109.89 30.0861 109.932 30.6206C110.225 32.4531 110.304 34.3135 110.167 36.1642C110.091 36.693 110.221 37.2308 110.53 37.6666C110.839 38.1023 111.304 38.4028 111.828 38.5058C112.831 38.6622 114.064 37.9308 114.165 36.8313Z" fill="#049752"/>
<path d="M92.3127 70.8056C93.4536 68.4594 89.764 66.7618 88.6323 69.1172C85.9698 74.6074 82.8115 79.843 79.1968 84.7588C77.6556 86.852 80.7563 89.4742 82.3067 87.3672C86.1386 82.1623 89.4878 76.6188 92.3127 70.8056Z" fill="#049752"/>
<path d="M95.7262 77.145C93.725 75.4659 91.1258 78.5758 93.1178 80.2549C95.1098 81.9341 97.7274 78.8242 95.7262 77.145Z" fill="#049752"/>
<path d="M109.523 77.536C107.522 75.8569 104.923 78.9668 106.915 80.646C108.907 82.3251 111.529 79.2152 109.523 77.536Z" fill="#049752"/>
<path d="M119.281 89.1476C117.267 84.8411 116.406 80.0854 116.783 75.3462C116.999 72.7654 113.001 72.0523 112.78 74.6654C112.279 80.0943 113.197 85.5603 115.444 90.5277C116.539 92.9016 120.366 91.5444 119.281 89.1476Z" fill="#049752"/>
<path d="M132.415 86.1849C130.523 83.1991 129.331 79.8241 128.928 76.3123C128.624 73.7177 124.58 74.0673 124.884 76.6666C125.37 80.8728 126.802 84.9146 129.07 88.4897C130.469 90.7025 133.804 88.3885 132.415 86.1849Z" fill="#049752"/>
<path d="M149.768 84.4045L140.286 73.9661C138.556 72.0569 135.194 74.3433 136.946 76.2663L146.414 86.7093C148.158 88.6185 151.521 86.3367 149.768 84.4045Z" fill="#049752"/>
<path d="M157.874 85.2694L153.117 78.9944C151.539 76.915 148.194 79.2152 149.777 81.2946L154.548 87.5742C156.107 89.6536 159.452 87.3534 157.874 85.2694Z" fill="#049752"/>
<path d="M88.2091 93.9919C89.2396 91.5996 85.5546 89.8975 84.5287 92.3035C83.2794 95.2192 81.605 97.9338 79.5603 100.359C77.8765 102.355 80.9864 104.959 82.6702 102.967C84.946 100.263 86.8123 97.2388 88.2091 93.9919V93.9919Z" fill="#049752"/>
<path d="M96.4669 107.375L98.0954 104.03C98.2797 103.549 98.2738 103.015 98.079 102.538C97.8842 102.061 97.5151 101.676 97.0466 101.461C96.5782 101.246 96.0454 101.217 95.5567 101.381C95.0679 101.545 94.6597 101.888 94.4151 102.342L92.7865 105.686C92.6548 105.93 92.5746 106.199 92.5508 106.475C92.527 106.752 92.5602 107.03 92.6483 107.293C92.7363 107.556 92.8774 107.799 93.0628 108.005C93.2482 108.211 93.474 108.378 93.7262 108.493C93.9784 108.609 94.2516 108.672 94.529 108.678C94.8064 108.684 95.082 108.632 95.3389 108.528C95.5958 108.423 95.8284 108.266 96.0224 108.068C96.2164 107.87 96.3677 107.634 96.4669 107.375V107.375Z" fill="#049752"/>
<path d="M111.763 106.468C109.762 104.789 107.163 107.899 109.155 109.578C111.147 111.257 113.746 108.147 111.763 106.468Z" fill="#049752"/>
<path d="M128.371 106.289C126.37 104.61 123.771 107.72 125.763 109.399C127.755 111.078 130.377 107.968 128.371 106.289Z" fill="#049752"/>
<path d="M137.093 119.768C136.869 116.209 136.918 112.638 137.241 109.086C137.48 106.5 133.478 105.792 133.238 108.405C132.876 112.3 132.813 116.218 133.05 120.122C133.211 122.731 137.255 122.372 137.093 119.768Z" fill="#049752"/>
<path d="M156.535 103.68C154.073 100.573 151.411 97.6283 148.567 94.8659C146.69 93.0258 144.091 96.1633 145.959 97.9759C148.547 100.485 150.969 103.161 153.209 105.985C154.81 108.009 158.159 105.709 156.535 103.68Z" fill="#049752"/>
<path d="M72.3467 138.938L72.5169 138.621C72.7382 138.242 72.8135 137.795 72.7285 137.365C73.598 136.445 75.0563 135.263 75.4474 134.825C76.7079 133.421 77.8948 131.958 79.0081 130.437C81.1751 127.458 83.0894 124.303 84.7311 121.006C85.9088 118.673 82.2192 116.985 81.0507 119.317C78.9721 123.504 76.404 127.43 73.4002 131.012C71.7624 132.944 68.4593 134.973 68.0636 137.604C67.994 138.044 68.0689 138.495 68.2771 138.889C68.4853 139.283 68.8155 139.599 69.2184 139.789L69.6508 139.95C70.1442 140.16 70.6992 140.172 71.201 139.983C71.7028 139.795 72.113 139.421 72.3467 138.938V138.938Z" fill="#049752"/>
<path d="M82.2699 144.39C83.7839 140.435 85.5495 136.581 87.5558 132.852C88.7933 130.552 85.0992 128.868 83.8754 131.164C81.867 134.897 80.0999 138.756 78.5849 142.715C77.6464 145.126 81.3314 146.842 82.2699 144.39Z" fill="#049752"/>
<path d="M102.995 139.293L103.699 129.305C103.883 126.724 99.8804 126.011 99.6964 128.624L98.9926 138.612C98.8131 141.179 102.811 141.896 102.995 139.293Z" fill="#049752"/>
<path d="M95.694 158.614C95.8562 158.311 95.9281 157.967 95.9012 157.624C95.8743 157.281 95.7497 156.952 95.5422 156.678C95.6572 156.425 95.7768 156.176 95.8458 155.978L96.6601 153.678L98.169 149.441C99.0385 147.003 95.3581 145.301 94.4887 147.753L92.6485 152.965C92.1884 154.281 91.3787 155.748 91.2269 157.133C90.9003 159.838 94.4519 161.2 95.694 158.614Z" fill="#049752"/>
<path d="M117.997 153.02L120.845 138.984C121.365 136.422 117.362 135.741 116.842 138.303L113.995 152.339C113.475 154.897 117.477 155.583 117.997 153.02Z" fill="#049752"/>
<path d="M113.783 155.265C111.782 153.586 109.183 156.696 111.175 158.375C113.167 160.054 115.789 156.944 113.783 155.265Z" fill="#049752"/>
<path d="M138.492 151.35L138.906 138.832C138.993 136.224 134.95 136.606 134.862 139.187L134.448 151.714C134.356 154.313 138.4 153.931 138.492 151.35Z" fill="#049752"/>
<path d="M122.726 129.99C122.425 128.168 122.611 126.298 123.265 124.571C124.185 122.151 120.504 120.431 119.584 122.883C118.629 125.246 118.311 127.82 118.664 130.345C119.074 132.921 123.117 132.58 122.726 129.99Z" fill="#049752"/>
<path d="M156.116 137.393C154.823 133.269 154.088 128.991 153.931 124.672C153.83 122.055 149.791 122.423 149.887 125.027C150.075 129.691 150.884 134.309 152.293 138.759C153.08 141.257 156.898 139.877 156.116 137.393Z" fill="#049752"/>
<path d="M174.329 152.657C173.041 150.535 171.496 148.581 169.729 146.837C167.889 144.997 165.28 148.116 167.121 149.947C168.619 151.452 169.926 153.137 171.013 154.962C172.333 157.202 175.664 154.883 174.329 152.657Z" fill="#049752"/>
<path d="M159.746 153.789C157.745 152.109 155.146 155.219 157.138 156.898C159.13 158.578 161.752 155.472 159.746 153.789Z" fill="#049752"/>
<path d="M67.645 148.397C68.0361 145.816 64.0383 145.121 63.6426 147.716C62.5799 154.732 58.4625 160.307 54.2485 165.8C52.666 167.866 55.7667 170.488 57.3584 168.409C62.0003 162.345 66.4719 156.116 67.645 148.397Z" fill="#049752"/>
<path d="M68.2477 171.956L72.9448 164.135C74.2835 161.904 70.5848 160.225 69.2644 162.447L64.5674 170.267C63.2148 172.522 66.9136 174.201 68.2477 171.956Z" fill="#049752"/>
<path d="M56.0566 176.004C56.6639 175.084 56.7145 173.906 55.8036 173.147C55.0353 172.503 53.5539 172.48 52.9467 173.4L50.4348 177.173C49.8276 178.093 49.777 179.27 50.6879 180.03C51.4561 180.674 52.9375 180.697 53.5447 179.776L56.0566 176.004Z" fill="#049752"/>
<path d="M85.6006 176.046C87.9153 172.438 89.6565 168.493 90.7623 164.351C91.434 161.83 87.4316 161.158 86.7599 163.67C85.8432 167.125 84.4035 170.418 82.4907 173.437C81.1106 175.608 84.2021 178.245 85.6006 176.046Z" fill="#049752"/>
<path d="M67.4289 202.079C67.7049 201.619 68.2983 200.888 68.349 200.805L69.7291 198.698L72.4894 194.484C73.9063 192.327 70.8102 189.695 69.3795 191.876C67.6911 194.452 65.9889 197.024 64.319 199.604C63.178 201.357 62.5064 203.391 64.7376 204.582C66.495 205.539 67.8843 203.593 67.4289 202.079Z" fill="#049752"/>
<path d="M102.802 188.586C103.455 183.986 104.329 179.425 105.424 174.905C106.04 172.365 102.038 171.684 101.422 174.224C100.327 178.744 99.4526 183.305 98.7993 187.905C98.4221 190.482 102.434 191.181 102.802 188.586Z" fill="#049752"/>
<path d="M122.703 183.618L123.462 172.37C123.637 169.789 119.635 169.076 119.46 171.689L118.701 182.937C118.526 185.513 122.524 186.217 122.703 183.618Z" fill="#049752"/>
<path d="M133.202 168.602C131.2 166.923 128.601 170.033 130.593 171.712C132.585 173.391 135.226 170.286 133.202 168.602Z" fill="#049752"/>
<path d="M152.602 167.222C150.6 165.543 148.001 168.653 149.993 170.332C151.985 172.011 154.607 168.901 152.602 167.222Z" fill="#049752"/>
<path d="M164.954 169.338C162.953 167.659 160.353 170.769 162.345 172.448C164.337 174.127 166.969 171.036 164.954 169.338Z" fill="#049752"/>
<path d="M133.846 196.568C133.234 192.006 133.525 187.369 134.701 182.919C135.359 180.393 131.357 179.698 130.699 182.238C129.45 187.028 129.145 192.016 129.802 196.922C130.124 199.508 134.168 199.163 133.846 196.568Z" fill="#049752"/>
<path d="M159.838 200.221C156.843 195.533 154.538 190.439 152.993 185.095C152.257 182.583 148.443 183.967 149.17 186.475C150.832 192.15 153.298 197.558 156.494 202.535C157.906 204.734 161.241 202.42 159.838 200.221Z" fill="#049752"/>
<path d="M86.3598 203.745C88.9251 199.163 90.6602 194.163 91.4847 188.977C91.8987 186.401 87.9009 185.706 87.4823 188.297C86.7055 193.133 85.0745 197.792 82.6656 202.056C81.4005 204.334 85.0809 205.999 86.3598 203.745Z" fill="#049752"/>
<path d="M106.754 206.643L110.94 199.558C112.265 197.313 108.566 195.639 107.26 197.87L103.073 204.955C101.739 207.2 105.438 208.874 106.754 206.643Z" fill="#049752"/>
<path d="M122.804 203.446C120.803 201.767 118.204 204.877 120.196 206.556C122.188 208.235 124.815 205.125 122.804 203.446Z" fill="#049752"/>
<path d="M140.401 210.544C138.4 208.865 135.801 211.975 137.793 213.654C139.785 215.333 142.407 212.223 140.401 210.544Z" fill="#049752"/>
<path d="M156.282 209.15C154.281 207.471 151.682 210.581 153.674 212.26C155.666 213.939 158.288 210.83 156.282 209.15Z" fill="#049752"/>
<path d="M174.182 208.861C172.181 207.181 169.582 210.291 171.574 211.97C173.566 213.65 176.17 210.54 174.182 208.861Z" fill="#049752"/>
<path d="M76.2295 213.006C77.1496 210.577 73.4693 208.865 72.5492 211.317C70.6045 216.588 67.8663 221.53 64.4294 225.974C62.833 228.035 65.9383 230.653 67.5393 228.583C71.2108 223.862 74.1412 218.609 76.2295 213.006Z" fill="#049752"/>
<path d="M60.9376 224.24C62.4235 222.119 59.3274 219.488 57.8277 221.631C55.1547 225.452 52.2735 229.123 49.1972 232.626C47.4721 234.591 50.5774 237.195 52.3071 235.235C55.3834 231.731 58.2646 228.06 60.9376 224.24V224.24Z" fill="#049752"/>
<path d="M42.1447 246.699C42.3073 245.114 42.9601 243.618 44.0125 242.421C45.7239 240.447 42.6324 237.82 40.9026 239.812C39.3846 241.56 38.4276 243.724 38.1561 246.023C37.8387 248.599 41.8365 249.303 42.1447 246.699Z" fill="#049752"/>
<path d="M74.7159 239.831L79.6614 229.222C80.7655 226.858 77.076 225.16 75.9811 227.534L71.0356 238.142C69.8993 240.502 73.6072 242.205 74.7159 239.831Z" fill="#049752"/>
<path d="M93.9689 213.976C91.9677 212.297 89.3684 215.407 91.3604 217.086C93.3524 218.765 95.9747 215.66 93.9689 213.976Z" fill="#049752"/>
<path d="M100.198 233.919C98.1967 232.24 95.5974 235.35 97.5894 237.029C99.5814 238.708 102.204 235.598 100.198 233.919Z" fill="#049752"/>
<path d="M119.189 234.089L123.145 222.165C123.959 219.713 120.279 217.992 119.465 220.477L115.508 232.401C114.68 234.853 118.365 236.574 119.189 234.089Z" fill="#049752"/>
<path d="M121.599 240.682C119.598 239.003 116.999 242.113 118.991 243.792C120.983 245.471 123.605 242.343 121.599 240.682Z" fill="#049752"/>
<path d="M138.211 235.387L140.351 225.942C140.926 223.393 136.928 222.722 136.348 225.261L134.209 234.706C133.634 237.255 137.636 237.935 138.211 235.387Z" fill="#049752"/>
<path d="M162.051 236.058C158.987 232.531 156.76 228.358 155.537 223.849C154.842 221.323 151.024 222.712 151.714 225.229C153.033 230.072 155.416 234.561 158.688 238.368C160.399 240.328 163.749 238.037 162.051 236.058Z" fill="#049752"/>
<path d="M183.958 236.541L177.766 223.821C176.634 221.493 172.802 222.841 173.943 225.201L180.135 237.922C181.272 240.236 185.104 238.888 183.958 236.541Z" fill="#049752"/>
<path d="M197.493 245.167L194.631 238.055C193.656 235.631 189.833 236.997 190.808 239.435L193.651 246.538C194.645 248.963 198.468 247.596 197.493 245.167Z" fill="#049752"/>
<path d="M172.558 243.944C172.439 243.806 172.324 243.663 172.223 243.511C172.195 243.47 172.084 243.295 172.052 243.263C171.981 243.113 171.92 242.96 171.868 242.803C171.868 242.766 171.73 242.343 171.781 242.568C171.626 241.95 171.667 241.298 171.9 240.705C172.213 239.656 171.229 238.533 170.24 238.363C169.053 238.161 168.211 238.966 167.898 240.024C167.604 241.09 167.571 242.211 167.8 243.293C168.03 244.374 168.516 245.385 169.218 246.239C169.533 246.671 170.002 246.965 170.527 247.062C171.053 247.158 171.595 247.05 172.043 246.759C172.871 246.189 173.271 244.785 172.558 243.944Z" fill="#049752"/>
</svg>
