<svg width="244" height="441" viewBox="0 0 244 441" fill="none" xmlns="http://www.w3.org/2000/svg">
<path d="M243.441 172.35C243.294 175.248 242.168 178.01 240.247 180.185C238.326 182.359 235.725 183.818 232.867 184.322C221.242 186.372 210.207 192.768 202.568 201.842C201.366 203.274 199.866 204.425 198.172 205.215C196.478 206.006 194.632 206.416 192.763 206.418H192.725C190.85 206.413 189 205.998 187.304 205.2C185.607 204.403 184.106 203.244 182.907 201.804C179.703 197.996 175.243 195.46 170.333 194.652C167.857 194.257 165.329 194.318 162.874 194.832L214.116 395.237C216.465 404.461 215.058 414.24 210.204 422.427C205.35 430.614 197.445 436.54 188.225 438.904C185.302 439.652 182.296 440.031 179.279 440.032C171.314 440.017 163.581 437.355 157.295 432.464C151.01 427.573 146.529 420.731 144.558 413.014L91.0222 203.662C90.612 203.508 90.1892 203.341 89.7918 203.149C85.2843 201.025 80.1621 200.597 75.3646 201.944C70.5671 203.291 66.4158 206.321 63.6718 210.481C62.6411 212.046 61.2799 213.367 59.6838 214.351C58.0877 215.334 56.2956 215.955 54.4335 216.172C52.5714 216.388 50.6845 216.193 48.9056 215.602C47.1267 215.011 45.499 214.037 44.1369 212.749C35.524 204.597 23.8221 199.509 12.0433 198.791C9.14614 198.614 6.39488 197.459 4.23939 195.515C2.08389 193.571 0.651713 190.953 0.177037 188.09C-0.297639 185.226 0.21328 182.286 1.62625 179.751C3.03921 177.216 5.27061 175.235 7.95557 174.132C16.6839 170.556 22.631 160.456 21.516 151.125C21.2672 149.049 21.53 146.944 22.2817 144.992C23.0334 143.041 24.251 141.303 25.8285 139.931C27.4059 138.558 29.2952 137.592 31.3316 137.117C33.368 136.642 35.4897 136.673 37.5116 137.206C44.8312 139.141 53.2507 140.897 60.3257 139.193C65.5421 137.962 70.0025 134.155 70.5151 130.529C70.6826 129.376 71.006 128.25 71.4765 127.184L64.914 101.537C64.4141 99.5758 63.9913 97.5769 63.5811 95.2308C59.2875 70.661 66.413 45.8344 83.1271 27.0957C90.0883 19.2596 98.5241 12.8707 107.953 8.29348C112.959 5.85727 118.198 3.93351 123.59 2.55156C144.494 -2.77195 166.657 0.414924 185.214 11.4129C203.772 22.4108 217.208 40.3215 222.575 61.2146L225.215 71.5581C230.111 90.733 218.499 110.316 199.325 115.225C183.009 119.391 165.744 111.47 158.272 96.3717C157.155 94.1249 156.279 91.7663 155.658 89.3353L153.018 79.0046C152.691 77.7222 152.1 76.5219 151.284 75.4804C150.467 74.4388 149.443 73.5787 148.276 72.955C146.662 72.1011 144.841 71.715 143.02 71.8403C142.462 71.8786 141.908 71.9687 141.367 72.1093C139.709 72.5409 138.195 73.404 136.979 74.6106C135.764 75.8173 134.889 77.3245 134.445 78.9789C134.063 80.5464 134.071 82.184 134.471 83.7472L143.674 119.724C144.981 117.574 146.894 115.857 149.171 114.787C151.449 113.717 153.992 113.342 156.482 113.708C158.971 114.075 161.298 115.166 163.171 116.847C165.044 118.528 166.38 120.724 167.013 123.159C167.949 126.696 172.806 129.965 178.101 130.606C185.342 131.49 193.519 128.799 200.569 126.043C202.517 125.282 204.622 125.009 206.701 125.248C208.779 125.487 210.767 126.232 212.491 127.416C214.216 128.601 215.624 130.189 216.593 132.043C217.562 133.897 218.063 135.96 218.051 138.052C218 147.447 225.062 156.804 234.123 159.367C236.916 160.157 239.359 161.872 241.051 164.23C242.744 166.588 243.586 169.451 243.441 172.35V172.35Z" fill="white"/>
<path d="M208.471 63.4456L211.112 73.7761C212.525 79.3013 211.842 85.154 209.195 90.2054C206.548 95.2569 202.124 99.1493 196.777 101.132C191.43 103.115 185.538 103.047 180.237 100.943C174.937 98.8384 170.603 94.8458 168.072 89.7352C167.359 88.2883 166.796 86.772 166.392 85.21L163.751 74.8793C162.986 71.8635 161.598 69.0413 159.676 66.5949C157.754 64.1485 155.341 62.1321 152.591 60.6757C148.762 58.6199 144.417 57.7248 140.087 58.1C135.757 58.4753 131.63 60.1044 128.211 62.7883C124.793 65.4721 122.23 69.0942 120.838 73.2114C119.446 77.3286 119.284 81.7624 120.372 85.9703L200.015 397.454C200.766 400.39 200.931 403.446 200.501 406.446C200.071 409.447 199.054 412.333 197.509 414.941C195.963 417.548 193.919 419.825 191.494 421.643C189.068 423.46 186.308 424.782 183.372 425.533C180.435 426.284 177.379 426.449 174.379 426.019C171.379 425.589 168.492 424.573 165.885 423.027C163.277 421.482 161 419.438 159.182 417.012C157.365 414.586 156.043 411.826 155.292 408.89L75.6486 97.4068C75.1912 95.618 74.8344 93.8509 74.5229 92.0726C70.8155 70.8655 77.4543 49.872 91.0099 34.6851C96.8691 28.101 103.96 22.7269 111.883 18.8659C116.107 16.8093 120.528 15.1843 125.079 14.0158C142.691 9.53443 161.362 12.2218 176.995 21.4883C192.629 30.7549 203.948 45.844 208.471 63.4456V63.4456Z" fill="#F4ECE6"/>
<path d="M193.017 370.085L148.296 381.52L154.791 406.921L199.512 395.486L193.017 370.085Z" fill="#E02C37"/>
<path d="M178.517 313.378L133.796 324.813L140.28 350.17L185.001 338.735L178.517 313.378Z" fill="#E02C37"/>
<path d="M164.006 256.627L119.285 268.062L125.769 293.419L170.49 281.984L164.006 256.627Z" fill="#E02C37"/>
<path d="M149.495 199.876L104.774 211.311L111.269 236.713L155.99 225.278L149.495 199.876Z" fill="#E02C37"/>
<path d="M134.984 143.125L90.2632 154.56L96.7583 179.961L141.479 168.526L134.984 143.125Z" fill="#E02C37"/>
<path d="M121.685 91.1147L128.351 117.187L80.9541 118.157L75.6485 97.4067C75.1911 95.6179 74.8342 93.8508 74.5227 92.0725L121.685 91.1147Z" fill="#E02C37"/>
<path d="M140.496 58.0991C139.152 58.1934 137.82 58.4067 136.514 58.7363C132.623 59.7372 129.071 61.7621 126.227 64.6005C123.384 67.4389 121.352 70.9871 120.344 74.8763L91.0093 34.685C96.8687 28.1008 103.96 22.7268 111.883 18.8658L140.496 58.0991Z" fill="#E02C37"/>
<path d="M193.328 34.9665L168.072 89.736C167.359 88.2892 166.796 86.7728 166.392 85.2109L163.751 74.8801C162.987 71.8643 161.599 69.0422 159.676 66.5958C157.754 64.1493 155.341 62.1329 152.592 60.6765L171.936 18.7576C180.065 22.6971 187.336 28.2058 193.328 34.9665V34.9665Z" fill="#E02C37"/>
<path d="M122.427 170.265C110.896 169.074 98.389 180.052 93.573 190.608C86.2721 187.163 77.9732 186.469 70.2014 188.652C62.4297 190.836 55.7071 195.752 51.2691 202.495C40.3292 192.19 26.1406 186.019 11.1433 185.043C25.1326 179.305 34.3618 163.668 32.5549 148.65C42.049 151.161 52.079 153.001 61.6341 150.709C71.1856 148.445 80.1414 141.121 81.5249 131.386C85.8634 138.157 91.7361 144.035 98.9257 147.609C106.119 151.155 114.715 158.132 122.32 155.541L122.427 170.265Z" fill="#336D3B"/>
<path d="M24.4341 182.754C37.5614 175.524 52.2548 170.561 66.7953 167.09C83.8798 163.01 101.157 163.34 118.589 164.337C121.21 164.487 121.8 160.42 119.156 160.269C101.373 159.251 83.6947 158.861 66.2602 163.015C51.3652 166.564 36.319 171.548 22.8706 178.955C20.5818 180.216 22.1158 184.032 24.4348 182.754H24.4341Z" fill="#0C1F26"/>
<path d="M116.718 168.715C128.039 166.221 141.712 175.706 147.697 185.646C154.559 181.394 162.725 179.761 170.694 181.048C178.664 182.334 185.902 186.454 191.077 192.649C200.775 181.168 214.17 173.424 228.959 170.75C214.407 166.639 203.462 152.152 203.55 137.026C194.403 140.6 184.647 143.567 174.894 142.377C165.147 141.213 155.417 134.954 152.935 125.44C149.394 132.66 144.227 139.167 137.49 143.535C130.747 147.875 122.999 155.784 115.148 154.074L116.718 168.715Z" fill="#336D3B"/>
<path d="M215.496 169.986C201.631 164.295 186.47 161.035 171.629 159.237C154.192 157.125 137.064 159.417 119.858 162.389C117.271 162.836 116.223 158.861 118.832 158.411C136.384 155.38 153.904 152.983 171.698 155.129C186.899 156.962 202.414 160.203 216.618 166.034C219.035 167.026 217.945 170.992 215.496 169.986V169.986Z" fill="#0C1F26"/>
<path d="M102.015 173.652C110.564 173.652 117.495 166.721 117.495 158.172C117.495 149.623 110.564 142.692 102.015 142.692C93.4661 142.692 86.5356 149.623 86.5356 158.172C86.5356 166.721 93.4661 173.652 102.015 173.652Z" fill="#E02C37"/>
<path d="M132.924 171.89C141.474 171.89 148.404 164.959 148.404 156.41C148.404 147.861 141.474 140.93 132.924 140.93C124.375 140.93 117.445 147.861 117.445 156.41C117.445 164.959 124.375 171.89 132.924 171.89Z" fill="#E02C37"/>
<path d="M118.943 198.612C127.492 198.612 134.423 191.681 134.423 183.132C134.423 174.583 127.492 167.653 118.943 167.653C110.394 167.653 103.463 174.583 103.463 183.132C103.463 191.681 110.394 198.612 118.943 198.612Z" fill="#E02C37"/>
</svg>
