<svg width="180" height="240" viewBox="0 0 180 240" fill="none" xmlns="http://www.w3.org/2000/svg">
<path d="M179.836 60.0429C179.305 69.4013 177.106 79.3372 173.284 89.5455C172.267 92.1924 171.304 94.5057 170.326 96.6743C167.254 103.606 163.371 110.652 158.798 117.561C157.576 119.473 156.204 121.475 154.497 123.841C150.62 129.19 146.46 134.329 142.036 139.237C140.451 141.035 138.768 142.847 136.894 144.774C131.536 150.323 125.896 155.593 119.997 160.564C119.962 161.827 119.807 163.084 119.534 164.318C123.584 168.096 126.246 173.48 125.306 179.456C124.38 185.144 120.156 189.9 114.551 192.213C117.593 197.438 119.982 203.016 121.666 208.822C123.907 209.823 125.893 211.317 127.476 213.193C129.059 215.069 130.198 217.278 130.807 219.656C131.417 222.033 131.482 224.518 130.997 226.924C130.512 229.33 129.489 231.595 128.006 233.551C126.523 235.507 124.617 237.102 122.431 238.218C120.245 239.334 117.835 239.942 115.382 239.996C112.928 240.051 110.493 239.55 108.26 238.532C106.027 237.514 104.052 236.004 102.484 234.116C100.973 235.931 99.0852 237.396 96.9516 238.41C94.818 239.423 92.4897 239.961 90.1278 239.985C87.7659 240.009 85.4269 239.52 83.2729 238.551C81.119 237.581 79.2014 236.155 77.6532 234.372C76.1049 232.588 74.963 230.489 74.3064 228.22C73.6498 225.951 73.4944 223.566 73.8507 221.231C74.2071 218.896 75.0669 216.667 76.3704 214.697C77.6739 212.727 79.3901 211.064 81.4 209.824C81.9614 206.439 82.1951 203.007 82.0978 199.577C80.7164 199.747 79.3218 199.78 77.9339 199.677C71.3433 199.184 65.3669 195.657 61.5521 190.485C54.6807 192.798 47.0206 192.381 40.885 188.975C35.25 185.851 31.3592 180.481 29.8195 174.588C29.7285 174.588 29.63 174.595 29.5389 174.595C24.1994 174.709 19.1182 172.73 15.6067 169.158C11.9889 165.525 10.1613 160.155 10.6769 154.717C6.52074 153.14 3.25951 150.045 1.84894 146.2C0.286844 142.059 1.09047 138.085 1.96255 135.089C2.17842 134.342 2.43706 133.607 2.7372 132.89C1.28973 129.842 0.707063 126.455 1.05278 123.099C1.3985 119.743 2.65932 116.546 4.69769 113.857C6.73606 111.168 9.47368 109.091 12.6119 107.852C15.7501 106.613 19.1684 106.259 22.4937 106.83C23.0095 106.481 23.5403 106.147 24.0713 105.829C22.4254 101.961 20.6432 97.4635 19.005 92.6931C18.057 89.9628 17.1696 87.0884 16.3656 84.176C11.1629 65.1622 12.7556 52.724 21.2499 46.1485C26.0735 42.417 31.8072 40.8699 37.8291 41.6738C46.4827 42.8343 54.3628 48.6589 59.8082 53.8086C60.0055 53.49 60.2026 53.164 60.3998 52.8453C60.4153 52.8243 60.428 52.8014 60.4378 52.7771C64.5064 46.3151 68.9482 40.0956 73.7404 34.1503C75.1967 32.3907 76.8804 30.3808 78.7234 28.3482C83.547 23.0013 88.4919 18.3295 93.4064 14.4767C95.6623 12.7014 98.0063 11.0408 100.429 9.50141C115.742 -0.221506 131.001 -2.49677 145.76 2.74392C166.109 9.99446 178.532 27.6581 179.859 51.2072V51.2148C180.026 54.1553 180.018 57.1032 179.836 60.0429V60.0429Z" fill="white"/>
<path d="M171.986 57.9529C171.505 66.495 169.484 75.6868 165.899 85.2635C165.056 87.4531 164.142 89.691 163.131 91.9288C160.244 98.4495 156.587 105.115 152.159 111.804C150.884 113.801 149.512 115.774 148.068 117.772C144.345 122.917 140.344 127.857 136.085 132.57C134.521 134.351 132.885 136.107 131.177 137.864C125.083 144.174 118.614 150.112 111.807 155.646C111.229 153.071 109.833 150.69 107.764 149.053C103.818 145.949 98.1394 145.612 93.5194 147.609L92.1719 146.791C94.1691 142.05 92.5089 135.818 88.2979 132.594C83.3171 128.768 75.8816 129.057 70.588 132.426C71.6227 127.902 69.0969 122.825 64.8612 120.9C61.0595 119.191 56.2228 120.202 53.3353 123.186L52.6135 122.729C52.9985 115.751 46.8622 109.11 39.7883 108.099C37.8419 107.822 35.8617 107.895 33.9412 108.315C31.8719 103.912 28.6474 96.6213 25.9044 88.6085C24.9901 85.9856 24.1479 83.2665 23.4019 80.5475C20.009 68.1552 18.9021 55.7151 25.6148 50.5176C41.0154 38.6068 60.9149 64.9551 60.9149 64.9551C60.9149 64.9551 61.5645 63.7038 62.7917 61.5383C63.7301 59.9021 65.0053 57.7363 66.5691 55.2099C69.7217 50.2289 74.053 43.8284 79.3462 37.3075C80.8622 35.4787 82.4262 33.626 84.0625 31.8213C88.2252 27.2013 92.8213 22.7258 97.802 18.8275C99.8491 17.2123 101.977 15.7024 104.178 14.3038C115.776 6.94082 128.987 3.30738 142.942 8.2642C160.7 14.5925 170.879 29.9925 172.01 50.0122C172.158 52.6573 172.15 55.3088 171.986 57.9529V57.9529Z" fill="#E02C37"/>
<path d="M117.533 176.652C116.763 181.368 111.711 184.4 106.922 184.521C102.157 184.641 97.6345 182.596 93.3032 180.574C91.1857 186.686 84.6648 190.969 78.2162 190.488C71.7676 190.006 65.9684 184.809 64.7894 178.457C59.1108 183.005 50.6648 184.256 44.2883 180.719C37.9119 177.181 34.495 168.639 37.5027 161.973C33.0753 166.329 25.0866 166.642 20.7315 162.214C16.3521 157.811 17.1222 149.293 22.488 146.165C19.8893 146.55 17.2425 146.959 14.6677 146.453C12.093 145.948 9.56665 144.384 8.67625 141.93C7.90628 139.908 8.36383 137.647 8.9651 135.577C9.45812 133.885 10.2663 132.301 11.3472 130.909C10.3627 129.914 9.58397 128.734 9.05551 127.438C8.52705 126.141 8.2592 124.754 8.26727 123.354C8.27035 121.523 8.73672 119.723 9.62294 118.121C10.5092 116.519 11.7864 115.168 13.3357 114.193C14.8849 113.217 16.6558 112.65 18.4833 112.544C20.3109 112.438 22.1356 112.795 23.7875 113.584C26.6509 110.986 30.188 109.061 33.9412 108.315C35.8617 107.894 37.8419 107.821 39.7882 108.098C46.8625 109.109 52.9985 115.75 52.6135 122.728C52.6049 123.237 52.5485 123.745 52.445 124.244C52.7092 123.865 53.0072 123.51 53.3353 123.185C56.2228 120.201 61.0594 119.191 64.8611 120.899C69.0961 122.824 71.6226 127.901 70.5879 132.425C75.8815 129.057 83.3169 128.768 88.2974 132.594C92.5084 135.818 94.1686 142.05 92.1714 146.791L93.5189 147.609C98.1389 145.612 103.818 145.949 107.764 149.053C109.833 150.689 111.229 153.071 111.806 155.646C112.6 159.062 111.975 162.792 109.665 165.415C114.261 167.244 118.304 171.768 117.533 176.652Z" fill="#F4ECE6"/>
<path d="M136.085 132.57C134.521 134.351 132.885 136.107 131.177 137.864C128.939 136.227 126.653 134.615 124.368 133.051C94.3853 112.616 61.0635 97.5755 25.9048 88.6082C24.9906 85.9853 24.1483 83.2663 23.4023 80.5472C29.9707 82.0874 36.4832 83.86 42.9399 85.865C76.3147 96.1638 107.884 112.045 136.085 132.57Z" fill="#F0B11D"/>
<path d="M152.159 111.804C150.883 113.801 149.512 115.774 148.068 117.771C138.852 112.959 129.372 108.675 120.156 103.839C109.481 98.2202 99.2562 91.7846 89.573 84.59C80.0684 77.5395 71.2139 69.7675 62.7917 61.5383C63.7301 59.902 65.0054 57.7363 66.5692 55.2098C67.8446 56.485 69.1439 57.7604 70.4673 59.0116C88.0568 75.7829 107.788 89.6188 129.492 100.519C137 104.273 144.676 107.882 152.159 111.804Z" fill="#F0B11D"/>
<path d="M165.899 85.2635C165.056 87.4532 164.142 89.6911 163.131 91.9288C161.976 91.5197 160.821 91.0866 159.69 90.6535C148.862 86.4908 138.949 81.1971 129.733 74.0986C120.758 67.1928 112.432 59.4928 103.144 52.972C95.396 47.5098 87.3111 42.5048 79.3464 37.3075C80.8624 35.4787 82.4265 33.6259 84.0627 31.8212L84.4958 32.1099C93.9763 38.2218 103.601 44.1171 112.576 50.9508C121.841 57.9768 130.262 66.0859 139.887 72.6071C147.948 78.0931 156.802 81.9678 165.899 85.2635Z" fill="#F0B11D"/>
<path d="M171.986 57.9529C154.493 49.9642 137.432 41.0124 120.493 31.9655C112.769 27.8509 105.117 23.5919 97.8022 18.8275C99.8494 17.2123 101.978 15.7024 104.178 14.3038C105.55 15.1701 106.922 16.0122 108.293 16.8303C118.52 22.9662 129.131 28.404 139.718 33.8907C150.402 39.4249 161.11 44.9351 172.01 50.0122C172.158 52.6573 172.15 55.3088 171.986 57.9529V57.9529Z" fill="#F0B11D"/>
<path d="M92.1951 218.04C96.2912 204.037 95.6533 188.837 90.2696 175.266L86.2934 178.323C99.2341 187.761 107.907 202.259 110.524 218.012C111.094 221.441 116.312 219.985 115.745 216.572C112.888 199.373 103.073 183.894 89.0259 173.648C87.1903 172.309 84.1976 174.56 85.0497 176.705C90.1043 189.447 90.8262 203.436 86.975 216.601C85.9952 219.953 91.218 221.383 92.1957 218.04H92.1951Z" fill="#0C1F26"/>
<path d="M89.6782 230.796C94.4905 230.796 98.3916 226.894 98.3916 222.082C98.3916 217.27 94.4905 213.369 89.6782 213.369C84.866 213.369 80.9648 217.27 80.9648 222.082C80.9648 226.894 84.866 230.796 89.6782 230.796Z" fill="#F0B11D"/>
<path d="M114.735 230.796C119.548 230.796 123.449 226.894 123.449 222.082C123.449 217.27 119.548 213.369 114.735 213.369C109.923 213.369 106.022 217.27 106.022 222.082C106.022 226.894 109.923 230.796 114.735 230.796Z" fill="#F0B11D"/>
</svg>
