<svg width="340" height="450" viewBox="0 0 340 450" fill="none" xmlns="http://www.w3.org/2000/svg">
<path d="M339.055 199.635C338.946 164.516 315.64 134.72 283.714 124.792C284.017 121.379 284.164 117.959 284.155 114.533C283.965 51.3803 232.436 0 169.283 0H168.937C105.588 0.189871 54.2082 51.8753 54.398 115.218C54.398 118.635 54.5653 122.053 54.8998 125.471C38.9462 130.54 25.0231 140.562 15.1512 154.081C5.2793 167.6 -0.0278012 183.913 0.000109528 200.652C0.108607 237.392 25.6123 268.314 59.8161 276.743L32.8884 346.514C32.6307 347.183 32.4047 347.861 32.2103 348.548L31.383 351.261C31.1705 351.948 30.9852 352.644 30.827 353.349C28.1961 364.857 28.1913 376.809 30.8129 388.319C33.4345 399.829 38.6152 410.6 45.9702 419.833C53.3252 429.066 62.6655 436.524 73.2978 441.653C83.93 446.781 95.5809 449.449 107.385 449.457H107.609C119.649 449.422 131.519 446.621 142.304 441.27C153.089 435.919 162.501 428.162 169.812 418.597C177.128 428.357 186.619 436.277 197.531 441.728C208.443 447.179 220.475 450.011 232.673 450H232.897C245.58 449.964 258.065 446.855 269.284 440.939C280.503 435.024 290.122 426.478 297.317 416.034C303.209 407.556 307.362 397.995 309.534 387.902C311.706 377.809 311.854 367.385 309.971 357.235C309.867 356.674 309.749 356.118 309.618 355.566L309.089 353.383C308.953 352.831 308.804 352.282 308.641 351.735L285.186 274.505C300.897 269.275 314.559 259.224 324.23 245.783C333.901 232.342 339.088 216.194 339.055 199.635V199.635Z" fill="white"/>
<path d="M324.014 199.676C323.937 183.939 318.037 168.788 307.452 157.143C296.866 145.499 282.345 138.185 266.687 136.612C268.314 129.379 269.128 121.987 269.114 114.573C268.952 59.6872 224.163 15.0337 169.276 15.0337H168.978C113.922 15.1964 69.269 60.1144 69.4317 115.15C69.4611 122.564 70.3186 129.951 71.9882 137.175C55.7531 138.823 40.7739 146.653 30.1523 159.041C19.5308 171.43 14.0805 187.429 14.9302 203.725C15.7799 220.022 22.8644 235.367 34.7167 246.584C46.569 257.801 62.2813 264.03 78.5997 263.981H80.6951V264.334L46.9185 351.925C46.7874 352.26 46.6698 352.599 46.5659 352.942L45.7386 355.655C45.6346 355.998 45.5419 356.346 45.4606 356.699C43.3288 366.008 43.3225 375.678 45.4419 384.989C47.5613 394.301 51.7521 403.015 57.7026 410.485C63.6532 417.954 71.2107 423.986 79.8132 428.133C88.4158 432.28 97.8424 434.435 107.392 434.437H107.589C121.43 434.375 134.875 429.804 145.886 421.418C156.898 413.032 164.878 401.286 168.619 387.96L170.185 383.891L170.578 385.18C173.708 399.308 181.566 411.944 192.854 420.999C204.141 430.054 218.182 434.983 232.653 434.973H232.849C242.148 434.934 251.325 432.858 259.735 428.89C268.144 424.922 275.582 419.159 281.524 412.007C287.466 404.854 291.768 396.486 294.128 387.492C296.488 378.498 296.847 369.095 295.181 359.947C295.131 359.667 295.072 359.389 295.005 359.113L294.476 356.93C294.408 356.654 294.333 356.38 294.252 356.109L266.043 263.208C281.901 261.788 296.651 254.476 307.383 242.715C318.115 230.954 324.049 215.598 324.014 199.676Z" fill="black"/>
<path d="M308.981 199.724C308.927 186.859 303.773 174.542 294.649 165.473C285.525 156.404 273.177 151.324 260.313 151.347L245.774 151.388C251.968 138.441 254.775 124.134 253.932 109.807C253.089 95.4797 248.623 81.6007 240.953 69.4698C233.284 57.3389 222.661 47.353 210.08 40.4471C197.498 33.5413 183.37 29.9414 169.018 29.9848C154.666 30.0281 140.56 33.7131 128.02 40.6948C115.481 47.6765 104.918 57.7264 97.3219 69.9033C89.7256 82.0803 85.344 95.986 84.5874 110.318C83.8308 124.65 86.724 138.94 92.996 151.849L78.4573 151.89C72.0849 151.909 65.7786 153.183 59.8985 155.639C54.0185 158.096 48.6798 161.686 44.1873 166.206C39.6949 170.725 36.1366 176.085 33.7156 181.98C31.2947 187.875 30.0585 194.189 30.0776 200.561C30.0968 206.933 31.3709 213.24 33.8272 219.12C36.2835 225 39.874 230.338 44.3935 234.831C48.9131 239.323 54.2732 242.882 60.1679 245.303C66.0626 247.724 72.3765 248.96 78.7489 248.941L95.7017 248.893L95.7559 267.134L60.9418 357.323L60.1145 360.035C58.4847 367.153 58.4824 374.547 60.1079 381.665C61.7333 388.784 64.9445 395.444 69.5021 401.149C74.0598 406.854 79.8463 411.456 86.4303 414.614C93.0143 417.771 100.226 419.401 107.528 419.383C118.213 419.336 128.586 415.771 137.043 409.239C145.5 402.708 151.571 393.573 154.317 383.247L171.894 337.705L185.151 381.382C187.634 394.012 195.032 405.138 205.718 412.313C216.404 419.488 229.503 422.124 242.133 419.641C254.762 417.158 265.888 409.76 273.063 399.074C280.238 388.388 282.874 375.289 280.391 362.66L279.863 360.476L247.585 254.162C247.178 252.224 246.653 250.313 246.011 248.439L260.597 248.398C273.464 248.346 285.784 243.192 294.855 234.067C303.926 224.941 309.006 212.59 308.981 199.724Z" fill="#F59439"/>
<path d="M260.394 171.134L201.561 171.311C214.024 164.189 223.779 153.144 229.306 139.897C234.833 126.65 235.821 111.947 232.117 98.0793C228.412 84.2121 220.222 71.9606 208.825 63.2353C197.428 54.51 183.464 49.8015 169.11 49.844C154.757 49.8864 140.821 54.6775 129.475 63.47C118.13 72.2626 110.013 84.5623 106.39 98.4513C102.768 112.34 103.843 127.038 109.448 140.251C115.054 153.465 124.874 164.453 137.378 171.501L78.5455 171.677C70.9303 171.722 63.6424 174.779 58.274 180.18C52.9057 185.581 49.8935 192.888 49.8954 200.503V200.503C49.9401 208.108 52.9888 215.387 58.3769 220.753C63.7651 226.12 71.056 229.139 78.6608 229.153L115.408 229.045L115.53 270.789L79.4067 364.463C77.7289 371.896 79.0627 379.69 83.1165 386.142C87.1702 392.594 93.614 397.178 101.038 398.891V398.891C108.467 400.569 116.258 399.239 122.709 395.191C129.16 391.143 133.747 384.706 135.466 377.286L165.459 299.561L181.021 299.514L204.416 376.595C205.817 384.075 210.12 390.697 216.386 395.017C222.651 399.336 230.371 401.002 237.86 399.65V399.65C245.341 398.249 251.963 393.946 256.282 387.681C260.602 381.415 262.267 373.695 260.916 366.206L228.367 258.943C227.648 255.011 226.109 251.275 223.851 247.978L223.776 228.719L260.523 228.611C268.138 228.566 275.426 225.509 280.794 220.108C286.163 214.706 289.175 207.4 289.173 199.785V199.785C289.128 192.178 286.078 184.897 280.687 179.53C275.296 174.163 268.001 171.145 260.394 171.134V171.134Z" fill="#D95B43"/>
<path d="M161.77 98.1495C161.162 95.9475 159.994 93.9405 158.379 92.3245L155.667 90.2902C153.639 89.1115 151.333 88.4958 148.987 88.5068C145.509 88.6602 142.199 90.0418 139.643 92.4059C138.386 93.5694 137.451 95.039 136.931 96.6712C136.109 98.2407 135.72 100.001 135.805 101.771L136.286 105.283C136.894 107.485 138.062 109.492 139.677 111.108L142.389 113.142C144.417 114.322 146.723 114.937 149.069 114.926C152.547 114.772 155.858 113.391 158.413 111.027C159.671 109.863 160.605 108.394 161.126 106.761C161.948 105.192 162.336 103.432 162.251 101.662L161.77 98.1495Z" fill="#FC9D9A"/>
<path d="M202.138 97.424C201.465 95.0135 200.178 92.8193 198.401 91.0565L195.472 88.8052C193.257 87.5158 190.738 86.8415 188.175 86.8522C184.388 87.0302 180.785 88.5409 178.004 91.1175C176.626 92.3873 175.6 93.9923 175.027 95.7761C174.128 97.4913 173.704 99.4159 173.799 101.35L174.328 105.188C175.001 107.599 176.289 109.793 178.065 111.556L180.994 113.807C183.209 115.096 185.728 115.771 188.291 115.76C192.078 115.582 195.681 114.071 198.462 111.495C199.84 110.225 200.866 108.62 201.439 106.836C202.337 105.12 202.761 103.196 202.667 101.262L202.138 97.424Z" fill="#FC9D9A"/>
<path d="M181.516 121.165C180.775 121.023 180.013 121.023 179.272 121.165C177.285 121.551 176.41 123.484 176.186 125.233C175.63 129.39 172.918 132.984 168.598 133.52C164.008 134.089 159.62 131.16 159.105 126.427C158.82 123.762 155.321 122.358 153.795 125.003C148.804 133.56 159.573 141.23 167.222 141.643C176.648 142.159 184.249 134.449 184.615 125.233C184.69 123.551 183.266 121.449 181.516 121.165Z" fill="#FC9D9A"/>
<path d="M172.979 195.695C172.499 195.215 171.929 194.834 171.302 194.574C170.675 194.315 170.003 194.181 169.324 194.181C168.645 194.181 167.973 194.315 167.346 194.574C166.719 194.834 166.149 195.215 165.669 195.695C165.189 196.175 164.808 196.745 164.548 197.372C164.288 197.999 164.154 198.672 164.154 199.35C164.154 200.029 164.288 200.702 164.548 201.329C164.808 201.956 165.189 202.526 165.669 203.005C166.149 203.486 166.719 203.867 167.346 204.127C167.973 204.386 168.645 204.52 169.324 204.52C170.003 204.52 170.675 204.386 171.302 204.127C171.929 203.867 172.499 203.486 172.979 203.005C173.459 202.526 173.84 201.956 174.1 201.329C174.36 200.702 174.494 200.029 174.494 199.35C174.494 198.672 174.36 197.999 174.1 197.372C173.84 196.745 173.459 196.175 172.979 195.695V195.695Z" fill="#FC9D9A"/>
<path d="M170.009 213.774C163.499 213.774 163.519 223.905 170.009 223.891C176.498 223.878 176.525 213.754 170.009 213.774Z" fill="#FC9D9A"/>
<path d="M171.955 233.236C165.445 233.236 165.465 243.367 171.955 243.353C178.444 243.339 178.472 233.215 171.955 233.236Z" fill="#FC9D9A"/>
<path d="M80.9663 182.533C76.8405 183.65 72.9193 185.417 69.3503 187.768C67.8381 188.765 69.2621 191.206 70.7811 190.203C74.141 187.978 77.8362 186.306 81.7258 185.253C83.4753 184.778 82.7294 182.052 80.9663 182.533Z" fill="#B0454F"/>
<path d="M80.3154 193.627C76.9779 194.497 73.7291 195.678 70.6116 197.153C68.9638 197.926 70.4082 200.361 72.0424 199.588C74.9435 198.23 77.9652 197.148 81.0681 196.353C82.8379 195.899 82.0513 193.173 80.3154 193.627Z" fill="#B0454F"/>
<path d="M78.9049 214.303C74.4757 211.904 69.5042 210.686 64.4679 210.763C62.6506 210.763 62.6506 213.611 64.4679 213.591C69.0081 213.511 73.4913 214.609 77.4809 216.778C79.088 217.612 80.512 215.164 78.9049 214.303Z" fill="#B0454F"/>
<path d="M105.934 211.957H96.5153C94.698 211.957 94.7048 214.791 96.5153 214.784H105.934C107.758 214.777 107.752 211.95 105.934 211.957Z" fill="#B0454F"/>
<path d="M107.141 200.646H97.7224C95.9051 200.646 95.9118 203.48 97.7224 203.473H107.141C108.979 203.467 108.979 200.639 107.141 200.646Z" fill="#B0454F"/>
<path d="M109.393 186.188C104.888 184.528 99.9271 184.598 95.4711 186.385C93.7961 187.063 94.5353 189.776 96.2305 189.097C100.197 187.47 104.632 187.402 108.647 188.908C110.362 189.538 111.088 186.805 109.393 186.188Z" fill="#B0454F"/>
<path d="M126.4 196.713C123.586 196.098 120.691 195.947 117.828 196.265C116.038 196.469 116.031 199.296 117.828 199.093C120.436 198.781 123.077 198.898 125.647 199.439C127.43 199.818 128.163 197.092 126.4 196.713Z" fill="#B0454F"/>
<path d="M136.524 212.289C131.86 211.172 127.079 210.623 122.283 210.655C120.466 210.655 120.473 213.496 122.283 213.482C126.834 213.447 131.372 213.964 135.798 215.022C137.548 215.435 138.294 212.709 136.524 212.289Z" fill="#B0454F"/>
<path d="M147.096 184.771C143.213 183.353 138.983 183.194 135.005 184.317C133.255 184.798 134.008 187.524 135.764 187.029C139.251 186.048 142.961 186.21 146.35 187.49C148.065 188.121 148.791 185.388 147.096 184.771Z" fill="#B0454F"/>
<path d="M144.837 199.276H142.952C142.577 199.276 142.218 199.425 141.953 199.69C141.687 199.955 141.538 200.315 141.538 200.69C141.538 201.065 141.687 201.424 141.953 201.689C142.218 201.955 142.577 202.104 142.952 202.104H144.837C145.212 202.104 145.572 201.955 145.837 201.689C146.102 201.424 146.251 201.065 146.251 200.69C146.251 200.315 146.102 199.955 145.837 199.69C145.572 199.425 145.212 199.276 144.837 199.276V199.276Z" fill="#B0454F"/>
<path d="M135.147 232.035C131.132 233.416 127.48 235.683 124.46 238.667C123.165 239.949 125.138 241.943 126.495 240.661C129.16 238.01 132.389 235.994 135.941 234.761C137.616 234.165 136.87 231.432 135.147 232.035Z" fill="#B0454F"/>
<path d="M142.071 244.282C139.293 247.14 135.994 249.442 132.353 251.063C130.699 251.802 132.143 254.237 133.784 253.498C137.638 251.77 141.129 249.326 144.071 246.296C145.353 244.967 143.346 242.973 142.071 244.282Z" fill="#B0454F"/>
<path d="M153.68 216.107C150.034 216.423 146.597 217.943 143.908 220.426C142.552 221.66 144.586 223.647 145.943 222.42C148.069 220.43 150.79 219.194 153.687 218.9C155.484 218.758 155.49 215.93 153.68 216.107Z" fill="#B0454F"/>
<path d="M128.671 273.061C125.918 274.567 123.727 276.925 122.426 279.781C121.68 281.429 124.121 282.86 124.874 281.198C125.943 278.772 127.783 276.768 130.109 275.495C131.696 274.621 130.265 272.179 128.671 273.061Z" fill="#B0454F"/>
<path d="M123.267 296.924C122.94 296.744 122.557 296.697 122.197 296.793C121.837 296.889 121.528 297.12 121.334 297.439L118.154 301.806C117.968 302.131 117.919 302.516 118.015 302.878C118.112 303.24 118.347 303.549 118.669 303.739C118.996 303.919 119.379 303.966 119.739 303.87C120.099 303.774 120.408 303.542 120.602 303.223L123.782 298.856C123.967 298.531 124.017 298.146 123.921 297.784C123.824 297.423 123.589 297.113 123.267 296.924Z" fill="#B0454F"/>
<path d="M107.324 337.481C103.918 341.589 101.159 346.192 99.1397 351.132C98.4616 352.813 101.174 353.539 101.852 351.878C103.698 347.39 106.213 343.209 109.311 339.475C110.484 338.078 108.498 336.078 107.324 337.481Z" fill="#B0454F"/>
<path d="M117.252 350.921L109.013 365.955C108.138 367.549 110.586 368.973 111.461 367.372L119.7 352.339C120.568 350.738 118.127 349.321 117.252 350.921Z" fill="#B0454F"/>
<path d="M136.388 340.424C134.334 346.174 132.591 352.03 131.167 357.967C130.74 359.737 133.472 360.483 133.879 358.713C135.304 352.776 137.047 346.92 139.101 341.17C139.731 339.455 136.978 338.722 136.388 340.424Z" fill="#B0454F"/>
<path d="M97.1189 373.686C95.4269 375.328 94.1694 377.366 93.4592 379.614C92.7491 381.863 92.6085 384.253 93.0502 386.57C93.3621 388.36 96.0881 387.594 95.7626 385.81C95.4434 383.982 95.5803 382.104 96.1611 380.341C96.7419 378.578 97.7487 376.987 99.0922 375.706C100.428 374.404 98.4208 372.411 97.1189 373.686Z" fill="#B0454F"/>
<path d="M111.556 382.27L107.141 390.462C106.28 392.062 108.728 393.486 109.589 391.879L114.004 383.681C114.865 382.087 112.417 380.663 111.556 382.27Z" fill="#B0454F"/>
<path d="M125.41 311.028C121.261 314.494 118.555 319.384 117.822 324.74C117.577 326.516 120.303 327.283 120.534 325.486C121.165 320.615 123.617 316.165 127.396 313.029C128.807 311.849 126.806 309.862 125.41 311.028Z" fill="#B0454F"/>
<path d="M140.721 314.249C138.583 317.94 136.909 321.88 135.737 325.981C135.235 327.73 137.968 328.469 138.45 326.727C139.553 322.86 141.132 319.145 143.149 315.667C144.078 314.093 141.63 312.676 140.721 314.249Z" fill="#B0454F"/>
<path d="M155.457 291.811C153.285 295.371 151.717 299.266 150.818 303.339C150.425 305.108 153.151 305.861 153.531 304.084C154.368 300.251 155.839 296.584 157.884 293.235C158.854 291.675 156.406 290.258 155.457 291.811Z" fill="#B0454F"/>
<path d="M149.862 270.613L145.529 285.084C145.007 286.833 147.733 287.566 148.242 285.83L152.575 271.359C153.11 269.616 150.384 268.877 149.862 270.613Z" fill="#B0454F"/>
<path d="M156.976 255.837L152.656 261.553C151.557 263.005 154.012 264.408 155.104 262.971L159.423 257.254C160.515 255.81 158.06 254.406 156.976 255.837Z" fill="#B0454F"/>
<path d="M173.352 271.495L170.205 276.54C169.243 278.093 171.691 279.503 172.653 277.957L175.78 272.919C176.756 271.359 174.274 269.948 173.352 271.495Z" fill="#B0454F"/>
<path d="M193.444 283.117C191.93 287.6 191.714 292.419 192.82 297.019C193.234 298.788 195.96 298.029 195.533 296.259C194.563 292.151 194.782 287.852 196.164 283.863C196.753 282.127 194.021 281.395 193.444 283.117Z" fill="#B0454F"/>
<path d="M181.333 281.829C180.225 284.778 179.604 287.889 179.496 291.038C179.428 292.855 182.255 292.848 182.323 291.038C182.44 288.143 183.028 285.287 184.066 282.582C184.703 280.873 181.971 280.14 181.333 281.829Z" fill="#B0454F"/>
<path d="M188.881 261.777C188.266 258.153 187.929 254.488 187.87 250.812C187.87 248.995 185.009 248.995 185.043 250.812C185.116 254.741 185.488 258.658 186.155 262.53C186.48 264.334 189.193 263.561 188.881 261.777Z" fill="#B0454F"/>
<path d="M196.692 247.239C195.979 245.046 195.885 242.7 196.421 240.457C196.842 238.688 194.116 237.942 193.709 239.712C193.041 242.452 193.137 245.322 193.987 248.012C194.516 249.727 197.242 248.981 196.692 247.239Z" fill="#B0454F"/>
<path d="M200.72 316.243C199.696 314.751 197.248 316.168 198.286 317.674C201.554 322.354 203.189 327.981 202.938 333.684C202.87 335.501 205.698 335.495 205.766 333.684C206.024 327.476 204.253 321.354 200.72 316.243V316.243Z" fill="#B0454F"/>
<path d="M217.07 311.984L207.685 300.023C206.566 298.592 204.579 300.612 205.691 302.057L215.076 314.019C216.195 315.416 218.175 313.402 217.07 311.984Z" fill="#B0454F"/>
<path d="M216.812 280.676L211.611 273.895C210.519 272.471 208.064 273.895 209.176 275.326L214.378 282.107C215.469 283.531 217.917 282.121 216.812 280.676Z" fill="#B0454F"/>
<path d="M232.686 310.581L230.652 303.081C230.177 301.325 227.451 302.077 227.94 303.84L229.974 311.34C230.435 313.097 233.161 312.344 232.686 310.581Z" fill="#B0454F"/>
<path d="M215.835 355.417C212.647 349.967 211.35 343.616 212.146 337.352C212.357 335.549 209.529 335.576 209.319 337.352C208.51 344.119 209.939 350.964 213.387 356.841C214.283 358.428 216.751 356.997 215.835 355.417Z" fill="#B0454F"/>
<path d="M225.132 340.153L223.864 335.759C223.362 334.016 220.636 334.762 221.152 336.518L222.42 340.913C222.928 342.655 225.654 341.903 225.132 340.153Z" fill="#B0454F"/>
<path d="M240.729 342.899C239.15 340.553 238.113 337.884 237.691 335.088C237.413 333.297 234.687 334.064 234.978 335.847C235.446 338.89 236.575 341.793 238.288 344.351C239.291 345.842 241.739 344.418 240.729 342.899Z" fill="#B0454F"/>
<path d="M225.071 375.645C224.32 374.563 223.961 373.257 224.054 371.943C224.156 370.126 221.342 370.139 221.226 371.943C221.121 373.761 221.614 375.564 222.63 377.076C223.647 378.582 226.088 377.158 225.071 375.645Z" fill="#B0454F"/>
<path d="M235.162 364.206C233.344 364.206 233.351 367.04 235.162 367.033C236.972 367.027 236.986 364.206 235.162 364.206Z" fill="#B0454F"/>
<path d="M245.855 370.458C244.038 370.458 244.045 373.292 245.855 373.285C247.666 373.279 247.68 370.451 245.855 370.458Z" fill="#B0454F"/>
<path d="M197.737 216.493C197.356 214.977 196.612 213.577 195.569 212.413C194.526 211.249 193.214 210.357 191.749 209.814C190.054 209.136 189.328 211.889 191.003 212.526C192 212.932 192.885 213.573 193.583 214.393C194.28 215.213 194.77 216.189 195.011 217.239C195.451 219.016 198.171 218.256 197.737 216.493Z" fill="#B0454F"/>
<path d="M212.648 237.718L207.576 231.473C206.43 230.062 204.443 232.076 205.582 233.507L210.655 239.752C211.801 241.136 213.781 239.115 212.648 237.718Z" fill="#B0454F"/>
<path d="M223.837 212.119C217.672 209.848 211.34 208.059 204.898 206.769C203.121 206.41 202.368 209.136 204.152 209.481C210.596 210.771 216.931 212.56 223.098 214.832C224.807 215.462 225.532 212.73 223.837 212.119Z" fill="#B0454F"/>
<path d="M224.163 221.809C221.916 220.554 219.312 220.093 216.771 220.501C214.981 220.758 215.747 223.478 217.531 223.213C219.335 222.973 221.168 223.335 222.745 224.244C224.332 225.139 225.749 222.691 224.163 221.809Z" fill="#B0454F"/>
<path d="M246.418 208.946L233.087 204.321C231.364 203.724 230.632 206.457 232.341 207.033L245.672 211.658C247.401 212.275 248.134 209.542 246.418 208.946Z" fill="#B0454F"/>
<path d="M261.33 215.157C254.594 216.256 247.921 217.644 241.312 219.321C239.549 219.768 240.308 222.494 242.072 222.033C248.685 220.356 255.358 218.968 262.089 217.87C263.879 217.592 263.106 214.872 261.33 215.157Z" fill="#B0454F"/>
<path d="M273.617 201.405C269.92 201.26 266.217 201.503 262.571 202.131C260.781 202.436 261.547 205.155 263.33 204.843C266.73 204.276 270.18 204.067 273.624 204.219C275.448 204.307 275.434 201.486 273.617 201.405Z" fill="#B0454F"/>
<path d="M198.598 192.21C194.6 191.19 190.708 189.791 186.975 188.033C185.341 187.26 183.91 189.701 185.558 190.481C189.505 192.355 193.622 193.849 197.852 194.943C199.622 195.39 200.361 192.664 198.598 192.21Z" fill="#B0454F"/>
<path d="M220.304 179.021C217.978 177.921 215.419 177.409 212.849 177.527C210.279 177.645 207.777 178.391 205.562 179.699C203.989 180.614 205.42 183.056 206.993 182.133C208.77 181.064 210.782 180.443 212.853 180.325C214.924 180.207 216.993 180.595 218.88 181.455C220.528 182.215 221.959 179.774 220.304 179.021Z" fill="#B0454F"/>
<path d="M239.034 188.311C233.358 188.262 227.689 187.927 222.047 187.307C220.243 187.111 220.264 189.938 222.047 190.135C227.689 190.755 233.358 191.09 239.034 191.139C240.858 191.152 240.851 188.331 239.034 188.311Z" fill="#B0454F"/>
<path d="M258.475 179.462L249.66 178.783C247.842 178.648 247.863 181.496 249.66 181.611L258.475 182.289C260.299 182.425 260.285 179.57 258.475 179.462Z" fill="#B0454F"/>
<path d="M268.531 192.047C264.741 191.793 260.942 192.386 257.41 193.783C255.735 194.461 256.475 197.174 258.17 196.496C261.46 195.181 265.003 194.623 268.538 194.861C270.389 194.99 270.369 192.163 268.531 192.047Z" fill="#B0454F"/>
<path d="M149.408 167.832C142.756 163.906 143.725 152.785 134.957 151.232C133.181 150.92 132.421 153.646 134.211 153.944C138.707 154.738 140.362 159.261 142.071 162.929C143.427 165.913 145.095 168.551 147.984 170.26C149.557 171.202 150.974 168.754 149.408 167.832Z" fill="#B0454F"/>
<path d="M131.492 137.778C128.583 133.51 126.474 128.75 125.267 123.728C124.84 121.958 122.114 122.717 122.555 124.487C123.822 129.749 126.03 134.739 129.071 139.216C130.075 140.714 132.516 139.29 131.492 137.778Z" fill="#B0454F"/>
<path d="M156.752 150.642C155.682 147.754 155.258 144.666 155.511 141.596C155.653 139.785 152.798 139.799 152.683 141.596C152.422 144.917 152.884 148.256 154.039 151.381C154.65 153.124 157.382 152.358 156.752 150.642Z" fill="#B0454F"/>
<path d="M172.403 161.939L170.368 170.077C169.927 171.84 172.653 172.586 173.081 170.822L175.115 162.685C175.569 160.922 172.843 160.176 172.403 161.939Z" fill="#B0454F"/>
<path d="M187.423 150.94C187.097 150.755 186.712 150.705 186.351 150.802C185.989 150.898 185.68 151.133 185.49 151.456L183.605 155.836C183.428 156.163 183.383 156.546 183.479 156.905C183.575 157.264 183.804 157.573 184.12 157.769C184.445 157.954 184.831 158.004 185.192 157.908C185.554 157.811 185.863 157.576 186.053 157.253L187.938 152.859C188.111 152.534 188.154 152.155 188.058 151.798C187.962 151.442 187.735 151.136 187.423 150.94V150.94Z" fill="#B0454F"/>
<path d="M208.987 137.934L204.606 142.342C203.324 143.637 205.325 145.624 206.64 144.335L211.021 139.928C212.248 138.639 210.268 136.646 208.987 137.934Z" fill="#B0454F"/>
<path d="M196.136 128.766C194.319 128.766 194.326 131.601 196.136 131.594C197.947 131.587 197.96 128.759 196.136 128.766Z" fill="#B0454F"/>
<path d="M218.188 122.514L216.317 126.284C215.503 127.905 217.951 129.336 218.765 127.702L220.65 123.931C221.443 122.311 219.029 120.887 218.188 122.514Z" fill="#B0454F"/>
<path d="M126.617 89.0018C123.85 94.1554 121.951 99.7294 120.995 105.5C120.703 107.284 123.429 108.036 123.707 106.246C124.604 100.715 126.407 95.3697 129.044 90.4258C129.912 88.8187 127.485 87.3947 126.617 89.0018Z" fill="#B0454F"/>
<path d="M140.945 120.575C140.066 118.063 139.641 115.416 139.691 112.756C139.691 110.939 136.897 110.945 136.863 112.756C136.811 115.659 137.27 118.549 138.219 121.293C138.809 123.016 141.542 122.27 140.945 120.575Z" fill="#B0454F"/>
<path d="M155.362 64.2101C152.34 64.8138 149.566 66.3024 147.393 68.4867C145.219 70.6711 143.744 73.4524 143.156 76.4771C142.823 78.2538 145.549 79.0065 145.868 77.223C146.331 74.6781 147.554 72.3331 149.376 70.4968C151.197 68.6605 153.533 67.4191 156.074 66.9361C157.905 66.5835 157.138 63.8575 155.362 64.2101Z" fill="#B0454F"/>
<path d="M160.542 67.9262L149.408 76.3212C147.97 77.4062 149.408 79.8541 150.839 78.7556L161.973 70.3945C163.424 69.2824 161.994 66.8344 160.542 67.9262Z" fill="#B0454F"/>
<path d="M172.687 71.0726L168.897 77.9689C168.022 79.5625 170.463 80.9865 171.345 79.3862L175.135 72.4898C176.01 70.903 173.596 69.479 172.687 71.0726Z" fill="#B0454F"/>
<path d="M182.778 64.7662C181.679 63.0518 180.254 61.5706 178.583 60.407C176.912 59.2435 175.029 58.4206 173.04 57.9851C171.263 57.5986 170.517 60.3246 172.294 60.6976C173.929 61.0325 175.481 61.688 176.862 62.626C178.242 63.5641 179.423 64.7663 180.336 66.1631C181.333 67.7228 183.768 66.3259 182.778 64.7662Z" fill="#B0454F"/>
<path d="M208.017 70.4555L202.334 66.7259C200.809 65.7223 199.398 68.1771 200.917 69.1739L206.6 72.9035C208.125 73.9003 209.536 71.4456 208.017 70.4555Z" fill="#B0454F"/>
<path d="M204.036 84.8992L199.12 76.0431C198.239 74.4496 195.797 75.8872 196.686 77.4739L201.602 86.33C202.483 87.9236 204.925 86.4928 204.036 84.8992Z" fill="#B0454F"/>
<path d="M219.857 92.962C219.09 91.3142 216.656 92.7585 217.422 94.3928C219.042 97.8893 219.619 101.779 219.084 105.595C218.853 107.392 221.681 107.365 221.911 105.595C222.457 101.274 221.743 96.8874 219.857 92.962V92.962Z" fill="#B0454F"/>
<path d="M222.528 84.7704C221.758 84.4639 221.118 83.8996 220.717 83.1736C220.316 82.4477 220.18 81.6052 220.331 80.7899C220.704 79.0132 217.978 78.2673 217.619 80.044C217.303 81.4592 217.478 82.9399 218.115 84.2425C218.752 85.5451 219.814 86.5922 221.125 87.2116C222.759 87.9439 224.19 85.5027 222.528 84.7704Z" fill="#B0454F"/>
<path d="M135.276 67.8041C132.885 69.9559 131.225 72.8008 130.529 75.9414C130.136 77.7113 132.862 78.464 133.242 76.6874C133.827 74.0075 135.252 71.5843 137.31 69.7707C138.64 68.5772 136.632 66.5903 135.276 67.8041Z" fill="#B0454F"/>
</svg>
