<svg width="106" height="181" viewBox="0 0 106 181" fill="none" xmlns="http://www.w3.org/2000/svg">
<path d="M104.09 62.7076C102.431 69.4014 99.3998 75.6775 95.1882 81.1382C90.6533 86.9744 84.8878 91.7392 78.3019 95.0934C78.2716 95.113 78.2392 95.1292 78.2053 95.1417C79.4751 95.9368 80.8491 96.5519 82.2881 96.9693C83.6016 97.3424 84.7495 98.1504 85.5438 99.261C86.3382 100.372 86.7318 101.719 86.6604 103.083C86.5889 104.446 86.0566 105.745 85.1505 106.767C84.2444 107.788 83.0183 108.472 81.673 108.706C79.1822 109.146 76.9569 111.54 76.7095 114.049C76.6144 115.028 76.2811 115.97 75.7386 116.791C75.1962 117.612 74.4611 118.287 73.5975 118.759C72.7339 119.231 71.768 119.484 70.784 119.496C69.8001 119.509 68.828 119.281 67.9526 118.831C65.8056 117.728 63.3088 116.594 61.1618 116.642C59.8293 116.666 58.7073 117.336 58.5506 117.776C58.1193 118.927 57.3473 119.919 56.3375 120.619C55.3278 121.319 54.1284 121.695 52.8995 121.696H52.8874C51.8213 121.691 50.7751 121.406 49.8538 120.87C49.6126 121.039 49.3595 121.202 49.1061 121.352L36.1456 173.568C35.5217 176.085 33.9237 178.251 31.7029 179.59C29.4822 180.928 26.8206 181.33 24.3038 180.706C21.787 180.082 19.6211 178.484 18.2826 176.263C16.944 174.043 16.5425 171.381 17.1663 168.864L29.7228 118.247C28.8575 118.45 27.958 118.459 27.0887 118.274C26.2194 118.089 25.4018 117.714 24.6946 117.175C23.9874 116.637 23.408 115.949 22.9979 115.16C22.5878 114.372 22.3573 113.502 22.3228 112.614C22.3047 112.15 21.4544 111.161 20.212 110.726C18.1614 110.009 15.4475 110.292 13.0593 110.672C12.0872 110.823 11.0929 110.735 10.1628 110.415C9.23267 110.094 8.39498 109.551 7.72262 108.833C7.05025 108.115 6.56358 107.243 6.30495 106.294C6.04631 105.345 6.02356 104.347 6.23867 103.387C6.79346 100.926 5.43047 97.9589 3.19909 96.7648C1.99493 96.1205 1.04508 95.0866 0.504942 93.8323C-0.0351911 92.5779 -0.133627 91.1774 0.22574 89.8598C0.585107 88.5422 1.381 87.3856 2.4832 86.5792C3.58541 85.7728 4.92866 85.3643 6.29321 85.4206C10.0694 85.5466 13.7736 84.3664 16.7809 82.0791C16.8712 82.0066 16.9677 81.9403 17.0643 81.8739C16.8111 81.5603 16.5578 81.2406 16.3044 80.9149C16.2259 80.8125 16.1476 80.704 16.0751 80.6015L16.0391 80.5471C15.6832 80.0707 15.3154 79.576 14.9655 79.0696C14.9112 78.9912 14.851 78.9003 14.7906 78.8099C13.9889 77.6458 13.2285 76.4272 12.5531 75.2395C11.0824 72.6328 9.84718 69.9 8.86223 67.0737C5.68195 57.9654 5.22902 48.1269 7.55897 38.7649C8.28319 35.8667 9.25995 33.0374 10.4781 30.3097C14.8143 20.6481 22.003 12.7597 31.2606 7.5006C42.3406 1.17984 55.4322 -0.621831 67.8077 2.47097C71.4387 3.3733 74.9583 4.67591 78.3019 6.35488C87.5284 11.0354 95.0653 18.4774 99.8622 27.644C105.515 38.4205 107.02 50.8963 104.09 62.7076V62.7076Z" fill="white"/>
<path d="M97.4434 60.8106C95.9851 66.6903 93.3228 72.2034 89.6248 77.0016C84.4434 83.7164 77.4182 88.7765 69.4076 91.5635C61.3971 94.3504 52.7482 94.7435 44.5179 92.6946C43.6716 92.4847 42.8307 92.2542 42.0075 91.9945L41.5816 91.856C30.8269 88.3996 22.252 81.057 17.0081 71.814C15.7172 69.5256 14.6333 67.1266 13.7692 64.6453C10.9685 56.6418 10.5702 47.9938 12.6235 39.7667C13.2572 37.2167 14.1167 34.728 15.1916 32.3303C18.7373 24.4829 24.5186 17.8555 31.8121 13.2774C39.1055 8.69926 47.5872 6.37377 56.1957 6.59194C62.6673 6.7809 69.0188 8.38659 74.8027 11.2959C83.6198 15.7726 90.659 23.106 94.7711 32.0989C98.8832 41.0918 99.8255 51.2131 97.444 60.8106H97.4434Z" fill="#F4ECE6"/>
<path d="M55.3576 49.8868C55.3526 49.9952 55.3452 50.1138 55.3402 50.2221C55.2857 50.0882 55.2212 49.9517 55.177 49.8201C55.1328 49.7342 55.0964 49.6445 55.0683 49.5521C51.1096 40.0991 50.001 29.695 51.8789 19.6201C52.7292 15.1039 54.1811 10.7221 56.1957 6.5918C62.6674 6.78076 69.0188 8.38645 74.8028 11.2958C64.1291 20.052 56.9188 33.0854 55.5662 46.8382C55.4573 47.8521 55.3919 48.8655 55.3576 49.8868Z" fill="#E02C37"/>
<path d="M93.7288 29.9927C89.7908 29.9688 85.7948 30.5768 81.9979 31.5737C71.3883 34.3314 61.0787 40.4721 55.8917 50.0308C55.8891 50.041 55.8762 50.0488 55.871 50.0694C55.7684 50.263 55.6656 50.4567 55.573 50.6529C55.4727 50.8361 55.3828 51.0219 55.2928 51.2078C55.2492 51.2955 55.2025 51.3936 55.1592 51.4814C55.1367 51.5304 55.1106 51.5898 55.0874 51.6395C55.0695 51.6678 55.0618 51.6988 55.0437 51.7271C55.0385 51.704 55.0437 51.6833 55.0384 51.6601C55.0314 51.5942 55.0296 51.5278 55.0329 51.4615C55.0209 51.402 55.0139 51.3415 55.0119 51.2808C55.017 51.2602 55.0119 51.2369 55.0168 51.2163C55.0089 51.0281 55.0035 50.8296 55.0056 50.6438C55.0031 50.3545 55.0163 50.0652 55.0452 49.7774C55.0423 49.7018 55.0499 49.6263 55.0678 49.5529C55.1443 48.6341 55.311 47.7251 55.5657 46.839C56.1523 44.6512 57.1543 42.5553 58.2881 40.5909C64.1703 30.3939 73.7391 22.4262 84.7304 18.2185C88.3795 21.6013 91.4228 25.5835 93.7288 29.9927V29.9927Z" fill="#E02C37"/>
<path d="M98.6234 47.223C99.117 54.28 97.8925 61.3515 95.055 67.8317C92.5309 63.7874 89.1696 60.2914 85.1368 57.7351C76.888 52.5227 66.7641 51.424 56.955 51.7953L54.9901 51.8993C54.9596 51.8978 54.9291 51.9014 54.8997 51.9098C54.8708 51.9047 54.8411 51.9047 54.8121 51.9098C54.7349 51.9124 54.6678 51.9177 54.5903 51.9205C54.6651 51.8842 54.7322 51.8351 54.8068 51.7988C54.8071 51.7975 54.8077 51.7962 54.8085 51.7951C54.8094 51.7939 54.8104 51.793 54.8116 51.7923C54.8128 51.7915 54.8141 51.7911 54.8155 51.7909C54.8169 51.7907 54.8183 51.7908 54.8197 51.7912C54.8347 51.7777 54.8522 51.7672 54.8711 51.7601C54.9288 51.7297 54.9848 51.6961 55.0386 51.6593C55.0515 51.6515 55.0748 51.6463 55.0877 51.6386L55.3066 51.5066C55.4972 51.4006 55.7008 51.2867 55.8938 51.1703C56.3267 50.9271 56.7724 50.6761 57.2051 50.433C59.8999 48.9325 62.6646 47.5478 65.6185 46.6812C68.8093 45.7419 72.1509 45.4316 75.4825 45.2504C83.1873 44.8395 91.1929 45.248 98.6234 47.223Z" fill="#E02C37"/>
<path d="M89.6248 77.0015C85.645 82.1378 80.5759 86.3278 74.7824 89.2699C75.3722 86.0091 75.049 82.6314 74.3881 79.3777C72.0649 68.0327 65.1552 57.379 54.9899 51.899C54.9614 51.8811 54.9334 51.863 54.8942 51.8426C54.8761 51.8271 54.8453 51.82 54.8169 51.8015L54.8066 51.7989C54.7475 51.7632 54.6852 51.7329 54.6206 51.7085C54.3909 51.5748 54.156 51.4618 53.9109 51.3462C53.8721 51.3256 53.8438 51.3077 53.8052 51.2871C53.8584 51.2912 53.911 51.3006 53.9624 51.3151C54.272 51.3482 54.5789 51.3915 54.8731 51.4425C54.9268 51.4432 54.9803 51.4491 55.0329 51.4602C55.0757 51.4618 55.1181 51.4686 55.1592 51.4807C55.2089 51.4843 55.2581 51.4928 55.306 51.5062C55.8658 51.5903 56.4101 51.6925 56.9547 51.7947C65.9639 53.5343 74.3735 57.5639 81.3741 63.4954C82.6681 64.5942 83.9107 65.768 84.9472 67.1097C86.754 69.4532 87.8652 72.2596 88.9044 75.0482C89.148 75.7 89.3916 76.352 89.6248 77.0015Z" fill="#E02C37"/>
<path d="M50.0597 82.2378C47.9336 85.913 45.2129 89.2101 42.0082 91.9951C31.4085 88.6981 22.4668 81.4799 17.0083 71.8141C27.9732 71.8614 38.9688 68.4764 47.8027 61.9696C51.2048 59.4724 54.5103 56.0857 54.812 51.91C54.8178 51.8741 54.8195 51.8378 54.8169 51.8016L54.8195 51.7913C54.8289 51.7013 54.8331 51.6108 54.8319 51.5203C54.845 51.6001 54.858 51.68 54.8709 51.76C54.8831 51.786 54.891 51.8139 54.8943 51.8424C54.9011 51.8641 54.903 51.887 54.8996 51.9095C56.7749 62.1909 55.286 73.182 50.0597 82.2378Z" fill="#E02C37"/>
<path d="M59.15 50.7621C58.0731 50.9597 56.9859 51.096 55.8935 51.1702C55.6924 51.1861 55.4938 51.1916 55.2927 51.2074C55.2153 51.2101 55.1484 51.2154 55.071 51.2187C55.0555 51.2368 55.0272 51.2626 55.0117 51.2807C54.9656 51.335 54.9193 51.3892 54.8729 51.4434C54.7853 51.5313 54.7081 51.6216 54.6204 51.7095C47.4087 59.5388 37.2131 64.6013 26.5927 65.5048C22.2994 65.8716 17.9753 65.582 13.7693 64.6458C12.3424 60.5732 11.5317 56.3104 11.364 51.9983C16.5499 54.8077 22.2757 56.6336 28.1462 57.2137C37.0758 58.0925 46.3019 56.0542 53.9113 51.3471C53.9344 51.3419 53.9603 51.3264 53.9628 51.316C54.0041 51.3024 54.0408 51.2774 54.0685 51.2438C46.7936 51.3341 39.4965 48.9978 32.7809 45.995C27.072 43.4394 21.46 40.2723 17.431 35.4931C16.5965 34.504 15.8474 33.446 15.1918 32.3302C18.9932 23.8813 25.3889 16.8642 33.4502 12.2981C32.0805 22.1466 36.5263 32.1781 42.7784 40.0067C46.0816 44.1346 50.189 47.98 55.0455 49.7766C55.0877 49.7958 55.1318 49.8103 55.1771 49.8201C55.2354 49.8473 55.2959 49.8696 55.3578 49.8869C55.518 49.9485 55.6907 50.0024 55.8506 50.0639C55.8739 50.0588 55.8996 50.0433 55.892 50.03C56.0595 49.9292 56.1932 49.831 56.3401 49.7252C56.232 49.8517 56.1342 49.9808 56.0263 50.1074C56.4134 50.2363 56.8069 50.3449 57.2053 50.4328C57.8458 50.5842 58.4954 50.6942 59.15 50.7621Z" fill="#E02C37"/>
<path d="M48.8852 93.5482L29.5033 171.67C29.2598 172.631 28.646 173.456 27.7961 173.965C26.9462 174.474 25.9292 174.626 24.9676 174.387C24.0061 174.149 23.178 173.539 22.6646 172.692C22.1512 171.844 21.9942 170.828 22.2278 169.865L41.5817 91.8567L42.0076 91.9951C42.8308 92.2542 43.6717 92.4848 44.518 92.6953C45.9583 93.0534 47.4159 93.3381 48.8852 93.5482V93.5482Z" fill="#CC894C"/>
<path d="M41.1812 99.0579C44.9855 100.315 50.0214 97.5362 52.4299 94.3297C54.6392 96.0339 57.3892 96.8835 60.1748 96.7224C62.9603 96.5614 65.5941 95.4004 67.5922 93.4529C70.5214 97.7427 74.8539 100.878 79.8444 102.319C74.6965 103.219 70.4216 107.814 69.9184 113.018C66.8995 111.466 63.6499 110.101 60.2545 110.166C56.8624 110.223 53.2959 112.031 52.1072 115.215C51.1436 112.608 49.5965 110.188 47.4349 108.449C45.2694 106.718 42.8848 103.726 40.1252 104.037L41.1812 99.0579Z" fill="#336D3B"/>
<path d="M75.1882 102.106C70.2204 103.574 64.8925 104.16 59.7264 104.254C53.6565 104.364 47.8487 102.972 42.0376 101.343C41.1638 101.098 40.6632 102.427 41.5446 102.675C47.4722 104.336 53.4115 105.779 59.605 105.669C64.8965 105.575 70.3453 105.008 75.4346 103.505C76.3007 103.249 76.0658 101.847 75.1882 102.106V102.106Z" fill="#0C1F26"/>
<path d="M42.9935 100.005C38.987 100.007 35.0743 95.7915 33.7909 91.9921C31.1591 92.9189 28.2813 92.8648 25.6863 91.8397C23.0912 90.8145 20.9533 88.8873 19.6655 86.4121C15.5405 89.5691 10.4445 91.1903 5.25366 90.9968C9.86096 93.4635 12.4824 99.1656 11.3311 104.265C14.6841 103.737 18.1976 103.458 21.4019 104.583C24.6058 105.699 27.4267 108.533 27.5588 111.929C29.2895 109.754 31.5162 107.94 34.1141 106.966C36.7125 106 39.9141 103.905 42.4376 105.064L42.9935 100.005Z" fill="#336D3B"/>
<path d="M9.74199 92.2524C14.0006 95.2015 18.8775 97.4263 23.7539 99.1332C29.4839 101.139 35.4357 101.635 41.4647 101.907C42.3711 101.948 42.4303 103.367 41.516 103.326C35.3662 103.048 29.2739 102.558 23.4261 100.515C18.4301 98.7692 13.4323 96.5247 9.07009 93.5034C8.32762 92.9893 8.98969 91.7313 9.74199 92.2524V92.2524Z" fill="#0C1F26"/>
<path d="M38.6857 106.775C41.6405 106.775 44.0359 104.38 44.0359 101.425C44.0359 98.4698 41.6405 96.0745 38.6857 96.0745C35.7308 96.0745 33.3354 98.4698 33.3354 101.425C33.3354 104.38 35.7308 106.775 38.6857 106.775Z" fill="#E02C37"/>
<path d="M49.2506 108.471C52.2055 108.471 54.6008 106.076 54.6008 103.121C54.6008 100.166 52.2055 97.771 49.2506 97.771C46.2958 97.771 43.9004 100.166 43.9004 103.121C43.9004 106.076 46.2958 108.471 49.2506 108.471Z" fill="#E02C37"/>
<path d="M42.5497 116.456C45.5045 116.456 47.8999 114.061 47.8999 111.106C47.8999 108.151 45.5045 105.756 42.5497 105.756C39.5948 105.756 37.1995 108.151 37.1995 111.106C37.1995 114.061 39.5948 116.456 42.5497 116.456Z" fill="#E02C37"/>
</svg>
