<svg width="190" height="280" viewBox="0 0 190 280" fill="none" xmlns="http://www.w3.org/2000/svg">
<path d="M187.599 226.155C173.188 197.096 169.911 163.825 168.598 135.124C168.376 130.275 168.334 125.109 168.286 119.646C168.064 93.9581 167.814 61.9903 146.905 38.3142C143.584 34.5423 139.847 31.1572 135.766 28.2233C135.369 26.3444 134.818 24.5013 134.118 22.7128L133.967 22.3303C133.561 21.3245 133.089 20.2951 132.55 19.294C132.456 19.1146 132.361 18.9352 132.262 18.7557C131.705 17.7216 131.134 16.7725 130.529 15.8706L130.487 15.8092C129.877 14.9097 129.223 14.0414 128.527 13.2074L128.159 12.7683C127.479 11.9781 126.763 11.2179 126.01 10.4875L125.566 10.0673C124.816 9.3637 124.041 8.6979 123.267 8.08877L123.196 8.0321L122.87 7.78656C122.186 7.26242 121.454 6.74772 120.726 6.26608L120.377 6.03942C119.541 5.50112 118.696 5.01003 117.775 4.51422L117.374 4.30173C116.486 3.82953 115.589 3.414 114.696 3.03624L114.597 2.99374L114.394 2.90874C112.497 2.12626 110.541 1.49471 108.544 1.01995L108.251 0.949119C107.24 0.713019 106.206 0.519418 105.168 0.368315H105.012C103.302 0.124981 101.577 0.00190715 99.8506 0C88.3761 0 78.1625 5.61916 72.5291 15.0254C69.5714 20.1054 67.7961 25.7865 67.3349 31.6468C63.7892 34.7416 60.5794 38.2015 57.7587 41.969C46.4496 57.0794 42.417 75.0655 39.5271 90.7613C37.4872 101.844 35.8723 113.002 34.333 123.815C33.7569 127.791 33.1619 131.904 32.5622 135.922C27.996 166.341 22.0227 198.111 3.94696 222.854C1.72115 225.898 0.37925 229.497 0.0692887 233.255C-0.240673 237.013 0.493346 240.783 2.19038 244.15C3.91599 247.58 6.54065 250.477 9.78411 252.531C13.0276 254.585 16.768 255.72 20.6061 255.814C22.0511 255.856 28.081 256.399 32.9305 256.834C42.1809 257.665 53.2351 258.656 61.3994 259.034C62.4798 260.911 63.7133 262.696 65.0873 264.37C68.0274 267.968 71.6513 270.949 75.7495 273.139C81.8467 277.622 89.2229 280.027 96.7907 280C101.845 279.955 106.852 279.018 111.58 277.233C122.733 273.134 131.412 266.164 136.786 257.278L144.813 257.06L169.509 256.395C173.021 256.301 176.452 255.322 179.484 253.55C182.517 251.777 185.053 249.268 186.858 246.254C188.663 243.241 189.678 239.821 189.809 236.31C189.94 232.8 189.184 229.314 187.609 226.174L187.599 226.155Z" fill="white"/>
<path d="M179.213 230.315C164.032 199.702 160.604 165.232 159.248 135.549C159.017 130.525 158.975 125.279 158.927 119.726C158.71 94.3359 158.455 65.5601 139.888 44.5047C136.184 40.2895 131.874 36.647 127.101 33.6961C126.922 31.0897 126.346 28.5259 125.392 26.0937L125.297 25.8529C124.995 25.1068 124.646 24.3513 124.263 23.6146L124.07 23.2511C123.649 22.4766 123.248 21.8014 122.832 21.1781L122.695 20.9751C122.289 20.3801 121.836 19.7804 121.307 19.1476L121.066 18.8596C120.594 18.293 120.061 17.7405 119.508 17.2069L119.187 16.9C118.63 16.3758 118.068 15.8942 117.492 15.4409L117.449 15.4078L117.237 15.2473C116.708 14.8412 116.141 14.4351 115.556 14.0526L115.339 13.9062C114.715 13.5049 114.078 13.1318 113.379 12.7588L113.082 12.603C112.402 12.2488 111.722 11.9277 111.046 11.6586H111.004L110.82 11.583C109.373 10.9805 107.881 10.4942 106.357 10.1286L106.154 10.0814C105.418 9.91144 104.629 9.76033 103.831 9.64228H103.718C102.443 9.46098 101.157 9.36946 99.8694 9.36841C91.5964 9.36841 84.5654 13.1885 80.5801 19.8465C77.7469 24.5685 76.3633 30.4379 76.5569 36.2412C72.2811 39.4696 68.4818 43.2847 65.2714 47.574C55.1758 61.0411 51.5776 77.1289 48.7444 92.4329C46.7328 103.341 45.1368 114.409 43.588 125.114C43.0119 129.104 42.4169 133.226 41.8078 137.268C37.0858 168.835 30.8197 201.874 11.4974 228.327C10.2868 229.985 9.55804 231.946 9.39139 233.993C9.22474 236.039 9.62671 238.092 10.553 239.924C11.5093 241.827 12.9647 243.434 14.7638 244.573C16.5628 245.713 18.6377 246.342 20.7666 246.393C22.2257 246.393 28.0904 246.941 33.7615 247.451C45.2643 248.485 59.5766 249.77 67.1743 249.77H67.3585C68.5318 252.886 70.2048 255.79 72.3119 258.368C74.6049 261.212 77.4764 263.537 80.7359 265.187C85.3309 268.742 90.9807 270.663 96.7906 270.645C100.744 270.599 104.659 269.856 108.355 268.45C119.215 264.464 127.144 257.23 130.973 248.074L146.584 247.654L169.226 247.045C171.159 247.005 173.051 246.476 174.724 245.507C176.397 244.537 177.797 243.159 178.793 241.501C179.8 239.823 180.367 237.918 180.441 235.962C180.514 234.006 180.092 232.064 179.213 230.315Z" fill="black"/>
<path d="M114.994 26.2874C109.479 18.0664 94.307 15.049 88.5934 24.5969C85.3305 30.0461 84.8677 38.6401 88.0456 44.2923C88.7128 46.2671 89.7693 48.0879 91.1527 49.647C94.7886 53.6938 99.827 54.8932 104.941 53.1272C115.768 49.3873 121.652 36.213 114.994 26.2874Z" fill="#E37D1E"/>
<path d="M117.95 215.257C114.346 212.366 109.961 210.618 105.356 210.237L105.177 210.105C104.863 209.851 104.471 209.714 104.068 209.719C103.664 209.723 103.275 209.868 102.967 210.129C93.32 210.129 83.4936 215.323 78.375 223.511C77.4967 221.815 74.3518 222.146 74.3377 224.507C74.3317 227.311 74.5131 230.113 74.8807 232.893C73.7427 239.702 75.1121 247.059 79.5413 252.433C81.1769 254.501 83.2965 256.134 85.7129 257.188C90.4349 261.211 96.8096 262.731 105.144 259.672C114.588 256.206 122.091 249.5 123.838 239.367C125.278 231.023 125.061 221.008 117.95 215.257Z" fill="#F59439"/>
<path d="M170.831 234.47C155.65 203.858 151.438 169.727 149.904 135.974C148.629 108.049 152.86 73.3467 132.876 50.6906C125.099 41.8746 113.804 35.3961 101.758 36.0996C89.9909 36.7891 79.6687 43.9098 72.7462 53.146C63.8783 64.9793 60.573 79.8489 57.9428 94.1046C55.223 108.88 53.2869 123.782 51.0582 138.633C46.0434 172.022 39.3712 206.002 19.0525 233.823C18.0562 235.188 19.4208 237.011 20.8988 237.03C25.9419 237.101 58.0892 240.67 68.4304 240.392C69.7242 240.557 73.7851 240.713 74.2526 240.236L168.995 237.681C169.367 237.673 169.731 237.569 170.051 237.379C170.371 237.189 170.636 236.919 170.821 236.595C171.006 236.272 171.104 235.907 171.106 235.534C171.108 235.162 171.013 234.795 170.831 234.47V234.47Z" fill="#FFC533"/>
<path d="M44.2208 210.648C41.6098 214.508 39.4623 218.662 37.8225 223.024C36.845 225.593 40.972 226.698 41.94 224.153C43.4792 220.155 45.4824 216.351 47.9086 212.82C49.4574 210.516 45.7601 208.386 44.2208 210.648Z" fill="#F59439"/>
<path d="M55.7708 204.505C54.4172 210.099 52.8731 215.638 51.1385 221.121C50.3075 223.747 54.4439 224.861 55.2561 222.25C56.9907 216.763 58.5347 211.224 59.8884 205.633C60.5353 202.965 56.4177 201.837 55.7708 204.505Z" fill="#F59439"/>
<path d="M67.2452 203.664L65.1817 222.141C64.8747 224.866 69.1481 224.837 69.4314 222.141L71.495 203.674C71.816 200.935 67.5474 200.963 67.2452 203.664Z" fill="#F59439"/>
<path d="M83.5691 183.723C83.4888 180.984 79.2202 180.98 79.3193 183.723L80.3487 218.326C80.429 221.065 84.6977 221.069 84.5985 218.326L83.5691 183.723Z" fill="#F59439"/>
<path d="M97.4234 219.643C96.2811 212.303 95.7708 204.878 95.8982 197.45C95.9407 194.702 91.672 194.711 91.6484 197.45C91.5381 205.262 92.0989 213.07 93.3247 220.786C93.7355 223.487 97.8436 222.33 97.4234 219.643Z" fill="#F59439"/>
<path d="M116.056 219.105C115.262 215.236 114.771 211.311 114.588 207.366C114.46 204.632 110.192 204.623 110.338 207.366C110.537 211.697 111.074 216.005 111.944 220.252C112.496 222.934 116.623 221.792 116.056 219.105Z" fill="#F59439"/>
<path d="M135.44 217.183C133.062 206.944 131.584 196.515 131.025 186.018C130.879 183.284 126.61 183.279 126.775 186.018C127.353 196.9 128.882 207.711 131.346 218.326C131.951 220.998 136.063 219.86 135.44 217.183Z" fill="#F59439"/>
<path d="M153.27 211.035C151.51 204.953 150.152 198.762 149.205 192.501C148.794 189.796 144.686 190.952 145.092 193.644C146.043 199.906 147.406 206.099 149.172 212.183C149.923 214.808 154.04 213.684 153.27 211.035Z" fill="#F59439"/>
<path d="M110.296 51.0495C99.6003 51.0495 90.5246 60.1818 90.5435 70.8818C90.5624 81.5818 99.638 90.6528 110.376 90.6339C121.114 90.615 130.147 81.5016 130.128 70.8015C130.109 60.1015 121.029 51.0306 110.296 51.0495Z" fill="#FDE027"/>
<path d="M102.145 36.0949C107.391 35.9014 112.61 36.938 117.383 39.1217C117.883 36.9327 117.929 34.6645 117.518 32.4571C117.107 30.2497 116.248 28.1499 114.994 26.2873C110.272 19.2421 98.4669 16.0312 91.5823 21.2537C94.7099 22.4929 97.4101 24.6141 99.3547 27.3592C101.103 29.9435 102.072 32.9757 102.145 36.0949V36.0949Z" fill="#F59439"/>
</svg>
