<svg width="130" height="127" viewBox="0 0 130 127" fill="none" xmlns="http://www.w3.org/2000/svg">
<path d="M129.907 115.455C130.249 112.922 129.639 110.353 128.196 108.245C126.753 106.136 124.579 104.637 122.095 104.039C113.364 101.857 104.892 98.7456 96.8244 94.7573C95.956 88.7517 95.4257 83.1282 95.9378 77.6581C97.3687 76.3457 98.5033 74.7432 99.2656 72.9576C100.757 69.5304 100.904 65.6679 99.679 62.137L99.5854 61.877C98.2767 58.2362 95.5854 55.2582 92.0953 53.5887C90.1068 52.6574 87.937 52.1771 85.7412 52.1822C85.3183 52.1822 84.9006 52.1996 84.4881 52.2342C82.9048 48.831 80.305 46.2364 77.0967 44.8767C75.1952 44.0589 73.148 43.6335 71.0781 43.6261C70.6795 43.6261 70.2817 43.6426 69.8848 43.6755C70.5397 40.977 70.3445 38.142 69.3258 35.5588C67.1653 30.2551 62.1424 26.8285 56.532 26.8285C55.9487 26.8281 55.3659 26.8655 54.7875 26.9403C54.7545 26.6075 54.7095 26.2739 54.6523 25.9394C53.5707 19.6815 48.3372 15.1422 42.2094 15.1422C40.7204 15.15 39.2438 15.4138 37.8443 15.9222C36.0814 16.544 34.4754 17.543 33.1385 18.8496C33.852 15.8684 33.6794 12.7438 32.642 9.85933C30.7519 4.55564 25.924 0.645471 20.6281 0.130701C19.8837 0.0499688 19.1357 0.00658361 18.387 0.000708738C16.6389 -0.0173659 14.9045 0.310436 13.2835 0.965251C11.2205 1.81856 9.35375 3.08461 7.79785 4.68563C4.02027 8.43201 2.75155 14.513 4.64163 19.8167C5.40717 21.9777 6.63108 23.9475 8.22942 25.591C6.51799 26.4437 4.97831 27.6044 3.68749 29.015C0.98105 31.9632 -0.443665 36.5104 0.123101 40.3607C0.375189 42.8162 1.24746 45.1674 2.65795 47.1931L2.71255 47.2711C4.15377 49.3214 6.10086 50.964 8.36461 52.0392C8.4842 52.0964 8.60553 52.151 8.72859 52.203C10.2701 52.863 11.9085 53.2687 13.5799 53.4041C14.3261 54.0827 15.0904 54.7041 15.8522 55.3098C12.0538 58.6064 10.1689 63.6761 11.0893 68.998C12.3658 76.3894 18.4884 81.7529 25.6484 81.7529C27.0975 81.7496 28.5386 81.5386 29.9277 81.1263C29.2 83.0541 29.0095 85.1433 29.3766 87.1709C30.2709 91.8871 33.2763 95.4021 37.5999 96.8164C39.1504 97.3229 40.7872 97.5107 42.4121 97.3687C44.037 97.2266 45.6165 96.7575 47.0555 95.9896C47.8511 96.0208 48.5842 96.0286 49.2316 96.0286C50.0349 96.0286 50.8175 96.0286 51.5715 96.0026C52.3254 95.9766 52.9806 95.9792 53.6513 95.9792C54.1245 95.9792 54.5457 95.9792 54.9357 95.9974C55.5665 96.1061 56.1914 96.2476 56.8075 96.4212C58.5288 96.9136 60.2952 97.2315 62.08 97.3701L62.4206 97.6301C61.9925 97.5903 61.5592 97.5703 61.1207 97.5703C59.4364 97.5755 57.7655 97.8701 56.181 98.4413C49.5384 100.807 45.74 107.325 46.9437 114.3C48.1683 121.385 54.0491 126.52 60.9283 126.52C62.6126 126.514 64.2835 126.22 65.868 125.649C67.6634 125.033 69.3156 124.061 70.7248 122.789C72.1341 121.518 73.2713 119.975 74.0679 118.252L77.7961 117.033C79.044 116.625 80.2738 116.177 81.4671 115.733C83.8355 114.872 86.2742 113.986 88.2917 113.653C97.5556 118.179 107.269 121.72 117.272 124.219C118.102 124.426 118.954 124.532 119.81 124.533C124.934 124.531 129.273 120.628 129.907 115.455ZM75.0091 80.8429C75.0091 80.9469 75.0091 81.0509 75.0091 81.1549L74.9831 81.1367L75.0091 80.8429Z" fill="white"/>
<path d="M125.597 114.927C125.799 113.449 125.446 111.948 124.605 110.715C123.765 109.482 122.497 108.605 121.047 108.253C111.273 105.811 101.815 102.244 92.8622 97.6249C91.6948 90.0386 90.8603 82.6134 91.8222 75.3988C93.3388 74.3752 94.532 72.9403 95.2618 71.2625C96.3408 68.8399 96.4551 66.097 95.5816 63.5929L95.488 63.333C94.5552 60.7837 92.6684 58.6965 90.2259 57.5119C88.8187 56.8606 87.2866 56.5234 85.736 56.524C84.5274 56.5127 83.3282 56.737 82.2054 57.1843C81.942 57.2918 81.682 57.407 81.4255 57.5301C81.3677 56.5318 81.1491 55.5494 80.7781 54.6209C79.6784 51.9196 77.7649 49.8788 75.3886 48.8752C74.0222 48.2854 72.5507 47.9777 71.0625 47.9705C69.9108 47.9697 68.7676 48.1667 67.6827 48.5528C65.12 49.49 63.0217 51.3861 61.8304 53.8409C60.6319 56.368 60.5045 59.4566 61.5002 61.9004C61.606 62.1604 61.7195 62.4135 61.8408 62.6596C60.6163 66.0836 59.8935 69.713 59.3866 73.2878C59.0988 73.0035 58.8129 72.7184 58.5286 72.4324C57.6905 64.3904 58.6131 56.2622 61.2324 48.6126V48.5918C62.8638 47.6414 64.1774 46.2293 65.0074 44.5335C66.0942 42.243 66.206 39.4352 65.2986 37.2071C64.6049 35.4419 63.3988 33.9247 61.8355 32.8507C60.2722 31.7767 58.4233 31.1951 56.5267 31.1807C55.4696 31.1809 54.4205 31.363 53.4251 31.7188C51.1003 32.5686 49.1967 34.2886 48.1162 36.5155C47.0295 38.806 46.9177 41.6138 47.825 43.8419C48.1948 44.7502 48.6978 45.5984 49.3174 46.3586C48.0534 50.4101 47.164 54.5691 46.6603 58.7832C45.967 57.8612 45.2789 56.9313 44.596 55.9936C44.5449 49.0328 45.178 42.0838 46.4861 35.2468C49.4525 33.5179 50.9865 30.2577 50.3677 26.6855C49.6475 22.5258 46.2079 19.4918 42.2042 19.4918C41.2127 19.4973 40.2295 19.6732 39.2975 20.0117C36.5079 21.0049 34.5658 23.1757 33.9653 25.9706C33.5552 28.0054 33.863 30.1194 34.8362 31.9528C34.4237 34.0188 34.0658 36.0987 33.7625 38.1924C31.0954 32.938 28.7867 27.5093 26.8521 21.9434C27.3063 21.3774 27.7035 20.7678 28.0376 20.1235C29.4025 17.5237 29.5975 14.2167 28.5576 11.284C27.2421 7.59226 23.8129 4.78443 20.2173 4.42305C19.6245 4.36585 19.0395 4.31385 18.3974 4.31385C17.2119 4.29893 16.0351 4.51804 14.9344 4.95862C13.4011 5.60169 12.0169 6.55399 10.8682 7.75605C8.30218 10.3013 7.42864 14.6534 8.74416 18.3452C9.7841 21.2805 12.0278 23.7217 14.7238 24.8734C14.8711 24.9358 15.0211 24.9956 15.1736 25.0528C15.5809 26.2557 16.0047 27.4525 16.4449 28.6432C15.777 28.5108 15.0979 28.4438 14.417 28.443C13.2399 28.4353 12.0725 28.657 10.98 29.0956C9.42255 29.7258 8.02539 30.6957 6.89047 31.9346C5.03938 33.9495 4.03064 37.1681 4.43101 39.7576V39.7966C4.59736 41.5658 5.21995 43.2615 6.23791 44.7181L6.2639 44.7571C7.27887 46.2012 8.65005 47.3583 10.2443 48.1161L10.4263 48.1993C11.7861 48.7865 13.2504 49.0933 14.7316 49.1014C14.9431 49.1014 15.1536 49.0945 15.3634 49.0806C17.4432 51.1917 19.8091 52.8686 21.967 54.3895L22.9055 55.0524C23.37 55.3835 23.838 55.7119 24.3094 56.0378C23.5796 56.1486 22.8622 56.3297 22.1672 56.5786C17.2041 58.3465 14.4742 63.0366 15.3738 68.2493C16.2889 73.5504 20.6125 77.3981 25.651 77.3981C26.9119 77.3922 28.1624 77.1697 29.3479 76.7404C30.1827 76.4459 30.9796 76.0531 31.7216 75.5704C31.9088 75.5964 32.0778 75.625 32.2052 75.6536C34.1161 76.0982 36.0139 76.7092 38.021 77.3565L38.541 77.5255L39.3209 77.7855C38.5132 78.0184 37.7441 78.3688 37.0383 78.8254C34.5372 80.4139 33.1073 83.5936 33.6377 86.3858C34.4176 90.4338 36.9473 92.0613 38.9414 92.7112C39.7185 92.9658 40.5311 93.0956 41.3488 93.096C43.0013 93.0909 44.61 92.5641 45.9454 91.5907C47.1673 91.6817 48.2852 91.6973 49.2316 91.6973C50.0115 91.6973 50.7629 91.6973 51.5038 91.6739C52.2448 91.6505 52.9467 91.6505 53.6539 91.6505C54.1739 91.6505 54.634 91.6505 55.0656 91.6687C55.8014 91.6895 56.8179 91.9521 57.8916 92.2277C59.423 92.6202 61.1571 93.0674 63.0107 93.0674C63.2049 93.0674 63.3973 93.0622 63.5879 93.0518C66.9434 95.6915 70.4099 98.1865 73.9873 100.537C71.9074 101.26 69.8509 102.034 67.8205 102.799L66.1826 103.415C64.6711 102.446 62.9135 101.931 61.1181 101.93C59.9308 101.935 58.7532 102.145 57.6369 102.549C52.9571 104.218 50.3729 108.646 51.223 113.567C52.0862 118.561 56.1627 122.188 60.9283 122.188C62.1164 122.183 63.2948 121.974 64.4121 121.57C67.7061 120.397 69.9471 117.901 70.7011 114.797L76.4467 112.92C77.6271 112.535 78.8256 112.098 79.9825 111.677C82.9178 110.611 85.9622 109.509 88.6452 109.238C88.7735 109.226 88.9009 109.21 89.0274 109.189C98.3649 113.855 108.185 117.485 118.312 120.015C118.798 120.137 119.298 120.198 119.799 120.199C122.789 120.189 125.222 117.974 125.597 114.927ZM79.7278 89.8852C76.5403 87.755 73.4396 85.4897 70.4255 83.0892L70.5269 82.0492C70.9767 77.4033 71.4394 72.63 72.6588 68.4443C73.3241 68.3498 73.9782 68.1887 74.6113 67.9633C74.9543 67.8409 75.2902 67.6994 75.6174 67.5395C75.6802 68.4507 75.8674 69.3491 76.1738 70.2096L76.2674 70.4695C76.9463 72.3266 78.137 73.9535 79.7018 75.1623C79.161 80.1514 79.2936 85.0729 79.7278 89.8852Z" fill="black"/>
<path d="M119.999 112.47C73.6156 100.929 35.3562 64.5913 21.2937 18.9406C20.6541 16.8607 17.4745 17.9994 18.1115 20.0741C32.538 66.8921 71.8633 103.966 119.37 115.787C121.487 116.313 122.1 112.993 119.999 112.47Z" fill="#17775E"/>
<path d="M39.3704 31.4718C37.5398 40.0942 36.7163 48.8998 36.9161 57.7121C36.9629 59.8908 40.3297 59.6308 40.2959 57.4651C40.1151 48.9445 40.9256 40.4318 42.7112 32.0984C43.1558 29.9743 39.8228 29.3478 39.3704 31.4718Z" fill="#17775E"/>
<path d="M38.3669 55.796C34.6699 53.6693 31.0665 51.4048 27.5905 48.9298C24.5539 46.7693 21.0675 44.588 19.0422 41.3902C17.8801 39.5547 15.1112 41.4916 16.276 43.3297C18.4832 46.8135 22.1074 49.1586 25.4144 51.514C29.1166 54.1529 32.9748 56.5785 36.9161 58.8456C38.8062 59.9323 40.2439 56.8749 38.3669 55.796Z" fill="#17775E"/>
<path d="M54.0752 45.7502C50.9876 54.6056 49.8913 64.033 50.8643 73.3606C51.0905 75.521 54.4573 75.2767 54.2441 73.1136C53.2913 64.3677 54.2784 55.5192 57.1352 47.1983C57.8345 45.1626 54.7901 43.6963 54.0752 45.7502Z" fill="#17775E"/>
<path d="M52.3306 72.7548C48.2411 72.5468 44.3699 71.3197 40.5013 70.0769C38.8894 69.557 37.2801 69.037 35.6474 68.5768C34.2357 68.1895 31.7633 68.1531 30.1877 67.6019C29.4078 66.614 27.4553 66.6582 27.1641 68.2675L27.1199 68.5066C26.9769 69.3074 27.3981 69.9522 28.0559 70.3447C29.439 71.1741 31.6125 71.0623 33.1802 71.4263C35.4472 71.9462 37.6571 72.682 39.8696 73.3944C44.0631 74.7411 48.1527 75.898 52.5724 76.1242C54.7459 76.2334 54.4729 72.8718 52.3306 72.7548Z" fill="#17775E"/>
<path d="M67.5085 60.5017C63.5307 68.0777 63.3722 77.7647 62.3452 86.1076C62.0852 88.2577 65.3974 88.8947 65.6626 86.7342C66.648 78.7345 66.7546 69.1956 70.5581 61.9499C71.5721 60.0208 68.5199 58.5727 67.5085 60.5017Z" fill="#17775E"/>
<path d="M64.1106 85.0521C62.8575 85.923 60.1822 84.5165 58.8511 84.2721C57.3665 84.0351 55.8645 83.9238 54.3612 83.9393C50.763 83.9055 47.2454 84.2539 43.7018 83.4818C41.5725 83.019 40.9538 86.3416 43.0752 86.7992C47.1128 87.6779 51.1165 87.1892 55.2035 87.3191C58.7835 87.4257 62.8549 90.0464 66.0579 87.8235C67.831 86.5808 65.8993 83.8094 64.1106 85.0521Z" fill="#17775E"/>
<path d="M87.9797 101.535C79.3248 102.398 70.176 106.839 61.9293 109.532C59.8494 110.208 60.9959 113.388 63.0628 112.714L75.1079 108.776C79.291 107.408 83.8226 105.341 88.2241 104.902C90.3872 104.689 90.1428 101.319 87.9797 101.535Z" fill="#17775E"/>
<path d="M19.7857 8.76219C18.6912 8.6556 17.6226 8.562 16.5619 8.99617C15.5583 9.42195 14.6563 10.0555 13.9152 10.8551C12.4125 12.3474 12.1447 14.9966 12.8233 16.9023C13.4291 18.6 14.7342 20.1729 16.4215 20.8931C17.7682 21.4676 19.4763 21.6886 20.8776 21.1193C22.3099 20.5604 23.4874 19.4957 24.1872 18.1268C25.04 16.5045 25.0582 14.4584 24.4472 12.7607C23.7765 10.8525 21.8942 8.96758 19.7857 8.76219Z" fill="#FF677F"/>
<path d="M19.4972 35.4548L19.4062 35.2988L18.3662 34.1731C17.8053 33.6632 17.1234 33.3052 16.3851 33.1332C15.1918 32.7432 13.7853 32.6522 12.6024 33.1332C11.6402 33.5221 10.7769 34.1207 10.0753 34.8855C9.17836 35.863 8.50241 37.7739 8.70779 39.105L8.73639 39.2844C8.81274 40.328 9.16461 41.3328 9.75609 42.196C10.3476 43.0593 11.1575 43.7501 12.1032 44.1981C12.8053 44.5317 13.5662 44.7237 14.3425 44.7631C15.1188 44.8025 15.8953 44.6886 16.6276 44.4279C17.3599 44.1671 18.0336 43.7646 18.6103 43.2434C19.1869 42.7222 19.6553 42.0925 19.9885 41.3903C20.4389 40.4459 20.6308 39.3989 20.5444 38.3562C20.4581 37.3135 20.0967 36.3123 19.4972 35.4548V35.4548Z" fill="#FF677F"/>
<path d="M40.7587 24.0883C35.7696 25.8666 38.5229 33.6219 43.5198 31.841C48.5167 30.0601 45.7556 22.31 40.7587 24.0883Z" fill="#FF677F"/>
<path d="M54.8863 35.798C53.6446 36.2579 52.6273 37.1776 52.0447 38.3666C51.5247 39.4742 51.3817 41.0367 51.8523 42.191C52.8766 44.7051 55.6013 46.1662 58.2453 45.225C59.4894 44.7674 60.5098 43.8486 61.0947 42.659C61.6147 41.5514 61.7577 39.9889 61.2871 38.8346C60.2524 36.3205 57.5278 34.8568 54.8863 35.798Z" fill="#FF677F"/>
<path d="M23.6179 60.6733C15.9093 63.4188 20.1653 75.4015 27.8842 72.6508C35.6032 69.9002 31.3394 57.9227 23.6179 60.6733Z" fill="#FF677F"/>
<path d="M41.9936 81.9062C41.0836 81.6931 40.1347 81.9842 39.3677 82.4704C38.45 83.0528 37.6935 84.4489 37.904 85.5538C38.1796 86.9993 38.8088 88.0757 40.2907 88.5593C40.7554 88.7095 41.2466 88.7597 41.7321 88.7066C42.2176 88.6534 42.6864 88.498 43.1075 88.2507C43.5287 88.0035 43.8927 87.6698 44.1757 87.2717C44.4587 86.8737 44.6542 86.4202 44.7494 85.9412C45.1056 84.0511 43.8161 82.3326 41.9936 81.9062Z" fill="#FF677F"/>
<path d="M73.7066 52.8712C72.2778 52.1971 70.6398 52.1178 69.1525 52.6506C67.6652 53.1834 66.4502 54.2848 65.7745 55.7128C65.1479 57.0335 64.9945 58.8924 65.5431 60.2703C66.1255 61.7002 67.1394 63.0366 68.6031 63.6501C69.3104 63.986 70.0768 64.1792 70.8587 64.2188C71.6406 64.2584 72.4227 64.1436 73.1602 63.8809C73.8978 63.6182 74.5764 63.2128 75.1572 62.6879C75.7381 62.163 76.2099 61.5288 76.5456 60.8215C77.1722 59.5008 77.3256 57.6419 76.777 56.264C76.1739 54.8289 75.1703 53.4925 73.7066 52.8712Z" fill="#FF677F"/>
<path d="M59.1059 106.628C52.1331 109.111 55.986 119.95 62.964 117.464C69.942 114.979 66.0891 104.14 59.1059 106.628Z" fill="#FF677F"/>
<path d="M84.9743 69.9236C82.5305 80.479 83.9864 91.0525 85.6867 101.608C86.0299 103.74 89.4019 103.506 89.0665 101.361C87.413 91.0993 85.9259 80.8221 88.3021 70.5502C88.7831 68.4261 85.4631 67.8099 84.9743 69.9236Z" fill="#17775E"/>
<path d="M88.367 61.4325C87.0671 60.8111 85.2134 60.6525 83.8511 61.2037C82.4342 61.7808 81.1109 62.787 80.4947 64.2351C79.8468 65.6565 79.765 67.2714 80.2659 68.751L80.3595 69.011C80.9023 70.4771 81.9875 71.6787 83.3909 72.3674C84.6909 72.9888 86.5445 73.1474 87.9069 72.5962C89.3238 72.019 90.6471 71.0129 91.2633 69.5648C91.9111 68.1434 91.9929 66.5285 91.4921 65.0489L91.3985 64.7889C90.8557 63.3228 89.7705 62.1212 88.367 61.4325Z" fill="#FF677F"/>
</svg>
