<svg width="394" height="374" viewBox="0 0 394 374" fill="none" xmlns="http://www.w3.org/2000/svg">
<path d="M391.15 101.188C388.433 94.5029 383.333 89.0636 376.837 85.9224C374.587 81.9723 371.683 78.4327 368.248 75.4544C366.861 74.26 365.398 73.1566 363.868 72.1512C362.074 68.7097 359.77 65.5595 357.033 62.8079C357.712 58.969 357.61 55.0327 356.733 51.2342C355.856 47.4357 354.222 43.853 351.929 40.7001C348.851 36.4851 344.702 33.1691 339.912 31.0951C335.123 29.021 329.866 28.2642 324.686 28.903C324.652 21.2137 321.569 13.8517 316.114 8.43287C310.658 3.01408 303.275 -0.0187347 295.586 8.70857e-05V8.70857e-05C290.946 0.0140476 286.375 1.12582 282.247 3.24452C278.119 5.36323 274.551 8.42872 271.834 12.1904C258.219 31.0248 245.717 50.6388 234.39 70.9322C227.41 69.4485 220.292 68.7051 213.156 68.7143C206.052 68.7318 198.967 69.4164 191.992 70.7592L191.205 70.8535C180.468 72.4188 170.088 75.8497 160.533 80.9912C148.305 86.6733 136.803 93.8025 126.274 102.226C113.526 112.258 102.497 124.3 93.6194 137.877C83.7885 153.221 78.1101 169.257 76.7102 185.561C76.0562 189.285 75.6046 193.042 75.3575 196.815C74.9095 203.74 75.173 210.692 76.144 217.562C53.1584 232.598 31.1168 249.03 10.143 266.764C6.66739 269.723 3.94384 273.465 2.19645 277.681C0.449065 281.898 -0.272235 286.469 0.0919008 291.019C0.456464 295.65 1.91572 300.129 4.34956 304.086C6.78339 308.043 10.1222 311.365 14.0911 313.78C23.8145 319.719 34.8516 323.171 46.2265 323.831C52.7621 338.774 65.8411 342.769 72.5262 344.177C73.4935 345.435 74.5317 346.89 75.4047 348.109C76.899 350.193 78.4483 352.356 80.1943 354.551C80.4302 354.865 80.6741 355.219 80.9336 355.589C84.0795 360.001 90.5286 369.187 102.318 372.639C105.365 373.537 108.524 373.996 111.7 374C126.982 374 139.762 363.776 145.047 347.315C147.737 338.939 149.231 330.484 150.552 323.021C151.512 317.563 152.424 312.411 153.698 307.92C155.373 301.841 157.277 295.73 159.4 289.627H159.668C180.116 289.627 201.618 284.625 222.019 275.148C237.689 269.307 251.816 259.959 263.317 247.818C283.05 229.918 304.009 207.15 306.628 164.884C306.715 163.41 306.715 161.931 306.628 160.457L311.048 159.615C348.193 152.537 373.526 146.74 386.62 130.728C389.956 126.663 392.137 121.776 392.934 116.579C393.731 111.381 393.115 106.065 391.15 101.188V101.188Z" fill="white"/>
<path d="M378.968 106.119C377.978 103.709 376.419 101.574 374.425 99.8959C372.431 98.2183 370.061 97.048 367.517 96.4847L367.305 96.0443C365.952 93.2602 363.907 89.0447 359.684 85.419C357.82 83.8133 355.758 82.4522 353.549 81.3687C351.753 76.3818 348.456 72.0738 344.112 69.0368C343.338 68.488 342.526 67.9965 341.681 67.5661L342.137 66.4021C342.704 64.9628 343.199 63.7281 343.585 62.5169C344.354 60.1558 344.548 57.6452 344.152 55.1938C343.755 52.7424 342.779 50.4212 341.304 48.4233C339.801 46.3703 337.836 44.6997 335.568 43.5466C333.3 42.3935 330.793 41.7902 328.248 41.7855C327.004 41.7854 325.763 41.9306 324.552 42.218L311.662 45.2774C310.458 45.5605 309.302 45.9302 308.044 46.3313C308.602 42.6506 309.711 38.3171 310.199 36.4217C310.568 34.9825 310.883 33.732 311.143 32.5837C311.682 30.2468 311.686 27.8182 311.155 25.4795C310.623 23.1408 309.569 20.9526 308.072 19.0788C306.575 17.2051 304.674 15.6942 302.51 14.6593C300.346 13.6244 297.977 13.0922 295.578 13.1028V13.1028C293.017 13.114 290.494 13.7312 288.217 14.904C285.94 16.0768 283.972 17.7719 282.476 19.8507C267.173 41.0525 253.31 63.2574 240.981 86.3156C240.315 86.0902 239.649 85.8752 238.984 85.6707C230.626 83.1034 221.93 81.8096 213.187 81.8327C206.752 81.8516 200.334 82.4889 194.021 83.736L193.069 83.854C183.726 85.2303 174.701 88.247 166.408 92.7647C155.016 98.0286 144.305 104.654 134.508 112.497C108.161 133.441 91.9129 160.645 89.813 187.212C89.1863 190.656 88.7583 194.133 88.531 197.625C87.9402 206.398 88.6827 215.21 90.7332 223.76C65.5366 239.769 41.457 257.471 18.6607 276.745C16.7742 278.355 15.2971 280.391 14.3509 282.684C13.4047 284.977 13.0165 287.461 13.2183 289.934C13.4101 292.491 14.2077 294.966 15.5451 297.154C16.8826 299.342 18.7215 301.181 20.91 302.517C29.5366 307.873 39.4783 310.734 49.632 310.783C51.8619 310.782 54.0894 310.641 56.3013 310.359C56.415 312.659 56.8764 314.929 57.6698 317.091C62.0426 328.943 72.6757 330.878 77.2137 331.703C77.9608 331.837 78.9282 332.018 79.4866 332.167C81.6022 334.212 83.8751 337.382 86.0851 340.457C87.5008 342.423 88.9557 344.46 90.513 346.411C90.7882 346.749 91.2365 347.394 91.6769 347.983C94.4453 351.916 98.6294 357.838 106.014 359.993C107.858 360.536 109.77 360.814 111.693 360.819C121.067 360.819 129.05 354.086 132.534 343.257C134.949 335.738 136.301 328.094 137.607 320.701C138.622 314.936 139.589 309.486 140.989 304.397C143.584 294.959 146.707 285.474 150.309 276.084C153.368 276.344 156.49 276.477 159.62 276.477C178.291 276.477 198.079 271.821 216.899 263.005C231.031 257.827 243.755 249.412 254.052 238.435C272.778 221.495 291.135 201.715 293.463 164.066C293.588 162.092 293.368 159.159 292.527 149.91C297.379 148.832 303.49 147.676 308.539 146.717C341.799 140.425 366.133 134.967 376.396 122.423C378.25 120.187 379.466 117.493 379.919 114.624C380.372 111.755 380.043 108.817 378.968 106.119V106.119Z" fill="black"/>
<path d="M364.222 109.233C355.389 108.203 356.719 100.197 351.119 95.3837C348.514 93.1249 345.234 91.7944 341.791 91.6008C342.089 89.3327 341.755 87.0265 340.825 84.9365C339.895 82.8464 338.406 81.0539 336.522 79.7565C333.816 77.8375 331.166 78.9149 328.728 77.6566C323.459 74.9432 329.719 62.7607 331.087 58.5138C331.772 56.3824 329.632 54.5342 327.611 55.014L314.713 58.0734C311.363 58.8598 305.173 61.6597 301.815 61.1327C289.231 59.1666 296.648 37.3419 298.323 29.7603C298.481 29.1036 298.4 28.4123 298.097 27.8091C297.793 27.2059 297.285 26.73 296.663 26.4659C296.042 26.2018 295.347 26.1666 294.702 26.3666C294.057 26.5666 293.503 26.9888 293.14 27.5582C275.833 51.5257 260.416 76.8032 247.029 103.162C243.205 101.168 239.21 99.5226 235.09 98.2465C222.216 94.259 208.94 94.1647 196.026 96.7522C195.641 96.7993 195.24 96.8308 194.87 96.8859C186.937 98.0795 179.28 100.679 172.259 104.562C161.703 109.412 151.778 115.531 142.703 122.784C122.286 139.009 104.622 162.541 102.853 188.935C102.248 192.097 101.841 195.293 101.634 198.506C100.877 209.073 102.489 219.676 106.352 229.54C78.548 246.594 52.0803 265.737 27.1781 286.804C25.7467 288.015 26.2815 290.382 27.7365 291.263C35.9394 296.218 45.1569 298.554 54.7361 297.311C61.0279 296.524 69.9308 292.27 69.8915 302.517C69.8915 305.907 68.7825 309.163 70.0252 312.537C73.0924 320.85 82.1919 316.878 87.8781 321.975C92.7779 326.379 96.7102 333.048 100.808 338.192C103.081 341.039 105.873 346.261 109.726 347.386C115.232 348.998 118.598 343.744 120.045 339.238C123.977 327 124.897 313.402 128.334 300.905C132.048 287.473 136.621 274.293 142.027 261.448C144.613 262.091 147.241 262.551 149.892 262.824C170.694 264.948 192.495 260.008 211.866 250.838C224.448 246.334 235.755 238.858 244.827 229.045C263.789 211.947 278.386 195.274 280.368 163.225C280.517 160.866 278.582 142.706 278.567 140.417C290.112 134.267 353.761 129.328 366.243 114.07C366.616 113.664 366.865 113.16 366.96 112.616C367.055 112.073 366.993 111.514 366.78 111.005C366.567 110.496 366.213 110.059 365.76 109.745C365.307 109.431 364.773 109.253 364.222 109.233V109.233Z" fill="#FFC533"/>
<path d="M288.767 62.8472C287.204 64.2315 285.899 65.8826 284.914 67.7234C276.262 78.6659 268.002 89.8967 260.132 101.416C258.071 104.444 262.979 107.307 265.024 104.294C272.086 93.913 279.484 83.7806 287.218 73.8972C287.639 73.7681 288.024 73.5422 288.342 73.2377C288.66 72.9331 288.903 72.5584 289.05 72.1434C289.18 71.7581 289.329 71.38 289.499 71.0108C290.592 69.6345 291.669 68.2346 292.771 66.8661C295.028 64.0741 291.536 60.362 288.767 62.8472Z" fill="#F59439"/>
<path d="M295.122 75.3522C282.505 84.2544 272.199 96.0435 265.063 109.737C263.38 112.969 268.264 115.863 269.955 112.615C276.588 99.752 286.198 88.6591 297.985 80.2598C300.918 78.1599 298.095 73.2287 295.122 75.3522Z" fill="#F59439"/>
<path d="M297.127 85.0337C288.614 91.3266 281.23 99.0172 275.287 107.779C273.226 110.806 278.134 113.669 280.179 110.657C285.576 102.686 292.279 95.6826 300.006 89.9413C302.877 87.7942 300.069 82.8552 297.127 85.0337Z" fill="#F59439"/>
<path d="M320.753 89.8076C304.006 98.7497 288.046 109.095 273.046 120.732C270.159 122.965 274.186 126.968 277.049 124.758C291.693 113.448 307.268 103.398 323.608 94.7152C326.825 93.0007 323.978 88.0852 320.753 89.8076Z" fill="#F59439"/>
<path d="M311.803 112.82C298.712 117.038 286.337 123.216 275.098 131.145C272.141 133.237 274.957 138.168 277.945 136.052C288.761 128.375 300.681 122.387 313.297 118.294C316.758 117.177 315.295 111.687 311.803 112.82Z" fill="#F59439"/>
<path d="M111.111 240.386C102.373 244.232 93.8081 248.424 85.4715 253.095C80.556 255.848 71.5037 258.931 69.9937 264.94C69.105 268.487 74.571 270.012 75.499 266.465C76.1675 263.799 83.6233 260.701 85.8647 259.387C88.7642 257.725 91.6899 256.115 94.6418 254.558C100.973 251.216 107.438 248.148 113.989 245.27C117.292 243.831 114.422 238.892 111.111 240.386Z" fill="#F59439"/>
<path d="M110.914 244.806C98.0801 252.458 86.6633 262.268 77.1665 273.803C74.8621 276.603 78.8416 280.653 81.1696 277.83C90.3338 266.648 101.363 257.136 113.769 249.714C116.891 247.842 114.06 242.918 110.914 244.806Z" fill="#F59439"/>
<path d="M109.459 250.28C96.7904 264.413 86.0361 280.152 77.4731 297.091C75.8294 300.339 80.7134 303.233 82.365 299.969C90.6801 283.441 101.136 268.081 113.462 254.283C115.885 251.585 111.897 247.543 109.459 250.28Z" fill="#F59439"/>
<path d="M112.55 256.123C102.505 271.05 95.4836 287.8 91.8813 305.427C91.1499 308.99 96.6002 310.532 97.3866 306.953C100.873 289.798 107.701 273.497 117.481 258.978C119.479 255.966 114.579 253.103 112.55 256.123Z" fill="#F59439"/>
<path d="M113.8 258.404C109.484 272.19 106.412 286.335 104.622 300.669C104.158 304.287 109.844 304.271 110.301 300.669C112.08 286.843 115.093 273.203 119.306 259.914C120.352 256.438 114.894 254.92 113.8 258.404Z" fill="#F59439"/>
<path d="M120.698 177.193C115.458 184.166 112.659 192.67 112.731 201.393C112.731 205.042 118.409 205.073 118.409 201.393C118.358 193.679 120.885 186.169 125.59 180.055C127.784 177.146 122.869 174.298 120.698 177.193Z" fill="#F59439"/>
<path d="M133.635 152.151C128.998 156.195 125.719 161.569 124.245 167.543C123.356 171.09 128.83 172.615 129.75 169.068C130.974 164.052 133.738 159.544 137.654 156.178C140.391 153.772 136.38 149.753 133.635 152.151Z" fill="#F59439"/>
<path d="M163.655 121.581C157.095 124.754 151.326 129.351 146.769 135.038C144.504 137.861 148.484 141.919 150.773 139.064C155.003 133.74 160.379 129.439 166.502 126.481C169.79 124.892 166.935 119.985 163.655 121.581Z" fill="#F59439"/>
<path d="M132.786 194.141C124.484 205.439 119.229 218.683 117.528 232.6C117.056 236.21 122.743 236.194 123.207 232.6C124.902 219.7 129.876 207.45 137.654 197.02C139.841 194.063 134.925 191.223 132.786 194.141Z" fill="#F59439"/>
<path d="M140.368 215.989C134.118 222.289 129.779 230.229 127.855 238.892C127.068 242.446 132.526 243.988 133.36 240.417C135.02 232.722 138.84 225.658 144.371 220.056C146.927 217.413 142.931 213.386 140.368 215.989Z" fill="#F59439"/>
<path d="M189.844 239.088C180.438 245.106 170.089 249.504 159.227 252.097C155.68 252.946 157.159 258.428 160.721 257.602C172.067 254.88 182.878 250.282 192.707 243.996C195.767 242.038 192.943 237.114 189.844 239.088Z" fill="#F59439"/>
<path d="M223.175 209.981C216.708 215.541 210.903 221.827 205.873 228.715C203.71 231.664 208.625 234.511 210.765 231.593C215.54 225.123 221.042 219.222 227.163 214.008C229.955 211.625 225.936 207.606 223.175 209.981Z" fill="#F59439"/>
<path d="M251.465 192.938L240.887 208.903C238.866 211.955 243.765 214.818 245.779 211.782L256.357 195.816C258.386 192.765 253.478 189.902 251.465 192.938Z" fill="#F59439"/>
<path d="M158.889 155.816C155.782 157.518 153.084 159.878 150.984 162.73C148.884 165.583 147.432 168.86 146.73 172.332C146.014 175.895 151.449 177.444 152.235 173.858C152.751 171.101 153.876 168.494 155.526 166.226C157.176 163.958 159.311 162.087 161.775 160.748C164.968 158.97 162.129 154.055 158.889 155.816Z" fill="#F59439"/>
<path d="M215.248 109.123C209.194 109.282 203.229 110.617 197.686 113.056C194.343 114.495 197.214 119.403 200.533 117.963C205.184 115.978 210.175 114.91 215.232 114.817C218.873 114.715 218.905 109.037 215.248 109.123Z" fill="#F59439"/>
<path d="M179.384 135.966C178.047 150.033 176.941 164.025 176.065 177.94C175.995 179.088 177.945 179.135 179.211 178.239L187.123 172.773C187.815 178.278 190.694 183.351 192.062 187.661C192.448 188.872 194.091 188.888 195.79 187.543C197.277 186.371 198.74 185.183 200.21 184.004C200.816 185.105 201.532 186.159 202.247 187.299C204.656 191.191 206.308 195.503 207.115 200.008C207.304 200.999 208.799 201.361 210.261 200.307C214.76 197.161 217.23 193.418 220.839 189.698C226.311 184.172 232.575 179.491 239.424 175.809C241.311 174.763 241.351 172.899 240.21 172.505C233.6 170.259 226.827 168.526 219.951 167.322C221.374 166.048 222.806 164.782 224.213 163.5C225.377 162.438 225.731 160.826 224.449 160.614C218.543 159.654 212.865 158.435 207.359 157.004C209.682 155.232 211.994 153.446 214.296 151.648C215.727 150.523 215.546 149.092 214.532 148.762C203.563 145.301 193.177 140.208 183.726 133.654C182.664 132.891 179.542 134.291 179.384 135.966Z" fill="#D95B43"/>
<path d="M152.66 179.985C151.685 190.256 150.877 200.48 150.238 210.657C150.183 211.499 151.614 211.53 152.597 210.877L158.37 206.89C158.881 210.909 160.973 214.613 161.98 217.759C162.263 218.64 163.458 218.656 164.701 217.673C165.786 216.815 166.856 215.95 167.925 215.085C168.366 215.872 168.885 216.658 169.412 217.492C171.171 220.333 172.377 223.482 172.967 226.772C173.108 227.496 174.194 227.755 175.326 226.992C178.614 224.696 180.415 221.959 183.049 219.245C187.047 215.212 191.621 211.795 196.624 209.108C198 208.321 198.032 206.984 197.198 206.701C192.354 205.051 187.39 203.778 182.349 202.895C183.388 201.967 184.434 201.039 185.495 200.103C186.345 199.316 186.604 198.144 185.668 197.995C181.358 197.295 177.214 196.422 173.187 195.36C174.886 194.065 176.574 192.754 178.252 191.428C179.298 190.641 179.164 189.564 178.425 189.32C170.417 186.8 162.834 183.088 155.932 178.31C155.051 177.743 152.77 178.781 152.66 179.985Z" fill="#D95B43"/>
<path d="M227.658 122.305C226.683 132.576 225.875 142.8 225.236 152.977C225.181 153.819 226.612 153.85 227.595 153.197L233.368 149.21C233.879 153.229 235.971 156.933 236.978 160.079C237.261 160.96 238.456 160.976 239.699 159.993C240.784 159.135 241.854 158.27 242.924 157.405C243.364 158.192 243.883 158.978 244.41 159.812C246.169 162.653 247.376 165.802 247.965 169.092C248.106 169.816 249.192 170.075 250.324 169.312C253.612 167.016 255.413 164.279 258.047 161.565C262.045 157.532 266.62 154.115 271.622 151.428C272.998 150.641 273.03 149.304 272.196 149.021C267.352 147.371 262.388 146.098 257.348 145.215C258.386 144.287 259.432 143.359 260.493 142.423C261.343 141.636 261.602 140.464 260.666 140.315C256.357 139.615 252.212 138.742 248.185 137.68C249.884 136.385 251.572 135.074 253.25 133.748C254.296 132.961 254.162 131.884 253.423 131.64C245.415 129.12 237.832 125.408 230.93 120.63C230.049 120.063 227.768 121.094 227.658 122.305Z" fill="#D95B43"/>
</svg>
