<svg width="280" height="300" viewBox="0 0 280 300" fill="none" xmlns="http://www.w3.org/2000/svg">
<path d="M270.415 198.928C274.621 177.473 275.582 154.343 273.018 134.134C271.659 123.509 268.951 113.101 264.958 103.161C277.537 88.7896 281.028 67.9718 274.186 45.5287C272.731 40.4988 270.999 35.5535 268.997 30.7155C268.907 29.1127 268.643 27.5245 268.209 25.9789C267.381 22.9378 265.896 20.1152 263.858 17.7103C261.821 15.3053 259.281 13.3764 256.418 12.0594C248.894 5.25051 238.868 1.18974 227.026 0.212253C225.35 0.072612 223.607 0 221.915 0C215.861 0.000509711 209.839 0.884922 204.041 2.62526C200.117 3.31259 196.291 4.47359 192.646 6.08278L192.199 6.28386C187.984 7.45557 184.227 9.88555 181.43 13.2492C179.949 14.5405 178.55 15.9229 177.241 17.3881C172.877 21.0705 169.081 25.377 165.975 30.1681C164.199 32.9112 162.666 35.8045 161.394 38.8147C144.14 40.7083 126.093 46.4336 108.526 55.6555C86.636 67.1452 66.7734 84.0362 51.0889 104.508C39.3255 119.857 31.1816 134.525 26.3836 149.059C21.1698 152.222 16.8001 156.601 13.6483 161.822C10.1014 167.67 8.40332 173.502 7.02925 178.182C6.84493 178.819 6.65501 179.456 6.47069 180.093C6.09645 181.344 5.54347 182.886 4.96256 184.505C3.23101 189.354 1.0526 195.386 0.494036 202.039C0.220867 205.337 0.452546 208.658 1.18107 211.886C-0.589579 219.706 -1.3213 230.721 6.05176 240.893C14.3465 252.287 28.2156 256.153 38.348 258.945C40.074 259.426 41.6994 259.878 42.9618 260.28C54.7475 264.051 67.2426 267.642 80.0952 270.96C103.063 276.892 128.54 282.316 157.982 287.533L162.204 288.281C185.625 292.437 209.85 296.732 234.041 299.71C235.576 299.9 237.12 299.997 238.666 300C247.542 300 255.2 296.615 260.797 290.208C264.589 285.868 266.517 281.204 268.058 277.462C272.806 265.983 277.554 253.611 278.95 239.708C280.436 224.951 277.425 210.808 270.415 198.928Z" fill="white"/>
<path d="M259.769 200.888C264.45 179.395 265.656 155.806 263.065 135.419C261.535 123.451 258.142 111.796 253.01 100.877C260.326 94.6967 265.214 86.1233 266.807 76.6799C268.36 68.1003 267.589 58.3422 264.573 48.4667C262.931 43.0766 261.221 37.8037 258.954 32.8604C259.052 31.4629 258.909 30.0588 258.529 28.7103C258.031 26.8513 257.076 25.1463 255.752 23.7504C254.427 22.3544 252.774 21.3118 250.944 20.7172C244.95 14.6847 236.477 11.0763 226.205 10.2273C224.786 10.11 223.339 10.0486 221.915 10.0486C216.637 10.0511 211.391 10.8534 206.353 12.4281C203.029 12.9609 199.787 13.9183 196.707 15.2768C196.335 15.4443 195.962 15.6212 195.59 15.8074C192.858 16.4057 190.434 17.9707 188.764 20.2145C187.153 21.5532 185.659 23.0256 184.296 24.616C180.457 27.7603 177.127 31.4797 174.426 35.6421C171.899 39.5501 169.976 43.8172 168.723 48.2992C146.436 49.4163 126.445 57.616 113.218 64.5534C92.6071 75.3728 73.884 91.3031 59.0764 110.624C46.9779 126.409 38.9681 141.295 34.7844 155.952C29.5714 158.275 25.1979 162.143 22.2558 167.033C19.3903 171.759 17.9548 176.674 16.6701 180.998C16.4746 181.662 16.2847 182.321 16.1116 182.981C15.6647 184.472 15.0726 186.125 14.4359 187.879C12.8216 192.398 10.9895 197.526 10.5259 202.871C10.2829 205.877 10.6457 208.901 11.5928 211.763C9.81653 218.075 8.43129 227.035 14.2124 235.005C20.4069 243.551 31.8464 246.735 41.0236 249.288C42.8445 249.796 44.5705 250.276 46.0004 250.735C57.6074 254.443 69.9182 257.996 82.5865 261.258C105.616 267.207 130.126 272.429 159.713 277.663L163.936 278.411C187.228 282.545 211.314 286.818 235.242 289.761C236.371 289.903 237.507 289.976 238.644 289.979C252.022 289.979 256.25 279.746 258.752 273.636C263.221 262.844 267.69 251.265 268.935 238.714C270.382 224.772 267.12 211.529 259.769 200.888Z" fill="black"/>
<path d="M253.122 136.681C250.374 115.053 240.929 94.6433 226.87 80.0983C196.484 48.6734 152.396 55.298 117.854 73.429C98.5894 83.5446 81.0728 98.3746 67.0249 116.723C52.9769 135.072 39.9177 158.348 41.4202 183.947C41.4398 184.427 41.5905 184.892 41.8559 185.293C44.8275 202.608 61.4392 211.115 75.152 216.204C97.8521 224.633 120.636 232.961 143.805 239.496C165.466 245.612 189.507 252.416 211.95 249.578C231.366 247.126 241.666 229.235 247.414 209.093C253.748 186.863 256.071 159.873 253.122 136.681Z" fill="#015E92"/>
<path d="M254.999 51.388C252.815 44.2049 250.078 35.4633 245.419 29.5705C240.51 23.3592 232.846 20.8345 225.384 20.2201C219.72 19.7518 214.02 20.4339 208.627 22.2253C205.908 22.5982 203.255 23.3502 200.745 24.4596C197.052 26.1228 193.811 28.6473 191.294 31.8215C187.975 34.4268 185.11 37.5636 182.815 41.1049C173.085 56.147 175.906 76.9648 186.429 90.7111C189.527 94.8197 193.451 98.2349 197.947 100.737C198.97 101.394 200.033 101.985 201.131 102.508C203.151 103.441 205.27 104.144 207.448 104.603C218.977 107.859 231.768 105.792 241.616 96.7827C242.822 96.0118 243.995 95.2187 245.112 94.3864C258.747 84.1703 259.769 66.9776 254.999 51.388Z" fill="#0090E0"/>
<path d="M236.594 193.074C217.123 181.847 193.026 176.317 170.561 172.725C146.481 168.854 122.055 167.346 97.7235 165.604C83.1394 164.559 68.4268 162.911 53.8091 162.565C44.4531 162.347 35.5384 164.419 30.8074 172.228C28.2436 176.457 27.0706 181.271 25.6797 185.885C24.004 191.521 20.999 197.878 20.513 203.72C20.3119 206.155 20.8705 209.071 22.306 211.06C20.3622 217.014 18.4575 223.806 22.306 229.135C27.4616 236.245 40.8392 238.575 49.0501 241.2C60.9401 245.002 72.9549 248.457 85.0944 251.567C110.23 258.069 135.801 263.263 161.461 267.81C186.306 272.211 211.38 276.747 236.466 279.83C244.883 280.864 246.916 276.105 249.514 269.821C253.804 259.448 257.892 248.835 259.009 237.726C260.791 219.846 253.815 203 236.594 193.074Z" fill="#0090E0"/>
<path d="M73.532 133.095C70.3946 137.817 67.796 142.876 65.7847 148.176C64.9637 150.321 68.248 151.26 69.0579 149.137C70.9906 144.145 73.4749 139.384 76.4645 134.944C77.7325 133.022 74.7888 131.218 73.532 133.095Z" fill="#0090E0"/>
<path d="M84.3347 130.732C80.9221 136.021 78.6084 141.942 77.5314 148.143C77.1292 150.411 80.4024 151.382 80.8046 149.104C81.8179 143.207 84.0164 137.576 87.2672 132.553C88.5072 130.632 85.5635 128.828 84.3347 130.732Z" fill="#0090E0"/>
<path d="M100.377 133.268C98.1103 137.88 96.1837 142.652 94.6123 147.545C93.9029 149.746 97.1873 150.69 97.8855 148.506C99.3644 143.911 101.177 139.431 103.309 135.1C104.32 133.05 101.393 131.224 100.377 133.268Z" fill="#0090E0"/>
<path d="M118.184 142.088C117.218 141.797 116.436 142.445 116.095 143.345L113.833 149.355C113.705 149.808 113.757 150.293 113.977 150.709C114.198 151.125 114.57 151.44 115.017 151.589C115.983 151.88 116.765 151.232 117.106 150.332L119.368 144.322C119.496 143.869 119.444 143.384 119.223 142.968C119.003 142.552 118.631 142.237 118.184 142.088V142.088Z" fill="#0090E0"/>
<path d="M141.353 137.256L136.885 149.288C136.08 151.444 139.365 152.382 140.158 150.249L144.626 138.217C145.453 136.061 142.174 135.123 141.353 137.256Z" fill="#0090E0"/>
<path d="M172.823 138.083C170.271 143.983 168.542 150.206 167.684 156.577C167.382 158.845 170.655 159.828 170.957 157.538C171.742 151.47 173.354 145.539 175.75 139.909C176.654 137.804 173.75 135.972 172.823 138.083Z" fill="#0090E0"/>
<path d="M187.848 149.679C185.748 153.649 184.421 157.982 183.938 162.448C183.676 164.743 187.072 164.727 187.334 162.448C187.784 158.614 188.953 154.9 190.781 151.5C191.859 149.467 188.921 147.657 187.848 149.679Z" fill="#0090E0"/>
<path d="M205.443 157.745L203.309 168.586C202.862 170.849 206.136 171.815 206.582 169.547L208.716 158.705C209.163 156.438 205.89 155.471 205.443 157.745Z" fill="#0090E0"/>
<path d="M227.556 160.75L223.842 174.043C223.222 176.278 226.495 177.222 227.115 175.004L230.824 161.71C231.455 159.476 228.176 158.527 227.556 160.75Z" fill="#0090E0"/>
<path d="M241.415 166.223L239.057 177.015C238.566 179.249 241.85 180.238 242.331 177.976L244.688 167.184C245.185 164.928 241.895 163.989 241.415 166.223Z" fill="#0090E0"/>
<path d="M97.7235 107.574L92.5791 117.154C91.4955 119.17 94.428 120.991 95.5116 118.974L100.656 109.395C101.74 107.362 98.8072 105.541 97.7235 107.574Z" fill="#0090E0"/>
<path d="M101.55 116.511L99.2875 120.717C98.1983 122.734 101.136 124.555 102.22 122.538L104.482 118.332C105.566 116.288 102.633 114.472 101.55 116.511Z" fill="#0090E0"/>
<path d="M119.67 124.823C119.476 124.706 119.262 124.629 119.038 124.598C118.815 124.566 118.587 124.58 118.369 124.638C118.151 124.696 117.947 124.798 117.769 124.938C117.591 125.077 117.444 125.251 117.335 125.448L116.776 126.644C116.559 127.058 116.5 127.537 116.613 127.991C116.725 128.445 117 128.842 117.385 129.107C117.579 129.221 117.794 129.295 118.018 129.324C118.241 129.353 118.468 129.337 118.685 129.276C118.901 129.216 119.104 129.112 119.28 128.972C119.456 128.832 119.602 128.657 119.709 128.459L120.267 127.264C120.48 126.853 120.536 126.38 120.426 125.931C120.316 125.482 120.048 125.088 119.67 124.823V124.823Z" fill="#0090E0"/>
<path d="M124.423 89.6442C120.778 93.1876 118.149 97.6431 116.81 102.547C116.184 104.781 119.463 105.725 120.083 103.508C121.272 99.1969 123.603 95.2871 126.83 92.1912C128.445 90.6272 126.037 88.0858 124.423 89.6442Z" fill="#0090E0"/>
<path d="M132.841 101.581C128.395 106.233 125.223 111.952 123.63 118.187C123.043 120.421 126.322 121.382 126.903 119.148C128.34 113.513 131.211 108.346 135.237 104.15C136.806 102.502 134.404 99.9497 132.841 101.581Z" fill="#0090E0"/>
<path d="M139.398 116.439L131.511 131.481C130.45 133.508 133.382 135.329 134.444 133.302L142.331 118.259C143.398 116.226 140.465 114.405 139.398 116.439Z" fill="#0090E0"/>
<path d="M161.623 111.127C158.978 115.119 156.964 119.496 155.652 124.102C155.572 124.322 155.538 124.555 155.552 124.789C155.565 125.022 155.627 125.25 155.732 125.459C155.838 125.667 155.985 125.852 156.164 126.002C156.344 126.151 156.552 126.263 156.777 126.328C157.001 126.394 157.236 126.413 157.468 126.385C157.7 126.356 157.924 126.28 158.125 126.161C158.327 126.043 158.502 125.884 158.639 125.695C158.777 125.506 158.874 125.291 158.926 125.063C160.165 120.758 162.064 116.67 164.556 112.947C165.818 111.048 162.875 109.25 161.623 111.127Z" fill="#0090E0"/>
<path d="M166.064 129.688C164.333 133.091 162.959 136.664 161.964 140.351C161.361 142.585 164.64 143.54 165.237 141.311C166.146 137.923 167.404 134.637 168.991 131.509C170.035 129.464 167.103 127.643 166.064 129.688Z" fill="#0090E0"/>
<path d="M181.207 122.924L180.09 127.13C179.486 129.364 182.765 130.319 183.363 128.09L184.48 123.884C185.083 121.65 181.804 120.695 181.207 122.924Z" fill="#0090E0"/>
<path d="M201.533 130.112C200.12 134.609 199.076 139.214 198.411 143.881C198.087 146.149 201.36 147.126 201.684 144.842C202.348 140.169 203.393 135.559 204.806 131.056C205.499 128.867 202.237 127.923 201.533 130.112Z" fill="#0090E0"/>
<path d="M213.157 135.754C211.595 138.823 210.689 142.185 210.498 145.624C210.358 147.942 213.754 147.93 213.894 145.624C214.059 142.815 214.807 140.072 216.089 137.569C217.128 135.53 214.196 133.709 213.157 135.754Z" fill="#0090E0"/>
<path d="M224.725 142.73L222.004 153.578C221.446 155.812 224.719 156.778 225.278 154.538L227.998 143.691C228.562 141.44 225.289 140.485 224.725 142.73Z" fill="#0090E0"/>
<path d="M241.135 140.82L240.13 151.645C239.918 153.952 243.314 153.935 243.526 151.645L244.531 140.82C244.749 138.513 241.336 138.53 241.135 140.82Z" fill="#0090E0"/>
<path d="M231.606 112.115L230.053 123.549C229.746 125.817 233.019 126.8 233.326 124.51L234.879 113.076C235.192 110.803 231.919 109.808 231.606 112.115Z" fill="#0090E0"/>
<path d="M145.498 73.3062C142.119 74.5153 139.171 76.6908 137.019 79.5622C135.672 81.3607 138.058 83.9246 139.42 82.1092C141.172 79.6843 143.601 77.8306 146.403 76.7805C148.458 76.032 147.576 72.5466 145.498 73.3062Z" fill="#0090E0"/>
<path d="M156.529 77.4115C151.509 81.6548 147.289 86.7624 144.068 92.4928C142.951 94.4869 145.872 96.3022 147 94.3137C150.085 88.849 154.126 83.983 158.931 79.9474C160.64 78.5286 158.222 75.9704 156.529 77.4115Z" fill="#0090E0"/>
<path d="M156.256 96.833C156.1 96.6725 155.913 96.545 155.707 96.4579C155.5 96.3708 155.279 96.3259 155.055 96.3259C154.831 96.3259 154.609 96.3708 154.403 96.4579C154.197 96.545 154.01 96.6725 153.854 96.833C151.428 98.9081 149.27 101.278 147.43 103.888C146.872 104.67 147.319 105.898 148.039 106.351C148.905 106.909 149.81 106.474 150.363 105.703C152.058 103.36 154.037 101.236 156.256 99.38C156.993 98.7712 156.842 97.4753 156.256 96.833Z" fill="#0090E0"/>
<path d="M171.019 86.0861C170.865 85.9213 170.679 85.79 170.472 85.7001C170.266 85.6103 170.043 85.564 169.818 85.564C169.592 85.564 169.369 85.6103 169.163 85.7001C168.956 85.79 168.77 85.9213 168.617 86.0861L165.79 89.7C165.482 90.0524 165.311 90.505 165.311 90.9735C165.311 91.4421 165.482 91.8946 165.79 92.2471C165.944 92.4118 166.13 92.5432 166.337 92.633C166.543 92.7228 166.766 92.7692 166.991 92.7692C167.217 92.7692 167.439 92.7228 167.646 92.633C167.853 92.5432 168.039 92.4118 168.192 92.2471L171.024 88.6443C171.335 88.2905 171.506 87.8352 171.505 87.3641C171.504 86.893 171.331 86.4385 171.019 86.0861V86.0861Z" fill="#0090E0"/>
<path d="M177.14 101.134C175.1 103.347 173.469 105.906 172.326 108.691C171.46 110.797 174.387 112.635 175.258 110.512C176.265 107.992 177.716 105.672 179.542 103.664C181.067 102.022 178.671 99.4693 177.14 101.134Z" fill="#0090E0"/>
<path d="M195.981 106.798L191.479 114.618C190.362 116.601 193.272 118.416 194.411 116.439L198.913 108.619C200.058 106.636 197.12 104.82 195.981 106.798Z" fill="#0090E0"/>
<path d="M216.843 115.701L214.089 123.521C213.324 125.7 216.609 126.638 217.363 124.482L220.116 116.662C220.882 114.484 217.597 113.545 216.843 115.701Z" fill="#0090E0"/>
<path d="M153.083 152.555C151.449 154.928 150.696 157.797 150.955 160.666C151.156 162.956 154.552 162.978 154.351 160.666C154.119 158.433 154.716 156.193 156.027 154.371C157.334 152.511 154.39 150.712 153.083 152.555Z" fill="#0090E0"/>
<path d="M219.91 90.1078C217.872 87.2007 216.923 83.6688 217.229 80.1318C217.396 77.8193 214 77.8305 213.833 80.1318C213.503 84.3096 214.612 88.4745 216.977 91.9343C218.251 93.7831 221.228 91.9845 219.91 90.1078Z" fill="#A3E5CF"/>
<path d="M226.981 91.0741L224.093 80.277C223.496 78.0428 220.217 78.9979 220.82 81.2378L223.708 92.0348C224.3 94.2579 227.579 93.314 226.981 91.0741Z" fill="#A3E5CF"/>
<path d="M206.638 75.5013L198.131 76.5626C195.986 76.8307 195.959 80.439 198.131 80.1653L206.638 79.104C208.783 78.8415 208.811 75.2332 206.638 75.5013Z" fill="#A3E5CF"/>
<path d="M195.858 66.3854C193.366 66.1904 190.953 65.426 188.803 64.1512C186.887 63.034 185.173 66.1453 187.088 67.2624C189.764 68.8319 192.764 69.7646 195.858 69.9882C198.042 70.1502 198.031 66.5474 195.858 66.3854Z" fill="#A3E5CF"/>
<path d="M196.863 50.2541C194.575 49.5807 192.484 48.3616 190.771 46.7018C189.057 45.0419 187.773 42.991 187.027 40.725C186.29 38.5578 183.005 39.4962 183.754 41.6857C185.765 47.6065 190.216 52.0807 195.964 53.734C198.07 54.3373 198.975 50.863 196.863 50.2541Z" fill="#A3E5CF"/>
<path d="M201.74 37.8484C200.369 34.5009 199.722 30.9013 199.841 27.2859C199.896 24.9679 196.489 24.9679 196.444 27.2859C196.346 31.5345 197.151 35.7555 198.807 39.6693C199.684 41.7863 202.611 39.9542 201.74 37.8484Z" fill="#A3E5CF"/>
<path d="M218.435 21.1919C215.434 24.9882 213.741 29.6536 213.609 34.4914C213.531 36.8094 216.927 36.8094 217.005 34.4914C217.099 30.5922 218.44 26.8257 220.831 23.7445C222.217 21.9683 219.826 19.4045 218.435 21.1919Z" fill="#A3E5CF"/>
<path d="M229.26 26.7776L225.959 35.8264C225.172 37.9936 228.45 38.9264 229.232 36.7871L232.533 27.7383C233.327 25.5711 230.042 24.6327 229.26 26.7776Z" fill="#A3E5CF"/>
<path d="M246.693 47.8076C242.966 46.3937 238.893 46.1636 235.03 47.1485C232.902 47.6735 233.801 51.1478 235.935 50.6227C239.212 49.807 242.662 50.0335 245.805 51.2707C247.855 52.0527 248.743 48.5672 246.693 47.8076Z" fill="#A3E5CF"/>
<path d="M247.425 74.0992L241.778 68.0723C240.236 66.4246 237.834 68.9716 239.376 70.6194L245.023 76.6463C246.565 78.2941 248.966 75.7358 247.425 74.0992Z" fill="#A3E5CF"/>
<path d="M233.796 81.9527V91.5656C233.796 92.0159 233.975 92.4478 234.293 92.7663C234.611 93.0847 235.043 93.2636 235.494 93.2636C235.944 93.2636 236.376 93.0847 236.694 92.7663C237.013 92.4478 237.192 92.0159 237.192 91.5656V81.9527C237.192 81.5023 237.013 81.0704 236.694 80.752C236.376 80.4335 235.944 80.2546 235.494 80.2546C235.043 80.2546 234.611 80.4335 234.293 80.752C233.975 81.0704 233.796 81.5023 233.796 81.9527Z" fill="#A3E5CF"/>
<path d="M214.09 59.1409C211.405 59.5229 208.671 58.9686 206.348 57.5713C204.432 56.4542 202.712 59.5654 204.633 60.6825C207.753 62.5219 211.42 63.2079 214.994 62.6208C217.145 62.2912 216.229 58.8225 214.09 59.1409Z" fill="#A3E5CF"/>
<path d="M219.899 41.3339C219.705 41.2197 219.489 41.1459 219.266 41.1168C219.043 41.0876 218.816 41.1038 218.599 41.1642C218.382 41.2247 218.18 41.3283 218.004 41.4688C217.828 41.6092 217.682 41.7837 217.575 41.9818L215.899 46.1878C215.685 46.6025 215.629 47.0808 215.741 47.5338C215.853 47.9868 216.126 48.3838 216.508 48.6511C216.702 48.7652 216.917 48.839 217.141 48.8682C217.364 48.8973 217.591 48.8812 217.808 48.8207C218.025 48.7602 218.227 48.6567 218.403 48.5162C218.579 48.3757 218.725 48.2012 218.832 48.0031L220.508 43.7972C220.721 43.3824 220.778 42.9042 220.666 42.4512C220.554 41.9981 220.281 41.6011 219.899 41.3339V41.3339Z" fill="#A3E5CF"/>
<path d="M225.87 59.7218C223.686 59.7218 223.68 63.3245 225.87 63.3245C228.059 63.3245 228.059 59.7218 225.87 59.7218Z" fill="#A3E5CF"/>
<path d="M228.07 76.6687C227.493 74.1848 226.407 71.8474 224.881 69.804C224.322 69.0276 223.077 69.184 222.479 69.804C222.169 70.1559 221.998 70.6086 221.998 71.0775C221.998 71.5464 222.169 71.9991 222.479 72.351C223.604 73.9337 224.393 75.7301 224.797 77.6295C225.306 79.8805 228.584 78.9253 228.07 76.6687Z" fill="#A3E5CF"/>
<path d="M242.493 57.0799C240.288 55.2806 237.638 54.1093 234.824 53.6894C232.684 53.3766 231.763 56.8453 233.919 57.1636C236.44 57.525 238.814 58.5744 240.778 60.1966C242.515 61.5986 244.213 58.4707 242.493 57.0799Z" fill="#A3E5CF"/>
<path d="M254.675 68.2566C253.756 65.4988 252.255 62.9709 250.273 60.8445C248.732 59.1688 246.33 61.7437 247.872 63.3915C249.448 65.0592 250.648 67.0459 251.391 69.2174C252.133 71.3846 255.418 70.4462 254.675 68.2566Z" fill="#A3E5CF"/>
<path d="M203.661 89.013C200.656 91.5968 197.058 93.3967 193.188 94.2523C191.054 94.7383 191.954 98.2125 194.093 97.7266C198.53 96.6976 202.644 94.5868 206.069 91.5824C207.761 90.1022 205.348 87.5663 203.661 89.013Z" fill="#A3E5CF"/>
<path d="M246.922 30.3301C244.227 31.364 241.641 32.6625 239.203 34.2065C237.331 35.3963 239.035 38.5131 240.917 37.3177C243.097 35.9213 245.409 34.7444 247.821 33.8044C249.866 33.0224 248.989 29.5369 246.922 30.3301Z" fill="#A3E5CF"/>
<path d="M37.6666 173.005C35.807 177.174 34.4531 181.55 33.6337 186.041C33.226 188.309 36.4992 189.281 36.9069 187.002C37.6459 182.811 38.8836 178.723 40.5934 174.825C41.5262 172.736 38.577 170.904 37.6666 173.005Z" fill="#A3E5CF"/>
<path d="M30.26 193.403C28.888 196.625 27.8583 199.982 27.1879 203.418C26.7522 205.681 30.0254 206.653 30.4611 204.379C31.0494 201.241 31.9648 198.172 33.1925 195.224C34.075 193.124 31.1481 191.286 30.26 193.403Z" fill="#A3E5CF"/>
<path d="M32.3601 218.93C32.1403 218.868 31.9102 218.852 31.684 218.883C31.4577 218.913 31.2401 218.99 31.0445 219.107C30.8489 219.225 30.6794 219.382 30.5464 219.567C30.4134 219.753 30.3197 219.963 30.2711 220.186C29.9513 222.351 29.8596 224.543 29.9974 226.727C30.1594 229.029 33.5555 229.045 33.3935 226.727C33.2497 224.865 33.3002 222.993 33.5443 221.142C33.6839 220.175 33.3153 219.22 32.3601 218.93Z" fill="#A3E5CF"/>
<path d="M36.4768 195.202C35.0756 198.205 34.017 201.357 33.3209 204.597C32.8406 206.831 36.1138 207.82 36.5941 205.558C37.2016 202.617 38.1384 199.754 39.387 197.023C40.37 194.945 37.4599 193.118 36.4768 195.202Z" fill="#A3E5CF"/>
<path d="M45.4585 175.859C45.2645 175.745 45.0494 175.671 44.8261 175.642C44.6028 175.613 44.376 175.629 44.1591 175.689C43.9422 175.75 43.7397 175.853 43.5638 175.994C43.3878 176.134 43.2419 176.309 43.1349 176.507L40.9007 181.338C40.6843 181.753 40.6267 182.232 40.7388 182.685C40.851 183.139 41.125 183.536 41.5095 183.802C41.7036 183.916 41.9187 183.99 42.1419 184.019C42.3652 184.048 42.5921 184.032 42.8089 183.971C43.0258 183.911 43.2283 183.807 43.4043 183.667C43.5802 183.526 43.7261 183.352 43.8331 183.154L46.0674 178.322C46.2838 177.908 46.3413 177.429 46.2292 176.975C46.1171 176.522 45.843 176.124 45.4585 175.859V175.859Z" fill="#A3E5CF"/>
<path d="M41.8558 206.999C41.1736 210.08 40.2986 213.115 39.2362 216.087C38.4598 218.26 41.7441 219.198 42.5094 217.047C43.5719 214.076 44.4468 211.041 45.129 207.96C45.6317 205.714 42.3585 204.765 41.8558 206.999Z" fill="#A3E5CF"/>
<path d="M55.5518 176.479C53.4482 180.69 51.7482 185.09 50.4745 189.622C49.8489 191.856 53.1276 192.8 53.7477 190.583C54.934 186.346 56.52 182.231 58.4843 178.294C59.5065 176.278 56.5796 174.429 55.5518 176.479Z" fill="#A3E5CF"/>
<path d="M53.5131 215.651C51.833 219.763 50.7242 224.085 50.2176 228.498C49.9494 230.794 53.3511 230.771 53.6136 228.498C54.0576 224.71 55.0121 220.999 56.4512 217.466C57.3002 215.377 54.3789 213.523 53.5131 215.651Z" fill="#A3E5CF"/>
<path d="M58.1882 196.76C57.9684 196.699 57.7383 196.683 57.5121 196.713C57.2858 196.744 57.0682 196.82 56.8726 196.938C56.677 197.056 56.5075 197.212 56.3745 197.398C56.2415 197.583 56.1478 197.794 56.0992 198.017L55.5406 201.62C55.4228 202.073 55.479 202.554 55.6982 202.967C55.9174 203.381 56.2837 203.697 56.7248 203.854C56.9446 203.916 57.1747 203.932 57.401 203.901C57.6272 203.87 57.8448 203.794 58.0404 203.676C58.236 203.559 58.4055 203.402 58.5385 203.217C58.6715 203.031 58.7652 202.82 58.8138 202.597L59.3724 198.995C59.4903 198.542 59.434 198.061 59.2148 197.647C58.9956 197.234 58.6293 196.917 58.1882 196.76V196.76Z" fill="#A3E5CF"/>
<path d="M71.8731 181.076C69.6891 181.076 69.6835 184.679 71.8731 184.679C74.0627 184.679 74.0627 181.076 71.8731 181.076Z" fill="#A3E5CF"/>
<path d="M68.3709 198.576L64.0699 216.74C63.0142 221.209 60.5956 226.895 60.9028 231.481C60.9531 232.207 61.3888 233.084 62.1484 233.218L62.545 233.291C62.9108 233.383 63.2968 233.352 63.6432 233.202C63.9895 233.053 64.277 232.793 64.4609 232.464L64.6229 232.151C64.8106 231.807 64.8806 231.411 64.8221 231.024C64.7636 230.637 64.5798 230.279 64.2989 230.006C64.5168 225.432 66.846 219.829 67.8347 215.645L71.6497 199.542C72.1803 197.28 68.9071 196.319 68.3709 198.576Z" fill="#A3E5CF"/>
<path d="M84.5469 172.424L80.637 182.478C80.4912 182.781 80.4554 183.126 80.5359 183.453C80.6164 183.781 80.8081 184.069 81.0782 184.271C80.4135 186.829 79.7823 189.393 79.2126 191.979C78.7155 194.213 82.0054 195.202 82.4858 192.94C83.9381 186.315 85.7125 179.799 87.8089 173.39C88.5518 171.144 85.3568 170.335 84.5469 172.424Z" fill="#A3E5CF"/>
<path d="M78.5033 208.742C77.1929 212.834 76.2984 217.048 75.8334 221.32C75.5709 223.616 78.9725 223.599 79.2295 221.32C79.6891 217.372 80.5443 213.48 81.7821 209.702C82.4859 207.502 79.2071 206.558 78.5033 208.742Z" fill="#A3E5CF"/>
<path d="M78.5368 235.821L77.5369 241.256C77.118 243.523 80.3912 244.49 80.8101 242.216L81.81 236.782C82.2289 234.514 78.9557 233.547 78.5368 235.821Z" fill="#A3E5CF"/>
<path d="M88.2894 196.693C88.2682 198.685 87.7601 200.641 86.8092 202.391C85.72 204.407 88.6525 206.222 89.7417 204.212C90.9871 201.901 91.654 199.323 91.6855 196.699C91.7413 194.37 88.3397 194.37 88.2894 196.693Z" fill="#A3E5CF"/>
<path d="M96.7851 182.277C94.6011 182.277 94.5955 185.879 96.7851 185.879C98.9747 185.879 98.9747 182.277 96.7851 182.277Z" fill="#A3E5CF"/>
<path d="M94.495 210.004C92.6974 216.141 91.2392 222.373 90.1271 228.671C89.7249 230.939 92.9981 231.911 93.4002 229.632C94.5177 223.332 95.9815 217.098 97.785 210.959C97.8477 210.743 97.8673 210.517 97.8425 210.293C97.8178 210.07 97.7493 209.853 97.6409 209.656C97.5325 209.459 97.3863 209.285 97.2107 209.144C97.0352 209.004 96.8336 208.899 96.6176 208.836C96.4016 208.774 96.1753 208.754 95.9517 208.779C95.7282 208.804 95.5116 208.872 95.3145 208.981C95.1174 209.089 94.9436 209.235 94.803 209.411C94.6624 209.586 94.5577 209.788 94.495 210.004V210.004Z" fill="#A3E5CF"/>
<path d="M105.214 172.736C103.584 177.659 102.344 182.701 101.505 187.818C101.131 190.085 104.404 191.063 104.778 188.778C105.617 183.662 106.857 178.619 108.487 173.697C109.213 171.502 105.934 170.558 105.214 172.736Z" fill="#A3E5CF"/>
<path d="M111.515 196.191L106.549 210.657C105.8 212.841 109.079 213.78 109.822 211.618L114.788 197.151C115.536 194.967 112.257 194.029 111.515 196.191Z" fill="#A3E5CF"/>
<path d="M124.87 194.649C123.102 197.925 121.914 201.481 121.356 205.161C121.016 207.429 124.289 208.406 124.63 206.122C125.118 202.745 126.19 199.479 127.797 196.47C128.886 194.453 125.953 192.632 124.87 194.649Z" fill="#A3E5CF"/>
<path d="M122.892 179.992L121.217 186.002C120.586 188.237 123.864 189.181 124.49 186.963L126.166 180.953C126.797 178.724 123.518 177.775 122.892 179.992Z" fill="#A3E5CF"/>
<path d="M143.682 199.838C140.99 206.425 138.902 213.244 137.443 220.209C136.974 222.443 140.236 223.437 140.716 221.17C142.085 214.502 144.056 207.971 146.604 201.659C147.497 199.548 144.548 197.71 143.682 199.838Z" fill="#A3E5CF"/>
<path d="M143.878 181.863C141.417 186.606 139.527 191.623 138.247 196.811C137.689 199.045 140.968 200.017 141.521 197.771C142.72 192.883 144.495 188.154 146.81 183.684C147.866 181.674 144.934 179.853 143.878 181.863Z" fill="#A3E5CF"/>
<path d="M155.742 206.44C154.5 209.886 153.695 213.474 153.345 217.12C153.111 219.421 156.507 219.405 156.742 217.12C157.094 213.798 157.86 210.533 159.02 207.401C159.786 205.228 156.524 204.29 155.742 206.44Z" fill="#A3E5CF"/>
<path d="M160.344 183.729C158.13 188.507 156.408 193.499 155.205 198.626C154.68 200.86 157.954 201.838 158.479 199.587C159.596 194.757 161.204 190.053 163.277 185.55C164.254 183.478 161.322 181.645 160.344 183.729Z" fill="#A3E5CF"/>
<path d="M177.291 211.853L173.264 224.448C172.56 226.649 175.839 227.593 176.537 225.409L180.564 212.813C181.268 210.607 177.989 209.663 177.291 211.853Z" fill="#A3E5CF"/>
<path d="M177.442 186.79C174.44 192.26 172.569 198.278 171.94 204.485C171.694 206.787 175.091 206.77 175.336 204.485C175.934 198.911 177.643 193.513 180.363 188.611C181.48 186.606 178.548 184.79 177.442 186.79Z" fill="#A3E5CF"/>
<path d="M171.923 215.936C171.477 215.832 171.007 215.908 170.617 216.149C170.227 216.39 169.947 216.775 169.84 217.221L168.723 220.237C168.594 220.69 168.645 221.176 168.866 221.592C169.086 222.008 169.459 222.323 169.907 222.471C170.35 222.578 170.818 222.506 171.209 222.271C171.6 222.036 171.883 221.656 171.996 221.214L173.113 218.198C173.25 217.74 173.202 217.247 172.98 216.824C172.757 216.401 172.378 216.082 171.923 215.936V215.936Z" fill="#A3E5CF"/>
<path d="M193.601 202.1C191.417 202.1 191.412 205.703 193.601 205.703C195.791 205.703 195.791 202.1 193.601 202.1Z" fill="#A3E5CF"/>
<path d="M196.997 224.314C194.813 224.314 194.808 227.917 196.997 227.917C199.187 227.917 199.187 224.314 196.997 224.314Z" fill="#A3E5CF"/>
<path d="M213.475 193.811L210.057 204.022C209.325 206.211 212.609 207.155 213.33 204.982L216.759 194.766C217.48 192.577 214.201 191.633 213.475 193.811Z" fill="#A3E5CF"/>
<path d="M185.189 217.243L184.072 222.65C183.597 224.884 186.865 225.873 187.345 223.611L188.463 218.204C188.937 215.936 185.664 214.975 185.189 217.243Z" fill="#A3E5CF"/>
<path d="M195.4 187.092C195.036 190.415 194.253 193.678 193.071 196.805C192.266 198.961 195.551 199.899 196.344 197.766C197.61 194.328 198.434 190.743 198.796 187.097C199.042 184.79 195.64 184.807 195.4 187.092Z" fill="#A3E5CF"/>
<path d="M200.807 204.541C200.467 208.017 199.676 211.435 198.455 214.707C197.662 216.869 200.941 217.807 201.728 215.668C203.034 212.082 203.866 208.342 204.203 204.541C204.421 202.234 201.025 202.251 200.807 204.541Z" fill="#A3E5CF"/>
<path d="M211.269 223.259L209.872 231.637C209.493 233.905 212.766 234.877 213.146 232.598L214.542 224.219C214.922 221.946 211.649 220.963 211.269 223.259Z" fill="#A3E5CF"/>
<path d="M221.446 201.111C219.33 204.901 217.617 208.902 216.335 213.048C215.648 215.282 218.927 216.204 219.608 214.009C220.806 210.162 222.405 206.451 224.378 202.938C225.501 200.933 222.563 199.117 221.446 201.111Z" fill="#A3E5CF"/>
<path d="M226.585 210.763L221.558 222.214C220.641 224.303 223.568 226.124 224.49 224.035L229.517 212.584C230.439 210.49 227.512 208.674 226.585 210.763Z" fill="#A3E5CF"/>
<path d="M231.187 222.209C229.487 225.291 228.269 228.616 227.573 232.067C227.121 234.302 230.26 235.279 230.846 233.028L231.405 230.794C231.437 230.669 231.458 230.542 231.466 230.414C232.101 228.19 232.983 226.045 234.097 224.018C235.226 222.019 232.288 220.203 231.187 222.209Z" fill="#A3E5CF"/>
<path d="M236.868 208.903L233.824 216.617C232.98 218.751 236.265 219.684 237.097 217.578L240.141 209.864C240.968 207.725 237.683 206.792 236.868 208.903Z" fill="#A3E5CF"/>
<path d="M239.851 234.581C239.407 234.474 238.939 234.546 238.549 234.781C238.158 235.016 237.875 235.396 237.762 235.838L236.644 238.854C236.515 239.307 236.567 239.793 236.787 240.209C237.008 240.625 237.381 240.94 237.829 241.088C238.272 241.195 238.74 241.123 239.131 240.888C239.521 240.653 239.804 240.273 239.918 239.831L241.035 236.815C241.164 236.362 241.113 235.876 240.892 235.46C240.671 235.044 240.298 234.729 239.851 234.581V234.581Z" fill="#A3E5CF"/>
<path d="M246.525 221.639L244.364 225.901C243.325 227.945 246.257 229.766 247.296 227.722L249.458 223.46C250.497 221.415 247.564 219.594 246.525 221.639Z" fill="#A3E5CF"/>
<path d="M251.675 234.882C250.06 238.433 248.127 241.83 245.9 245.032C244.598 246.897 247.548 248.701 248.832 246.853C251.06 243.651 252.993 240.254 254.608 236.703C255.557 234.62 252.625 232.788 251.675 234.882Z" fill="#A3E5CF"/>
<path d="M109.202 220.214L107.197 228.694C106.638 230.928 109.939 231.905 110.47 229.654L112.475 221.175C113.011 218.924 109.733 217.963 109.202 220.214Z" fill="#A3E5CF"/>
<path d="M100.717 240.513C98.7042 243.217 97.3448 246.35 96.7461 249.668C96.3439 251.935 99.6171 252.907 100.019 250.628C100.458 247.901 101.519 245.311 103.119 243.06C104.438 241.239 102.052 238.67 100.717 240.513Z" fill="#A3E5CF"/>
<path d="M115.564 241.943C113.579 245.239 112.266 248.895 111.699 252.701C111.358 254.968 114.631 255.946 114.972 253.661C115.473 250.16 116.67 246.795 118.491 243.764C119.675 241.803 116.737 239.993 115.564 241.943Z" fill="#A3E5CF"/>
<path d="M126.372 240.792C124.661 244.573 123.499 248.58 122.92 252.69C122.608 254.957 125.881 255.94 126.194 253.65C126.696 249.845 127.738 246.13 129.288 242.619C130.238 240.513 127.311 238.697 126.372 240.792Z" fill="#A3E5CF"/>
<path d="M121.876 215.578C120.023 219.559 118.624 223.736 117.704 228.029C117.223 230.263 120.496 231.252 120.977 228.99C121.816 224.995 123.101 221.107 124.808 217.399C125.769 215.327 122.842 213.495 121.876 215.578Z" fill="#A3E5CF"/>
<path d="M134.935 228.224C133.523 230.805 132.517 233.588 131.952 236.474C131.511 238.737 134.784 239.708 135.226 237.435C135.718 234.85 136.609 232.357 137.868 230.045C138.968 228.023 136.036 226.208 134.935 228.224Z" fill="#A3E5CF"/>
<path d="M140.873 238.211L136.404 250.26C135.605 252.421 138.89 253.36 139.677 251.22L144.146 239.172C144.945 237.005 141.66 236.044 140.873 238.211Z" fill="#A3E5CF"/>
<path d="M153.686 247.478L150.29 254.086C149.246 256.125 152.172 257.946 153.223 255.907L156.619 249.299C157.663 247.26 154.759 245.439 153.686 247.478Z" fill="#A3E5CF"/>
<path d="M153.005 230.576C151.501 232.756 150.337 235.151 149.553 237.681C148.855 239.887 152.133 240.831 152.826 238.642C153.539 236.414 154.588 234.308 155.937 232.397C157.239 230.531 154.295 228.733 153.005 230.576Z" fill="#A3E5CF"/>
<path d="M168.857 243.205L163.83 253.46C162.824 255.516 165.751 257.342 166.762 255.281L171.789 245.026C172.795 242.97 169.84 241.144 168.857 243.205Z" fill="#A3E5CF"/>
<path d="M165.422 232.978L162.629 238.999C161.663 241.071 164.589 242.909 165.561 240.82L168.354 234.799C169.321 232.726 166.394 230.894 165.422 232.978Z" fill="#A3E5CF"/>
<path d="M182.341 245.495L180.402 250.405C180.19 250.964 179.615 253.075 179.067 254.214C178.734 254.265 178.424 254.413 178.175 254.64C177.925 254.866 177.748 255.161 177.665 255.488C177.555 255.877 177.549 256.287 177.647 256.679C177.745 257.072 177.944 257.431 178.224 257.722C178.486 257.993 178.83 258.167 179.203 258.218C179.576 258.269 179.955 258.192 180.28 258.001C181.86 257.242 182.324 254.784 182.938 253.22L185.619 246.422C186.457 244.317 183.173 243.384 182.341 245.495Z" fill="#A3E5CF"/>
<path d="M193.171 229.855C192.311 229.297 191.395 229.727 190.848 230.503L186.519 236.647C186.293 237.06 186.231 237.541 186.344 237.998C186.456 238.454 186.736 238.851 187.128 239.111C187.988 239.669 188.904 239.239 189.451 238.463L193.78 232.319C194.005 231.906 194.068 231.425 193.955 230.968C193.842 230.512 193.563 230.115 193.171 229.855V229.855Z" fill="#A3E5CF"/>
<path d="M194.327 252.801C193.088 255.743 191.632 258.588 189.971 261.314C188.781 263.269 191.719 265.078 192.903 263.135C194.564 260.409 196.02 257.564 197.26 254.622C198.142 252.539 195.221 250.707 194.327 252.801Z" fill="#A3E5CF"/>
<path d="M207.431 254.661C205.77 258.022 204.569 261.592 203.862 265.274C203.432 267.536 206.705 268.508 207.135 266.235C207.765 262.845 208.851 259.557 210.364 256.46C211.375 254.427 208.442 252.6 207.431 254.661Z" fill="#A3E5CF"/>
<path d="M204.588 236.631C203.262 238.824 202.252 241.193 201.589 243.669C200.986 245.903 204.259 246.858 204.862 244.629C205.45 242.454 206.345 240.374 207.521 238.452C208.711 236.497 205.773 234.687 204.588 236.631Z" fill="#A3E5CF"/>
<path d="M216.274 262.855L213.844 269.999C213.101 272.183 216.38 273.127 217.117 270.96L219.552 263.838C220.29 261.654 217.011 260.716 216.274 262.855Z" fill="#A3E5CF"/>
<path d="M218.262 244.16C217.818 244.05 217.349 244.121 216.958 244.357C216.566 244.592 216.284 244.974 216.173 245.417L214.497 250.226C214.37 250.679 214.422 251.164 214.642 251.58C214.863 251.996 215.235 252.312 215.681 252.46C216.125 252.57 216.594 252.5 216.986 252.264C217.377 252.028 217.66 251.647 217.771 251.204L219.446 246.394C219.574 245.941 219.522 245.456 219.301 245.04C219.081 244.624 218.709 244.309 218.262 244.16V244.16Z" fill="#A3E5CF"/>
<path d="M227.931 257.739C225.826 261.488 224.612 265.672 224.384 269.966C224.244 272.284 227.646 272.273 227.78 269.966C227.994 266.306 229.049 262.745 230.863 259.56C231.975 257.56 229.048 255.745 227.931 257.739Z" fill="#A3E5CF"/>
<path d="M230.724 240.887L227.813 247.456C226.892 249.545 229.819 251.366 230.746 249.277L233.656 242.708C234.583 240.619 231.656 238.787 230.724 240.887Z" fill="#A3E5CF"/>
<path d="M237.209 261.074L233.701 270.011C232.863 272.15 236.147 273.083 236.974 270.971L240.482 262.034C241.336 259.889 238.035 258.945 237.209 261.074Z" fill="#A3E5CF"/>
</svg>
