<svg width="293" height="381" viewBox="0 0 293 381" fill="none" xmlns="http://www.w3.org/2000/svg">
<path d="M277.387 168.862H277.376C260.838 148.896 235.096 140.176 210.358 145.703L207.369 133.046C206.636 129.928 204.915 127.13 202.462 125.071C199.608 115.753 193.595 107.778 185.845 102.747C185.66 101.557 185.318 100.396 184.83 99.2948C184.706 99.0242 184.571 98.7534 184.435 98.4826C185.732 83.2765 177.723 67.7881 164.277 61.0988C155.106 56.5525 145.472 56.2255 136.019 57.4326C134.022 35.2662 121.445 14.2276 102.425 2.63143C100.373 1.38026 97.9745 0.817293 95.5798 1.02459C93.1851 1.23188 90.9191 2.1986 89.1123 3.78383C87.3055 5.36906 86.0521 7.48994 85.535 9.83734C85.0179 12.1847 85.264 14.6359 86.2375 16.8336C89.2157 23.5794 86.5871 32.1302 83.1128 37.906C77.3821 47.4717 67.6132 55.5034 51.4481 63.9298C50.4328 64.4604 49.4065 64.9901 48.3797 65.5093C42.3674 68.5889 36.163 71.781 30.3084 76.3837C21.3966 83.4906 15.7224 92.5828 14.3463 102.002C13.3745 108.683 14.665 115.497 18.0124 121.36C8.66004 130.226 2.74969 140.39 0.775627 151.05C-1.48041 163.188 1.20398 174.04 8.58189 182.828C8.60387 184.172 8.80489 185.507 9.17965 186.799L62.3452 364.31C65.3234 374.361 74.7087 380.983 84.7934 380.983C86.8326 380.984 88.8626 380.711 90.8288 380.17L233.449 341.422C245.632 338.116 252.92 325.876 250.043 313.525L243.839 287.308C259.671 277.514 272.988 264.147 282.723 248.278C282.779 248.187 282.836 248.097 282.892 247.996L283.106 247.623C290.449 235.526 293.843 221.444 292.818 207.33C291.794 193.216 286.4 179.771 277.387 168.862V168.862ZM243.613 223.675L243.286 224.205C240.194 229.292 236.472 233.969 232.208 238.124L220.995 190.678C225.154 189.929 229.441 190.398 233.34 192.028C237.239 193.657 240.584 196.379 242.973 199.864C245.362 203.35 246.693 207.451 246.807 211.675C246.921 215.899 245.811 220.067 243.613 223.675V223.675Z" fill="white"/>
<path d="M191.212 132.127C190.62 132.172 190.051 132.38 189.569 132.726C178.845 140.108 146.659 152.067 107.789 162.629C68.8628 173.207 34.9934 179.197 22.0575 178.213C21.2804 178.165 20.5089 178.374 19.8633 178.81C12.5465 172.719 8.12352 164.435 10.3905 152.283C12.7773 139.333 22.4998 128.826 33.3947 121.398C26.4952 118.53 22.9444 110.192 24.0263 102.799C25.1081 95.4056 30.0144 89.0227 35.851 84.3759C41.7242 79.7501 48.5645 76.5451 55.1852 73.0938C69.2839 65.7433 83.1436 56.4999 91.3121 42.8663C96.9593 33.467 99.5163 21.4807 95.0718 11.4277C114.692 23.3863 126.135 47.481 123.045 70.2311C134.575 67.6181 147.175 65.1124 157.784 70.3697C170.803 76.8385 175.937 95.395 168.091 107.625C180.125 109.007 189.514 120.134 191.212 132.127Z" fill="#F4ECE6"/>
<path d="M267.213 175.217C252.004 156.858 227.759 150.288 206.159 157.289C204.301 157.851 202.484 158.539 200.72 159.348L200.713 159.352L194.914 134.824C194.724 134.005 194.245 133.281 193.565 132.786C192.886 132.291 192.05 132.057 191.212 132.127C190.62 132.172 190.052 132.38 189.57 132.726C178.846 140.108 146.66 152.067 107.79 162.629C68.8629 173.207 34.9935 179.197 22.0576 178.213C21.493 178.175 20.9275 178.275 20.4104 178.505C19.8933 178.735 19.4401 179.087 19.0904 179.532C18.7408 179.977 18.5051 180.501 18.404 181.058C18.3029 181.614 18.3394 182.188 18.5104 182.727L71.6801 360.269C72.577 363.284 74.6182 365.828 77.3672 367.358C80.1161 368.887 83.3543 369.279 86.3891 368.451L229.015 329.696C232.031 328.869 234.609 326.905 236.207 324.217C237.805 321.529 238.298 318.326 237.583 315.281L229.438 280.837L229.446 280.833C231.545 279.773 233.585 278.607 235.58 277.391C250.289 268.503 262.649 256.214 271.622 241.556L271.912 241.049C278.08 230.953 280.942 219.183 280.1 207.381C279.257 195.58 274.752 184.335 267.213 175.217V175.217ZM251.74 228.75L251.442 229.229C245.795 238.498 238.379 246.564 229.617 252.969C227.762 254.361 225.797 255.69 223.802 256.905C223.796 256.909 223.789 256.913 223.783 256.916L206.302 182.991L206.316 182.982C208.061 181.932 209.899 181.043 211.806 180.327C218.278 177.912 225.342 177.575 232.014 179.364C238.686 181.153 244.634 184.979 249.029 190.308C253.424 195.637 256.047 202.205 256.533 209.095C257.019 215.986 255.344 222.857 251.74 228.75Z" fill="#E02C37"/>
<path d="M62.322 95.8869C65.3448 95.8869 67.7953 93.4364 67.7953 90.4136C67.7953 87.3908 65.3448 84.9402 62.322 84.9402C59.2991 84.9402 56.8486 87.3908 56.8486 90.4136C56.8486 93.4364 59.2991 95.8869 62.322 95.8869Z" fill="#CC894C"/>
<path d="M143.285 102.333C146.308 102.333 148.758 99.882 148.758 96.8592C148.758 93.8364 146.308 91.3859 143.285 91.3859C140.262 91.3859 137.812 93.8364 137.812 96.8592C137.812 99.882 140.262 102.333 143.285 102.333Z" fill="#CC894C"/>
<path d="M160.954 134.646C163.977 134.646 166.428 132.195 166.428 129.172C166.428 126.15 163.977 123.699 160.954 123.699C157.931 123.699 155.481 126.15 155.481 129.172C155.481 132.195 157.931 134.646 160.954 134.646Z" fill="#CC894C"/>
<path d="M102.681 74.3423C105.755 74.3423 108.247 71.8503 108.247 68.7762C108.247 65.7022 105.755 63.2101 102.681 63.2101C99.6072 63.2101 97.1152 65.7022 97.1152 68.7762C97.1152 71.8503 99.6072 74.3423 102.681 74.3423Z" fill="#CC894C"/>
<path d="M112.075 130.141C115.149 130.141 117.641 127.649 117.641 124.575C117.641 121.501 115.149 119.009 112.075 119.009C109.001 119.009 106.509 121.501 106.509 124.575C106.509 127.649 109.001 130.141 112.075 130.141Z" fill="#CC894C"/>
<path d="M73.3678 149.013C76.4419 149.013 78.9339 146.521 78.9339 143.447C78.9339 140.373 76.4419 137.881 73.3678 137.881C70.2938 137.881 67.8018 140.373 67.8018 143.447C67.8018 146.521 70.2938 149.013 73.3678 149.013Z" fill="#CC894C"/>
<path d="M40.0661 158.062C43.1401 158.062 45.6321 155.57 45.6321 152.496C45.6321 149.422 43.1401 146.93 40.0661 146.93C36.992 146.93 34.5 149.422 34.5 152.496C34.5 155.57 36.992 158.062 40.0661 158.062Z" fill="#CC894C"/>
<path d="M30.5214 125.791C66.7805 116.684 99.8511 97.8158 126.141 71.2354C128.143 69.2077 124.99 66.0969 122.98 68.1305C97.2431 94.1529 64.8617 112.618 29.3597 121.517C26.5927 122.209 27.7544 126.483 30.5214 125.791Z" fill="#0C1F26"/>
<path d="M169.425 102.263C155.114 116.468 138.763 128.459 120.914 137.839C118.393 139.166 120.648 142.979 123.171 141.652C141.353 132.079 158.007 119.85 172.585 105.368C174.608 103.36 171.452 100.25 169.425 102.263V102.263Z" fill="#0C1F26"/>
<path d="M229.617 252.969L235.58 277.39C233.585 278.606 231.546 279.772 229.446 280.832L223.802 256.905C225.797 255.69 227.762 254.361 229.617 252.969Z" fill="#0C1F26"/>
<path d="M206.158 157.289L211.806 180.327C209.899 181.043 208.061 181.931 206.316 182.982L200.72 159.349C202.484 158.539 204.301 157.851 206.158 157.289V157.289Z" fill="#0C1F26"/>
<path d="M167.141 240.308L160.345 242.155L163.18 236.533C163.445 236 163.487 235.383 163.299 234.818C163.111 234.253 162.707 233.785 162.175 233.517C161.644 233.249 161.027 233.201 160.461 233.385C159.894 233.569 159.424 233.969 159.151 234.499L154.486 243.747L149.253 245.169L154.674 234.416C154.81 234.151 154.893 233.862 154.917 233.565C154.941 233.268 154.906 232.969 154.814 232.686C154.722 232.403 154.575 232.141 154.381 231.914C154.187 231.688 153.95 231.503 153.685 231.369C153.419 231.234 153.129 231.154 152.832 231.132C152.535 231.111 152.236 231.148 151.954 231.242C151.671 231.336 151.41 231.485 151.185 231.681C150.961 231.877 150.777 232.115 150.645 232.382L143.395 246.762L130.965 250.139L127.877 238.772L136.803 225.233C136.966 224.986 137.079 224.709 137.135 224.418C137.191 224.127 137.189 223.828 137.13 223.537C137.07 223.247 136.954 222.971 136.788 222.726C136.622 222.481 136.409 222.27 136.161 222.107C135.914 221.944 135.637 221.831 135.346 221.775C135.055 221.719 134.756 221.721 134.465 221.781C134.175 221.84 133.899 221.956 133.654 222.122C133.409 222.289 133.198 222.501 133.035 222.749L126.299 232.967L124.887 227.772L130.679 218.988C130.843 218.74 130.955 218.463 131.011 218.172C131.067 217.881 131.066 217.582 131.006 217.292C130.947 217.002 130.83 216.726 130.664 216.48C130.498 216.235 130.285 216.025 130.038 215.862C129.791 215.698 129.513 215.586 129.222 215.53C128.931 215.474 128.632 215.475 128.342 215.535C128.052 215.594 127.776 215.711 127.531 215.877C127.285 216.043 127.075 216.256 126.912 216.503L123.31 221.965L121.446 215.104C121.287 214.529 120.907 214.04 120.388 213.744C119.87 213.449 119.255 213.371 118.679 213.527C118.103 213.684 117.613 214.062 117.315 214.579C117.017 215.096 116.936 215.71 117.09 216.287L118.936 223.083L113.315 220.248C112.781 219.983 112.165 219.941 111.6 220.129C111.035 220.317 110.567 220.721 110.298 221.253C110.03 221.785 109.983 222.401 110.167 222.967C110.351 223.534 110.751 224.005 111.281 224.277L120.528 228.941L121.95 234.174L111.199 228.753C110.666 228.488 110.049 228.446 109.484 228.634C108.919 228.822 108.451 229.226 108.183 229.758C107.914 230.29 107.867 230.906 108.051 231.472C108.235 232.039 108.635 232.51 109.165 232.782L123.542 240.033L126.609 251.321L113.731 254.82L100.424 246.045C100.177 245.882 99.8995 245.769 99.6086 245.713C99.3176 245.657 99.0184 245.659 98.7281 245.719C98.4378 245.778 98.1621 245.894 97.9167 246.06C97.6714 246.227 97.4611 246.439 97.298 246.687C97.1349 246.934 97.0221 247.211 96.966 247.502C96.91 247.793 96.9118 248.092 96.9714 248.383C97.031 248.673 97.1472 248.949 97.3133 249.194C97.4794 249.44 97.6923 249.65 97.9397 249.813L107.926 256.398L102.731 257.809L94.1789 252.17C93.9315 252.007 93.6544 251.894 93.3634 251.838C93.0724 251.782 92.7732 251.784 92.483 251.843C92.1927 251.903 91.917 252.019 91.6716 252.185C91.4262 252.351 91.216 252.564 91.0528 252.812C90.8897 253.059 90.7769 253.336 90.7209 253.627C90.6648 253.918 90.6667 254.217 90.7263 254.508C90.7858 254.798 90.902 255.073 91.0682 255.319C91.2343 255.564 91.4471 255.775 91.6945 255.938L96.9248 259.386L90.4318 261.15C90.1447 261.227 89.8755 261.36 89.6397 261.541C89.4039 261.721 89.2062 261.947 89.0579 262.205C88.9096 262.462 88.8136 262.747 88.7755 263.041C88.7374 263.336 88.7578 263.636 88.8357 263.922C88.9136 264.209 89.0474 264.478 89.2293 264.713C89.4113 264.948 89.6379 265.144 89.8961 265.292C90.1543 265.439 90.4391 265.534 90.734 265.57C91.0289 265.607 91.3282 265.585 91.6147 265.506L98.4027 263.662L95.4411 269.535C95.3076 269.799 95.2274 270.088 95.2052 270.383C95.1831 270.679 95.2193 270.976 95.312 271.257C95.4046 271.539 95.5517 271.799 95.745 272.024C95.9383 272.249 96.174 272.433 96.4385 272.567C96.7031 272.7 96.9913 272.78 97.2869 272.802C97.5824 272.825 97.8794 272.788 98.1609 272.696C98.4424 272.603 98.7029 272.456 98.9276 272.263C99.1522 272.069 99.3366 271.834 99.4702 271.569L104.261 262.07L109.494 260.648L103.944 271.651C103.808 271.916 103.725 272.205 103.701 272.502C103.677 272.799 103.712 273.097 103.804 273.381C103.896 273.664 104.043 273.926 104.237 274.152C104.431 274.378 104.668 274.564 104.934 274.698C105.2 274.832 105.489 274.913 105.786 274.934C106.083 274.956 106.382 274.919 106.664 274.825C106.947 274.73 107.208 274.581 107.433 274.386C107.657 274.19 107.841 273.952 107.973 273.685L115.353 259.056L127.793 255.677L131.603 269.698L122.83 283.004C122.667 283.252 122.555 283.529 122.498 283.82C122.442 284.111 122.444 284.41 122.504 284.7C122.563 284.991 122.68 285.266 122.846 285.512C123.012 285.757 123.225 285.967 123.472 286.13C123.72 286.294 123.997 286.406 124.288 286.462C124.579 286.518 124.878 286.517 125.168 286.457C125.458 286.397 125.734 286.281 125.979 286.115C126.225 285.949 126.435 285.736 126.598 285.489L133.181 275.504L134.592 280.698L128.954 289.25C128.788 289.497 128.673 289.775 128.615 290.067C128.556 290.359 128.557 290.66 128.616 290.952C128.674 291.244 128.79 291.522 128.957 291.769C129.123 292.016 129.337 292.227 129.586 292.391C129.834 292.555 130.113 292.668 130.406 292.724C130.698 292.78 130.999 292.777 131.29 292.716C131.582 292.655 131.859 292.537 132.104 292.368C132.35 292.2 132.56 291.985 132.722 291.735L136.17 286.504L137.934 292.997C138.096 293.569 138.477 294.054 138.995 294.347C139.512 294.64 140.124 294.716 140.698 294.561C141.271 294.405 141.76 294.029 142.058 293.515C142.357 293.001 142.44 292.39 142.291 291.814L140.446 285.027L146.319 287.988C146.584 288.123 146.872 288.205 147.169 288.228C147.465 288.251 147.763 288.215 148.045 288.123C148.328 288.031 148.589 287.884 148.815 287.69C149.04 287.496 149.225 287.26 149.359 286.995C149.493 286.73 149.573 286.441 149.595 286.144C149.617 285.848 149.58 285.55 149.487 285.268C149.393 284.986 149.245 284.725 149.051 284.5C148.856 284.276 148.619 284.092 148.353 283.959L138.854 279.168L137.432 273.935L148.435 279.485C148.969 279.752 149.587 279.797 150.154 279.609C150.72 279.421 151.189 279.017 151.459 278.484C151.728 277.951 151.775 277.333 151.589 276.766C151.404 276.198 151.001 275.727 150.469 275.456L135.84 268.076L132.149 254.495L144.659 251.096L158.198 260.023C158.697 260.352 159.307 260.47 159.894 260.349C160.48 260.229 160.994 259.881 161.324 259.381C161.653 258.881 161.771 258.271 161.65 257.685C161.53 257.099 161.182 256.584 160.682 256.255L150.464 249.518L155.659 248.107L164.443 253.899C164.943 254.223 165.55 254.336 166.133 254.214C166.716 254.092 167.227 253.745 167.555 253.247C167.882 252.75 168 252.144 167.883 251.56C167.766 250.977 167.422 250.463 166.928 250.131L161.464 246.529L168.325 244.665C168.612 244.589 168.881 244.456 169.117 244.275C169.353 244.094 169.55 243.868 169.699 243.611C169.847 243.353 169.943 243.069 169.981 242.774C170.019 242.479 169.999 242.18 169.921 241.893C169.843 241.606 169.709 241.338 169.527 241.103C169.345 240.868 169.119 240.671 168.86 240.524C168.602 240.377 168.317 240.282 168.023 240.245C167.728 240.208 167.428 240.23 167.142 240.309L167.141 240.308Z" fill="white"/>
</svg>
