<svg width="152" height="234" viewBox="0 0 152 234" fill="none" xmlns="http://www.w3.org/2000/svg">
<path d="M76.43 40.94C76.43 40.94 68.71 8.26 107.27 0C107.27 0 113.45 35.02 76.43 40.94V40.94Z" fill="#C0C0C0"/>
<path d="M76.2402 49.82C76.2402 49.82 51.1602 34.05 40.4502 68.77C29.7402 103.49 16.5402 119.93 9.70022 130.52C-1.78978 148.31 -3.82978 182.31 15.4402 207.71C31.2702 228.58 55.6802 233.59 75.2302 233.98C94.7802 234.37 120.23 226.08 135 210.26C149.77 194.44 151.44 172.08 151.63 165.23C151.63 165.23 121.93 156.1 115.08 131C108.23 105.9 119.6 93.13 119.6 93.13C119.6 93.13 110.51 77.05 106.96 63.32C103.19 48.78 91.7502 38.61 76.2402 49.82V49.82Z" fill="#C0C0C0"/>
</svg>
