<svg width="40" height="40" viewBox="0 0 40 40" fill="none" xmlns="http://www.w3.org/2000/svg">
<path d="M29.5166 10.2499C29.1 8.96659 27.9833 8.68325 27.4166 7.94992C26.9 7.18325 26.9666 6.03325 25.8833 5.24992C24.8 4.46659 23.7166 4.86659 22.8333 4.61659C21.95 4.36659 21.35 3.33325 20 3.33325C18.65 3.33325 18.0333 4.29992 17.1666 4.61659C16.3 4.93325 15.2166 4.44992 14.1166 5.24992C13.0166 6.04992 13.1 7.18325 12.5833 7.94992C12.0166 8.68325 10.9166 8.96659 10.4833 10.2499C10.05 11.5333 10.8333 12.4166 10.8333 13.3333C10.8333 14.2499 9.99996 15.1333 10.4833 16.4166C10.9666 17.6999 12.0166 17.9833 12.5833 18.7166C13.1 19.4833 13.0333 20.6333 14.1166 21.4166C15.2 22.1999 16.2833 21.7999 17.1666 22.0499C18.05 22.2999 18.65 23.3333 20 23.3333C21.35 23.3333 21.9666 22.3666 22.8333 22.0499C23.7 21.7333 24.7833 22.2166 25.8833 21.4166C26.9833 20.6166 26.9 19.4833 27.4166 18.7166C27.9833 17.9833 29.0833 17.6999 29.5166 16.4166C29.95 15.1333 29.1666 14.2499 29.1666 13.3333C29.1666 12.4166 30 11.5333 29.5166 10.2499ZM20 19.9999C18.6814 19.9999 17.3925 19.6089 16.2962 18.8764C15.1998 18.1438 14.3453 17.1026 13.8408 15.8845C13.3362 14.6663 13.2042 13.3259 13.4614 12.0326C13.7186 10.7394 14.3536 9.55156 15.2859 8.61921C16.2183 7.68686 17.4061 7.05192 18.6994 6.79468C19.9926 6.53745 21.333 6.66947 22.5512 7.17406C23.7694 7.67864 24.8105 8.53312 25.5431 9.62945C26.2756 10.7258 26.6666 12.0147 26.6666 13.3333C26.6666 15.1014 25.9642 16.7971 24.714 18.0473C23.4638 19.2975 21.7681 19.9999 20 19.9999ZM23.3333 13.3333C23.3333 13.9925 23.1378 14.637 22.7715 15.1852C22.4053 15.7333 21.8847 16.1606 21.2756 16.4129C20.6665 16.6651 19.9963 16.7312 19.3497 16.6025C18.7031 16.4739 18.1091 16.1564 17.6429 15.6903C17.1768 15.2241 16.8593 14.6302 16.7307 13.9836C16.6021 13.3369 16.6681 12.6667 16.9204 12.0576C17.1727 11.4486 17.5999 10.928 18.1481 10.5617C18.6962 10.1954 19.3407 9.99992 20 9.99992C20.884 9.99992 21.7319 10.3511 22.357 10.9762C22.9821 11.6014 23.3333 12.4492 23.3333 13.3333ZM22.85 25.9333L21.8 31.9333L20.5833 38.8166L16.2333 34.6666L10.7333 37.0833L12.95 24.5833C13.9268 25.071 15.0085 25.3114 16.1 25.2833C16.7692 25.7938 17.5261 26.1779 18.3333 26.4166C18.8728 26.5845 19.4349 26.6688 20 26.6666C20.997 26.6697 21.9782 26.4172 22.85 25.9333M29.8666 31.2999L25.5666 29.7666L26.4166 24.8666C26.9239 24.6894 27.4016 24.4365 27.8333 24.1166L28.0333 23.9499L29.8666 31.2999Z" fill="#00A88B"/>
</svg>
